<svg width="280" height="195" viewBox="0 0 280 195" fill="none" xmlns="http://www.w3.org/2000/svg">
<path d="M276 184.011H4V186H276V184.011Z" fill="#85848B"/>
<path d="M219.495 148.885C219.495 150.416 210.583 154.877 199.996 154.877C189.41 154.877 181.161 150.416 181.161 148.885C181.161 147.355 189.742 147.848 200.338 147.848C210.935 147.848 219.495 147.352 219.495 148.885Z" fill="#504F60"/>
<path opacity="0.2" d="M219.495 148.885C219.495 150.415 210.583 154.876 199.996 154.876C189.41 154.876 181.161 150.415 181.161 148.885" fill="black"/>
<path d="M112.883 120.807C114.601 121.027 116.384 121.168 118.029 120.633C118.289 120.553 118.574 120.374 118.548 120.115C118.529 120.02 118.489 119.932 118.431 119.855C117.811 118.924 117.29 117.93 116.876 116.891C116.86 116.836 116.826 116.789 116.78 116.756C116.727 116.736 116.668 116.736 116.614 116.756C115.855 116.955 115.199 117.446 114.445 117.656C114.061 117.761 113.659 117.791 113.264 117.744C112.921 117.705 112.455 117.422 112.144 117.459C112.32 118.592 112.75 119.65 112.883 120.807Z" fill="#009F36"/>
<path d="M145.377 117.936C146.51 117.158 147.684 116.341 148.352 115.14C148.4 115.068 148.428 114.985 148.433 114.899C148.421 114.814 148.388 114.734 148.337 114.665C147.7 113.652 146.88 112.766 145.919 112.054C145.418 112.408 144.965 112.827 144.571 113.299C144.286 113.6 143.498 114.077 143.491 114.536C143.491 114.795 143.791 115.096 143.931 115.314C144.12 115.594 144.299 115.879 144.47 116.17C144.569 116.312 145.468 117.879 145.377 117.936Z" fill="#009F36"/>
<path d="M119.618 124.28C119.638 124.547 119.565 124.813 119.41 125.032C119.289 125.154 119.14 125.243 118.975 125.291C116.573 126.152 113.792 125.079 111.395 125.927C110.902 126.101 110.436 126.352 109.941 126.518C109.351 126.696 108.742 126.804 108.127 126.84C107.279 126.92 106.427 126.972 105.577 126.995C104.931 127.041 104.282 126.984 103.654 126.827C103.34 126.746 103.046 126.601 102.792 126.399C102.538 126.198 102.329 125.945 102.179 125.657C102.049 125.399 102.023 125.101 102.107 124.824C102.144 124.73 102.198 124.642 102.265 124.565C102.427 124.383 102.618 124.228 102.83 124.106L103.714 123.535C104.128 123.242 104.578 123.003 105.053 122.825C105.403 122.711 105.774 122.661 106.129 122.565C107.37 122.202 108.319 121.217 109.2 120.27L110.402 118.986C110.515 118.845 110.657 118.731 110.819 118.652C110.986 118.596 111.164 118.579 111.338 118.602C112.506 118.686 113.634 119.064 114.616 119.702C114.867 119.891 115.138 120.051 115.425 120.179C116.129 120.454 117.034 120.247 117.684 119.899C117.993 119.733 117.925 119.64 118.055 119.344C118.185 119.049 118.501 118.859 118.775 119.129C118.858 119.222 118.917 119.334 118.946 119.456C119.206 120.312 119.107 121.232 119.107 122.13C119.1 122.27 119.117 122.411 119.159 122.545C119.225 122.68 119.304 122.808 119.395 122.929C119.413 122.96 119.43 122.993 119.444 123.027C119.603 123.424 119.662 123.854 119.618 124.28Z" fill="#514E7F"/>
<path d="M119.618 124.28C119.638 124.547 119.565 124.813 119.41 125.032C119.289 125.153 119.14 125.243 118.975 125.291C116.573 126.152 113.792 125.078 111.395 125.926C110.902 126.1 110.436 126.352 109.941 126.518C109.351 126.695 108.742 126.803 108.127 126.839C107.279 126.92 106.427 126.972 105.577 126.995C104.931 127.041 104.282 126.984 103.654 126.826C103.34 126.746 103.046 126.6 102.792 126.399C102.538 126.197 102.329 125.944 102.179 125.657C102.049 125.399 102.023 125.101 102.107 124.824C102.144 124.729 102.198 124.642 102.265 124.565C102.405 124.858 102.506 125.247 102.594 125.387C102.713 125.595 102.875 125.774 103.069 125.914C103.263 126.054 103.484 126.151 103.719 126.199C104.07 126.22 104.421 126.176 104.755 126.067C106.932 125.527 109.246 125.519 111.338 124.702C112.056 124.42 112.74 124.044 113.494 123.872C114.248 123.701 115.049 123.748 115.826 123.683C117.055 123.584 118.244 123.214 119.454 123.019C119.611 123.42 119.667 123.852 119.618 124.28Z" fill="#464353"/>
<path d="M150.879 117.777C150.765 118.69 150.187 119.476 149.552 120.143C148.917 120.809 148.199 121.408 147.694 122.176C147.072 123.128 146.792 124.308 145.984 125.112C145.673 125.404 145.325 125.653 144.947 125.851C144.524 126.101 144.077 126.307 143.612 126.466C142.405 126.852 141.104 126.764 139.842 126.671C139.432 126.667 139.026 126.589 138.645 126.44C138.471 126.352 138.304 126.249 138.147 126.134C137.831 125.939 137.564 125.672 137.369 125.356C137.274 125.184 137.247 124.982 137.294 124.79C137.366 124.58 137.49 124.391 137.655 124.241C137.939 123.945 138.243 123.67 138.567 123.418C139.01 123.132 139.41 122.782 139.754 122.381C139.964 122.064 140.12 121.713 140.212 121.344C140.396 120.696 140.508 120.031 140.547 119.359C140.545 118.913 140.591 118.468 140.684 118.032C140.876 117.347 141.384 116.735 141.327 116.027C141.304 115.925 141.313 115.819 141.353 115.723C141.413 115.648 141.497 115.596 141.591 115.575C141.987 115.417 142.405 115.32 142.83 115.287C143.043 115.273 143.257 115.306 143.456 115.384C143.655 115.462 143.834 115.583 143.98 115.739C144.157 115.951 144.273 116.257 144.532 116.34C144.661 116.376 144.796 116.381 144.926 116.356C145.564 116.291 146.238 116.211 146.74 115.798C146.973 115.59 147.16 115.335 147.289 115.051C147.418 114.767 147.487 114.459 147.492 114.146C147.492 113.91 147.386 113.664 147.751 113.628C148.026 113.591 148.243 113.887 148.383 114.068C148.889 114.745 149.407 115.453 149.596 116.278C149.67 116.25 149.748 116.235 149.827 116.234C149.989 116.233 150.148 116.27 150.292 116.344C150.436 116.418 150.56 116.525 150.654 116.657C150.86 116.991 150.94 117.389 150.879 117.777Z" fill="#514E7F"/>
<path d="M150.879 117.777C150.765 118.69 150.187 119.476 149.552 120.143C148.917 120.809 148.2 121.409 147.694 122.176C147.072 123.128 146.792 124.308 145.984 125.112C145.673 125.405 145.325 125.653 144.947 125.851C144.524 126.101 144.077 126.307 143.613 126.466C142.405 126.852 141.104 126.764 139.842 126.671C139.432 126.667 139.027 126.589 138.645 126.44C138.471 126.352 138.304 126.249 138.147 126.134C137.831 125.939 137.564 125.673 137.37 125.356C137.613 125.239 137.878 125.175 138.147 125.169C138.707 125.2 139.116 125.729 139.653 125.893C140.417 126.124 141.179 125.584 141.954 125.4C142.459 125.281 142.991 125.312 143.491 125.141C143.908 124.979 144.293 124.746 144.628 124.451C145.089 124.122 145.498 123.727 145.844 123.278C146.131 122.83 146.37 122.353 146.557 121.855C146.966 120.899 147.447 119.977 147.997 119.095C148.079 118.955 148.177 118.826 148.29 118.711C148.412 118.6 148.549 118.522 148.687 118.423C149.205 118.032 149.42 117.386 149.602 116.753C149.651 116.561 149.719 116.374 149.806 116.195C149.968 116.194 150.128 116.232 150.271 116.305C150.415 116.379 150.539 116.486 150.633 116.618C150.856 116.961 150.944 117.374 150.879 117.777Z" fill="#464353"/>
<path d="M96.5377 36.9137C97.1827 37.3975 97.7136 38.0173 98.0926 38.7292C98.4554 39.4399 100.547 44.9539 100.425 45.7553C101.107 45.068 103.794 44.9565 104.483 44.2692C104.771 43.9813 106.323 42.5444 106.556 42.2099C106.79 41.8753 108.521 41.1724 108.71 40.8197C109.417 39.5514 103.693 34.7454 104.426 33.4927C104.467 33.4352 104.488 33.366 104.486 33.2956C104.469 33.2365 104.436 33.1834 104.39 33.1426C103.921 32.6628 103.299 32.3645 102.734 32.0092C102.169 31.6539 101.625 31.1585 101.472 30.5049C100.933 30.7531 100.439 31.0877 100.008 31.4956C98.9573 32.3965 97.925 33.3155 96.9109 34.2527C96.5144 34.6209 95.7473 35.1111 95.5633 35.6376C95.3456 36.2031 96.1593 36.6051 96.5377 36.9137Z" fill="#A1616A"/>
<path d="M105.805 34.8726C104.927 35.4633 104.106 36.1354 103.354 36.88C102.643 37.5829 101.97 38.3973 101.799 39.3803C101.726 39.7667 101.736 40.1583 101.677 40.55C101.418 42.2488 99.9509 43.4937 99.303 45.0836C99.1154 45.5743 98.9773 46.0826 98.891 46.6009C98.7089 47.5833 98.6093 48.5793 98.593 49.5783C98.5774 50.5458 99.5259 51.2123 99.8732 52.1149C100.22 53.0175 100.314 53.946 100.49 54.8719C100.822 56.62 101.431 58.3059 102.045 59.9813C103.322 63.5138 107.464 73.2788 108.741 76.8139C112.657 75.8309 123.08 73.5719 126.548 71.4996C127.703 70.8097 118.527 63.0262 119.763 62.4893C119.834 62.4783 119.901 62.451 119.959 62.4096C120.017 62.3682 120.065 62.3137 120.099 62.2506C120.133 62.1875 120.151 62.1174 120.153 62.0458C120.155 61.9743 120.14 61.9032 120.11 61.8384C118.874 56.4281 115.008 51.9826 113.253 46.715C112.644 44.8865 111.551 43.3251 110.721 41.5874C109.97 40.0131 109.568 38.2728 108.669 36.7763C108.499 36.4679 108.277 36.1915 108.013 35.9593C107.789 35.7872 107.546 35.6402 107.29 35.521C106.777 35.272 106.3 35.1241 105.805 34.8726Z" fill="#514E7F"/>
<path d="M96.7451 36.299C100.13 36.299 102.874 33.5528 102.874 30.1651C102.874 26.7775 100.13 24.0312 96.7451 24.0312C93.3602 24.0312 90.6162 26.7775 90.6162 30.1651C90.6162 33.5528 93.3602 36.299 96.7451 36.299Z" fill="#A1616A"/>
<path d="M102.98 33.0468C103.286 32.7649 103.67 32.5822 104.081 32.5229C104.492 32.4637 104.912 32.5306 105.284 32.7149C105.699 32.9301 106.062 33.3659 105.968 33.8223L109.008 33.869C109.492 33.8558 109.976 33.9002 110.449 34.0013C110.926 34.1051 111.351 34.372 111.652 34.756C111.688 34.8053 111.729 34.865 111.792 34.8727C111.842 34.8735 111.892 34.8571 111.932 34.8261C112.399 34.5913 112.926 34.5011 113.445 34.5667C115.088 34.673 116.607 35.4952 117.895 36.5223C118.127 36.6821 118.307 36.9066 118.413 37.1681C118.519 37.513 118.392 37.9462 118.672 38.1926C118.672 41.0455 119.652 43.7118 120.305 46.4921C120.421 46.9875 120.896 47.4258 121.225 47.8149C121.631 48.2462 121.963 48.7423 122.207 49.2829C122.761 50.7249 121.997 52.4211 122.536 53.8684C122.764 54.4805 123.205 54.9836 123.573 55.5153C124.058 56.1293 124.364 56.8651 124.459 57.6421C124.482 57.9896 124.438 58.3398 124.459 58.6795C124.494 59.1468 124.581 59.6088 124.718 60.0567C124.939 60.8936 125.171 61.7296 125.413 62.5648C125.807 63.9134 126.32 65.3685 127.527 66.0869C124.612 66.5823 121.538 67.0673 118.76 66.0532C118.373 65.9209 118.005 65.7368 117.667 65.5059C116.664 64.7901 116.179 63.5659 115.746 62.4091C115.264 61.1123 114.774 59.7922 114.676 58.4124C114.677 57.9735 114.615 57.5368 114.492 57.1156C114.209 56.3634 113.455 55.9095 112.771 55.492C111.999 55.0683 111.299 54.5237 110.698 53.8787C110.4 53.5539 110.172 53.1713 110.027 52.7547C109.883 52.338 109.825 51.8961 109.858 51.4563C109.91 51.0284 110.079 50.616 110.094 50.1854C110.11 49.7549 109.918 49.2621 109.506 49.148C107.383 48.5048 106.37 45.989 105.899 43.8207C105.695 42.7001 105.604 41.5619 105.626 40.4231L105.598 38.2107C105.305 37.944 105.069 37.6205 104.905 37.2598C104.742 36.899 104.653 36.5087 104.644 36.1125C104.672 35.8813 104.668 35.6474 104.631 35.4174C104.529 35.1363 104.362 34.8832 104.144 34.6782C103.675 34.1969 103.283 33.6468 102.98 33.0468Z" fill="#464353"/>
<path d="M96.4521 40.06C96.3822 40.7447 96.5377 41.4476 96.3848 42.1194C96.3252 42.3787 96.2215 42.6381 96.1463 42.8793C95.9166 43.8461 96.016 44.8621 96.4288 45.766C96.8411 46.661 97.3347 47.5161 97.9034 48.3207C98.0957 48.5953 98.2541 48.8923 98.3751 49.2051C98.4731 49.5336 98.5339 49.872 98.5565 50.214C98.7065 51.5875 98.9472 52.9495 99.2769 54.2912C99.5671 55.4531 102.864 65.3867 103.631 66.3074C103.77 66.5112 103.981 66.6549 104.222 66.7094C104.395 66.7159 104.568 66.6803 104.724 66.6057L106.279 66.0091C106.411 65.9686 106.534 65.9016 106.639 65.812C106.785 65.6416 106.864 65.4242 106.862 65.1999C106.974 63.9342 103.67 53.9307 103.25 52.735C101.98 49.1247 100.29 45.6441 99.4635 41.9067C99.2328 40.8692 99.111 39.2716 98.3517 38.4442C98.0382 38.1018 98.1444 38.2471 97.7686 38.426C97.5788 38.5085 97.3951 38.6047 97.2192 38.7139C96.9993 38.867 96.8163 39.0672 96.6835 39.3001C96.5508 39.533 96.4718 39.7926 96.4521 40.06Z" fill="#464353"/>
<path d="M101.171 46.9096C101.588 49.1168 102.019 51.3187 102.446 53.5259L108.531 51.9308C108.58 51.2928 108.241 50.7015 108.013 50.1153C107.458 48.7225 107.445 47.1716 106.997 45.7399C106.657 44.6506 106.067 43.6494 105.748 42.5523C105.564 41.9143 105.471 41.2555 105.289 40.6097C105.095 39.9755 104.856 39.3558 104.574 38.7553C104.232 37.8843 103.787 37.0579 103.247 36.2939C102.47 36.5844 101.64 36.9216 101.197 37.6245C100.97 38.0205 100.84 38.4651 100.819 38.9213C100.713 40.2881 101.208 41.6627 101.044 43.0218C100.876 44.3161 100.919 45.6291 101.171 46.9096Z" fill="#009F36"/>
<path d="M108.632 76.2696C108.974 77.5664 108.479 78.9307 108.075 80.2145C107.466 82.1483 107.051 84.1379 106.836 86.1539C106.81 86.6669 106.707 87.1731 106.53 87.6556C106.339 88.0887 106.012 88.4544 105.789 88.8668C105.178 89.9509 105.193 91.2737 105.325 92.5134C105.413 93.3304 105.546 94.1448 105.709 94.9488C105.908 95.9318 106.155 96.9589 105.867 97.9185C106.349 97.8122 106.676 98.4372 106.644 98.9274C106.613 99.4176 106.455 99.9649 106.691 100.388C107.287 100.606 107.292 101.425 107.274 102.061C107.284 103.162 107.423 104.259 107.689 105.328C108.591 109.668 109.548 113.996 110.56 118.312C112.75 118.992 115.308 119.7 117.397 118.758C117.785 118.584 118.174 118.307 118.262 117.887C118.285 117.66 118.257 117.432 118.179 117.218L117.189 113.612C116.948 112.741 116.707 111.841 116.834 110.946C116.93 110.28 117.22 109.561 116.894 108.972C116.782 108.77 116.606 108.612 116.477 108.42C115.958 107.66 116.23 106.643 116.272 105.723C116.288 105.516 116.274 105.308 116.23 105.105C116.159 104.869 116.06 104.641 115.935 104.428C115.117 102.839 114.724 101.064 114.795 99.2776C114.826 99.0496 114.794 98.8174 114.704 98.6058C114.641 98.5185 114.585 98.4266 114.536 98.3309C114.497 98.1644 114.516 97.9897 114.59 97.8355C114.293 97.61 114.025 97.3487 113.792 97.0574C113.936 96.968 114.057 96.8471 114.147 96.7037C114.238 96.5604 114.294 96.3984 114.312 96.2301C114.331 96.0617 114.311 95.8913 114.254 95.7318C114.197 95.5723 114.105 95.4279 113.984 95.3093C114.089 95.288 114.187 95.2378 114.266 95.1643C114.345 95.0908 114.402 94.9968 114.431 94.8928C114.459 94.7888 114.459 94.6789 114.429 94.5752C114.399 94.4715 114.341 94.3782 114.261 94.3056C114.134 94.2174 113.965 94.1785 113.875 94.0463C113.735 93.8543 113.849 93.5872 113.963 93.3823L114.567 92.2904C115.018 91.4786 115.119 90.4749 115.603 89.6968C116.298 88.5634 116.751 87.3003 117.2 86.0502L118.944 81.2338L120.118 82.2531C120.509 82.5521 120.836 82.9259 121.082 83.3528C121.249 83.7747 121.354 84.2184 121.395 84.6703C121.826 87.2847 123.469 89.5515 124.078 92.127C124.212 92.7002 124.303 93.3019 124.632 93.7921C124.75 93.9426 124.856 94.1022 124.948 94.2693C125.034 94.5243 125.079 94.7913 125.08 95.0604C125.135 95.5872 125.302 96.0961 125.57 96.5525C125.838 97.009 126.202 97.4024 126.635 97.7059C127.213 98.1027 127.931 98.375 128.245 99.0027C128.307 99.197 128.395 99.3826 128.504 99.5551C128.784 99.8923 129.388 99.9312 129.507 100.354C129.574 100.59 129.45 100.873 129.582 101.08C129.657 101.176 129.756 101.25 129.87 101.295L131.557 102.138C133.443 103.082 134.407 105.251 135.799 106.83C136.28 107.345 136.705 107.908 137.069 108.511C137.67 109.587 137.947 110.938 138.963 111.623C139.236 111.765 139.485 111.95 139.699 112.17C140.018 112.591 139.901 113.179 139.93 113.708C139.958 114.238 140.363 114.868 140.865 114.707C140.689 115.348 140.689 116.024 140.865 116.665C143.073 116.552 145.177 115.698 146.841 114.243C147.334 113.812 147.808 113.262 147.813 112.609C147.821 112.496 147.796 112.383 147.741 112.285C147.641 112.157 147.51 112.058 147.36 111.997C145.781 111.141 145.307 109.157 144.509 107.546C143.812 106.125 142.781 104.901 141.918 103.58C140.041 100.74 138.761 97.3038 135.923 95.4286C135.299 95.0163 134.573 94.6506 134.26 93.9685C134.086 93.5872 134.065 93.1515 133.928 92.7572C133.791 92.363 133.461 91.9791 133.042 91.9791C133.275 91.4086 133.228 90.7135 133.244 90.0962C133.26 89.8222 133.228 89.5476 133.15 89.2844C133.043 89.0013 132.903 88.7315 132.733 88.4804C131.993 87.2258 131.623 85.787 131.666 84.3306C131.686 83.581 131.818 82.8081 131.593 82.0923C131.479 81.7318 131.279 81.4024 131.142 81.0548C130.935 80.4251 130.826 79.7673 130.818 79.1045L130.663 76.612C130.639 75.7819 130.531 74.9564 130.341 74.1481C129.823 72.2132 129.305 64.1082 127.529 63.1952C125.754 62.2823 122.704 68.5199 120.706 68.6418C119.822 68.6786 118.949 68.8474 118.114 69.1424C116.785 69.6404 115.671 70.5689 114.585 71.4766L110.91 74.5656C110.133 75.2063 109.49 75.8183 108.632 76.2696Z" fill="#464353"/>
<path d="M90.9943 23.3545C91.8028 22.2496 93.1919 21.6635 94.5602 21.6142C95.9285 21.5649 97.2761 21.9955 98.5019 22.605C98.8637 22.8109 99.2504 22.9695 99.6525 23.077C100.3 23.2093 101.021 23.0329 101.607 23.3363C102.384 23.7487 102.534 24.7991 102.467 25.6706C102.4 26.5421 102.236 27.5095 102.7 28.2642C102.865 28.4795 103.015 28.7056 103.148 28.9411C103.348 29.3898 103.231 29.9086 103.112 30.3832C102.809 30.1238 102.638 29.7322 102.368 29.4313C102.099 29.1305 101.63 28.9282 101.296 29.1538C100.961 29.3795 100.966 29.7893 100.948 30.1575C100.93 30.5258 100.837 30.9668 100.49 31.0861C100.345 31.1191 100.193 31.1078 100.054 31.0537C99.9157 30.9996 99.7966 30.9052 99.7121 30.7826C99.1187 30.0564 99.3571 28.8971 98.7688 28.1657C98.4345 27.7507 97.8774 27.5484 97.569 27.1127C97.3254 26.7703 97.2632 26.3346 97.0507 25.9663C96.8382 25.598 96.3432 25.3282 96.0141 25.5824C95.9017 25.6898 95.808 25.8152 95.7368 25.9533C95.5315 26.2475 95.2331 26.4639 94.8899 26.5674C94.5466 26.6709 94.1785 26.6556 93.845 26.5239C93.5901 26.3673 93.3144 26.2477 93.026 26.1686C92.8373 26.1591 92.6496 26.2027 92.4843 26.2943C92.319 26.386 92.1826 26.5221 92.0905 26.6873C91.9045 27.0173 91.8147 27.3929 91.8314 27.7714C91.8314 28.2901 91.9247 28.8426 91.6292 29.2576C91.5169 29.4138 91.3762 29.5475 91.2146 29.6518C90.7818 29.9293 90.178 30.1161 89.7789 29.7996C89.6436 29.6735 89.543 29.5148 89.4867 29.3385C89.4304 29.1623 89.4204 28.9745 89.4575 28.7933C89.5352 28.4323 89.6374 28.077 89.7633 27.7299C89.9914 26.9259 89.6934 26.0207 89.9421 25.2634C90.2027 24.5814 90.5568 23.9389 90.9943 23.3545Z" fill="#464353"/>
<path d="M94.2777 41.6524C94.2388 41.8414 94.2587 42.0378 94.3347 42.2152C94.4117 42.336 94.5166 42.4365 94.6405 42.5083C95.512 43.0516 96.5032 43.3731 97.5275 43.4446C97.6668 43.447 97.8036 43.4825 97.9266 43.5483C98.1702 43.7091 98.1857 44.067 98.095 44.3523C97.9741 44.6214 97.9114 44.9131 97.911 45.2082C97.9862 45.7503 98.6289 45.9863 99.1705 46.0667C99.9298 46.1627 100.762 46.1134 101.363 45.6388C101.77 45.267 102.081 44.8014 102.267 44.2823C103.755 40.8613 104.276 37.0798 105.781 33.6692C105.896 33.4465 105.972 33.2064 106.007 32.9586C106.023 32.8345 106.005 32.7085 105.956 32.5936C105.907 32.4786 105.828 32.379 105.727 32.305C105.447 32.1312 105.012 32.2298 104.823 31.9574C104.729 31.82 104.74 31.6332 104.657 31.488C104.483 31.1794 104.027 31.2286 103.716 31.0497C103.472 30.92 103.304 30.6529 103.032 30.601C102.898 30.5934 102.765 30.6172 102.642 30.6703C102.519 30.7234 102.41 30.8045 102.324 30.907C101.441 31.7318 100.977 32.9015 100.484 34.0064C99.7325 35.7 98.8523 37.3336 97.8514 38.8928C97.968 38.7112 97.2916 37.3366 97.0273 37.2769C96.5634 37.1836 95.97 37.998 95.7186 38.3014C94.9298 39.2586 94.4299 40.421 94.2777 41.6524Z" fill="#009F36"/>
<path opacity="0.1" d="M103.693 31.291C103.507 31.2941 103.324 31.3391 103.157 31.4226C102.991 31.5061 102.845 31.626 102.731 31.7734C102.454 32.1339 102.4 32.6112 102.33 33.0702C102.094 34.5246 101.575 35.9186 100.803 37.1733" fill="black"/>
<path opacity="0.1" d="M105.015 32.3257C104.758 32.3314 104.507 32.404 104.286 32.5364C104.066 32.6687 103.884 32.8562 103.758 33.0804C103.586 33.4884 103.479 33.9207 103.441 34.3617C103.219 35.3393 102.791 36.2581 102.185 37.0564" fill="black"/>
<path d="M166.604 83.0311V79.8098C166.604 77.4385 165.662 75.1645 163.986 73.488C162.311 71.8115 160.038 70.8696 157.669 70.8696H30.5576C28.1882 70.8696 25.9158 71.8115 24.2401 73.488C22.5645 75.1645 21.6228 77.4385 21.6221 79.8098V85.7492L166.604 83.0311Z" fill="#33323D"/>
<path d="M65.9192 67.0933C65.9192 67.0933 65.5564 89.6214 69.5473 97.034C73.5383 104.447 75.2487 136.693 75.2487 136.693C75.2487 136.693 117.086 141.024 146.241 131.506C175.395 121.987 237.431 118.094 237.431 118.094L226.977 47.5764C226.977 47.5764 175.33 44.2617 145.95 58.2854C116.57 72.3091 65.9192 67.0933 65.9192 67.0933Z" fill="#8DD070"/>
<path opacity="0.1" d="M65.9192 67.0933C65.9192 67.0933 65.5564 89.6214 69.5473 97.034C73.5383 104.447 75.2487 136.693 75.2487 136.693C75.2487 136.693 117.086 141.024 146.241 131.506C175.395 121.987 237.431 118.094 237.431 118.094L226.977 47.5764C226.977 47.5764 175.33 44.2617 145.95 58.2854C116.57 72.3091 65.9192 67.0933 65.9192 67.0933Z" fill="black"/>
<path d="M75.1784 75.3227C75.1784 75.3227 73.8697 93.9111 77.1531 99.8505C80.4366 105.79 80.5895 132.304 80.5895 132.304C80.5895 132.304 118.242 134.052 145.025 124.928C171.808 115.804 228.091 109.885 228.091 109.885L221.695 52.2162C221.695 52.2162 175.125 51.7364 147.945 64.5799C120.766 77.4235 75.1784 75.3227 75.1784 75.3227Z" fill="#75CD22"/>
<path opacity="0.1" d="M147.532 114.37C152.889 113.702 156.072 103.838 154.641 92.3391C153.21 80.8397 147.706 72.059 142.349 72.7268C136.992 73.3947 133.809 83.2581 135.24 94.7575C136.671 106.257 142.175 115.038 147.532 114.37Z" fill="black"/>
<path opacity="0.2" d="M198.662 13.2236C198.662 13.2236 148.487 25.9323 124.827 48.3023C101.166 70.6722 51.3574 81.2645 51.3574 81.2645C51.3574 81.2645 57.9191 102.815 63.9885 108.645C70.0578 114.476 81.5693 144.645 81.5693 144.645C81.5693 144.645 122.715 135.915 147.541 117.894C172.368 99.8736 230.229 77.1147 230.229 77.1147L198.662 13.2236Z" fill="black"/>
<path d="M50.603 78.0382C50.603 78.0382 57.1621 99.5912 63.2263 105.422C69.2904 111.252 80.8071 141.418 80.8071 141.418C80.8071 141.418 121.958 132.691 146.787 114.67C171.616 96.65 229.472 73.8988 229.472 73.8988L197.905 10C197.905 10 147.733 22.7087 124.072 45.0786C100.412 67.4485 50.603 78.0382 50.603 78.0382Z" fill="#8DD070"/>
<path opacity="0.1" d="M50.603 78.0382C50.603 78.0382 57.1621 99.5912 63.2263 105.422C69.2904 111.252 80.8071 141.418 80.8071 141.418C80.8071 141.418 121.958 132.691 146.787 114.67C171.616 96.65 229.472 73.8988 229.472 73.8988L197.905 10C197.905 10 147.733 22.7087 124.072 45.0786C100.412 67.4485 50.603 78.0382 50.603 78.0382Z" fill="black"/>
<path d="M61.9307 83.0282C61.9307 83.0282 66.3855 101.124 71.3327 105.766C76.2799 110.409 84.5494 135.593 84.5494 135.593C84.5494 135.593 120.919 125.691 143.613 108.78C166.306 91.8698 218.064 68.976 218.064 68.976L194.297 16.0352C194.297 16.0352 149.83 29.8773 127.898 50.4498C105.966 71.0224 61.9307 83.0282 61.9307 83.0282Z" fill="#75CD22"/>
<path opacity="0.1" d="M142.774 97.9699C147.668 95.6891 147.673 85.324 142.785 74.819C137.897 64.3139 129.967 57.6469 125.073 59.9277C120.179 62.2086 120.174 72.5737 125.062 83.0787C129.95 93.5838 137.88 100.251 142.774 97.9699Z" fill="black"/>
<path opacity="0.1" d="M170.035 86.1925V175.672C170.035 176.688 169.835 177.695 169.447 178.633C169.058 179.572 168.488 180.425 167.77 181.144C167.052 181.862 166.2 182.432 165.262 182.821C164.323 183.209 163.318 183.409 162.302 183.409H29.3578C27.308 183.408 25.3424 182.593 23.8932 181.142C22.444 179.691 21.6299 177.724 21.6299 175.672V77.1719C25.4394 78.588 25.4394 78.588 29.3578 78.4687H162.302C164.351 78.4687 166.315 79.2819 167.765 80.73C169.215 82.178 170.031 84.1426 170.035 86.1925Z" fill="black"/>
<path d="M170.035 87.3313V176.811C170.035 178.863 169.22 180.831 167.77 182.282C166.319 183.733 164.353 184.548 162.302 184.548H29.3578C27.308 184.547 25.3424 183.732 23.8932 182.281C22.444 180.83 21.6299 178.862 21.6299 176.811V78.3081C25.4394 79.7216 25.4394 79.7216 29.3578 79.6049H162.302C164.351 79.6049 166.316 80.4185 167.766 81.8671C169.216 83.3157 170.032 85.2809 170.035 87.3313Z" fill="#504F60"/>
<path opacity="0.1" d="M169.657 120.413V149.028H141.928C138.17 148.977 134.583 147.448 131.943 144.77C129.303 142.092 127.823 138.482 127.823 134.72C127.823 130.959 129.303 127.348 131.943 124.671C134.583 121.993 138.17 120.463 141.928 120.413H169.657Z" fill="black"/>
<path d="M170.036 119.65V148.271H142.307C138.548 148.22 134.961 146.691 132.321 144.013C129.682 141.335 128.202 137.725 128.202 133.963C128.202 130.202 129.682 126.591 132.321 123.914C134.961 121.236 138.548 119.706 142.307 119.656L170.036 119.65Z" fill="#33323D"/>
<path opacity="0.1" d="M143.636 140.3C146.714 140.3 149.21 137.803 149.21 134.721C149.21 131.64 146.714 129.143 143.636 129.143C140.557 129.143 138.062 131.64 138.062 134.721C138.062 137.803 140.557 140.3 143.636 140.3Z" fill="black"/>
<path d="M144.014 139.543C147.093 139.543 149.589 137.045 149.589 133.964C149.589 130.883 147.093 128.385 144.014 128.385C140.936 128.385 138.44 130.883 138.44 133.964C138.44 137.045 140.936 139.543 144.014 139.543Z" fill="#009F36"/>
<path d="M218.168 119.404C218.388 121.792 216.582 124.111 217.108 126.45C217.222 126.951 217.437 127.423 217.515 127.929C217.733 129.319 216.906 130.634 216.116 131.796L209.326 141.766C209.054 142.204 208.728 142.607 208.357 142.964C207.061 144.121 205.112 144.001 203.407 144.346C202.208 144.59 201.076 145.091 200.09 145.814C200.048 145.85 200.022 145.899 200.016 145.953C200.011 146.007 200.026 146.062 200.059 146.105C200.34 146.489 200.714 146.796 201.145 146.999C201.576 147.201 202.05 147.292 202.526 147.264C202.704 147.5 202.526 147.845 202.266 148.014C201.901 148.273 201.401 148.335 201.328 148.953C201.303 149.168 201.346 149.386 201.453 149.575C201.726 149.994 202.152 150.291 202.64 150.402C204.99 151.121 207.53 149.858 209.289 148.138C211.049 146.419 212.311 144.248 214.037 142.497C214.993 141.53 216.079 140.7 217.064 139.761C219.028 137.888 220.555 135.611 222.029 133.331C222.473 132.644 222.918 131.939 223.105 131.142C223.291 130.346 223.203 129.542 223.413 128.772C223.688 127.76 224.427 126.956 225.041 126.108C226.246 124.448 227.049 122.417 226.891 120.374C226.733 118.33 225.466 116.309 223.538 115.614C222.94 115.374 222.281 115.334 221.659 115.5C220.868 115.744 220.285 116.398 219.746 117.023L218.45 118.514C218.127 118.841 217.872 119.229 217.699 119.655C217.616 119.869 217.596 120.103 217.642 120.327C217.688 120.552 217.798 120.759 217.958 120.923" fill="#FBBEBE"/>
<path opacity="0.05" d="M218.168 119.404C218.388 121.792 216.582 124.111 217.108 126.45C217.222 126.951 217.437 127.423 217.515 127.929C217.733 129.319 216.906 130.634 216.116 131.796L209.326 141.766C209.054 142.204 208.728 142.607 208.357 142.964C207.061 144.121 205.112 144.001 203.407 144.346C202.208 144.59 201.076 145.091 200.09 145.814C200.048 145.85 200.022 145.899 200.016 145.953C200.011 146.007 200.026 146.062 200.059 146.105C200.34 146.489 200.714 146.796 201.145 146.999C201.576 147.201 202.05 147.292 202.526 147.264C202.704 147.5 202.526 147.845 202.266 148.014C201.901 148.273 201.401 148.335 201.328 148.953C201.303 149.168 201.346 149.386 201.453 149.575C201.726 149.994 202.152 150.291 202.64 150.402C204.99 151.121 207.53 149.858 209.289 148.138C211.049 146.419 212.311 144.248 214.037 142.497C214.993 141.53 216.079 140.7 217.064 139.761C219.028 137.888 220.555 135.611 222.029 133.331C222.473 132.644 222.918 131.939 223.105 131.142C223.291 130.346 223.203 129.542 223.413 128.772C223.688 127.76 224.427 126.956 225.041 126.108C226.246 124.448 227.049 122.417 226.891 120.374C226.733 118.33 225.466 116.309 223.538 115.614C222.94 115.374 222.281 115.334 221.659 115.5C220.868 115.744 220.285 116.398 219.746 117.023L218.45 118.514C218.127 118.841 217.872 119.229 217.699 119.655C217.616 119.869 217.596 120.103 217.642 120.327C217.688 120.552 217.798 120.759 217.958 120.923" fill="black"/>
<path d="M223.307 180.898C221.824 181.803 219.977 181.858 218.253 181.648C217.976 181.614 217.647 181.593 217.476 181.809C217.217 182.12 217.522 182.587 217.839 182.828C218.855 183.592 220.049 184.084 221.309 184.257C222.433 184.417 223.568 184.492 224.703 184.483C227.813 184.537 230.923 184.589 233.984 184.143C234.165 184.129 234.341 184.078 234.502 183.992C234.699 183.854 234.836 183.645 234.886 183.409C235.095 182.61 234.691 181.754 234.08 181.199C233.468 180.644 232.683 180.335 231.916 180.037L229.22 178.987C228.588 178.74 227.575 178.087 226.888 178.139C225.598 178.232 224.377 180.271 223.307 180.898Z" fill="#3F3D56"/>
<path opacity="0.05" d="M223.307 180.898C221.824 181.803 219.977 181.858 218.253 181.648C217.976 181.614 217.647 181.593 217.476 181.809C217.217 182.12 217.522 182.587 217.839 182.828C218.855 183.592 220.049 184.084 221.309 184.257C222.433 184.417 223.568 184.492 224.703 184.483C227.813 184.537 230.923 184.589 233.984 184.143C234.165 184.129 234.341 184.078 234.502 183.992C234.699 183.854 234.836 183.645 234.886 183.409C235.095 182.61 234.691 181.754 234.08 181.199C233.468 180.644 232.683 180.335 231.916 180.037L229.22 178.987C228.588 178.74 227.575 178.087 226.888 178.139C225.598 178.232 224.377 180.271 223.307 180.898Z" fill="black"/>
<path d="M225.196 145.091C224.074 146.585 222.913 148.31 223.19 150.159C223.34 151.155 223.897 152.034 224.307 152.955C224.861 154.205 225.152 155.548 225.437 156.887C225.857 158.842 226.279 160.803 226.536 162.79C226.828 165.033 225.452 171.525 225.325 173.784C225.294 174.329 225.229 174.918 224.851 175.309C224.703 175.465 224.506 175.589 224.439 175.792C224.4 175.986 224.432 176.189 224.53 176.362C225.162 177.789 226.455 178.852 227.899 179.459C229.342 180.066 232.823 181.114 234.396 181.168C234.603 181.191 234.813 181.163 235.007 181.088C235.217 180.96 235.381 180.771 235.479 180.546C236.606 178.388 235.523 170.716 235.539 168.28C235.554 166.25 236.033 164.232 235.945 162.204C235.873 160.575 235.427 158.982 235.279 157.359C235.02 154.698 235.507 152.024 235.997 149.394C236.37 147.376 236.746 145.358 237.226 143.366C237.518 142.15 237.858 140.923 238.521 139.867C239.04 139.03 239.768 138.329 240.372 137.533C242.048 135.334 242.792 132.564 242.445 129.82C242.409 129.56 238.558 130.798 238.218 130.945C236.833 131.532 235.558 132.353 234.45 133.37C233.559 134.221 232.856 135.357 232.076 136.309C230.972 137.656 229.882 139.012 228.806 140.378C227.577 141.94 226.374 143.511 225.196 145.091Z" fill="#464353"/>
<path opacity="0.05" d="M225.196 145C224.074 146.494 222.913 148.222 223.19 150.068C223.34 151.067 223.897 151.946 224.307 152.867C224.861 154.114 225.152 155.46 225.437 156.796C225.857 158.754 226.279 160.715 226.536 162.699C226.828 164.945 225.452 171.434 225.325 173.693C225.294 174.238 225.229 174.829 224.851 175.221C224.703 175.374 224.506 175.499 224.439 175.701C224.399 175.896 224.432 176.099 224.53 176.272C225.162 177.701 226.455 178.761 227.899 179.384C229.342 180.006 232.823 180.548 234.396 180.6C234.603 180.623 234.813 180.596 235.007 180.52C235.217 180.394 235.382 180.205 235.479 179.98C236.606 177.823 235.523 170.643 235.539 168.205C235.554 166.172 236.034 164.157 235.945 162.126C235.873 160.497 235.427 158.905 235.279 157.284C235.02 154.62 235.507 151.946 235.997 149.316C236.37 147.301 236.746 145.283 237.226 143.289C237.518 142.072 237.858 140.845 238.521 139.79C239.04 138.952 239.768 138.252 240.372 137.456C242.048 135.257 242.793 132.486 242.445 129.742C242.409 129.483 238.558 130.72 238.218 130.868C236.833 131.457 235.559 132.278 234.45 133.295C233.559 134.144 232.856 135.28 232.076 136.231C230.972 137.578 229.882 138.936 228.806 140.303C227.577 141.853 226.374 143.418 225.196 145Z" fill="black"/>
<path d="M212.71 112.189C216.184 112.189 219 109.37 219 105.894C219 102.417 216.184 99.5991 212.71 99.5991C209.236 99.5991 206.42 102.417 206.42 105.894C206.42 109.37 209.236 112.189 212.71 112.189Z" fill="#FBBEBE"/>
<path d="M218.375 105.629C218.956 106.557 219.718 107.358 220.615 107.984C221.513 108.611 222.527 109.05 223.597 109.276L223.123 111C222.304 113.962 221.384 117.095 219.098 119.149C219.357 118.146 219.026 117.075 218.461 116.203C217.896 115.332 217.103 114.647 216.325 113.97L212.705 110.832C212.601 110.747 212.513 110.643 212.446 110.526C212.357 110.304 212.357 110.057 212.446 109.836C212.907 108.399 214.224 107.502 215.297 106.532C215.835 106.03 216.316 105.47 216.73 104.861C217.453 103.829 217.901 104.866 218.375 105.629Z" fill="#FBBEBE"/>
<path d="M204.425 99.5651L204.282 98.3824C205.275 98.6418 206.218 97.7962 206.853 96.9222C207.488 96.0481 208.076 95.0185 209.043 94.6528C210.217 94.2119 211.461 94.9121 212.583 95.5035C213.839 96.2012 215.218 96.6502 216.644 96.8262C216.871 96.8338 217.097 96.8704 217.315 96.9352C218.046 97.1945 218.393 98.1127 218.499 98.9452C218.606 99.7778 218.577 100.662 218.937 101.404C219.196 101.967 219.678 102.384 219.974 102.939C220.751 104.428 220 106.464 220.811 107.924L218.795 106.075C218.611 105.906 218.352 105.73 218.147 105.873C217.986 105.987 217.973 106.233 217.908 106.43C217.714 107.006 216.994 107.177 216.473 106.949C215.952 106.721 215.571 106.225 215.177 105.774C214.286 104.721 213.223 103.795 211.979 103.347C211.434 103.143 210.851 103.057 210.271 103.095C209.69 103.134 209.124 103.296 208.61 103.57C207.669 104.101 206.98 105.341 205.827 105.385C204.246 105.445 203.588 102.498 202.857 101.334C203.124 101.133 203.312 100.843 203.388 100.517C203.464 100.191 203.423 99.8483 203.272 99.5495C203.378 99.5054 204.401 99.3835 204.425 99.5651Z" fill="#464353"/>
<path d="M126.63 62.7645C126.125 63.2143 125.658 63.7053 125.233 64.2324C124.806 64.7669 124.579 65.4338 124.591 66.118C124.593 66.3164 124.656 66.5093 124.772 66.6704C124.831 66.7475 124.913 66.8042 125.006 66.8326C125.099 66.8609 125.198 66.8596 125.29 66.8286C125.395 66.7755 125.484 66.697 125.55 66.6004C125.824 66.271 126.114 65.9559 126.42 65.6563C126.532 65.5448 126.68 65.4281 126.83 65.4696C126.897 65.4935 126.958 65.5336 127.006 65.5863C127.18 65.7371 127.307 65.9353 127.371 66.1569C127.462 66.5537 127.232 66.9505 126.97 67.2618C126.708 67.573 126.4 67.8713 126.293 68.2629C126.253 68.3663 126.253 68.4811 126.293 68.5845C126.343 68.6593 126.414 68.7186 126.496 68.7557C126.867 68.9602 127.278 69.0806 127.701 69.1084C128.124 69.1362 128.547 69.0707 128.942 68.9165C129.46 68.7064 129.922 68.3459 130.455 68.1592C130.687 68.0959 130.911 68.0089 131.124 67.8998C131.277 67.7981 131.408 67.6671 131.51 67.5144C131.611 67.3617 131.682 67.1904 131.717 67.0102C131.785 66.6502 131.798 66.2822 131.756 65.9183C131.692 64.5093 131.39 63.1213 130.865 61.8126C130.834 61.7282 130.783 61.6531 130.715 61.5947C130.637 61.5472 130.547 61.5229 130.455 61.5247C129.792 61.4547 128.704 61.1149 128.063 61.3613C127.84 61.4842 127.646 61.6562 127.498 61.8645C127.379 61.9967 126.63 62.5907 126.63 62.7645Z" fill="#A1616A"/>
<path d="M126.421 62.1784C126.421 61.5456 125.643 60.018 126.879 59.9168C126.879 59.2399 125.923 58.8197 126.102 58.1013C126.159 57.8627 126.361 57.6681 126.384 57.4243C126.462 56.7318 125.213 56.3558 125.42 55.6918C125.498 55.4325 125.773 55.282 125.832 55.0253C125.972 54.4261 124.902 54.159 124.881 53.5443C124.881 53.3368 124.998 53.1423 124.987 52.9348C124.987 52.6754 124.762 52.4783 124.638 52.2527C124.314 51.6743 124.472 50.7795 123.881 50.4812C124.272 50.515 124.399 49.934 124.238 49.5787C124.078 49.2233 123.749 48.9147 123.746 48.5205C123.766 48.3776 123.766 48.2328 123.746 48.0899C123.637 47.7113 123.018 47.6801 122.914 47.3118C122.901 47.1705 122.896 47.0284 122.901 46.8865C122.86 46.5934 122.559 46.4067 122.277 46.3237C121.983 46.2738 121.701 46.1729 121.442 46.0254C121.261 45.888 121.051 45.6597 120.857 45.7661C120.784 45.8101 120.748 45.8931 120.693 45.9554C120.46 46.2277 120.014 46.1084 119.721 45.9087C118.856 45.32 118.426 44.2644 118.242 43.2347C118.058 42.205 118.063 41.1416 117.832 40.1224C117.762 39.8047 117.668 39.4926 117.552 39.1887C117.454 38.9293 117.138 38.5221 117.117 38.2601C117.07 37.6636 118.304 38.0708 118.773 38.1305C119.228 38.175 119.679 38.2618 120.118 38.3898C120.587 38.5671 121.046 38.7688 121.494 38.9941C123.365 39.8215 125.625 39.9226 127.128 41.3128C127.623 41.7693 128.04 42.3684 128.683 42.5759C128.978 42.6325 129.269 42.7078 129.554 42.8016C130.266 43.1361 130.378 44.0828 130.767 44.7675C130.889 44.9483 130.995 45.1392 131.085 45.3381C131.16 45.5727 131.195 45.8181 131.189 46.0643L131.243 47.8617C131.331 50.8729 131.42 53.8918 131.098 56.8849C130.995 57.873 130.839 58.8897 131.132 59.839C131.21 60.0984 131.319 60.3422 131.391 60.6041C131.455 60.9112 131.488 61.2241 131.49 61.5378L131.531 62.7024C131.545 62.7929 131.525 62.8856 131.474 62.9617C131.431 62.9969 131.38 63.0219 131.326 63.035C131.271 63.048 131.215 63.0487 131.16 63.0369C129.541 62.8917 127.903 61.9787 126.374 62.5312" fill="#464353"/>
<path d="M200.336 151.658C210.921 151.658 219.503 150.417 219.503 148.885C219.503 147.354 210.921 146.113 200.336 146.113C189.75 146.113 181.169 147.354 181.169 148.885C181.169 150.417 189.75 151.658 200.336 151.658Z" fill="#504F60"/>
<path d="M216.826 149.02C216.489 147.576 216.279 146.307 216.279 146.307C216.279 146.307 216.356 144.736 215.652 143.555V143.161V140.256C215.852 139.729 216.098 139.22 216.385 138.734C216.903 137.821 216.385 134.475 216.385 134.475C216.385 134.475 214.449 129.757 214.918 126.764C215.387 123.771 210.943 113.475 210.943 113.475C210.97 112.482 211.11 111.495 211.36 110.534C211.407 110.331 211.427 110.124 211.417 109.916C211.417 109.89 211.417 109.867 211.417 109.841C211.417 109.815 211.417 109.857 211.417 109.864C211.35 107.891 209.79 104.192 209.79 104.192L209.999 97.1427C209.999 97.1427 210.995 92.9929 209.372 87.4037C208.805 85.4559 208.442 83.8971 208.211 82.6937C208.185 82.5588 208.159 82.4343 208.139 82.3021C211.479 81.7833 214.032 81.3684 214.032 81.3684C214.032 81.3684 212.093 73.2529 210.785 71.8316C209.476 70.4103 208.429 65.9467 208.429 65.9467C208.429 65.9467 207.747 60.2174 208.849 58.542C209.95 56.8665 210.106 53.9772 210.106 53.9772C210.106 53.9772 212.617 52.1617 212.933 51.3395C213.249 50.5173 213.77 48.7018 213.77 47.7396C213.77 46.7773 213.457 45.924 213.56 45.4053C213.664 44.8866 212.827 42.9699 213.247 42.057C213.355 41.7765 213.411 41.4785 213.412 41.1777C213.413 41.1691 213.413 41.1604 213.412 41.1518C213.416 40.3529 213.343 39.5555 213.192 38.7709C212.466 38.157 211.618 37.7036 210.704 37.4403L210.65 37.2225L210.507 36.6519C210.428 36.5992 210.346 36.5508 210.261 36.5066V36.2991L210.238 35.4744L210.632 33.6225C211.409 30.4013 207.11 29.9214 207.11 29.9214C206.849 29.4273 206.416 29.0469 205.892 28.8529C205.029 28.5494 205.749 33.6977 206.151 34.0401C206.454 34.2995 207.392 35.9023 207.846 36.696L207.918 36.8256C207.847 36.8895 207.782 36.9589 207.722 37.0331L207.885 38.151L207.911 38.3222C207.626 38.6763 207.394 39.0704 207.224 39.4919C207.224 39.4919 208.001 40.353 207.854 41.3074C207.706 42.2619 208.095 43.4731 208.113 43.5379C208.066 43.4834 207.514 42.8869 206.962 43.0322C206.41 43.1774 204.868 43.6417 204.868 43.6417C204.868 43.6417 203.718 43.844 203.832 44.0981C203.946 44.3523 203.054 45.4676 203.054 45.4676L199.96 42.5316C199.929 42.4434 199.895 42.3552 199.869 42.2722C199.743 41.8489 199.656 41.4148 199.61 40.9754C199.947 40.8952 200.278 40.7903 200.6 40.6616C200.925 40.5499 201.219 40.3613 201.455 40.1118C201.769 39.7409 201.828 39.2377 201.955 38.776C202.199 37.8735 202.733 37.072 203.103 36.2136C203.731 34.7629 203.933 33.1635 203.687 31.6021C203.639 31.1209 203.476 30.6583 203.212 30.2534C202.707 29.5583 201.79 29.2756 201.124 28.7206C200.458 28.1656 200.027 27.3175 199.25 26.9051C198.548 26.529 197.695 26.5731 196.902 26.7028C195.353 26.9584 193.865 27.5001 192.515 28.3004C192.064 28.5598 191.566 28.8788 191.048 28.7829C190.602 28.7024 190.27 28.3471 189.99 28.0048C189.994 27.9906 189.998 27.9767 190.003 27.9633C189.991 27.9506 189.979 27.9367 189.97 27.9218C189.642 28.6502 189.477 29.4416 189.488 30.2405C189.488 30.365 189.488 30.4998 189.503 30.6113V30.741C189.503 30.7773 189.503 30.8137 189.503 30.8474C189.503 30.9027 189.495 30.9577 189.48 31.0108C189.415 31.1694 189.316 31.3119 189.19 31.4283C189.094 31.5365 189.008 31.6518 188.93 31.7733C188.93 31.7318 188.956 31.6903 188.972 31.6462C188.774 31.935 188.663 32.2741 188.651 32.624C188.636 32.8787 188.72 33.1292 188.884 33.3243C189.039 33.4751 189.208 33.6105 189.389 33.7289C189.328 34.0713 189.296 34.4184 189.296 34.7663C189.302 35.7977 189.573 36.8101 190.085 37.7056C190.596 38.6011 191.329 39.3495 192.214 39.8783C192.25 39.9639 192.284 40.0521 192.318 40.1377C192.714 41.1751 193.012 42.3941 192.88 43.5094C192.88 43.5898 192.857 43.6728 192.844 43.7532C192.831 43.8336 192.766 43.8388 192.732 43.8829C192.732 43.8829 187.619 43.9347 186.417 42.8454C185.214 41.7561 183.379 45.5091 183.379 45.5091C183.379 45.5091 181.547 45.8644 181.179 45.5091C180.811 45.1537 178.668 45.4598 178.668 45.4598C177.79 44.6783 176.647 44.2609 175.473 44.2927C174.761 43.7514 173.976 43.3147 173.14 42.9958L173.083 42.9751C172.715 42.8406 172.321 42.791 171.93 42.8299C171.93 42.8299 169.416 40.755 168.683 39.6345C167.95 38.5141 164.459 34.3773 164.443 34.3591V34.1594L164.404 33.5577C164.301 33.574 164.196 33.5827 164.091 33.5836C164.073 33.524 164.047 33.454 164.021 33.3735C163.82 32.7866 163.572 32.2168 163.28 31.6695C163.28 31.6695 163.28 30.9096 163.5 30.7177C163.72 30.5258 163.409 27.7376 163.409 27.7376C163.409 27.7376 161.144 22.4389 159.115 26.3941C159.115 26.3941 155.28 28.954 158.498 31.9367C158.498 31.9367 159.794 32.5592 159.965 33.0519C160.084 33.371 160.52 34.2658 160.813 34.8675L160.945 35.1268L160.908 35.158L160.955 35.6559L160.976 35.8479C160.369 36.1928 159.957 36.5352 160.058 36.7919C160.237 37.2313 160.36 37.6914 160.424 38.1614C160.424 38.1614 164.876 43.7428 165.451 46.1263C165.451 46.1263 177.39 53.2277 181.317 53.7334L180.622 57.2737C180.521 58.2344 180.469 59.1996 180.467 60.1656C180.518 60.9255 179.995 64.375 179.995 64.375C179.995 64.375 179.313 69.4481 178.738 70.1588C178.163 70.8694 178.266 73.9117 178.266 73.9117C178.131 75.3681 177.87 76.8103 177.489 78.2223C176.914 80.1494 177.331 82.5355 177.331 82.5355C177.331 82.5355 175.343 87.1002 180.106 84.0061C180.106 84.0061 182.439 83.8608 185.139 83.7674C185.139 83.8556 185.139 83.9464 185.139 84.0268C185.139 84.3744 185.139 84.7504 185.121 85.1447C185.085 87.759 185.069 91.3693 185.188 94.0874C185.398 98.9064 186.865 108.443 186.865 108.443V113.244C186.77 113.694 186.723 114.153 186.725 114.613C186.694 116.302 187.143 117.966 188.021 119.409L188.389 122.604C188.389 122.604 189.249 124.71 189.265 125.976C189.261 126.078 189.249 126.179 189.229 126.279C189.195 126.44 189.181 126.605 189.187 126.77C189.138 128.222 190.011 131.697 190.011 131.697C190.011 131.697 190.063 135.196 190.586 135.401C191.035 135.575 189.988 137.416 189.677 137.945C189.669 137.913 189.662 137.88 189.659 137.847L189.594 137.951C189.486 138.234 189.431 138.534 189.431 138.838C189.401 139.077 189.44 139.319 189.543 139.537C189.646 139.754 189.808 139.938 190.011 140.067C191.006 140.676 191.54 141.182 190.695 141.385C190.385 141.433 190.077 141.498 189.773 141.579C189.773 141.54 189.742 141.499 189.729 141.462C189.609 141.509 189.51 141.595 189.447 141.707C189.384 141.818 189.362 141.948 189.384 142.074C189.392 142.486 189.498 142.89 189.692 143.252C190.529 145.13 191.11 145.846 191.11 145.846L191.512 145.801C191.452 145.955 191.374 146.101 191.278 146.235C191.125 146.452 190.923 146.63 190.688 146.753C190.468 146.885 190.224 146.969 189.97 147C189.686 147.009 189.407 147.078 189.152 147.202C188.896 147.326 188.67 147.503 188.487 147.721C187.969 148.398 187.637 149.318 188.669 150.128L192.413 151.424C192.413 151.424 198.856 152.262 198.514 150.815C198.172 149.368 197.964 148.102 197.964 148.102C197.992 147.218 197.815 146.34 197.446 145.537C197.379 145.406 197.302 145.279 197.218 145.158L197.446 145.135C197.446 145.135 197.918 141.937 198.545 141.33C198.69 141.19 198.724 141.071 198.69 140.998C198.755 140.824 198.589 140.723 198.379 140.664L198.332 140.791C198.127 140.746 197.918 140.722 197.708 140.721C197.708 140.721 197.498 139.048 198.18 138.438C198.235 138.369 198.275 138.289 198.297 138.203C198.32 138.117 198.325 138.028 198.312 137.94C198.317 137.711 198.292 137.481 198.239 137.258C198.232 137.272 198.225 137.286 198.216 137.3C197.874 135.78 196.713 133.365 196.713 133.365C196.713 133.365 196.661 131.845 197.081 131.236C197.501 130.626 197.026 122.967 197.026 122.967C197.026 122.967 197.184 119.266 196.713 117.541C196.241 115.817 197.288 113.786 197.288 113.786C197.288 113.786 197.288 113.747 197.288 113.677V113.651L197.229 113.067C197.227 113.08 197.227 113.092 197.229 113.104C197.122 112.123 196.923 110.347 196.775 109.527C196.565 108.36 196.829 102.784 196.829 102.784L197.77 100.398L199.447 104.509L201.227 109.986C201.227 109.986 202.108 111.143 202.129 112.321C202.129 112.378 202.129 112.435 202.129 112.492C202.115 112.613 202.108 112.735 202.108 112.857C202.077 113.549 202.266 114.234 202.65 114.81C202.65 114.81 203.122 117.404 203.855 118.055C204.588 118.706 204.588 119.982 204.588 119.982C204.588 119.982 205.477 123.738 205.884 124.391C206.237 124.946 206.255 126.466 206.252 126.941C206.252 127.026 206.252 127.076 206.252 127.076C206.252 127.076 206.377 128.419 206.371 129.545C206.371 129.685 206.371 129.82 206.371 129.947C206.373 129.937 206.373 129.928 206.371 129.918C206.371 130.226 206.335 130.532 206.263 130.831L206.247 130.883C206.247 130.818 206.247 130.756 206.265 130.694C206.083 131.458 205.996 132.242 206.006 133.028C205.983 134.377 206.187 135.974 207.004 136.918C208.419 138.542 209.308 138.34 209.308 138.34C209.308 138.34 208.629 140.368 207.789 140.775C207.757 140.79 207.727 140.809 207.701 140.832C207.701 140.791 207.685 140.752 207.68 140.713C207.586 140.814 207.515 140.934 207.47 141.064C207.426 141.194 207.409 141.333 207.421 141.47C207.361 142.362 207.924 143.804 208.458 144.476C208.656 144.67 208.899 144.813 209.165 144.891C209.123 144.921 209.079 144.948 209.033 144.972C208.94 145.023 208.844 145.069 208.745 145.109C208.609 145.167 208.465 145.205 208.318 145.221C208.033 145.228 207.754 145.296 207.499 145.421C207.243 145.545 207.017 145.723 206.835 145.942C206.317 146.616 205.985 147.537 207.017 148.346L210.761 149.643C210.761 149.643 217.162 150.465 216.826 149.02Z" fill="url(#paint0_linear)"/>
<path d="M192.229 151.417L188.601 150.12C187.601 149.311 187.92 148.39 188.425 147.713C188.599 147.497 188.817 147.321 189.065 147.197C189.312 147.072 189.584 147.003 189.861 146.992C190.106 146.961 190.342 146.877 190.553 146.746C190.783 146.621 190.98 146.443 191.128 146.227C191.393 145.807 191.535 145.321 191.54 144.824C191.54 144.824 195.521 143.657 196.609 144.824C196.803 145.035 196.966 145.274 197.091 145.532C197.453 146.338 197.63 147.214 197.609 148.097C197.609 148.097 197.812 149.363 198.141 150.81C198.47 152.257 192.229 151.417 192.229 151.417Z" fill="#2D293D"/>
<path d="M209.966 149.627L206.338 148.33C205.337 147.521 205.656 146.6 206.161 145.926C206.334 145.709 206.551 145.533 206.799 145.408C207.046 145.284 207.318 145.214 207.594 145.205C207.738 145.19 207.878 145.153 208.009 145.093C208.105 145.053 208.198 145.007 208.289 144.956C209.302 144.398 209.276 143.029 209.276 143.029C209.276 143.029 213.254 141.862 214.345 143.029C214.491 143.187 214.619 143.361 214.726 143.548C215.408 144.728 215.333 146.302 215.333 146.302C215.333 146.302 215.535 147.57 215.851 149.015C216.167 150.46 209.966 149.627 209.966 149.627Z" fill="#2D293D"/>
<path opacity="0.1" d="M196.612 144.821C196.806 145.032 196.968 145.271 197.094 145.529L191.133 146.222C191.398 145.801 191.541 145.315 191.545 144.819C191.545 144.819 195.523 143.654 196.612 144.821Z" fill="black"/>
<path opacity="0.1" d="M214.731 143.553V144.671C213.804 146.199 209.318 145.864 208.014 145.099C208.11 145.058 208.203 145.012 208.294 144.961C209.307 144.404 209.281 143.034 209.281 143.034C209.281 143.034 213.259 141.867 214.35 143.034C214.496 143.192 214.624 143.366 214.731 143.553Z" fill="black"/>
<path d="M215.439 138.734C215.161 139.221 214.925 139.73 214.731 140.256V144.263C213.715 145.936 208.447 145.379 207.734 144.466C207.022 143.553 206.278 141.177 207.079 140.765C207.879 140.352 208.548 138.329 208.548 138.329C208.548 138.329 207.685 138.532 206.317 136.908C204.948 135.284 205.355 131.684 205.609 130.823C205.863 129.962 205.609 127.07 205.609 127.07C205.609 127.07 205.661 125.04 205.257 124.381C204.852 123.722 203.99 119.972 203.99 119.972C203.99 119.972 203.99 118.703 203.279 118.045C202.569 117.386 202.113 114.797 202.113 114.797C201.698 114.151 201.52 113.38 201.608 112.616C201.758 111.348 200.745 109.978 200.745 109.978L199.022 104.498L197.399 100.39L196.487 102.773C196.487 102.773 196.228 108.352 196.438 109.517C196.648 110.681 196.956 113.778 196.956 113.778C196.956 113.778 195.943 115.806 196.399 117.531C196.855 119.256 196.689 122.962 196.689 122.962C196.689 122.962 197.145 130.618 196.738 131.228C196.332 131.837 196.383 133.36 196.383 133.36C196.383 133.36 198.457 137.821 197.804 138.43C197.151 139.04 197.347 140.713 197.347 140.713C197.347 140.713 198.765 140.713 198.159 141.322C197.552 141.932 197.093 145.127 197.093 145.127L190.965 145.845C190.965 145.845 190.405 145.137 189.594 143.252C188.783 141.366 189.744 141.579 190.56 141.374C191.377 141.169 190.861 140.666 189.897 140.057C188.933 139.447 189.493 138.078 189.493 138.078C189.493 138.078 190.962 135.593 190.454 135.391C189.946 135.188 189.897 131.687 189.897 131.687C189.897 131.687 188.884 127.537 189.138 126.412C189.392 125.286 188.326 122.609 188.326 122.609L187.971 119.414C186.887 117.601 186.491 115.457 186.857 113.376V108.448C186.857 108.448 185.437 98.9141 185.235 94.0951C185.105 91.0087 185.141 86.7967 185.183 84.1694C185.209 82.6962 185.235 81.7184 185.235 81.7184L207.128 79.436C207.128 79.436 207.107 80.4475 207.524 82.691C207.75 83.8945 208.1 85.4532 208.649 87.401C210.22 92.9799 209.258 97.1374 209.258 97.1374L209.053 104.189C209.053 104.189 210.979 108.905 210.575 110.528C210.33 111.492 210.193 112.48 210.165 113.475C210.165 113.475 214.472 123.771 214.016 126.764C213.56 129.757 215.434 134.475 215.434 134.475C215.434 134.475 215.947 137.821 215.439 138.734Z" fill="#464353"/>
<path opacity="0.05" d="M202.922 112.311L209.587 111.421C209.587 111.421 205.811 115.278 202.922 112.311Z" fill="black"/>
<path opacity="0.1" d="M208.623 104.903C208.623 104.903 208.851 107.263 207.408 108.15C207.408 108.15 209.991 107.745 208.623 104.903Z" fill="black"/>
<path opacity="0.1" d="M208.214 97.397C208.214 97.397 202.642 101.988 200.615 101.606C198.589 101.225 208.214 97.397 208.214 97.397Z" fill="black"/>
<path opacity="0.1" d="M194.66 114.463C194.66 114.463 190.428 115.425 190.301 117.127C190.174 118.828 194.66 114.463 194.66 114.463Z" fill="black"/>
<path opacity="0.05" d="M195.59 135.616C195.59 135.616 189.612 136.731 191.309 137.491C193.007 138.251 195.795 138.861 195.795 138.861C195.795 138.861 197.726 138.962 195.59 135.616Z" fill="black"/>
<g opacity="0.05">
<path opacity="0.05" d="M190.102 138.7C189.951 138.606 189.824 138.48 189.729 138.33C189.635 138.18 189.575 138.01 189.555 137.834L189.493 137.94C189.493 137.94 188.936 139.31 189.9 139.917C190.008 139.987 190.115 140.057 190.211 140.124C190.389 140.09 190.581 140.065 190.765 140.018C191.581 139.816 191.066 139.31 190.102 138.7Z" fill="black"/>
<path opacity="0.05" d="M197.803 138.293C197.969 138.143 197.964 137.754 197.863 137.256C197.604 137.647 197.529 138.26 197.523 138.724C197.586 138.563 197.682 138.416 197.803 138.293Z" fill="black"/>
<path opacity="0.05" d="M196.884 113.06C196.664 113.66 196.528 114.288 196.479 114.925C196.595 114.485 196.75 114.056 196.943 113.644L196.884 113.06Z" fill="black"/>
<path opacity="0.05" d="M210.577 110.399C210.617 110.217 210.635 110.03 210.632 109.844C210.557 110.222 210.505 110.573 210.466 110.881C210.5 110.723 210.536 110.573 210.577 110.399Z" fill="black"/>
<path opacity="0.05" d="M196.741 131.094C196.824 130.969 196.871 130.549 196.891 129.965C196.704 130.417 196.605 130.9 196.599 131.389C196.634 131.285 196.682 131.186 196.741 131.094Z" fill="black"/>
<path opacity="0.05" d="M197.985 140.659C197.671 141.676 197.437 142.717 197.288 143.771L191.159 144.479C191.159 144.479 190.599 143.771 189.788 141.885C189.722 141.74 189.664 141.591 189.614 141.439C189.246 141.608 189.096 141.989 189.583 143.102C190.394 144.98 190.957 145.695 190.957 145.695L197.086 144.985C197.086 144.985 197.542 141.79 198.148 141.18C198.459 140.887 198.267 140.734 197.985 140.659Z" fill="black"/>
<path opacity="0.05" d="M189.899 131.55C189.899 131.55 189.949 135.049 190.457 135.251C190.716 134.673 190.884 134.123 190.656 134.032C190.138 133.83 190.099 130.328 190.099 130.328C190.099 130.328 189.086 126.178 189.34 125.053C189.594 123.927 188.528 121.251 188.528 121.251L188.173 118.055C187.089 116.242 186.693 114.099 187.059 112.017V107.089C187.059 107.089 185.639 97.5554 185.437 92.7364C185.307 89.65 185.344 85.438 185.385 82.8107C185.385 82.336 185.401 81.9159 185.408 81.5605L185.235 81.5787C185.235 81.5787 185.206 82.5539 185.183 84.0297C185.141 86.657 185.103 90.869 185.235 93.9528C185.437 98.7718 186.854 108.308 186.854 108.308V113.236C186.491 115.317 186.887 117.459 187.971 119.272L188.324 122.467C188.324 122.467 189.389 125.154 189.135 126.272C188.881 127.39 189.899 131.55 189.899 131.55Z" fill="black"/>
<path opacity="0.05" d="M207.942 143.112C207.444 142.391 207.112 141.568 206.97 140.703C206.345 141.268 207.063 143.462 207.747 144.334C208.455 145.247 213.726 145.804 214.744 144.129V143.164C213.363 144.52 208.61 143.976 207.942 143.112Z" fill="black"/>
<path opacity="0.05" d="M215.644 137.38C215.366 137.868 215.128 138.377 214.934 138.903V139.621C215.05 139.362 215.213 139.014 215.452 138.605C215.612 138.205 215.688 137.777 215.675 137.347C215.675 137.347 215.651 137.37 215.644 137.38Z" fill="black"/>
<path opacity="0.05" d="M208.253 138.182C208.445 137.791 208.612 137.388 208.753 136.976C208.753 136.976 207.89 137.178 206.521 135.554C205.526 134.374 205.469 132.144 205.612 130.686C205.353 131.55 204.951 135.15 206.319 136.773C207.213 137.834 207.89 138.114 208.253 138.182Z" fill="black"/>
<path opacity="0.05" d="M205.609 126.933C205.699 127.933 205.732 128.936 205.71 129.939C205.736 129.781 205.77 129.624 205.814 129.47C206.073 128.606 205.814 125.717 205.814 125.717C205.814 125.717 205.866 123.686 205.459 123.027C205.052 122.368 204.205 118.613 204.205 118.613C204.205 118.613 204.205 117.345 203.495 116.686C202.785 116.027 202.328 113.439 202.328 113.439C201.91 112.793 201.726 112.023 201.81 111.257C201.963 109.989 200.95 108.62 200.95 108.62L199.226 103.142L197.604 99.0337L196.689 101.42C196.689 101.42 196.689 101.721 196.658 102.198L197.399 100.26L199.022 104.361L200.745 109.839C200.745 109.839 201.758 111.208 201.605 112.476C201.522 113.242 201.705 114.012 202.124 114.658C202.124 114.658 202.58 117.251 203.29 117.905C204 118.558 203.997 119.832 203.997 119.832C203.997 119.832 204.86 123.585 205.265 124.241C205.669 124.897 205.609 126.933 205.609 126.933Z" fill="black"/>
</g>
<path d="M209.865 33.615L209.484 35.4668L209.507 36.2916L209.522 36.8985L207.408 37.1164L207.172 36.678C206.734 35.8844 205.824 34.2712 205.531 34.0222C205.14 33.6954 204.443 28.5445 205.272 28.8505C205.783 29.0478 206.202 29.4277 206.449 29.9165C206.449 29.9165 210.613 30.3937 209.865 33.615Z" fill="#FFCDD3"/>
<path opacity="0.1" d="M209.522 36.8985L207.408 37.1164L207.172 36.6781C207.456 36.354 207.844 36.1387 208.269 36.0687C208.695 35.9987 209.131 36.0784 209.504 36.2942L209.522 36.8985Z" fill="black"/>
<path d="M210.056 37.902L207.268 38.5479L207.208 38.1329L207.05 37.015C207.05 37.015 208.154 35.5419 209.751 36.6467L209.891 37.2147L210.056 37.902Z" fill="#009F36"/>
<path d="M164.886 33.8173L161.909 35.415L161.649 34.8548C161.367 34.2608 160.945 33.366 160.828 33.0392C160.652 32.5465 159.41 31.924 159.41 31.924C156.301 28.9439 160.006 26.3814 160.006 26.3814C161.971 22.4262 164.153 27.7249 164.153 27.7249C164.153 27.7249 164.459 30.5183 164.244 30.705C164.028 30.8917 164.028 31.6568 164.028 31.6568C164.312 32.205 164.552 32.7748 164.746 33.3609C164.837 33.6436 164.886 33.8173 164.886 33.8173Z" fill="#FFCDD3"/>
<path opacity="0.1" d="M164.886 33.8171L161.909 35.4148L161.649 34.8545C162.069 34.5018 163.559 33.2984 164.049 33.3477C164.283 33.3769 164.519 33.383 164.754 33.3658C164.837 33.6433 164.886 33.8171 164.886 33.8171Z" fill="black"/>
<path d="M165.19 34.7172L161.844 36.3667L161.777 35.6483L161.73 35.1503C161.73 35.1503 163.668 33.4878 164.241 33.5526C164.531 33.5946 164.825 33.5946 165.115 33.5526L165.153 34.1543L165.19 34.7172Z" fill="#009F36"/>
<path d="M201.756 45.9166C201.756 45.9166 187.171 47.5635 189.897 46.6765C191.794 46.0566 192.548 44.861 192.706 43.5123C192.836 42.3893 192.546 41.1781 192.165 40.1406C191.822 39.2203 191.388 38.3366 190.869 37.5029C190.869 37.5029 202.013 31.3664 199.786 36.9453C199.443 37.7891 199.23 38.6802 199.154 39.5882C199.087 40.4905 199.185 41.3974 199.442 42.2648C199.862 43.6722 200.663 44.936 201.756 45.9166Z" fill="#FFCDD3"/>
<path opacity="0.1" d="M199.778 36.9375C199.435 37.7813 199.222 38.6724 199.146 39.5804C198.096 40.4648 196.946 40.4051 195.466 40.4051C194.331 40.4051 193.071 40.6801 192.164 40.1328C191.822 39.2125 191.388 38.3288 190.869 37.4951C190.869 37.4951 202.01 31.3586 199.778 36.9375Z" fill="black"/>
<path d="M195.269 40.7938C198.6 40.7938 201.3 38.0917 201.3 34.7585C201.3 31.4253 198.6 28.7231 195.269 28.7231C191.939 28.7231 189.239 31.4253 189.239 34.7585C189.239 38.0917 191.939 40.7938 195.269 40.7938Z" fill="#FFCDD3"/>
<path opacity="0.1" d="M201.756 45.9163C201.756 45.9163 187.171 47.5633 189.897 46.6763C191.794 46.0564 192.548 44.8607 192.706 43.5121C193.432 42.734 194.891 42.1556 195.816 41.8547C196.672 41.5669 197.595 41.5515 198.46 41.8107C198.799 41.9132 199.123 42.0633 199.421 42.2568C199.846 43.6694 200.654 44.9363 201.756 45.9163Z" fill="black"/>
<path opacity="0.1" d="M210.057 37.9023L207.268 38.5481L207.208 38.1332C207.507 37.7227 207.925 37.4144 208.405 37.2501C208.885 37.0858 209.404 37.0735 209.891 37.215L210.057 37.9023Z" fill="black"/>
<path opacity="0.1" d="M165.189 34.7173L161.844 36.3668L161.776 35.6484C162.86 35.0652 163.986 34.565 165.145 34.1519L165.189 34.7173Z" fill="black"/>
<path opacity="0.1" d="M207.525 82.6964C201.872 83.599 193.839 84.7505 192.564 84.3615C191.504 84.0399 188.124 84.0736 185.183 84.1747C185.209 82.7016 185.235 81.7238 185.235 81.7238L207.128 79.4414C207.128 79.4414 207.107 80.4529 207.525 82.6964Z" fill="black"/>
<path d="M213.158 81.3686C213.158 81.3686 194.559 84.5639 192.564 83.9622C190.568 83.3605 180.319 84.0115 180.319 84.0115C175.706 87.1057 177.631 82.5409 177.631 82.5409C177.631 82.5409 177.227 80.1574 177.784 78.2303C178.158 76.8155 178.414 75.3719 178.549 73.9145C178.549 73.9145 178.448 70.8696 179.005 70.159C179.562 69.4483 180.223 64.3778 180.223 64.3778C180.223 64.3778 180.728 60.9283 180.679 60.1684C180.63 59.4085 180.829 57.2765 180.829 57.2765L181.49 53.7259C177.688 53.2201 166.133 46.1188 166.133 46.1188C165.576 43.7353 161.268 38.1564 161.268 38.1564C161.206 37.6873 161.086 37.2274 160.913 36.787C160.61 35.9752 165.171 34.3516 165.171 34.3516C165.171 34.3516 168.566 38.5013 169.276 39.627C169.986 40.7526 172.417 42.8223 172.417 42.8223C172.795 42.7834 173.176 42.8332 173.531 42.9675L173.591 42.9857C174.406 43.3058 175.17 43.7426 175.859 44.2825C177.001 44.2554 178.11 44.6739 178.95 45.4496C178.95 45.4496 181.024 45.1436 181.384 45.4989C181.744 45.8542 183.511 45.4989 183.511 45.4989C183.511 45.4989 185.284 41.746 186.45 42.8353C187.616 43.9246 192.564 43.8727 192.564 43.8727C193.222 42.9961 194.826 42.3684 195.829 42.0572C196.684 41.7705 197.608 41.7551 198.472 42.0131C198.845 42.1245 199.196 42.3 199.509 42.5318L202.518 45.473C202.518 45.473 203.378 44.3551 203.277 44.1035C203.176 43.852 204.29 43.6471 204.29 43.6471C204.29 43.6471 205.76 43.1906 206.317 43.0376C206.874 42.8846 207.384 43.4889 207.431 43.5433C207.413 43.4785 207.032 42.2465 207.172 41.3128C207.312 40.3791 206.563 39.4973 206.563 39.4973C208.335 35.1348 212.339 38.7866 212.339 38.7866C212.339 38.7866 212.795 41.1702 212.391 42.0831C211.987 42.9961 212.795 44.9231 212.694 45.4315C212.593 45.9398 212.899 46.8009 212.899 47.7657C212.899 48.7306 212.381 50.5539 212.088 51.3657C211.795 52.1775 209.351 54.0034 209.351 54.0034C209.351 54.0034 209.198 56.8952 208.133 58.5681C207.068 60.241 207.737 65.9625 207.737 65.9625C207.737 65.9625 208.75 70.4261 210.017 71.8474C211.285 73.2687 213.158 81.3686 213.158 81.3686Z" fill="#3F3D56"/>
<path opacity="0.1" d="M186.046 47.9939C186.046 47.9939 185.489 46.321 184.981 46.1784C184.477 45.9927 183.986 45.7726 183.512 45.5196L183.838 44.8945C183.838 44.8945 185.74 45.4133 186.046 45.9761C186.352 46.5389 186.046 47.9939 186.046 47.9939Z" fill="black"/>
<path opacity="0.1" d="M175.859 44.2926C175.758 44.8113 171.246 45.2549 171.246 45.2549L173.527 42.9673L173.584 42.988C174.401 43.3098 175.168 43.7493 175.859 44.2926Z" fill="black"/>
<path d="M162.808 37.736C163.031 37.736 163.212 37.5548 163.212 37.3314C163.212 37.1079 163.031 36.9268 162.808 36.9268C162.585 36.9268 162.404 37.1079 162.404 37.3314C162.404 37.5548 162.585 37.736 162.808 37.736Z" fill="#575988"/>
<path d="M163.326 38.548C163.549 38.548 163.73 38.3668 163.73 38.1434C163.73 37.9199 163.549 37.7388 163.326 37.7388C163.103 37.7388 162.922 37.9199 162.922 38.1434C162.922 38.3668 163.103 38.548 163.326 38.548Z" fill="#575988"/>
<path d="M163.834 39.2975C164.057 39.2975 164.238 39.1163 164.238 38.8929C164.238 38.6694 164.057 38.4883 163.834 38.4883C163.611 38.4883 163.43 38.6694 163.43 38.8929C163.43 39.1163 163.611 39.2975 163.834 39.2975Z" fill="#575988"/>
<path d="M164.365 40.1066C164.588 40.1066 164.769 39.9254 164.769 39.702C164.769 39.4785 164.588 39.2974 164.365 39.2974C164.142 39.2974 163.961 39.4785 163.961 39.702C163.961 39.9254 164.142 40.1066 164.365 40.1066Z" fill="#575988"/>
<path d="M212.137 39.9874C212.319 39.9874 212.466 39.8399 212.466 39.658C212.466 39.4761 212.319 39.3286 212.137 39.3286C211.955 39.3286 211.808 39.4761 211.808 39.658C211.808 39.8399 211.955 39.9874 212.137 39.9874Z" fill="#575988"/>
<path d="M212.189 40.7369C212.371 40.7369 212.518 40.5894 212.518 40.4075C212.518 40.2256 212.371 40.0781 212.189 40.0781C212.007 40.0781 211.86 40.2256 211.86 40.4075C211.86 40.5894 212.007 40.7369 212.189 40.7369Z" fill="#575988"/>
<path d="M212.233 41.484C212.415 41.484 212.563 41.3365 212.563 41.1546C212.563 40.9727 212.415 40.8252 212.233 40.8252C212.052 40.8252 211.904 40.9727 211.904 41.1546C211.904 41.3365 212.052 41.484 212.233 41.484Z" fill="#575988"/>
<path opacity="0.1" d="M186.064 61.7399C186.015 61.6803 197.441 76.1189 206.309 67.7753C206.317 67.7779 192.304 69.679 186.064 61.7399Z" fill="black"/>
<path opacity="0.1" d="M179.508 69.2461C179.508 69.2461 186.344 69.4328 187.059 71.4014V73.4503C186.865 73.5584 186.646 73.6152 186.423 73.6152C186.201 73.6152 185.982 73.5584 185.787 73.4503C185.098 73.0769 180.964 70.976 179.508 71.9875V69.2461Z" fill="black"/>
<path d="M179.635 69.2461C179.635 69.2461 186.173 69.4251 186.857 71.3028V73.2532C186.671 73.3568 186.461 73.4111 186.248 73.4111C186.035 73.4111 185.826 73.3568 185.639 73.2532C184.981 72.9005 181.029 70.8956 179.635 71.8604V69.2461Z" fill="#3F3D56"/>
<path opacity="0.1" d="M183.239 54.3896C183.938 56.0077 184.828 57.5359 185.89 58.9414C187.046 60.495 188.446 61.8502 190.037 62.9537C190.037 62.9537 183.353 55.3285 183.239 54.3896Z" fill="black"/>
<path opacity="0.1" d="M181.003 46.4404C181.003 46.4404 182.143 51.3683 185.082 53.0412L181.003 46.4404Z" fill="black"/>
<path opacity="0.1" d="M179.254 46.938C179.225 46.8473 178.24 50.8285 183.042 53.0408C183.042 53.0408 181.003 52.3483 179.254 46.938Z" fill="black"/>
<path opacity="0.1" d="M209.105 43.6341C209.03 43.6341 211.474 45.1903 212.14 45.9165C212.14 45.9165 210.549 43.5304 209.105 43.6341Z" fill="black"/>
<path d="M193.639 40.2288C193.64 40.3605 193.668 40.4906 193.722 40.6108C193.776 40.731 193.854 40.8387 193.951 40.9272C194.049 41.0157 194.163 41.083 194.288 41.1248C194.413 41.1667 194.545 41.1822 194.676 41.1703C196.513 41.2844 198.428 41.3648 200.118 40.6516C200.435 40.5384 200.72 40.3497 200.947 40.1018C201.248 39.7309 201.308 39.2277 201.429 38.766C201.668 37.8635 202.176 37.062 202.541 36.2036C203.159 34.7531 203.367 33.1603 203.14 31.5999C203.092 31.1216 202.934 30.6608 202.679 30.2538C202.191 29.5561 201.302 29.2734 200.657 28.7184C200.012 28.1634 199.597 27.3152 198.843 26.9029C198.164 26.5242 197.332 26.5709 196.568 26.7006C195.064 26.9561 193.623 27.4976 192.323 28.2956C191.885 28.555 191.405 28.874 190.903 28.778C190.462 28.695 190.141 28.3242 189.866 27.9766C189.513 28.8066 189.364 29.7096 189.433 30.6091C189.452 30.7411 189.448 30.8755 189.42 31.006C189.357 31.1637 189.261 31.3061 189.138 31.4235C188.684 31.9423 188.402 32.7852 188.85 33.3195C189.045 33.5503 189.345 33.6774 189.534 33.9134C189.874 34.3362 189.76 34.9508 189.752 35.4903C189.733 35.6787 189.781 35.8677 189.887 36.0246C189.985 36.1161 190.105 36.1806 190.235 36.212C190.366 36.2433 190.502 36.2404 190.631 36.2036C190.887 36.1262 191.157 36.1006 191.424 36.1283C191.705 36.2198 191.947 36.4023 192.113 36.6471C192.95 37.739 193.282 38.9268 193.639 40.2288Z" fill="#2D293D"/>
<g opacity="0.1">
<path opacity="0.1" d="M201.162 39.6424C200.935 39.8904 200.65 40.0791 200.333 40.1923C198.633 40.9003 196.721 40.8199 194.891 40.711C194.695 40.713 194.5 40.6695 194.323 40.5839C194.044 40.4205 193.937 40.0782 193.852 39.7669C193.494 38.4701 193.165 37.2797 192.315 36.1981C192.151 35.9486 191.908 35.7614 191.626 35.6664C191.359 35.6413 191.09 35.6668 190.833 35.7416C190.704 35.7788 190.568 35.7822 190.438 35.7513C190.307 35.7204 190.187 35.6563 190.089 35.5653C189.983 35.4084 189.935 35.2194 189.954 35.031C189.954 34.4863 190.076 33.8768 189.736 33.4541C189.547 33.2181 189.247 33.091 189.052 32.8576C188.926 32.6855 188.848 32.4822 188.827 32.2694C188.807 32.0565 188.844 31.8421 188.936 31.6489C188.612 32.1676 188.474 32.8186 188.85 33.2647C189.045 33.4956 189.345 33.6227 189.534 33.8587C189.874 34.284 189.76 34.8961 189.752 35.4356C189.732 35.6237 189.779 35.8128 189.884 35.9699C189.982 36.0618 190.103 36.1266 190.234 36.158C190.365 36.1893 190.501 36.1862 190.631 36.1488C190.887 36.0714 191.157 36.0459 191.424 36.0736C191.705 36.1651 191.947 36.3476 192.113 36.5924C192.96 37.6739 193.292 38.8618 193.65 40.1638C193.692 40.4841 193.851 40.7773 194.098 40.9859C194.276 41.0716 194.471 41.1143 194.668 41.1104C196.505 41.2245 198.421 41.3075 200.11 40.5917C200.428 40.4792 200.712 40.2904 200.94 40.0419C201.054 39.8958 201.141 39.7307 201.199 39.5543C201.201 39.588 201.183 39.6165 201.162 39.6424Z" fill="black"/>
<path opacity="0.1" d="M189.433 30.8475C189.514 30.759 189.577 30.6549 189.617 30.5414C189.64 30.4102 189.64 30.2758 189.617 30.1446C189.566 29.4051 189.662 28.663 189.899 27.9608L189.866 27.9219C189.511 28.7506 189.363 29.653 189.433 30.5518C189.441 30.6502 189.441 30.7491 189.433 30.8475Z" fill="black"/>
</g>
<path opacity="0.1" d="M192.563 43.8857C192.563 43.8857 200.097 44.8868 200.773 43.7534L192.563 43.8857Z" fill="black"/>
<path opacity="0.1" d="M207.208 40.7656C207.208 40.7656 211.396 40.7656 212.316 42.3425L207.208 40.7656Z" fill="black"/>
<path d="M230.638 180.859C229.396 181.971 227.782 182.574 226.116 182.55C225.691 182.55 225.103 182.631 225.1 183.056C225.11 183.181 225.153 183.301 225.224 183.404C225.75 184.281 226.581 184.934 227.557 185.237C228.464 185.512 229.433 185.466 230.379 185.416L233.139 185.274C233.657 185.245 234.176 185.219 234.694 185.154C235.212 185.089 235.777 184.983 236.319 184.895C237.65 184.706 238.995 184.643 240.338 184.708C240.696 184.721 241.116 184.708 241.328 184.449C241.541 184.189 241.432 183.694 241.351 183.305C241.186 182.504 241.351 181.663 241.199 180.859C240.939 179.448 239.719 178.367 238.382 177.856C237.138 177.384 234.935 176.842 233.758 177.63C232.517 178.458 231.758 179.84 230.638 180.859Z" fill="#3F3D56"/>
<path d="M233.38 133.588C233.623 134.747 234.745 135.634 234.777 136.817C234.805 137.766 234.129 138.563 233.642 139.374C233.182 140.215 232.795 141.093 232.483 141.999C231.566 144.358 230.427 146.625 229.083 148.768C228.435 149.806 227.71 150.913 227.857 152.119C227.96 152.683 228.159 153.226 228.446 153.722L230.389 157.587C230.815 158.358 231.148 159.178 231.382 160.027C231.55 160.761 231.566 161.521 231.664 162.268C231.97 164.639 233.082 167.025 232.423 169.323C232.366 169.52 232.164 169.759 232.006 169.621C232.649 170.822 233.165 172.031 233.115 173.392C233.09 174.105 232.872 174.85 233.134 175.514C233.245 175.791 233.439 176.051 233.437 176.349C233.437 176.546 233.346 176.73 233.325 176.922C233.271 177.469 233.774 177.926 234.295 178.1C234.815 178.273 235.383 178.26 235.909 178.419C236.92 178.722 237.643 179.594 238.501 180.198C239.381 180.805 240.418 181.142 241.486 181.17C241.638 181.187 241.792 181.156 241.927 181.082C242.003 181.016 242.064 180.934 242.106 180.841C242.148 180.749 242.17 180.649 242.17 180.548C242.217 180.064 242.144 179.575 241.958 179.126C241.772 178.676 241.478 178.279 241.102 177.97C240.938 177.867 240.802 177.724 240.706 177.555C240.658 177.405 240.645 177.246 240.67 177.091C240.826 174.965 240.788 172.829 240.556 170.71C240.451 170.039 240.417 169.358 240.455 168.68C240.509 168.114 240.68 167.554 240.618 166.991C240.556 166.428 240.268 165.915 240.1 165.373C239.799 164.408 239.882 163.371 239.84 162.362C239.789 160.608 239.387 158.886 238.988 157.174C238.83 156.503 238.656 155.8 238.182 155.302C237.778 154.879 237.124 154.474 237.277 153.912C237.362 153.704 237.488 153.516 237.648 153.359C237.836 153.123 237.973 152.852 238.053 152.561C238.132 152.27 238.151 151.967 238.109 151.668C238.28 151.712 238.46 151.695 238.619 151.62C238.779 151.545 238.907 151.417 238.983 151.258C242.139 149.767 244.684 146.784 245.819 143.478C245.886 143.232 245.989 142.998 246.125 142.782C246.418 142.373 246.926 142.196 247.377 141.971C248.791 141.257 249.768 139.922 250.665 138.614C251.183 137.857 251.702 137.074 251.935 136.182C252.058 135.605 252.116 135.016 252.109 134.426L252.189 131.378C252.207 131.178 252.187 130.975 252.132 130.782C252.055 130.601 251.943 130.437 251.803 130.299C250.941 129.387 249.809 128.776 248.574 128.556C247.744 128.409 246.897 128.437 246.057 128.367C244.43 128.232 242.823 127.726 241.196 127.848C238.638 128.038 236.36 129.812 235.155 132.079C234.733 132.877 234.287 133.572 233.38 133.588Z" fill="#464353"/>
<path d="M219.178 113.773C219.213 114.243 219.149 114.716 218.992 115.161C218.792 115.586 218.292 115.918 217.854 115.744C217.986 115.446 217.636 115.106 217.31 115.142C217.149 115.179 217 115.255 216.875 115.363C216.75 115.47 216.653 115.606 216.592 115.76C216.376 116.195 216.303 116.688 216.385 117.168C216.488 117.765 216.833 118.338 216.742 118.937C216.67 119.435 216.304 119.93 216.499 120.392C216.625 120.603 216.783 120.793 216.968 120.955C217.224 121.27 217.349 121.672 217.318 122.078C217.286 122.483 217.101 122.861 216.799 123.133L221.703 123.232C221.524 124.051 221.892 124.889 222.312 125.618C223.487 127.622 225.111 129.326 227.055 130.596C228.999 131.866 231.211 132.668 233.517 132.94C233.393 133.013 233.286 133.112 233.204 133.232C233.123 133.351 233.069 133.487 233.046 133.63C233.024 133.772 233.033 133.918 233.074 134.057C233.114 134.195 233.185 134.323 233.281 134.431C233.68 134.828 234.357 134.779 234.857 134.522C235.357 134.265 235.749 133.84 236.205 133.51C237.01 132.939 237.992 132.675 238.975 132.763C239.589 132.823 240.185 133.023 240.802 133.054C242.616 133.15 244.171 131.843 245.918 131.308C247.19 130.917 248.634 130.917 249.701 130.121C250.163 129.778 250.541 129.215 250.406 128.66C250.295 128.341 250.118 128.049 249.888 127.802C249.274 127.006 248.911 126.049 248.47 125.143C247.597 123.351 246.396 121.739 244.928 120.392C243.82 119.423 242.645 118.532 241.414 117.726C241.116 117.506 240.798 117.314 240.465 117.152C240.035 116.963 239.558 116.872 239.169 116.634C238.594 116.271 238.262 115.63 237.819 115.114C236.847 113.978 235.355 113.457 234.157 112.564C233.354 111.965 232.644 111.177 231.685 110.889C231.219 110.746 230.724 110.736 230.257 110.596C229.197 110.274 228.425 109.333 227.386 108.951C226.564 108.651 225.657 108.728 224.794 108.622C223.821 108.502 222.892 108.148 222.086 107.59C221.826 107.378 221.535 107.208 221.223 107.087C219.909 106.687 219.803 109.136 219.668 109.984C219.495 111.244 219.178 112.497 219.178 113.773Z" fill="#009F36"/>
<path d="M220.459 121.985C220.679 124.376 218.875 126.692 219.402 129.034C219.513 129.532 219.728 130.007 219.806 130.512C220.026 131.9 219.197 133.215 218.406 134.377L211.617 144.349C211.344 144.787 211.018 145.19 210.647 145.548C209.352 146.702 207.403 146.585 205.698 146.927C204.5 147.174 203.369 147.674 202.38 148.395C202.336 148.43 202.307 148.48 202.299 148.536C202.291 148.592 202.306 148.648 202.339 148.694C202.621 149.077 202.994 149.384 203.424 149.587C203.854 149.789 204.329 149.881 204.804 149.853C204.982 150.086 204.804 150.434 204.557 150.602C204.195 150.862 203.692 150.922 203.619 151.541C203.595 151.757 203.638 151.974 203.744 152.164C204.018 152.582 204.443 152.877 204.93 152.989C207.281 153.71 209.821 152.444 211.58 150.724C213.34 149.005 214.602 146.834 216.328 145.086C217.284 144.116 218.37 143.288 219.355 142.35C221.319 140.474 222.848 138.2 224.32 135.92C224.763 135.233 225.212 134.527 225.396 133.731C225.58 132.935 225.494 132.128 225.704 131.358C225.979 130.349 226.717 129.542 227.332 128.697C228.537 127.037 229.343 125.006 229.182 122.96C229.021 120.913 227.757 118.896 225.828 118.2C225.23 117.963 224.572 117.923 223.95 118.086C223.159 118.33 222.576 118.984 222.037 119.611L220.741 121.1C220.426 121.43 220.178 121.818 220.013 122.244C219.93 122.458 219.91 122.692 219.956 122.918C220.001 123.143 220.111 123.35 220.272 123.515" fill="#FBBEBE"/>
<path d="M223.9 112.175C223.009 112.227 222.026 112.315 221.397 112.953C221.133 113.246 220.919 113.581 220.764 113.944C220.153 115.192 219.557 116.496 219.513 117.886C219.476 118.997 219.798 120.083 219.966 121.18C220.106 122.093 219.751 123.024 219.684 123.948C220.79 123.608 222.252 123.146 223.255 122.573C223.939 122.181 224.6 121.735 225.346 121.486C226.411 121.131 228.197 121.746 229.21 122.239C229.264 121.528 228.731 120.288 228.788 119.575C228.796 119.275 228.849 118.977 228.946 118.693C229.097 118.392 229.277 118.107 229.482 117.84C229.868 117.212 230.045 116.478 229.989 115.744C229.933 115.009 229.645 114.311 229.169 113.75C228.269 112.738 226.862 112.359 225.52 112.193C224.674 112.095 223.822 112.066 222.972 112.105" fill="#009F36"/>
<defs>
<linearGradient id="paint0_linear" x1="187.018" y1="151.658" x2="187.018" y2="24.9184" gradientUnits="userSpaceOnUse">
<stop stop-color="#808080" stop-opacity="0.25"/>
<stop offset="0.54" stop-color="#808080" stop-opacity="0.12"/>
<stop offset="1" stop-color="#808080" stop-opacity="0.1"/>
</linearGradient>
</defs>
</svg>
