<svg width="280" height="196" viewBox="0 0 280 196" fill="none" xmlns="http://www.w3.org/2000/svg">
<g clip-path="url(#clip0)">
<g clip-path="url(#clip1)">
<path d="M209.762 158.454C209.762 158.454 239.082 159.972 232.253 169.217C225.423 178.461 207.479 163.794 207.479 163.794L209.762 158.454Z" fill="#FFB8B8"/>
<path d="M155.73 70.4033L161.698 71.8976C161.698 71.8976 165.179 82.3579 167.666 91.8219C170.153 101.286 175.126 129.678 175.126 129.678L213.682 156.742L209.084 167.045L157.719 146.77L146.281 101.784L155.73 70.4033Z" fill="#575A89"/>
<path opacity="0.2" d="M161.345 88.9707L159.121 135.623L163.762 149.494L150.166 139.507L161.345 88.9707Z" fill="black"/>
<path d="M169.406 171.768C169.406 171.768 175.872 189.202 176.866 201.156C177.861 213.111 178.856 222.575 178.856 222.575H148.519L142.551 213.609V222.575H107.24C107.24 222.575 97.2938 190.198 101.272 186.213C105.251 182.228 143.048 165.292 143.048 165.292L169.406 171.768Z" fill="#2F2E41"/>
<path d="M131.361 51.4757C141.798 51.4757 150.259 43.0013 150.259 32.5476C150.259 22.094 141.798 13.6196 131.361 13.6196C120.924 13.6196 112.462 22.094 112.462 32.5476C112.462 43.0013 120.924 51.4757 131.361 51.4757Z" fill="#FFB8B8"/>
<path d="M116.938 40.5171L115.446 62.4337L134.345 87.8371L143.794 63.928C143.794 63.928 135.339 58.4489 140.313 46.9925L116.938 40.5171Z" fill="#FFB8B8"/>
<path d="M172.141 176.001C172.141 180.486 159.707 187.458 159.707 187.458V189.949L154.734 192.439L143.794 170.524L140.811 194.431C140.811 194.431 118.927 197.92 111.966 194.431C105.001 190.944 101.521 192.439 91.5743 188.953C81.6277 185.467 95.5535 138.644 95.5535 138.644L85.6069 66.4185L107.337 55.5365L108.482 54.9616L111.47 54.4108L116.051 53.5635L131.36 63.928L132.593 70.404L133.352 74.3894L137.328 69.9047L140.331 60.0122L161.699 71.8989L155.731 119.715C155.731 119.715 172.141 171.52 172.141 176.001Z" fill="#575A89"/>
<path d="M99.0348 191.443C99.0348 191.443 121.912 209.873 110.971 213.36C100.029 216.847 94.0615 194.432 94.0615 194.432L99.0348 191.443Z" fill="#FFB8B8"/>
<path d="M90.5802 67.4147L85.6069 66.4185C85.6069 66.4185 78.1469 70.4033 77.6496 78.373C77.1523 86.3427 70.687 142.131 70.687 142.131L91.5748 198.416L108.484 191.941L92.0722 139.142L104.505 93.3162L90.5802 67.4147Z" fill="#575A89"/>
<path d="M133.548 82.6157C134.549 82.6157 135.361 81.8028 135.361 80.8001C135.361 79.7973 134.549 78.9844 133.548 78.9844C132.547 78.9844 131.735 79.7973 131.735 80.8001C131.735 81.8028 132.547 82.6157 133.548 82.6157Z" fill="#2F2E41"/>
<path d="M133.548 94.4175C134.549 94.4175 135.361 93.6046 135.361 92.6018C135.361 91.599 134.549 90.7861 133.548 90.7861C132.547 90.7861 131.735 91.599 131.735 92.6018C131.735 93.6046 132.547 94.4175 133.548 94.4175Z" fill="#2F2E41"/>
<path d="M143.821 172.189C144.822 172.189 145.634 171.377 145.634 170.374C145.634 169.371 144.822 168.558 143.821 168.558C142.82 168.558 142.008 169.371 142.008 170.374C142.008 171.377 142.82 172.189 143.821 172.189Z" fill="#2F2E41"/>
<path d="M115.405 13.1566L111.912 11.7558C111.912 11.7558 119.216 3.70131 129.379 4.40172L126.521 1.24995C126.521 1.24995 133.508 -1.55158 139.86 5.80248C143.199 9.66834 147.062 14.2125 149.47 19.3314H153.211L151.65 22.7749L157.115 26.2185L151.506 25.5999C151.84 27.4857 151.891 29.4108 151.658 31.3117C151.417 33.2132 150.448 34.9467 148.956 36.1463C148.956 36.1463 144.623 27.1643 144.623 25.7635V29.2655C144.623 29.2655 141.13 26.1137 141.13 24.0126L139.224 26.4639H126.521L128.426 23.3122L121.122 24.3628L123.98 20.5106L112.671 36.4175C112.671 36.4175 106.195 18.4095 115.405 13.1566Z" fill="#2F2E41"/>
<path d="M227.786 147.054C244.472 147.054 258 133.505 258 116.792C258 100.079 244.472 86.5308 227.786 86.5308C211.099 86.5308 197.571 100.079 197.571 116.792C197.571 133.505 211.099 147.054 227.786 147.054Z" fill="#3F3D56"/>
<path opacity="0.1" d="M227.786 142.817C242.136 142.817 253.77 131.166 253.77 116.792C253.77 102.419 242.136 90.7676 227.786 90.7676C213.435 90.7676 201.801 102.419 201.801 116.792C201.801 131.166 213.435 142.817 227.786 142.817Z" fill="black"/>
<path d="M226.541 132.149V128.361C224.629 128.324 222.651 127.649 221.498 126.711L222.289 124.199C223.659 125.228 225.322 125.792 227.035 125.811C229.375 125.811 230.958 124.273 230.958 122.136C230.958 120.073 229.672 118.798 227.233 117.673C223.871 116.173 221.794 114.448 221.794 111.185C221.794 108.072 223.739 105.709 226.771 105.147V101.359H228.815V104.997C230.339 105.018 231.825 105.473 233.1 106.309L232.276 108.785C231.053 107.946 229.604 107.502 228.123 107.509C225.585 107.509 224.629 109.235 224.629 110.735C224.629 112.685 225.848 113.66 228.716 115.01C232.111 116.585 233.825 118.535 233.825 121.873C233.825 124.836 232.012 127.611 228.617 128.249V132.149H226.541Z" fill="#75CD22"/>
<path opacity="0.2" d="M96.5371 153.507L108.621 191.314L98.9527 151.974L96.5371 153.507Z" fill="black"/>
<path d="M34.927 79.6488H27.2565C26.9222 79.6484 26.6017 79.5152 26.3653 79.2785C26.1289 79.0417 25.996 78.7207 25.9956 78.3859V67.3425C25.996 67.0077 26.1289 66.6867 26.3653 66.4499C26.6017 66.2131 26.9222 66.08 27.2565 66.0796H34.927C35.2613 66.08 35.5818 66.2131 35.8182 66.4499C36.0546 66.6867 36.1875 67.0077 36.1879 67.3425V78.3859C36.1875 78.7207 36.0546 79.0417 35.8182 79.2785C35.5818 79.5152 35.2613 79.6484 34.927 79.6488ZM27.2565 66.6848C27.0825 66.685 26.9156 66.7544 26.7925 66.8777C26.6694 67.001 26.6001 67.1681 26.5999 67.3425V78.3859C26.6001 78.5602 26.6694 78.7274 26.7925 78.8507C26.9156 78.974 27.0825 79.0433 27.2565 79.0436H34.927C35.1011 79.0433 35.268 78.974 35.3911 78.8507C35.5142 78.7274 35.5834 78.5602 35.5836 78.3859V67.3425C35.5834 67.1681 35.5142 67.001 35.3911 66.8777C35.268 66.7544 35.1011 66.685 34.927 66.6848H27.2565Z" fill="#3F3D56"/>
<path d="M48.937 79.6492H42.0102C41.5773 79.6487 41.1623 79.4762 40.8562 79.1696C40.5501 78.8631 40.3779 78.4474 40.3774 78.0139V55.7114C40.3779 55.2779 40.5501 54.8623 40.8562 54.5557C41.1623 54.2491 41.5773 54.0767 42.0102 54.0762H48.937C49.3699 54.0767 49.7849 54.2491 50.091 54.5557C50.3971 54.8623 50.5692 55.2779 50.5697 55.7114V78.0139C50.5692 78.4474 50.3971 78.8631 50.091 79.1696C49.7849 79.4762 49.3699 79.6487 48.937 79.6492ZM42.0102 54.6814C41.7375 54.6817 41.4761 54.7903 41.2833 54.9834C41.0905 55.1765 40.982 55.4383 40.9817 55.7114V78.0139C40.982 78.287 41.0905 78.5488 41.2833 78.7419C41.4761 78.935 41.7375 79.0436 42.0102 79.0439H48.937C49.2097 79.0436 49.4711 78.935 49.6639 78.7419C49.8567 78.5488 49.9652 78.287 49.9655 78.0139V55.7114C49.9652 55.4384 49.8567 55.1765 49.6639 54.9834C49.4711 54.7903 49.2097 54.6817 48.937 54.6814L42.0102 54.6814Z" fill="#3F3D56"/>
<path d="M63.0514 79.6491H56.6595C56.1557 79.6485 55.6727 79.4478 55.3165 79.091C54.9602 78.7342 54.7598 78.2505 54.7593 77.7459V44.9359C54.7598 44.4313 54.9602 43.9476 55.3165 43.5908C55.6727 43.234 56.1557 43.0333 56.6595 43.0327H63.0514C63.5552 43.0333 64.0382 43.234 64.3944 43.5908C64.7506 43.9476 64.951 44.4313 64.9516 44.9359V77.7459C64.951 78.2505 64.7506 78.7342 64.3944 79.091C64.0382 79.4478 63.5552 79.6485 63.0514 79.6491ZM56.6595 43.6379C56.3159 43.6383 55.9865 43.7752 55.7436 44.0185C55.5006 44.2619 55.364 44.5918 55.3636 44.9359V77.7459C55.364 78.09 55.5006 78.4199 55.7436 78.6632C55.9865 78.9066 56.3159 79.0434 56.6595 79.0438H63.0514C63.395 79.0434 63.7244 78.9066 63.9673 78.6632C64.2102 78.4199 64.3469 78.09 64.3473 77.7459V44.9359C64.3469 44.5918 64.2102 44.2619 63.9673 44.0185C63.7244 43.7752 63.395 43.6383 63.0514 43.6379H56.6595Z" fill="#3F3D56"/>
<path d="M33.9681 68.1826H28.2153V77.5455H33.9681V68.1826Z" fill="#75CD22"/>
<path d="M48.35 56.2993H42.5972V77.5459H48.35V56.2993Z" fill="#75CD22"/>
<path d="M62.7318 45.2559H56.979V77.5458H62.7318V45.2559Z" fill="#75CD22"/>
<path d="M239.449 44.8483H199.264C199.224 44.8483 199.185 44.8405 199.148 44.8253C199.112 44.8101 199.078 44.7878 199.05 44.7597C199.022 44.7316 199 44.6982 198.985 44.6615C198.97 44.6248 198.962 44.5854 198.962 44.5457V3.69275C198.962 3.61249 198.994 3.53552 199.05 3.47877C199.107 3.42202 199.184 3.39014 199.264 3.39014C199.344 3.39014 199.421 3.42202 199.478 3.47877C199.534 3.53552 199.566 3.61249 199.566 3.69275V44.2431H239.449C239.529 44.2431 239.606 44.275 239.663 44.3317C239.719 44.3885 239.751 44.4654 239.751 44.5457C239.751 44.626 239.719 44.7029 239.663 44.7597C239.606 44.8164 239.529 44.8483 239.449 44.8483Z" fill="#3F3D56"/>
<path d="M69.0407 83.8857H21.3021C21.2625 83.8857 21.2232 83.8779 21.1865 83.8627C21.1498 83.8475 21.1165 83.8252 21.0885 83.7971C21.0604 83.769 21.0382 83.7356 21.023 83.6989C21.0078 83.6622 21 83.6228 21 83.5831V36.0726C21 35.9924 21.0318 35.9154 21.0885 35.8587C21.1452 35.8019 21.222 35.77 21.3021 35.77C21.3823 35.77 21.4591 35.8019 21.5158 35.8587C21.5725 35.9154 21.6043 35.9924 21.6043 36.0726V83.2805H69.0407C69.1208 83.2805 69.1977 83.3124 69.2543 83.3691C69.311 83.4259 69.3428 83.5028 69.3428 83.5831C69.3428 83.6634 69.311 83.7403 69.2543 83.7971C69.1977 83.8538 69.1208 83.8857 69.0407 83.8857Z" fill="#3F3D56"/>
<path d="M213.132 41.0555H205.462C205.127 41.0552 204.807 40.922 204.57 40.6852C204.334 40.4485 204.201 40.1275 204.201 39.7926V28.7492C204.201 28.4144 204.334 28.0934 204.57 27.8566C204.807 27.6198 205.127 27.4867 205.462 27.4863H213.132C213.466 27.4867 213.787 27.6199 214.023 27.8567C214.26 28.0934 214.393 28.4144 214.393 28.7492V39.7926C214.393 40.1274 214.26 40.4484 214.023 40.6852C213.787 40.9219 213.466 41.0551 213.132 41.0555ZM205.462 28.0916C205.288 28.0918 205.121 28.1611 204.998 28.2844C204.874 28.4077 204.805 28.5749 204.805 28.7492V39.7926C204.805 39.967 204.874 40.1342 204.998 40.2574C205.121 40.3807 205.288 40.4501 205.462 40.4503H213.132C213.306 40.4501 213.473 40.3807 213.596 40.2574C213.719 40.1341 213.789 39.967 213.789 39.7926V28.7492C213.789 28.5749 213.719 28.4077 213.596 28.2844C213.473 28.1611 213.306 28.0918 213.132 28.0916H205.462Z" fill="#3F3D56"/>
<path d="M228.84 41.0556H221.78C221.365 41.0551 220.967 40.8897 220.673 40.5956C220.379 40.3015 220.214 39.9028 220.214 39.4869V19.4842C220.214 19.0683 220.379 18.6695 220.673 18.3755C220.967 18.0814 221.365 17.916 221.78 17.9155H228.84C229.255 17.916 229.653 18.0814 229.947 18.3755C230.241 18.6695 230.406 19.0683 230.406 19.4842V39.4869C230.406 39.9028 230.241 40.3015 229.947 40.5956C229.653 40.8897 229.255 41.0551 228.84 41.0556ZM221.78 18.5208C221.525 18.521 221.281 18.6226 221.1 18.8032C220.92 18.9838 220.818 19.2287 220.818 19.4842V39.4869C220.818 39.7423 220.92 39.9872 221.1 40.1679C221.28 40.3485 221.525 40.4501 221.78 40.4504H228.84C229.095 40.4501 229.34 40.3485 229.52 40.1679C229.7 39.9872 229.802 39.7423 229.802 39.4869V19.4842C229.802 19.2287 229.7 18.9838 229.52 18.8032C229.34 18.6226 229.095 18.521 228.84 18.5208H221.78Z" fill="#3F3D56"/>
<path d="M212.035 29.6943H206.282V39.0572H212.035V29.6943Z" fill="#75CD22"/>
<path d="M228.187 20.4277H222.434V38.5434H228.187V20.4277Z" fill="#75CD22"/>
<path d="M209.235 24.2703C210.737 24.2703 211.954 23.0509 211.954 21.5468C211.954 20.0426 210.737 18.8232 209.235 18.8232C207.733 18.8232 206.516 20.0426 206.516 21.5468C206.516 23.0509 207.733 24.2703 209.235 24.2703Z" fill="#75CD22"/>
<path d="M225.249 13.9817C226.75 13.9817 227.968 12.7624 227.968 11.2582C227.968 9.75403 226.75 8.53467 225.249 8.53467C223.747 8.53467 222.529 9.75403 222.529 11.2582C222.529 12.7624 223.747 13.9817 225.249 13.9817Z" fill="#75CD22"/>
</g>
</g>
<defs>
<clipPath id="clip0">
<rect y="0.726074" width="280" height="195" fill="white"/>
</clipPath>
<clipPath id="clip1">
<rect x="21" y="0.726074" width="237" height="222" fill="white"/>
</clipPath>
</defs>
</svg>
