<svg width="280" height="195" viewBox="0 0 280 195" fill="none" xmlns="http://www.w3.org/2000/svg">
<g clip-path="url(#clip0)">
<g clip-path="url(#clip1)">
<path opacity="0.1" d="M53.9773 115.207L52.4296 114.245C52.2819 114.154 52.1368 114.055 51.9891 113.962C55.2843 113.396 58.2889 111.727 60.5093 109.227C62.7297 106.727 64.0336 103.547 64.2068 100.208C64.38 96.8692 63.4121 93.5708 61.4623 90.8549C59.5125 88.139 56.6967 86.1673 53.4778 85.2638L53.5541 91.3341L50.22 84.7323H50.1732C48.2412 84.642 46.3103 84.9332 44.4907 85.5892C42.6712 86.2451 40.9988 87.2531 39.5688 88.5555C38.1389 89.858 36.9796 91.4293 36.157 93.1798C35.3344 94.9303 34.8647 96.8257 34.7747 98.7578C34.76 99.0383 34.7747 99.3163 34.7747 99.5944C33.6158 98.2706 32.5602 96.8508 31.8638 95.2957C30.4539 92.1486 30.4268 88.5807 30.5376 84.2476C30.759 75.6576 31.1306 67.0036 31.6128 58.3768C35.0945 57.9891 38.3239 56.3731 40.7213 53.8187C43.1187 51.2644 44.5271 47.9391 44.6934 44.4399C44.7131 43.9896 44.7057 43.5442 44.6934 43.1038C44.6934 42.993 44.6934 42.8823 44.6762 42.774C44.6467 42.3459 44.6073 41.9227 44.5409 41.5044C44.5409 41.4355 44.5163 41.369 44.504 41.3026C44.4449 40.9483 44.3711 40.5989 44.2874 40.2519C44.2554 40.124 44.2235 40.0059 44.189 39.8656C44.0857 39.4916 43.9725 39.1274 43.8396 38.7559C43.7953 38.6353 43.7436 38.5098 43.6969 38.3966C43.5935 38.1284 43.4804 37.8627 43.3598 37.6018C43.2958 37.464 43.2343 37.3263 43.1679 37.1909C43.1482 37.1565 43.1359 37.1196 43.1162 37.0851C41.5613 34.0128 38.9782 31.5831 35.8166 30.219C32.655 28.8549 29.1151 28.6428 25.8132 29.6196L25.9116 37.5182L22.6144 30.9926C19.9031 32.546 17.7592 34.9251 16.4954 37.7828C15.2316 40.6406 14.9142 43.8274 15.5894 46.8783H15.5746C15.5967 46.9841 15.6287 47.0826 15.6533 47.1884C15.7001 47.3828 15.7493 47.5747 15.8034 47.7666C15.8723 48.0127 15.9511 48.2587 16.0323 48.5048C16.0938 48.6844 16.1528 48.8665 16.2217 49.0461C16.3226 49.3069 16.4358 49.5604 16.549 49.8138C16.6154 49.9615 16.6745 50.114 16.7458 50.2592C16.9329 50.6414 17.1363 51.013 17.3561 51.3739C17.4324 51.5018 17.5185 51.6199 17.6021 51.7454C17.7596 51.9915 17.9171 52.2375 18.0943 52.4664C18.2001 52.6115 18.3133 52.7493 18.424 52.8921C18.5864 53.0963 18.7512 53.2981 18.9161 53.4924C19.0367 53.6327 19.1622 53.7656 19.2877 53.9009C19.4697 54.0904 19.6543 54.2749 19.8462 54.457C19.9717 54.5776 20.0923 54.7031 20.2325 54.8163C20.4491 55.0082 20.6754 55.1927 20.9043 55.3723C21.0199 55.4609 21.1331 55.5569 21.2512 55.6455C21.6006 55.8915 21.9599 56.1376 22.3314 56.3837C22.4003 56.428 22.4766 56.4624 22.5455 56.5042C22.858 56.6863 23.173 56.8586 23.4978 57.0185C23.638 57.0874 23.7807 57.1464 23.9234 57.2104C24.1892 57.331 24.4574 57.4565 24.733 57.55C24.8929 57.6115 25.0553 57.6681 25.2251 57.7247C25.4958 57.8157 25.7714 57.8994 26.0494 57.9707C26.2118 58.015 26.3767 58.0618 26.5415 58.1012C26.8417 58.1725 27.1493 58.2316 27.4593 58.2857L27.5184 58.298C27.3166 61.9364 27.1362 65.5773 26.9771 69.2206C26.1 67.4168 24.8635 65.8112 23.3434 64.5026C21.8233 63.1939 20.0518 62.2098 18.1376 61.6107C16.2233 61.0116 14.2069 60.8101 12.2119 61.0186C10.217 61.227 8.28577 61.8411 6.53678 62.8231L9.14011 69.9588L3.77844 64.7916C0.907235 67.4169 -0.80438 71.0747 -0.980374 74.9613C-1.04897 76.3247 -0.923033 77.6909 -0.606361 79.0188C0.0668782 81.8918 1.58781 84.4962 3.75918 86.4943C5.93055 88.4924 8.65218 89.792 11.5711 90.2246C14.4901 90.6572 17.4716 90.2027 20.1292 88.9202C22.7867 87.6377 24.9976 85.5863 26.4751 83.032C26.4751 83.4011 26.4505 83.7702 26.4406 84.1418C26.3422 87.9656 26.2192 92.7244 28.1262 96.9738C29.418 99.8528 31.4947 102.19 33.5395 104.287C34.8756 105.652 36.2609 106.971 37.6807 108.248C39.0772 110.126 40.9007 111.644 43.0005 112.677C45.3332 114.476 47.7495 116.167 50.247 117.727L51.807 118.696C53.2096 119.565 54.6466 120.458 56.0541 121.386C55.808 121.361 55.5619 121.334 55.3159 121.322C52.1932 121.176 49.1051 122.027 46.498 123.752C43.891 125.478 41.9001 127.987 40.8131 130.918L50.0157 138.406L39.8928 136.058C39.8959 138.549 40.5302 140.998 41.7365 143.177C42.9427 145.356 44.6815 147.194 46.7905 148.518C48.8995 149.843 51.3098 150.612 53.7964 150.753C56.283 150.893 58.7647 150.402 61.0097 149.323C60.7834 149.609 60.5553 149.893 60.3257 150.175C59.8729 150.737 59.4259 151.297 58.9846 151.853C52.9955 159.436 51.3297 166.639 54.2947 172.128L57.902 170.179C55.0157 164.837 59.3562 157.997 62.2007 154.395C62.6337 153.845 63.0733 153.296 63.5195 152.746C67.3507 147.98 71.6863 142.596 71.5805 135.982C71.4206 126.019 61.7381 120.025 53.9773 115.207Z" fill="#75CD22"/>
<path opacity="0.1" d="M196.449 85.1875L197.997 84.2254C198.144 84.1344 198.289 84.036 198.437 83.9425C195.142 83.3752 192.139 81.704 189.92 79.2036C187.701 76.7032 186.398 73.5223 186.227 70.1836C186.055 66.845 187.024 63.5472 188.975 60.8323C190.925 58.1173 193.742 56.1468 196.961 55.2444L196.884 61.3147L200.218 54.7129H200.26C202.192 54.6226 204.123 54.9137 205.943 55.5697C207.762 56.2257 209.435 57.2337 210.865 58.5361C212.295 59.8385 213.454 61.4099 214.277 63.1604C215.099 64.9109 215.569 66.8063 215.659 68.7384C215.674 69.0189 215.659 69.2969 215.659 69.575C216.818 68.2512 217.873 66.8314 218.57 65.2763C219.98 62.1292 220.007 58.5613 219.896 54.2281C219.675 45.6382 219.303 36.9842 218.821 28.3573C215.339 27.9697 212.11 26.3536 209.712 23.7993C207.315 21.2449 205.906 17.9196 205.74 14.4204C205.72 13.9701 205.728 13.5248 205.74 13.0843C205.74 12.9736 205.74 12.8629 205.757 12.7546C205.787 12.3265 205.826 11.9032 205.893 11.4849C205.893 11.416 205.917 11.3496 205.93 11.2832C205.989 10.9288 206.062 10.5794 206.146 10.2325C206.178 10.1045 206.21 9.98642 206.245 9.84616C206.348 9.47215 206.461 9.10798 206.594 8.73643C206.638 8.61586 206.69 8.49037 206.737 8.37718C206.84 8.10897 206.953 7.84323 207.074 7.58241C207.138 7.44461 207.199 7.30682 207.268 7.17148C207.285 7.13703 207.298 7.10012 207.317 7.06568C208.872 3.99504 211.453 1.56631 214.612 0.201894C217.772 -1.16253 221.31 -1.37631 224.61 -0.402269L224.512 7.49628L227.809 0.970751C230.521 2.52385 232.666 4.90321 233.931 7.7615C235.195 10.6198 235.512 13.8074 234.837 16.8589H234.852C234.829 16.9647 234.797 17.0631 234.773 17.1689C234.726 17.3633 234.677 17.5552 234.623 17.7472C234.554 17.9932 234.475 18.2393 234.394 18.4854C234.332 18.665 234.273 18.8471 234.204 19.0267C234.104 19.2875 233.99 19.541 233.877 19.7944C233.811 19.942 233.752 20.0946 233.68 20.2398C233.493 20.622 233.29 20.9935 233.07 21.3544C232.994 21.4824 232.908 21.6005 232.824 21.726C232.667 21.972 232.509 22.2181 232.332 22.4469C232.226 22.5921 232.113 22.7299 232.002 22.8726C231.84 23.0769 231.675 23.2786 231.51 23.473C231.389 23.6133 231.264 23.7461 231.138 23.8815C230.959 24.0709 230.772 24.2555 230.58 24.4376C230.454 24.5581 230.334 24.6836 230.194 24.7968C229.977 24.9887 229.751 25.1733 229.522 25.3529C229.406 25.4415 229.293 25.5375 229.175 25.626C228.826 25.8721 228.466 26.1182 228.095 26.3519C228.026 26.3962 227.95 26.4307 227.881 26.4725C227.568 26.6546 227.253 26.8268 226.928 26.9868C226.788 27.0557 226.645 27.1147 226.503 27.1787C226.237 27.2993 225.969 27.4247 225.693 27.5183C225.533 27.5798 225.371 27.6364 225.201 27.693C224.93 27.784 224.655 27.8677 224.377 27.939C224.214 27.9833 224.049 28.0301 223.885 28.0694C223.584 28.1408 223.277 28.1998 222.967 28.254H222.908C223.11 31.894 223.29 35.5349 223.449 39.1766C224.326 37.3727 225.563 35.7672 227.083 34.4585C228.603 33.1499 230.374 32.1658 232.289 31.5667C234.203 30.9675 236.219 30.766 238.214 30.9745C240.209 31.183 242.14 31.7971 243.889 32.779L241.286 39.9148L246.643 34.7721C249.514 37.3975 251.226 41.0552 251.402 44.9418C251.47 46.3052 251.344 47.6715 251.028 48.9994C250.354 51.8723 248.833 54.4768 246.662 56.4749C244.491 58.473 241.769 59.7726 238.85 60.2052C235.931 60.6377 232.95 60.1833 230.292 58.9008C227.635 57.6183 225.424 55.5669 223.946 53.0126C223.946 53.3817 223.973 53.7508 223.981 54.1223C224.079 57.9461 224.202 62.7049 222.295 66.9544C221.003 69.8333 218.926 72.1709 216.882 74.2673C215.546 75.633 214.16 76.9519 212.741 78.2289C211.344 80.1067 209.52 81.625 207.421 82.658C205.088 84.4567 202.672 86.1472 200.174 87.7072L198.614 88.6767C197.212 89.5453 195.775 90.4385 194.367 91.3661C194.613 91.3415 194.859 91.3144 195.105 91.3021C198.228 91.1566 201.316 92.008 203.923 93.733C206.53 95.4581 208.521 97.9675 209.608 100.899L200.405 108.386L210.528 106.039C210.525 108.529 209.891 110.978 208.685 113.157C207.479 115.336 205.74 117.174 203.631 118.499C201.522 119.824 199.111 120.592 196.625 120.733C194.138 120.874 191.657 120.382 189.411 119.304C189.638 119.589 189.866 119.873 190.096 120.155C190.548 120.718 190.995 121.277 191.437 121.833C197.426 129.417 199.092 136.619 196.126 142.109L192.519 140.16C195.406 134.818 191.065 127.978 188.221 124.375C187.788 123.826 187.348 123.276 186.902 122.727C183.075 117.973 178.74 112.584 178.846 105.975C179.006 95.9994 188.678 90.0054 196.449 85.1875Z" fill="#75CD22"/>
<path d="M157.155 181.37C224.448 181.37 279 177.735 279 173.25C279 168.766 224.448 165.13 157.155 165.13C89.8626 165.13 35.311 168.766 35.311 173.25C35.311 177.735 89.8626 181.37 157.155 181.37Z" fill="#F2F2F2"/>
<path d="M161.247 173.497L117.402 172.936L117.53 171.811L119.651 153.261H158.157L160.989 171.811L161.206 173.216L161.247 173.497Z" fill="#2F2E41"/>
<path opacity="0.1" d="M161.206 173.216H139.323L117.402 172.936L117.53 171.811H160.989L161.206 173.216Z" fill="black"/>
<path d="M168.275 172.091H110.094V173.496H168.275V172.091Z" fill="#3F3D56"/>
<path d="M223.786 41.8417C223.788 41.3612 223.696 40.8849 223.514 40.4401C223.333 39.9954 223.065 39.5907 222.727 39.2494C222.389 38.908 221.986 38.6366 221.543 38.4506C221.1 38.2647 220.625 38.1678 220.145 38.1655H57.6657C57.1852 38.1678 56.7098 38.2647 56.2668 38.4506C55.8237 38.6366 55.4216 38.908 55.0835 39.2494C54.7453 39.5907 54.4777 39.9954 54.2959 40.4401C54.1141 40.8849 54.0217 41.3612 54.024 41.8417V140.33H223.786V41.8417Z" fill="#3F3D56"/>
<path d="M54.0239 139.348V150.883C54.0239 151.849 54.4076 152.776 55.0906 153.459C55.7735 154.142 56.6998 154.525 57.6656 154.525H220.145C221.11 154.525 222.037 154.142 222.72 153.459C223.403 152.776 223.786 151.849 223.786 150.883V139.348H54.0239Z" fill="#3F3D56"/>
<path d="M217.601 44.3491H61.0493V132.884H217.601V44.3491Z" fill="#2F2E41"/>
<path d="M139.74 150.148C140.314 150.149 140.882 150.019 141.399 149.767C141.916 149.516 142.369 149.151 142.724 148.699C142.833 148.561 142.931 148.415 143.02 148.263L140.938 147.921L143.189 147.938C143.405 147.468 143.523 146.959 143.535 146.443C143.548 145.926 143.455 145.412 143.263 144.932L140.242 146.499L143.027 144.452C142.765 144.002 142.414 143.611 141.995 143.303C141.576 142.995 141.098 142.776 140.591 142.66C140.084 142.545 139.558 142.535 139.047 142.631C138.536 142.727 138.049 142.927 137.619 143.219C137.188 143.511 136.822 143.888 136.544 144.327C136.265 144.766 136.079 145.258 135.999 145.772C135.918 146.286 135.944 146.811 136.075 147.314C136.206 147.818 136.439 148.289 136.76 148.699C137.114 149.15 137.567 149.515 138.083 149.766C138.599 150.017 139.166 150.148 139.74 150.148Z" fill="#009F36"/>
<path opacity="0.1" d="M143.541 154.525L161.033 172.091L158.349 154.525H143.541Z" fill="black"/>
<path d="M190.521 166.514L195.233 163.758C194.595 162.671 193.781 161.697 192.824 160.876L183.939 163.64L190.9 159.545C189.177 158.601 187.237 158.122 185.271 158.155C183.306 158.188 181.384 158.732 179.693 159.734C178.002 160.736 176.601 162.161 175.628 163.869C174.655 165.577 174.143 167.508 174.144 169.474C174.144 175.726 179.212 175.943 185.462 175.943C191.712 175.943 196.781 175.726 196.781 169.474C196.783 167.892 196.453 166.328 195.812 164.882L190.521 166.514Z" fill="#009F36"/>
<path opacity="0.1" d="M191.722 172.591C191.22 172.089 190.659 171.648 190.051 171.279C189.198 170.711 188.312 170.133 187.303 169.938C186.42 169.769 185.504 169.911 184.596 169.862C183.03 169.766 181.555 169.09 180.46 167.965C179.815 167.301 179.311 166.489 178.536 165.974C177.702 165.428 176.644 165.31 175.657 165.445C175.369 165.488 175.084 165.547 174.803 165.622C174.359 166.853 174.132 168.152 174.134 169.461C174.134 175.713 179.203 175.93 185.453 175.93C188.487 175.93 191.242 175.878 193.275 175.111L192.935 174.476C192.612 173.799 192.205 173.165 191.722 172.591Z" fill="black"/>
<path opacity="0.3" d="M73.2071 78.5049H68.0029V80.0846H73.2071V78.5049Z" fill="#009F36"/>
<path opacity="0.3" d="M212.071 78.5518H206.867V80.1315H212.071V78.5518Z" fill="#009F36"/>
<path opacity="0.3" d="M73.254 89.6094H68.0498V91.1891H73.254V89.6094Z" fill="#009F36"/>
<path opacity="0.3" d="M73.3004 100.714H68.0962V102.294H73.3004V100.714Z" fill="#009F36"/>
<path opacity="0.3" d="M73.3473 111.816H68.1431V113.396H73.3473V111.816Z" fill="#009F36"/>
<g opacity="0.2">
<path opacity="0.2" d="M74.6834 79.2651H73.207V79.3266H74.6834V79.2651Z" fill="#F2F2F2"/>
<path opacity="0.2" d="M202.396 79.3266H199.495V79.2651H202.396V79.3266ZM196.592 79.3266H193.691V79.2651H196.592V79.3266ZM190.787 79.3266H187.884V79.2651H190.787V79.3266ZM184.983 79.3266H182.079V79.2651H184.983V79.3266ZM179.178 79.3266H176.275V79.2651H179.178V79.3266ZM173.371 79.3266H170.47V79.2651H173.371V79.3266ZM167.566 79.3266H164.663V79.2651H167.566V79.3266ZM161.762 79.3266H158.858V79.2651H161.762V79.3266ZM155.957 79.3266H153.054V79.2651H155.957V79.3266ZM150.15 79.3266H147.249V79.2651H150.15V79.3266ZM144.346 79.3266H141.442V79.2651H144.346V79.3266ZM138.541 79.3266H135.638V79.2651H138.541V79.3266ZM132.737 79.3266H129.833V79.2651H132.737V79.3266ZM126.929 79.3266H124.028V79.2651H126.929V79.3266ZM121.125 79.3266H118.224V79.2651H121.125V79.3266ZM115.32 79.3266H112.427V79.2651H115.33L115.32 79.3266ZM109.516 79.3266H106.612V79.2651H109.516V79.3266ZM103.709 79.3266H100.808V79.2651H103.709V79.3266ZM97.9042 79.3266H95.0031V79.2651H97.9091L97.9042 79.3266ZM92.0996 79.3266H89.1961V79.2651H92.0996V79.3266ZM86.295 79.3266H83.3915V79.2651H86.295V79.3266ZM80.488 79.3266H77.5869V79.2651H80.488V79.3266Z" fill="#F2F2F2"/>
<path opacity="0.2" d="M206.776 79.2651H205.3V79.3266H206.776V79.2651Z" fill="#F2F2F2"/>
<path opacity="0.2" d="M74.6834 79.2651H73.207V79.3266H74.6834V79.2651Z" fill="#F2F2F2"/>
<path opacity="0.2" d="M202.396 79.3266H199.495V79.2651H202.396V79.3266ZM196.592 79.3266H193.691V79.2651H196.592V79.3266ZM190.787 79.3266H187.884V79.2651H190.787V79.3266ZM184.983 79.3266H182.079V79.2651H184.983V79.3266ZM179.178 79.3266H176.275V79.2651H179.178V79.3266ZM173.371 79.3266H170.47V79.2651H173.371V79.3266ZM167.566 79.3266H164.663V79.2651H167.566V79.3266ZM161.762 79.3266H158.858V79.2651H161.762V79.3266ZM155.957 79.3266H153.054V79.2651H155.957V79.3266ZM150.15 79.3266H147.249V79.2651H150.15V79.3266ZM144.346 79.3266H141.442V79.2651H144.346V79.3266ZM138.541 79.3266H135.638V79.2651H138.541V79.3266ZM132.737 79.3266H129.833V79.2651H132.737V79.3266ZM126.929 79.3266H124.028V79.2651H126.929V79.3266ZM121.125 79.3266H118.224V79.2651H121.125V79.3266ZM115.32 79.3266H112.427V79.2651H115.33L115.32 79.3266ZM109.516 79.3266H106.612V79.2651H109.516V79.3266ZM103.709 79.3266H100.808V79.2651H103.709V79.3266ZM97.9042 79.3266H95.0031V79.2651H97.9091L97.9042 79.3266ZM92.0996 79.3266H89.1961V79.2651H92.0996V79.3266ZM86.295 79.3266H83.3915V79.2651H86.295V79.3266ZM80.488 79.3266H77.5869V79.2651H80.488V79.3266Z" fill="#F2F2F2"/>
<path opacity="0.2" d="M206.776 79.2651H205.3V79.3266H206.776V79.2651Z" fill="#F2F2F2"/>
</g>
<path opacity="0.3" d="M73.2071 67.4321H68.0029V69.0118H73.2071V67.4321Z" fill="#009F36"/>
<path opacity="0.3" d="M212.071 67.479H206.867V69.0587H212.071V67.479Z" fill="#009F36"/>
<g opacity="0.2">
<path opacity="0.2" d="M74.6834 68.1924H73.207V68.2539H74.6834V68.1924Z" fill="#F2F2F2"/>
<path opacity="0.2" d="M202.396 68.2539H199.495V68.1924H202.396V68.2539ZM196.592 68.2539H193.691V68.1924H196.592V68.2539ZM190.787 68.2539H187.884V68.1924H190.787V68.2539ZM184.983 68.2539H182.079V68.1924H184.983V68.2539ZM179.178 68.2539H176.275V68.1924H179.178V68.2539ZM173.371 68.2539H170.47V68.1924H173.371V68.2539ZM167.566 68.2539H164.663V68.1924H167.566V68.2539ZM161.762 68.2539H158.858V68.1924H161.762V68.2539ZM155.957 68.2539H153.054V68.1924H155.957V68.2539ZM150.15 68.2539H147.249V68.1924H150.15V68.2539ZM144.346 68.2539H141.442V68.1924H144.346V68.2539ZM138.541 68.2539H135.638V68.1924H138.541V68.2539ZM132.737 68.2539H129.833V68.1924H132.737V68.2539ZM126.929 68.2539H124.028V68.1924H126.929V68.2539ZM121.125 68.2539H118.224V68.1924H121.125V68.2539ZM115.32 68.2539H112.427V68.1924H115.33L115.32 68.2539ZM109.516 68.2539H106.612V68.1924H109.516V68.2539ZM103.709 68.2539H100.808V68.1924H103.709V68.2539ZM97.9042 68.2539H95.0031V68.1924H97.9091L97.9042 68.2539ZM92.0996 68.2539H89.1961V68.1924H92.0996V68.2539ZM86.295 68.2539H83.3915V68.1924H86.295V68.2539ZM80.488 68.2539H77.5869V68.1924H80.488V68.2539Z" fill="#F2F2F2"/>
<path opacity="0.2" d="M206.776 68.1924H205.3V68.2539H206.776V68.1924Z" fill="#F2F2F2"/>
</g>
<path opacity="0.3" d="M212.071 89.6094H206.867V91.1891H212.071V89.6094Z" fill="#009F36"/>
<g opacity="0.2">
<path opacity="0.2" d="M74.6834 90.3228H73.207V90.3843H74.6834V90.3228Z" fill="#F2F2F2"/>
<path opacity="0.2" d="M202.396 90.3818H199.495V90.3203H202.396V90.3818ZM196.592 90.3818H193.691V90.3203H196.592V90.3818ZM190.787 90.3818H187.884V90.3203H190.787V90.3818ZM184.983 90.3818H182.079V90.3203H184.983V90.3818ZM179.178 90.3818H176.275V90.3203H179.178V90.3818ZM173.371 90.3818H170.47V90.3203H173.371V90.3818ZM167.566 90.3818H164.663V90.3203H167.566V90.3818ZM161.762 90.3818H158.858V90.3203H161.762V90.3818ZM155.957 90.3818H153.054V90.3203H155.957V90.3818ZM150.15 90.3818H147.249V90.3203H150.15V90.3818ZM144.346 90.3818H141.442V90.3203H144.346V90.3818ZM138.541 90.3818H135.638V90.3203H138.541V90.3818ZM132.737 90.3818H129.833V90.3203H132.737V90.3818ZM126.929 90.3818H124.028V90.3203H126.929V90.3818ZM121.125 90.3818H118.224V90.3203H121.125V90.3818ZM115.32 90.3818H112.427V90.3203H115.33L115.32 90.3818ZM109.516 90.3818H106.612V90.3203H109.516V90.3818ZM103.709 90.3818H100.808V90.3203H103.709V90.3818ZM97.9042 90.3818H95.0031V90.3203H97.9091L97.9042 90.3818ZM92.0996 90.3818H89.1961V90.3203H92.0996V90.3818ZM86.295 90.3818H83.3915V90.3203H86.295V90.3818ZM80.488 90.3818H77.5869V90.3203H80.488V90.3818Z" fill="#F2F2F2"/>
<path opacity="0.2" d="M206.776 90.3228H205.3V90.3843H206.776V90.3228Z" fill="#F2F2F2"/>
<path opacity="0.2" d="M74.6834 90.3228H73.207V90.3843H74.6834V90.3228Z" fill="#F2F2F2"/>
<path opacity="0.2" d="M202.396 90.3818H199.495V90.3203H202.396V90.3818ZM196.592 90.3818H193.691V90.3203H196.592V90.3818ZM190.787 90.3818H187.884V90.3203H190.787V90.3818ZM184.983 90.3818H182.079V90.3203H184.983V90.3818ZM179.178 90.3818H176.275V90.3203H179.178V90.3818ZM173.371 90.3818H170.47V90.3203H173.371V90.3818ZM167.566 90.3818H164.663V90.3203H167.566V90.3818ZM161.762 90.3818H158.858V90.3203H161.762V90.3818ZM155.957 90.3818H153.054V90.3203H155.957V90.3818ZM150.15 90.3818H147.249V90.3203H150.15V90.3818ZM144.346 90.3818H141.442V90.3203H144.346V90.3818ZM138.541 90.3818H135.638V90.3203H138.541V90.3818ZM132.737 90.3818H129.833V90.3203H132.737V90.3818ZM126.929 90.3818H124.028V90.3203H126.929V90.3818ZM121.125 90.3818H118.224V90.3203H121.125V90.3818ZM115.32 90.3818H112.427V90.3203H115.33L115.32 90.3818ZM109.516 90.3818H106.612V90.3203H109.516V90.3818ZM103.709 90.3818H100.808V90.3203H103.709V90.3818ZM97.9042 90.3818H95.0031V90.3203H97.9091L97.9042 90.3818ZM92.0996 90.3818H89.1961V90.3203H92.0996V90.3818ZM86.295 90.3818H83.3915V90.3203H86.295V90.3818ZM80.488 90.3818H77.5869V90.3203H80.488V90.3818Z" fill="#F2F2F2"/>
<path opacity="0.2" d="M206.776 90.3228H205.3V90.3843H206.776V90.3228Z" fill="#F2F2F2"/>
</g>
<path opacity="0.3" d="M212.071 100.667H206.867V102.247H212.071V100.667Z" fill="#009F36"/>
<g opacity="0.2">
<path opacity="0.2" d="M74.6834 101.378H73.207V101.44H74.6834V101.378Z" fill="#F2F2F2"/>
<path opacity="0.2" d="M202.396 101.44H199.495V101.378H202.396V101.44ZM196.592 101.44H193.691V101.378H196.592V101.44ZM190.787 101.44H187.884V101.378H190.787V101.44ZM184.983 101.44H182.079V101.378H184.983V101.44ZM179.178 101.44H176.275V101.378H179.178V101.44ZM173.371 101.44H170.47V101.378H173.371V101.44ZM167.566 101.44H164.663V101.378H167.566V101.44ZM161.762 101.44H158.858V101.378H161.762V101.44ZM155.957 101.44H153.054V101.378H155.957V101.44ZM150.15 101.44H147.249V101.378H150.15V101.44ZM144.346 101.44H141.442V101.378H144.346V101.44ZM138.541 101.44H135.638V101.378H138.541V101.44ZM132.737 101.44H129.833V101.378H132.737V101.44ZM126.929 101.44H124.028V101.378H126.929V101.44ZM121.125 101.44H118.224V101.378H121.125V101.44ZM115.32 101.44H112.427V101.378H115.33L115.32 101.44ZM109.516 101.44H106.612V101.378H109.516V101.44ZM103.709 101.44H100.808V101.378H103.709V101.44ZM97.9042 101.44H95.0031V101.378H97.9091L97.9042 101.44ZM92.0996 101.44H89.1961V101.378H92.0996V101.44ZM86.295 101.44H83.3915V101.378H86.295V101.44ZM80.488 101.44H77.5869V101.378H80.488V101.44Z" fill="#F2F2F2"/>
<path opacity="0.2" d="M206.776 101.378H205.3V101.44H206.776V101.378Z" fill="#F2F2F2"/>
<path opacity="0.2" d="M74.6834 101.378H73.207V101.44H74.6834V101.378Z" fill="#F2F2F2"/>
<path opacity="0.2" d="M202.396 101.44H199.495V101.378H202.396V101.44ZM196.592 101.44H193.691V101.378H196.592V101.44ZM190.787 101.44H187.884V101.378H190.787V101.44ZM184.983 101.44H182.079V101.378H184.983V101.44ZM179.178 101.44H176.275V101.378H179.178V101.44ZM173.371 101.44H170.47V101.378H173.371V101.44ZM167.566 101.44H164.663V101.378H167.566V101.44ZM161.762 101.44H158.858V101.378H161.762V101.44ZM155.957 101.44H153.054V101.378H155.957V101.44ZM150.15 101.44H147.249V101.378H150.15V101.44ZM144.346 101.44H141.442V101.378H144.346V101.44ZM138.541 101.44H135.638V101.378H138.541V101.44ZM132.737 101.44H129.833V101.378H132.737V101.44ZM126.929 101.44H124.028V101.378H126.929V101.44ZM121.125 101.44H118.224V101.378H121.125V101.44ZM115.32 101.44H112.427V101.378H115.33L115.32 101.44ZM109.516 101.44H106.612V101.378H109.516V101.44ZM103.709 101.44H100.808V101.378H103.709V101.44ZM97.9042 101.44H95.0031V101.378H97.9091L97.9042 101.44ZM92.0996 101.44H89.1961V101.378H92.0996V101.44ZM86.295 101.44H83.3915V101.378H86.295V101.44ZM80.488 101.44H77.5869V101.378H80.488V101.44Z" fill="#F2F2F2"/>
<path opacity="0.2" d="M206.776 101.378H205.3V101.44H206.776V101.378Z" fill="#F2F2F2"/>
</g>
<path opacity="0.3" d="M212.071 111.723H206.867V113.303H212.071V111.723Z" fill="#009F36"/>
<g opacity="0.2">
<path opacity="0.2" d="M74.6834 112.437H73.207V112.498H74.6834V112.437Z" fill="#F2F2F2"/>
<path opacity="0.2" d="M202.396 112.498H199.495V112.437H202.396V112.498ZM196.592 112.498H193.691V112.437H196.592V112.498ZM190.787 112.498H187.884V112.437H190.787V112.498ZM184.983 112.498H182.079V112.437H184.983V112.498ZM179.178 112.498H176.275V112.437H179.178V112.498ZM173.371 112.498H170.47V112.437H173.371V112.498ZM167.566 112.498H164.663V112.437H167.566V112.498ZM161.762 112.498H158.858V112.437H161.762V112.498ZM155.957 112.498H153.054V112.437H155.957V112.498ZM150.15 112.498H147.249V112.437H150.15V112.498ZM144.346 112.498H141.442V112.437H144.346V112.498ZM138.541 112.498H135.638V112.437H138.541V112.498ZM132.737 112.498H129.833V112.437H132.737V112.498ZM126.929 112.498H124.028V112.437H126.929V112.498ZM121.125 112.498H118.224V112.437H121.125V112.498ZM115.32 112.498H112.427V112.437H115.33L115.32 112.498ZM109.516 112.498H106.612V112.437H109.516V112.498ZM103.709 112.498H100.808V112.437H103.709V112.498ZM97.9042 112.498H95.0031V112.437H97.9091L97.9042 112.498ZM92.0996 112.498H89.1961V112.437H92.0996V112.498ZM86.295 112.498H83.3915V112.437H86.295V112.498ZM80.488 112.498H77.5869V112.437H80.488V112.498Z" fill="#F2F2F2"/>
<path opacity="0.2" d="M206.776 112.437H205.3V112.498H206.776V112.437Z" fill="#F2F2F2"/>
<path opacity="0.2" d="M74.6834 112.437H73.207V112.498H74.6834V112.437Z" fill="#F2F2F2"/>
<path opacity="0.2" d="M202.396 112.498H199.495V112.437H202.396V112.498ZM196.592 112.498H193.691V112.437H196.592V112.498ZM190.787 112.498H187.884V112.437H190.787V112.498ZM184.983 112.498H182.079V112.437H184.983V112.498ZM179.178 112.498H176.275V112.437H179.178V112.498ZM173.371 112.498H170.47V112.437H173.371V112.498ZM167.566 112.498H164.663V112.437H167.566V112.498ZM161.762 112.498H158.858V112.437H161.762V112.498ZM155.957 112.498H153.054V112.437H155.957V112.498ZM150.15 112.498H147.249V112.437H150.15V112.498ZM144.346 112.498H141.442V112.437H144.346V112.498ZM138.541 112.498H135.638V112.437H138.541V112.498ZM132.737 112.498H129.833V112.437H132.737V112.498ZM126.929 112.498H124.028V112.437H126.929V112.498ZM121.125 112.498H118.224V112.437H121.125V112.498ZM115.32 112.498H112.427V112.437H115.33L115.32 112.498ZM109.516 112.498H106.612V112.437H109.516V112.498ZM103.709 112.498H100.808V112.437H103.709V112.498ZM97.9042 112.498H95.0031V112.437H97.9091L97.9042 112.498ZM92.0996 112.498H89.1961V112.437H92.0996V112.498ZM86.295 112.498H83.3915V112.437H86.295V112.498ZM80.488 112.498H77.5869V112.437H80.488V112.498Z" fill="#F2F2F2"/>
<path opacity="0.2" d="M206.776 112.437H205.3V112.498H206.776V112.437Z" fill="#F2F2F2"/>
</g>
<path d="M90.1729 68.2686V112.606" stroke="#F2F2F2" stroke-width="0.1" stroke-miterlimit="10"/>
<path d="M108.135 68.2686V112.606" stroke="#F2F2F2" stroke-width="0.1" stroke-miterlimit="10"/>
<path d="M126.098 68.2686V112.606" stroke="#F2F2F2" stroke-width="0.1" stroke-miterlimit="10"/>
<path d="M144.06 68.2686V112.606" stroke="#F2F2F2" stroke-width="0.1" stroke-miterlimit="10"/>
<path d="M162.022 68.2686V112.606" stroke="#F2F2F2" stroke-width="0.1" stroke-miterlimit="10"/>
<path d="M179.985 68.2686V112.606" stroke="#F2F2F2" stroke-width="0.1" stroke-miterlimit="10"/>
<path d="M197.948 68.2686V112.606" stroke="#F2F2F2" stroke-width="0.1" stroke-miterlimit="10"/>
<path opacity="0.3" d="M201.833 65.2765L199.778 67.4172C199.736 67.462 199.702 67.5125 199.675 67.5673L198.4 70.1928C198.349 70.2983 198.268 70.386 198.167 70.4444C198.065 70.5028 197.948 70.5291 197.832 70.5201L197.423 70.4881C197.305 70.4796 197.192 70.435 197.099 70.3602C197.007 70.2854 196.939 70.184 196.907 70.0698L196.513 68.7066C196.478 68.5874 196.407 68.4822 196.309 68.4064C196.211 68.3306 196.091 68.2881 195.967 68.2851C195.843 68.2821 195.721 68.3187 195.619 68.3896C195.517 68.4606 195.441 68.5621 195.401 68.6795L194.739 70.6185C194.7 70.7342 194.625 70.8347 194.526 70.9057C194.426 70.9768 194.307 71.0149 194.185 71.0146H191.658C191.519 71.0141 191.385 70.9643 191.28 70.8742C191.174 70.7841 191.104 70.6595 191.082 70.5225L190.369 66.0565C190.35 65.9344 190.292 65.8214 190.205 65.7339C190.118 65.6465 190.005 65.589 189.883 65.5698C189.761 65.5507 189.636 65.5708 189.526 65.6273C189.416 65.6838 189.327 65.7738 189.271 65.8843L185.612 73.1062C185.575 73.1809 185.521 73.2467 185.456 73.299C185.39 73.3512 185.314 73.3888 185.233 73.4091C185.152 73.4294 185.067 73.432 184.985 73.4167C184.903 73.4013 184.825 73.3684 184.756 73.3202L182.581 71.7848C182.462 71.7015 182.317 71.665 182.173 71.6822C182.029 71.6995 181.896 71.7693 181.801 71.8783L180.977 72.8306C180.952 72.8587 180.931 72.8892 180.913 72.9216L178.713 76.7282C178.657 76.8257 178.574 76.9049 178.474 76.956C178.374 77.0072 178.261 77.028 178.149 77.0161L176.808 76.8832C176.715 76.8741 176.62 76.8876 176.533 76.9226L175.332 77.4024C175.193 77.4548 175.039 77.4522 174.902 77.3951C174.765 77.3379 174.654 77.2305 174.594 77.0948L174.33 76.492C174.283 76.384 174.204 76.2929 174.104 76.2306C174.004 76.1682 173.887 76.1375 173.769 76.1426L172.396 76.2065C172.311 76.2101 172.228 76.2325 172.153 76.2721C172.078 76.3117 172.012 76.3674 171.961 76.4354L171.572 76.9422C171.508 77.0258 171.423 77.0906 171.325 77.1296C171.227 77.1685 171.121 77.1803 171.017 77.1637C170.913 77.147 170.815 77.1026 170.735 77.035C170.654 76.9674 170.593 76.8792 170.558 76.7798L170.066 75.3896C170.036 75.3031 169.986 75.225 169.919 75.1616C169.853 75.0982 169.773 75.0512 169.685 75.0246C169.597 74.998 169.505 74.9925 169.414 75.0084C169.324 75.0244 169.239 75.0614 169.166 75.1165L166.828 76.8684L164.244 78.9526C164.156 79.0235 164.049 79.0672 163.936 79.0786C163.824 79.09 163.71 79.0684 163.61 79.0165L161.604 77.9757C161.497 77.9206 161.375 77.8999 161.255 77.9167L157.192 78.4851C157.075 78.5009 156.964 78.5523 156.876 78.6323C156.789 78.7123 156.727 78.8171 156.7 78.9329L155.979 82.0652C155.957 82.163 155.909 82.2533 155.842 82.3274C155.774 82.4015 155.689 82.4569 155.594 82.4883C155.498 82.5197 155.397 82.5261 155.298 82.5067C155.2 82.4873 155.108 82.4429 155.032 82.3777C154.964 82.3202 154.885 82.2787 154.799 82.2564C154.713 82.2341 154.623 82.2317 154.536 82.2492C154.449 82.2668 154.367 82.3038 154.297 82.3576C154.226 82.4114 154.169 82.4806 154.129 82.5598L153.575 83.6696C153.534 83.7516 153.474 83.8227 153.4 83.8774C153.326 83.9321 153.24 83.9688 153.15 83.9845L151.892 84.1937C151.811 84.2078 151.734 84.2388 151.666 84.2847L149.685 85.6036C149.59 85.6677 149.477 85.7019 149.363 85.702H148.435C148.321 85.7022 148.209 85.669 148.114 85.6065C148.019 85.5439 147.944 85.4548 147.899 85.3502L147.653 84.7621C147.621 84.6908 147.576 84.6265 147.519 84.573C147.463 84.5195 147.396 84.4779 147.323 84.4506C147.25 84.4233 147.172 84.4109 147.095 84.4141C147.017 84.4173 146.94 84.4361 146.87 84.4692L144.719 85.4756C144.633 85.5163 144.537 85.5352 144.442 85.5304C144.346 85.5257 144.253 85.4976 144.171 85.4486L143.187 84.8556C143.096 84.8012 142.992 84.7723 142.886 84.7719H140.714C140.599 84.7723 140.487 84.8065 140.391 84.8703L138.223 86.3098C138.14 86.3652 138.044 86.3982 137.944 86.4056C137.844 86.4129 137.743 86.3943 137.653 86.3516L136.668 85.8866C136.554 85.833 136.425 85.8182 136.301 85.8443C136.177 85.8705 136.065 85.9363 135.982 86.0317L135.514 86.5657C135.453 86.6364 135.376 86.6914 135.289 86.7258C135.202 86.7603 135.108 86.7732 135.015 86.7635C134.922 86.7539 134.833 86.7219 134.755 86.6703C134.677 86.6187 134.612 86.5491 134.567 86.4673L134.427 86.2212C134.389 86.1532 134.337 86.0936 134.276 86.0457C134.215 85.9979 134.144 85.9628 134.069 85.9426C133.994 85.9224 133.915 85.9175 133.838 85.9282C133.761 85.9388 133.687 85.9649 133.62 86.0047L131.914 87.016C131.826 87.0667 131.726 87.0934 131.624 87.0934C131.522 87.0934 131.422 87.0667 131.334 87.016L130.63 86.6247C130.551 86.58 130.462 86.5547 130.371 86.5508C130.28 86.547 130.189 86.5647 130.106 86.6026L129.437 86.9077C129.361 86.9415 129.28 86.959 129.197 86.9592C129.115 86.9594 129.033 86.9422 128.958 86.9088C128.882 86.8753 128.815 86.8264 128.76 86.7652C128.704 86.704 128.663 86.6318 128.637 86.5534L128.204 85.264C128.167 85.1457 128.093 85.0423 127.993 84.9692C127.893 84.8961 127.772 84.8571 127.648 84.858H127.018C126.919 84.8584 126.821 84.833 126.735 84.7842L124.316 83.4579C124.218 83.4047 124.106 83.3808 123.994 83.3891C123.883 83.3974 123.776 83.4375 123.686 83.5047L121.912 84.8334C121.811 84.909 121.689 84.9496 121.563 84.9491H119.331C119.216 84.9491 119.104 84.9834 119.009 85.0475L118.59 85.3255C118.521 85.3717 118.444 85.4026 118.362 85.4163C118.28 85.43 118.197 85.4261 118.116 85.4049C118.036 85.3837 117.962 85.3457 117.897 85.2934C117.833 85.2411 117.781 85.1757 117.744 85.1016L117.643 84.9023C117.595 84.8048 117.521 84.7227 117.429 84.6653C117.336 84.6078 117.23 84.5774 117.121 84.5775H116.002C115.913 84.5777 115.825 84.5982 115.745 84.6374C115.666 84.6767 115.596 84.7336 115.542 84.8039L114.848 85.6922C114.79 85.7658 114.716 85.8246 114.631 85.8635C114.546 85.9024 114.453 85.9203 114.359 85.9157C114.266 85.9112 114.175 85.8842 114.094 85.8372C114.014 85.7901 113.945 85.7244 113.895 85.6454L113.699 85.3378C113.617 85.209 113.489 85.1172 113.341 85.0823C113.193 85.0473 113.036 85.0719 112.906 85.1508L112.33 85.4953C112.232 85.5539 112.119 85.5826 112.005 85.5778C111.891 85.573 111.781 85.5349 111.688 85.4683L109.368 83.7877C109.326 83.7583 109.282 83.7336 109.235 83.7138L107.422 83.0175C107.28 82.9661 107.125 82.9712 106.987 83.0317C106.85 83.0922 106.741 83.2035 106.683 83.3423L105.421 86.4181C105.403 86.4613 105.39 86.5068 105.384 86.5534L104.976 89.324C104.958 89.4412 104.905 89.5502 104.823 89.6365L103.96 90.5642C103.87 90.6588 103.752 90.721 103.623 90.741C103.494 90.7611 103.362 90.7378 103.248 90.6749L101.75 89.8432C101.675 89.8015 101.593 89.7766 101.507 89.7704C101.422 89.7642 101.337 89.7768 101.257 89.8073C101.177 89.8379 101.105 89.8855 101.045 89.947C100.986 90.0085 100.941 90.0823 100.913 90.1631L99.9635 92.9411C99.942 93.002 99.9311 93.0661 99.9315 93.1306V94.8825C99.9312 94.9961 99.8978 95.1072 99.8353 95.2021C99.7728 95.2969 99.6839 95.3714 99.5796 95.4165L98.0565 96.0907C97.9719 96.1272 97.8798 96.1431 97.7879 96.1371C97.6959 96.1311 97.6067 96.1034 97.5275 96.0562L96.3808 95.382C96.2666 95.3151 96.1329 95.2891 96.0019 95.3082L93.9916 95.5961C93.8766 95.6126 93.7594 95.5941 93.655 95.5433C93.5506 95.4924 93.4638 95.4114 93.406 95.3107L93.0664 94.73C92.9931 94.6048 92.8754 94.5117 92.7367 94.4692L91.8238 94.1837C91.7174 94.1499 91.6034 94.1474 91.4956 94.1766C91.3878 94.2059 91.2907 94.2656 91.216 94.3486L89.9488 95.7561C89.8488 95.8665 89.7109 95.935 89.5625 95.948L87.6924 96.1055C87.6057 96.1103 87.5214 96.1356 87.4464 96.1793L84.1861 98.0543C84.0843 98.112 83.9675 98.138 83.8509 98.1288C83.7342 98.1196 83.623 98.0756 83.5315 98.0026L82.6063 97.2644C82.5027 97.1822 82.3745 97.1371 82.2422 97.1365H78.7383C78.6508 97.1368 78.5643 97.1172 78.4855 97.0793C78.4066 97.0414 78.3374 96.986 78.2831 96.9175L77.3997 95.8151C77.3468 95.7492 77.2801 95.6956 77.2044 95.658C77.1287 95.6205 77.0457 95.5998 76.9613 95.5974C76.8768 95.5951 76.7928 95.6112 76.7151 95.6445C76.6374 95.6778 76.5679 95.7276 76.5114 95.7905L75.4484 96.9716C75.3522 97.0783 75.2988 97.2167 75.2983 97.3604V112.035C75.2983 112.19 75.3598 112.338 75.4692 112.448C75.5785 112.557 75.7268 112.619 75.8815 112.619H202.29C202.367 112.619 202.443 112.603 202.514 112.574C202.585 112.545 202.649 112.501 202.704 112.447C202.758 112.393 202.801 112.328 202.83 112.257C202.859 112.186 202.874 112.11 202.874 112.033L202.839 65.6924C202.841 65.575 202.807 65.4598 202.743 65.3618C202.678 65.2637 202.586 65.1874 202.477 65.1425C202.369 65.0977 202.249 65.0865 202.134 65.1104C202.019 65.1343 201.914 65.1922 201.833 65.2765Z" fill="#75CD22"/>
<path opacity="0.3" d="M201.719 84.2794L199.815 85.5491C199.748 85.5942 199.689 85.6499 199.64 85.714L198.457 87.2765C198.385 87.369 198.292 87.4432 198.186 87.4929C198.08 87.5425 197.964 87.5662 197.846 87.5619L197.46 87.5422C197.328 87.5356 197.199 87.4926 197.089 87.418C196.98 87.3433 196.893 87.2399 196.838 87.119L196.592 86.5949C196.537 86.4718 196.448 86.3666 196.336 86.2914C196.224 86.2162 196.093 86.174 195.959 86.1697C195.824 86.1653 195.691 86.199 195.574 86.2667C195.458 86.3345 195.363 86.4338 195.3 86.553L194.808 87.4955C194.746 87.6111 194.654 87.7077 194.542 87.7749C194.43 87.8421 194.301 87.8774 194.17 87.8769H191.729C191.568 87.8776 191.412 87.8241 191.285 87.725C191.158 87.6259 191.069 87.4869 191.031 87.3306L190.445 84.9856C190.412 84.8549 190.344 84.736 190.247 84.6423C190.15 84.5485 190.029 84.4838 189.898 84.4554C189.766 84.4269 189.629 84.4359 189.502 84.4814C189.375 84.5268 189.264 84.6069 189.18 84.7125L185.662 89.1613C185.562 89.2878 185.423 89.3772 185.267 89.4151C185.111 89.4531 184.946 89.4373 184.8 89.3704L182.539 88.3493C182.421 88.2939 182.289 88.2717 182.159 88.2852C182.029 88.2986 181.905 88.3471 181.801 88.4256L180.991 89.0235C180.953 89.0524 180.917 89.0854 180.885 89.1219L178.75 91.4866C178.678 91.5689 178.588 91.6338 178.488 91.6765C178.387 91.7191 178.278 91.7383 178.169 91.7326L176.774 91.644C176.698 91.6395 176.622 91.6461 176.547 91.6637L175.29 91.9861C175.147 92.0235 174.995 92.0157 174.856 91.9637C174.718 91.9117 174.598 91.8181 174.515 91.6957L174.372 91.4841C174.304 91.3847 174.212 91.3041 174.104 91.2495C173.997 91.1949 173.878 91.1681 173.757 91.1716L172.355 91.2134C172.193 91.2161 172.037 91.2753 171.914 91.3808L171.57 91.6687C171.488 91.7371 171.392 91.7867 171.289 91.8138C171.186 91.8408 171.079 91.8447 170.974 91.8252C170.869 91.8057 170.77 91.7632 170.684 91.7008C170.597 91.6384 170.526 91.5577 170.475 91.4644L170.11 90.805C170.022 90.6438 169.875 90.5226 169.699 90.4664C169.524 90.4101 169.334 90.423 169.168 90.5023L166.808 91.6367L164.198 92.9851C164.112 93.0289 164.019 93.0552 163.924 93.0624C163.828 93.0695 163.732 93.0575 163.642 93.0269L161.562 92.3379C161.469 92.3072 161.37 92.2955 161.272 92.3035L157.246 92.6455C157.11 92.6596 156.98 92.7116 156.871 92.7955C156.763 92.8793 156.679 92.9919 156.631 93.1204L156.048 94.7493C156.013 94.8472 155.957 94.9363 155.884 95.0105C155.811 95.0847 155.723 95.1422 155.626 95.1792C155.528 95.2161 155.424 95.2316 155.321 95.2245C155.217 95.2174 155.116 95.1879 155.024 95.1381L155 95.1258C154.85 95.0429 154.676 95.0162 154.509 95.0505C154.341 95.0848 154.192 95.1778 154.087 95.3128L153.629 95.8984C153.508 96.0509 153.331 96.1491 153.137 96.1716L151.877 96.3069C151.806 96.314 151.737 96.3314 151.671 96.3586L149.675 97.2124C149.585 97.2493 149.489 97.2686 149.392 97.269H148.433C148.315 97.269 148.2 97.2402 148.096 97.1853C147.992 97.1305 147.903 97.0511 147.837 96.954L147.699 96.7523C147.613 96.6261 147.489 96.5307 147.344 96.4799C147.2 96.429 147.044 96.4253 146.897 96.4693L144.66 97.146C144.507 97.1922 144.342 97.1861 144.193 97.1287L143.155 96.7301C143.076 96.6992 142.993 96.6825 142.908 96.6809H140.679C140.583 96.6808 140.487 96.7009 140.399 96.74L138.184 97.6799C138.028 97.7471 137.854 97.7567 137.692 97.707L136.597 97.3797C136.49 97.3479 136.378 97.3411 136.268 97.3599C136.158 97.3787 136.055 97.4225 135.965 97.488L135.485 97.8399C135.339 97.9461 135.16 97.9942 134.981 97.9746C134.802 97.9551 134.637 97.8692 134.518 97.7341L134.446 97.6529C134.35 97.5424 134.221 97.4641 134.079 97.4285C133.936 97.3929 133.787 97.4016 133.649 97.4535L131.865 98.1351C131.706 98.1931 131.532 98.1931 131.373 98.1351L130.591 97.8546C130.448 97.8053 130.293 97.801 130.148 97.8423L129.41 98.0564C129.248 98.103 129.075 98.0916 128.921 98.0242C128.767 97.9568 128.641 97.8376 128.566 97.6873L128.29 97.1337C128.23 97.0141 128.138 96.9135 128.024 96.8432C127.91 96.7728 127.779 96.7354 127.645 96.735H127.006C126.922 96.7365 126.839 96.7231 126.759 96.6957L124.277 95.8246C124.187 95.7927 124.093 95.7789 123.998 95.7839C123.904 95.789 123.811 95.8129 123.726 95.8541L121.912 96.7252C121.814 96.7716 121.708 96.7959 121.6 96.7966H119.309C119.212 96.797 119.116 96.8162 119.026 96.8532L118.558 97.0549C118.412 97.117 118.249 97.1292 118.095 97.0896C117.942 97.05 117.805 96.9609 117.707 96.8359C117.64 96.7493 117.553 96.6792 117.455 96.631C117.356 96.5828 117.248 96.5578 117.138 96.5579H115.982C115.815 96.5577 115.654 96.615 115.524 96.7203L114.853 97.2715C114.714 97.3858 114.539 97.4442 114.359 97.4351C114.18 97.426 114.011 97.35 113.886 97.2222L113.733 97.0697C113.634 96.9705 113.509 96.9021 113.372 96.8728C113.236 96.8435 113.093 96.8547 112.963 96.9048L112.294 97.1632C112.111 97.2314 111.908 97.2244 111.73 97.1435L109.375 96.051C109.334 96.0311 109.29 96.0163 109.245 96.0067L107.397 95.5515C107.251 95.5151 107.098 95.5254 106.958 95.5811C106.819 95.6367 106.7 95.7348 106.619 95.8615L105.458 97.6725C105.414 97.7421 105.381 97.8186 105.362 97.8989L105.01 99.4368C104.968 99.6124 104.863 99.7665 104.715 99.8699L103.947 100.396C103.854 100.461 103.746 100.502 103.634 100.517C103.521 100.531 103.407 100.519 103.3 100.48L101.72 99.9191C101.555 99.8608 101.374 99.8646 101.212 99.9298C101.049 99.995 100.916 100.117 100.837 100.273L100.005 101.829C99.9506 101.933 99.9219 102.05 99.9216 102.168V102.869C99.921 103.027 99.869 103.18 99.7735 103.305C99.678 103.43 99.5443 103.521 99.3926 103.563L98.0097 103.947C97.863 103.989 97.7068 103.982 97.5643 103.927L96.3587 103.472C96.2569 103.433 96.1474 103.418 96.0388 103.428L93.9596 103.617C93.8488 103.628 93.737 103.613 93.6332 103.573C93.5293 103.532 93.4363 103.469 93.3616 103.386L93.1156 103.113C93.0131 102.998 92.8756 102.92 92.7243 102.891L91.777 102.7C91.6802 102.681 91.5806 102.682 91.4843 102.703C91.3879 102.724 91.2967 102.764 91.216 102.82L89.9685 103.708C89.8568 103.787 89.7257 103.833 89.5895 103.841L87.6776 103.942C87.6053 103.947 87.534 103.962 87.466 103.986L84.1467 105.217C84.0537 105.252 83.9543 105.267 83.8551 105.261C83.7558 105.255 83.659 105.228 83.5709 105.182L82.6112 104.69C82.5099 104.638 82.3977 104.612 82.284 104.611H78.7161C78.5513 104.611 78.3915 104.555 78.2633 104.452L77.3997 103.76C77.2773 103.662 77.1262 103.607 76.9695 103.602C76.8127 103.598 76.6588 103.645 76.5311 103.735L75.6059 104.395C75.5123 104.462 75.436 104.55 75.3834 104.652C75.3308 104.755 75.3033 104.868 75.3032 104.983V111.9C75.3032 112.091 75.3792 112.274 75.5144 112.41C75.6496 112.545 75.833 112.621 76.0242 112.621H202.153C202.344 112.621 202.527 112.545 202.662 112.41C202.798 112.274 202.873 112.091 202.873 111.9L202.839 84.8897C202.841 84.7585 202.807 84.6294 202.74 84.5161C202.674 84.4029 202.578 84.3099 202.463 84.2471C202.348 84.1843 202.218 84.1542 202.087 84.1599C201.956 84.1656 201.829 84.2069 201.719 84.2794Z" fill="#009F36"/>
<path d="M202.229 85.8203C203.18 85.8203 203.951 85.0492 203.951 84.0979C203.951 83.1466 203.18 82.3755 202.229 82.3755C201.278 82.3755 200.506 83.1466 200.506 84.0979C200.506 85.0492 201.278 85.8203 202.229 85.8203Z" fill="#009F36"/>
<path opacity="0.3" d="M202.118 101.137L199.778 101.917C199.733 101.933 199.69 101.953 199.65 101.979L198.366 102.828C198.272 102.889 198.162 102.919 198.051 102.916L197.251 102.896C197.177 102.895 197.103 102.878 197.036 102.847C196.968 102.816 196.907 102.772 196.857 102.717L196.365 102.175C196.316 102.121 196.257 102.078 196.191 102.047C196.125 102.016 196.054 101.998 195.981 101.995C195.908 101.992 195.835 102.004 195.767 102.029C195.698 102.055 195.636 102.094 195.583 102.143L194.754 102.921C194.653 103.017 194.519 103.071 194.379 103.071H191.505C191.403 103.072 191.303 103.044 191.215 102.99C191.128 102.936 191.058 102.858 191.013 102.766L190.356 101.455C190.322 101.386 190.274 101.326 190.215 101.277C190.156 101.228 190.087 101.192 190.014 101.172C189.94 101.151 189.863 101.146 189.787 101.157C189.711 101.168 189.639 101.195 189.574 101.236L185.507 103.812C185.383 103.889 185.235 103.915 185.093 103.883L182.308 103.256C182.205 103.231 182.097 103.238 181.998 103.275L180.981 103.652C180.955 103.66 180.929 103.672 180.905 103.686L178.659 104.931C178.572 104.979 178.474 105.002 178.376 105L176.712 104.946C176.684 104.944 176.655 104.944 176.626 104.946L175.027 105.15C174.888 105.167 174.747 105.131 174.633 105.049L174.308 104.803C174.212 104.732 174.095 104.695 173.976 104.698L172.222 104.722C172.152 104.722 172.082 104.737 172.017 104.764L171.23 105.096C171.134 105.136 171.028 105.148 170.925 105.13C170.822 105.112 170.727 105.065 170.649 104.995L170.005 104.424C169.939 104.365 169.86 104.323 169.774 104.301C169.688 104.279 169.599 104.278 169.513 104.299L166.821 104.949L164.052 105.665C163.978 105.681 163.901 105.681 163.826 105.665L161.489 105.276C161.451 105.273 161.413 105.273 161.375 105.276L157.052 105.47C156.969 105.474 156.888 105.496 156.815 105.536C156.742 105.576 156.679 105.631 156.631 105.699L155.979 106.597C155.914 106.688 155.823 106.757 155.717 106.795C155.611 106.832 155.497 106.836 155.389 106.806L154.692 106.614C154.618 106.595 154.541 106.591 154.465 106.603C154.389 106.615 154.317 106.642 154.252 106.683L153.556 107.129C153.475 107.178 153.384 107.207 153.29 107.212L151.813 107.294C151.786 107.291 151.758 107.291 151.73 107.294L149.599 107.749C149.561 107.757 149.522 107.761 149.483 107.761H148.233C148.117 107.761 148.004 107.724 147.911 107.655L147.586 107.409C147.529 107.366 147.464 107.336 147.394 107.318C147.325 107.301 147.253 107.298 147.183 107.308L144.523 107.707C144.462 107.717 144.399 107.717 144.338 107.707L143.088 107.461C143.054 107.457 143.019 107.457 142.985 107.461H140.586C140.548 107.457 140.51 107.457 140.472 107.461L138.039 107.978C137.974 107.99 137.907 107.99 137.842 107.978L136.393 107.759C136.302 107.746 136.209 107.756 136.122 107.788L135.192 108.128C135.117 108.156 135.037 108.167 134.958 108.16C134.878 108.153 134.801 108.129 134.732 108.088L134.291 107.842C134.18 107.776 134.047 107.753 133.92 107.778L131.705 108.199C131.639 108.211 131.572 108.211 131.506 108.199L130.441 108.01C130.383 108.001 130.324 108.001 130.266 108.01L129.09 108.179C129.006 108.192 128.92 108.185 128.839 108.159C128.758 108.132 128.685 108.087 128.625 108.027L128.236 107.655C128.132 107.554 127.993 107.496 127.847 107.495H126.915C126.883 107.498 126.852 107.498 126.821 107.495L124.1 107.018C124.026 107.002 123.949 107.002 123.876 107.018L121.819 107.51C121.777 107.52 121.734 107.525 121.691 107.525H119.213C119.175 107.521 119.137 107.521 119.1 107.525L118.261 107.704C118.119 107.744 117.968 107.726 117.84 107.655L117.609 107.505C117.52 107.449 117.418 107.419 117.313 107.419H115.815C115.744 107.419 115.674 107.434 115.608 107.461L114.56 107.889C114.488 107.919 114.41 107.933 114.332 107.93C114.253 107.927 114.177 107.907 114.107 107.872L113.551 107.591C113.443 107.537 113.32 107.52 113.202 107.542L112.104 107.754C112.03 107.77 111.952 107.77 111.878 107.754L109.333 107.163H109.277L107.114 106.895C106.97 106.879 106.825 106.919 106.71 107.008L105.48 107.963C105.411 108.016 105.356 108.085 105.32 108.165L105.045 108.777C105.014 108.845 104.969 108.905 104.914 108.955C104.859 109.005 104.795 109.043 104.725 109.068L103.78 109.39C103.692 109.422 103.598 109.429 103.507 109.412L101.405 109.038C101.322 109.024 101.235 109.029 101.154 109.053C101.072 109.077 100.998 109.12 100.935 109.178L100.101 109.958C100.047 110.01 100.003 110.072 99.9734 110.141C99.9437 110.21 99.9286 110.284 99.929 110.359C99.9291 110.492 99.8812 110.619 99.7943 110.719C99.7075 110.818 99.5875 110.883 99.4566 110.901L97.8794 111.12C97.8207 111.13 97.7608 111.13 97.7022 111.12L96.275 110.849C96.2325 110.844 96.1896 110.844 96.1471 110.849L93.7628 110.957C93.6626 110.961 93.5632 110.938 93.4749 110.891L93.0566 110.662C92.9923 110.625 92.921 110.603 92.8474 110.596L91.595 110.47C91.5118 110.462 91.4277 110.472 91.3489 110.5L89.8725 111.024C89.8179 111.043 89.7607 111.054 89.7027 111.056L87.6038 111.112C87.5752 111.11 87.5464 111.11 87.5177 111.112L83.9622 111.769C83.8851 111.785 83.8055 111.785 83.7284 111.769L82.5178 111.459C82.4726 111.449 82.4264 111.443 82.38 111.442H78.5636C78.4935 111.443 78.4241 111.429 78.3593 111.403L77.1635 110.925C77.0383 110.877 76.8999 110.877 76.7747 110.925L75.6625 111.322C75.5559 111.359 75.4636 111.428 75.3984 111.521C75.3331 111.613 75.2981 111.723 75.2983 111.836V112.082C75.298 112.154 75.3119 112.225 75.3392 112.292C75.3665 112.358 75.4067 112.419 75.4575 112.47C75.5082 112.521 75.5686 112.561 75.635 112.589C75.7014 112.616 75.7727 112.631 75.8446 112.631H202.32C202.392 112.631 202.463 112.616 202.529 112.589C202.596 112.561 202.656 112.521 202.707 112.47C202.758 112.419 202.798 112.358 202.825 112.292C202.853 112.225 202.866 112.154 202.866 112.082L202.834 101.681C202.838 101.593 202.82 101.505 202.782 101.425C202.744 101.345 202.688 101.276 202.618 101.223C202.547 101.169 202.465 101.134 202.378 101.119C202.291 101.104 202.202 101.11 202.118 101.137Z" fill="#009F36"/>
<path d="M107.495 97.3853C108.447 97.3853 109.218 96.6141 109.218 95.6629C109.218 94.7116 108.447 93.9404 107.495 93.9404C106.544 93.9404 105.773 94.7116 105.773 95.6629C105.773 96.6141 106.544 97.3853 107.495 97.3853Z" fill="#009F36"/>
<path d="M190.172 86.5581C191.123 86.5581 191.895 85.787 191.895 84.8357C191.895 83.8844 191.123 83.1133 190.172 83.1133C189.221 83.1133 188.45 83.8844 188.45 84.8357C188.45 85.787 189.221 86.5581 190.172 86.5581Z" fill="#009F36"/>
<path d="M147.357 98.1231C148.308 98.1231 149.08 97.3519 149.08 96.4007C149.08 95.4494 148.308 94.6782 147.357 94.6782C146.406 94.6782 145.635 95.4494 145.635 96.4007C145.635 97.3519 146.406 98.1231 147.357 98.1231Z" fill="#009F36"/>
<path d="M169.749 91.9717C170.7 91.9717 171.471 91.2005 171.471 90.2493C171.471 89.298 170.7 88.5269 169.749 88.5269C168.798 88.5269 168.026 89.298 168.026 90.2493C168.026 91.2005 168.798 91.9717 169.749 91.9717Z" fill="#009F36"/>
<path d="M203.085 84.8754C203.085 84.7453 203.049 84.6177 202.982 84.5062C202.915 84.3948 202.819 84.3035 202.704 84.2422C202.589 84.1809 202.46 84.1518 202.33 84.158C202.2 84.1642 202.074 84.2055 201.966 84.2774L200.061 85.5471C199.994 85.5922 199.935 85.6479 199.886 85.712L198.703 87.2745C198.631 87.3671 198.538 87.4412 198.432 87.4909C198.326 87.5405 198.21 87.5642 198.093 87.5599L197.706 87.5402C197.574 87.5336 197.445 87.4906 197.336 87.416C197.226 87.3413 197.139 87.2379 197.084 87.117L196.838 86.5929C196.783 86.4698 196.694 86.3646 196.582 86.2894C196.47 86.2142 196.34 86.1721 196.205 86.1677C196.07 86.1633 195.937 86.197 195.82 86.2648C195.704 86.3326 195.609 86.4318 195.546 86.5511L195.054 87.4935C194.992 87.6091 194.9 87.7057 194.788 87.7729C194.676 87.8401 194.547 87.8754 194.416 87.8749H191.975C191.815 87.8756 191.658 87.8221 191.531 87.723C191.404 87.6239 191.315 87.4849 191.277 87.3286L190.691 84.9836C190.658 84.8529 190.59 84.734 190.493 84.6403C190.396 84.5466 190.275 84.4818 190.144 84.4534C190.012 84.4249 189.875 84.434 189.748 84.4794C189.621 84.5249 189.51 84.6049 189.426 84.7105L185.908 89.1593C185.808 89.2858 185.669 89.3752 185.513 89.4131C185.357 89.4511 185.193 89.4353 185.046 89.3684L182.785 88.3473C182.667 88.2919 182.535 88.2697 182.405 88.2832C182.275 88.2966 182.151 88.3451 182.047 88.4236L181.237 89.0215C181.199 89.0504 181.163 89.0834 181.132 89.1199L178.996 91.4846C178.924 91.5669 178.834 91.6318 178.734 91.6745C178.633 91.7171 178.524 91.7363 178.415 91.7306L177.02 91.6421C176.944 91.6375 176.868 91.6441 176.794 91.6617L175.536 91.9841C175.393 92.0215 175.241 92.0137 175.103 91.9617C174.964 91.9097 174.845 91.8161 174.761 91.6937L174.618 91.4821C174.55 91.3827 174.458 91.3021 174.351 91.2475C174.243 91.1929 174.124 91.1661 174.003 91.1696L172.601 91.2114C172.439 91.2141 172.283 91.2733 172.16 91.3788L171.816 91.6667C171.734 91.7351 171.638 91.7847 171.535 91.8118C171.432 91.8388 171.325 91.8427 171.22 91.8232C171.115 91.8037 171.016 91.7612 170.93 91.6988C170.844 91.6364 170.772 91.5557 170.721 91.4624L170.357 90.803C170.268 90.6418 170.121 90.5206 169.945 90.4644C169.77 90.4081 169.58 90.421 169.414 90.5003L167.054 91.6347L164.444 92.9831C164.359 93.0269 164.265 93.0532 164.17 93.0604C164.074 93.0675 163.978 93.0555 163.888 93.0249L161.808 92.3359C161.715 92.3052 161.616 92.2935 161.518 92.3015L157.492 92.646C157.356 92.6601 157.226 92.712 157.117 92.7959C157.009 92.8798 156.926 92.9923 156.877 93.1209L156.294 94.7498C156.259 94.8477 156.203 94.9368 156.13 95.011C156.057 95.0852 155.969 95.1427 155.872 95.1796C155.775 95.2166 155.67 95.232 155.567 95.2249C155.463 95.2178 155.362 95.1884 155.271 95.1386L155.246 95.1263C155.097 95.0434 154.922 95.0167 154.755 95.051C154.588 95.0853 154.438 95.1783 154.333 95.3133L153.875 95.8989C153.754 96.0514 153.577 96.1495 153.383 96.172L152.123 96.3074C152.052 96.3145 151.983 96.3319 151.917 96.359L149.921 97.2129C149.831 97.2498 149.735 97.269 149.638 97.2695H148.679C148.561 97.2694 148.446 97.2407 148.342 97.1858C148.238 97.1309 148.149 97.0515 148.083 96.9545L147.945 96.7527C147.859 96.6266 147.735 96.5312 147.59 96.4803C147.446 96.4295 147.29 96.4258 147.143 96.4698L144.906 97.1464C144.753 97.1926 144.589 97.1866 144.439 97.1292L143.401 96.7306C143.322 96.6997 143.239 96.683 143.155 96.6814H140.925C140.829 96.6812 140.733 96.7014 140.645 96.7404L138.43 97.6804C138.275 97.7476 138.1 97.7572 137.938 97.7074L136.843 97.3802C136.736 97.3484 136.624 97.3416 136.514 97.3604C136.405 97.3792 136.301 97.423 136.211 97.4885L135.731 97.8403C135.586 97.9466 135.406 97.9947 135.227 97.9751C135.048 97.9555 134.883 97.8697 134.764 97.7345L134.692 97.6533C134.596 97.5429 134.468 97.4646 134.325 97.4289C134.183 97.3933 134.033 97.4021 133.895 97.454L132.111 98.1356C131.952 98.1935 131.778 98.1935 131.619 98.1356L130.837 97.8551C130.694 97.8057 130.539 97.8014 130.394 97.8428L129.656 98.0569C129.494 98.1035 129.321 98.0921 129.167 98.0247C129.013 97.9573 128.887 97.8381 128.812 97.6878L128.536 97.1341C128.476 97.0146 128.384 96.914 128.27 96.8436C128.156 96.7733 128.025 96.7358 127.891 96.7355H127.252C127.168 96.7369 127.085 96.7236 127.006 96.6961L124.523 95.8251C124.434 95.7932 124.339 95.7793 124.244 95.7844C124.15 95.7895 124.057 95.8133 123.972 95.8546L122.158 96.7257C122.06 96.772 121.954 96.7964 121.846 96.797H119.555C119.458 96.7975 119.362 96.8167 119.272 96.8536L118.804 97.0554C118.658 97.1174 118.495 97.1296 118.342 97.09C118.188 97.0505 118.051 96.9613 117.953 96.8364C117.886 96.7497 117.8 96.6796 117.701 96.6314C117.603 96.5832 117.494 96.5582 117.385 96.5583H116.228C116.061 96.5581 115.9 96.6155 115.77 96.7207L115.099 97.2719C114.961 97.3863 114.785 97.4447 114.606 97.4355C114.427 97.4264 114.257 97.3505 114.132 97.2227L113.979 97.0702C113.881 96.9709 113.755 96.9025 113.619 96.8733C113.482 96.844 113.339 96.8551 113.209 96.9053L112.54 97.1637C112.357 97.2319 112.154 97.2248 111.976 97.144L109.621 96.0515C109.58 96.0316 109.536 96.0167 109.491 96.0072L107.643 95.552C107.497 95.5155 107.344 95.5259 107.204 95.5815C107.065 95.6372 106.946 95.7353 106.865 95.862L105.704 97.673C105.66 97.7426 105.627 97.8191 105.608 97.8994L105.256 99.4373C105.214 99.6129 105.109 99.7669 104.961 99.8703L104.193 100.397C104.1 100.461 103.992 100.502 103.88 100.517C103.767 100.532 103.653 100.519 103.546 100.481L101.966 99.9195C101.801 99.8612 101.621 99.865 101.458 99.9302C101.295 99.9954 101.162 100.118 101.083 100.274L100.251 101.829C100.197 101.934 100.168 102.05 100.168 102.169V102.87C100.167 103.027 100.115 103.18 100.02 103.305C99.9241 103.431 99.7904 103.521 99.6387 103.564L98.2558 103.948C98.1091 103.989 97.9529 103.982 97.8104 103.928L96.6047 103.473C96.5029 103.433 96.3935 103.418 96.2849 103.428L94.2056 103.618C94.0949 103.629 93.9831 103.613 93.8792 103.573C93.7754 103.533 93.6824 103.469 93.6077 103.387L93.3617 103.113C93.2592 102.999 93.1217 102.921 92.9704 102.892L92.0231 102.7C91.9263 102.682 91.8267 102.683 91.7304 102.704C91.634 102.724 91.5428 102.764 91.4621 102.821L90.2145 103.709C90.1029 103.787 89.9718 103.833 89.8356 103.842L87.9237 103.943C87.8514 103.947 87.7801 103.962 87.7121 103.987L84.3927 105.217C84.2998 105.252 84.2004 105.268 84.1012 105.262C84.0019 105.256 83.9051 105.229 83.817 105.183L82.8573 104.691C82.756 104.639 82.6438 104.612 82.5301 104.612H78.9622C78.7974 104.612 78.6376 104.555 78.5094 104.452L77.6458 103.761C77.5233 103.663 77.3723 103.607 77.2156 103.603C77.0588 103.598 76.9049 103.645 76.7772 103.736L75.852 104.395C75.7584 104.462 75.6821 104.551 75.6295 104.653C75.5769 104.755 75.5494 104.868 75.5493 104.983" stroke="#009F36" stroke-miterlimit="10"/>
<path opacity="0.2" d="M212.072 122.717H68.126V122.741H212.072V122.717Z" fill="#F2F2F2"/>
<path opacity="0.3" d="M90.2713 123.96C90.9508 123.96 91.5016 123.409 91.5016 122.729C91.5016 122.05 90.9508 121.499 90.2713 121.499C89.5918 121.499 89.041 122.05 89.041 122.729C89.041 123.409 89.5918 123.96 90.2713 123.96Z" fill="#009F36"/>
<path opacity="0.3" d="M108.234 123.96C108.913 123.96 109.464 123.409 109.464 122.729C109.464 122.05 108.913 121.499 108.234 121.499C107.554 121.499 107.003 122.05 107.003 122.729C107.003 123.409 107.554 123.96 108.234 123.96Z" fill="#009F36"/>
<path opacity="0.3" d="M126.196 123.96C126.876 123.96 127.426 123.409 127.426 122.729C127.426 122.05 126.876 121.499 126.196 121.499C125.517 121.499 124.966 122.05 124.966 122.729C124.966 123.409 125.517 123.96 126.196 123.96Z" fill="#009F36"/>
<path opacity="0.3" d="M144.159 123.96C144.838 123.96 145.389 123.409 145.389 122.729C145.389 122.05 144.838 121.499 144.159 121.499C143.479 121.499 142.928 122.05 142.928 122.729C142.928 123.409 143.479 123.96 144.159 123.96Z" fill="#009F36"/>
<path opacity="0.3" d="M162.121 123.96C162.8 123.96 163.351 123.409 163.351 122.729C163.351 122.05 162.8 121.499 162.121 121.499C161.441 121.499 160.891 122.05 160.891 122.729C160.891 123.409 161.441 123.96 162.121 123.96Z" fill="#009F36"/>
<path opacity="0.3" d="M180.083 123.96C180.763 123.96 181.314 123.409 181.314 122.729C181.314 122.05 180.763 121.499 180.083 121.499C179.404 121.499 178.853 122.05 178.853 122.729C178.853 123.409 179.404 123.96 180.083 123.96Z" fill="#009F36"/>
<path opacity="0.3" d="M198.046 123.96C198.725 123.96 199.276 123.409 199.276 122.729C199.276 122.05 198.725 121.499 198.046 121.499C197.366 121.499 196.815 122.05 196.815 122.729C196.815 123.409 197.366 123.96 198.046 123.96Z" fill="#009F36"/>
<path d="M57.9809 170.175C57.2428 168.819 58.0794 167.158 59.0365 165.95C59.9937 164.742 61.1551 163.489 61.1305 161.942C61.0936 159.727 58.7437 158.418 56.8663 157.244C55.472 156.373 54.1866 155.338 53.0376 154.161C52.5567 153.709 52.1586 153.176 51.8614 152.586C51.4726 151.72 51.4825 150.736 51.5071 149.789C51.5907 146.626 51.7474 143.469 51.9771 140.318" stroke="#3F3D56" stroke-width="4" stroke-miterlimit="10"/>
<path d="M48.4066 140.15C48.4328 139.572 48.6043 139.009 48.9054 138.515C49.2064 138.02 49.6273 137.609 50.1291 137.321L50.9017 138.849L50.8771 136.998C51.2467 136.89 51.6316 136.843 52.0164 136.86C52.696 136.894 53.3504 137.128 53.8971 137.534C54.4438 137.939 54.8582 138.497 55.0881 139.137C55.318 139.778 55.353 140.472 55.1888 141.132C55.0245 141.793 54.6684 142.39 54.1653 142.848C53.6622 143.306 53.0347 143.605 52.3619 143.707C51.6891 143.809 51.0012 143.709 50.3849 143.421C49.7686 143.132 49.2516 142.668 48.8991 142.086C48.5466 141.503 48.3744 140.83 48.4042 140.15H48.4066Z" fill="#009F36"/>
<path d="M54.5655 163.523C54.9277 164.225 55.5203 164.782 56.2439 165.099C56.9674 165.416 57.778 165.475 58.5398 165.266C59.3016 165.056 59.9683 164.591 60.4281 163.949C60.8879 163.307 61.113 162.526 61.0655 161.737C61.0181 160.948 60.701 160.2 60.1675 159.617C59.6339 159.035 58.9163 158.653 58.1349 158.537C57.3535 158.42 56.5558 158.576 55.8755 158.977C55.1952 159.379 54.6736 160.002 54.3982 160.743L56.5561 162.497L54.1816 161.949C54.1825 162.497 54.3141 163.036 54.5655 163.523Z" fill="#009F36"/>
<path d="M56.2707 156.819C57.1287 156.879 57.9784 156.617 58.6526 156.083C59.3269 155.548 59.7768 154.781 59.9141 153.932C60.0514 153.083 59.866 152.213 59.3944 151.494C58.9228 150.774 58.1991 150.257 57.3656 150.045L57.3853 151.467L56.6029 149.919C56.1498 149.897 55.6967 149.965 55.2698 150.118C54.8429 150.271 54.4505 150.508 54.1151 150.813C53.7797 151.118 53.5079 151.487 53.3154 151.898C53.1228 152.309 53.0133 152.753 52.9931 153.207C52.9729 153.605 53.0229 154.004 53.1408 154.385C53.3483 155.064 53.7603 155.662 54.3206 156.097C54.8808 156.533 55.5618 156.785 56.2707 156.819Z" fill="#009F36"/>
<path d="M47.8875 151.24C48.4176 151.26 48.945 151.157 49.4287 150.939C49.9124 150.721 50.3392 150.394 50.6759 149.985C51.0126 149.575 51.2501 149.093 51.3699 148.576C51.4897 148.059 51.4885 147.522 51.3665 147.005C51.2445 146.489 51.0049 146.008 50.6664 145.6C50.3279 145.191 49.8997 144.867 49.415 144.651C48.9304 144.435 48.4026 144.334 47.8726 144.356C47.3426 144.378 46.8247 144.522 46.3595 144.776L46.9697 146.45L45.7148 145.244C45.0423 145.86 44.6415 146.717 44.6001 147.628C44.5838 147.948 44.6128 148.269 44.6863 148.58C44.8586 149.311 45.2642 149.966 45.8418 150.446C46.4193 150.926 47.1374 151.205 47.8875 151.24Z" fill="#009F36"/>
<path opacity="0.1" d="M48.8717 141.071C49.6689 141.157 50.444 141.405 51.2437 141.455C52.0434 141.504 52.9219 141.312 53.4288 140.692C53.6994 140.357 53.8372 139.932 54.0661 139.567C54.2846 139.227 54.5838 138.945 54.9371 138.748C55.1455 139.184 55.26 139.658 55.2731 140.141C55.2863 140.623 55.1979 141.103 55.0136 141.55C54.8293 141.996 54.5532 142.398 54.2033 142.731C53.8534 143.064 53.4375 143.319 52.9825 143.481C52.5276 143.642 52.0437 143.707 51.5623 143.669C51.081 143.632 50.6129 143.493 50.1884 143.263C49.7639 143.033 49.3924 142.717 49.0982 142.334C48.804 141.951 48.5935 141.511 48.4805 141.041C48.6117 141.046 48.7421 141.056 48.8717 141.071Z" fill="black"/>
<path opacity="0.1" d="M47.8872 151.24C48.4828 151.27 49.0761 151.145 49.6089 150.878C50.1417 150.61 50.5959 150.208 50.927 149.712C51.2581 149.216 51.4547 148.643 51.4977 148.048C51.5407 147.453 51.4285 146.857 51.1721 146.319C50.8981 146.503 50.6625 146.739 50.4783 147.013C50.2322 147.384 50.0821 147.812 49.7942 148.154C49.2553 148.787 48.3375 148.994 47.5034 148.957C46.6692 148.92 45.8646 148.681 45.0428 148.605C44.9271 148.605 44.8115 148.588 44.6934 148.585C44.8663 149.314 45.2712 149.967 45.8472 150.446C46.4232 150.924 47.1391 151.203 47.8872 151.24Z" fill="black"/>
<path opacity="0.1" d="M56.2706 156.818C56.8619 156.849 57.4512 156.727 57.9815 156.463C58.5119 156.2 58.9654 155.804 59.2982 155.315C59.6311 154.825 59.8322 154.258 59.882 153.668C59.9318 153.078 59.8287 152.485 59.5825 151.946C59.296 152.133 59.0459 152.371 58.8444 152.648C58.5762 153.026 58.4088 153.462 58.1062 153.811C57.523 154.461 56.5437 154.69 55.6628 154.668C54.7819 154.646 53.9822 154.441 53.1333 154.375C53.3396 155.056 53.752 155.657 54.3138 156.095C54.8756 156.533 55.5592 156.785 56.2706 156.818Z" fill="black"/>
<path opacity="0.1" d="M54.5654 163.523C54.939 164.358 55.629 165.011 56.4837 165.337C57.3383 165.663 58.2875 165.637 59.1225 165.263C59.9575 164.889 60.6098 164.199 60.9361 163.345C61.2623 162.49 61.2357 161.541 60.8621 160.706C60.5772 160.892 60.3217 161.119 60.1043 161.38C59.7745 161.781 59.558 162.237 59.1791 162.611C58.4729 163.304 57.3336 163.595 56.3174 163.617C55.7321 163.619 55.1471 163.588 54.5654 163.523Z" fill="black"/>
<path d="M63.1898 168.615C63.1898 168.615 60.4634 168.531 59.6416 167.945C58.8197 167.36 55.4585 166.663 55.2469 167.601C55.0353 168.538 51.15 172.276 54.2258 172.291C57.3015 172.306 61.3763 171.811 62.1982 171.307C63.02 170.802 63.1898 168.615 63.1898 168.615Z" fill="#656380"/>
<path opacity="0.2" d="M54.172 171.963C57.2502 171.988 61.3225 171.486 62.1419 170.979C62.7669 170.598 63.0154 169.232 63.0991 168.604H63.1901C63.1901 168.604 63.0179 170.802 62.2059 171.311C61.3939 171.821 57.3117 172.315 54.2335 172.295C53.3452 172.295 53.0401 171.973 53.0573 171.506C53.173 171.781 53.5101 171.958 54.172 171.963Z" fill="black"/>
<path d="M234.965 138.327C234.786 138.841 234.718 139.387 234.766 139.929C234.885 140.47 235.139 140.973 235.504 141.391C235.687 141.682 235.971 141.895 236.301 141.989C236.473 142.005 236.645 141.973 236.8 141.898C236.955 141.823 237.086 141.707 237.18 141.563C237.364 141.272 237.474 140.94 237.5 140.596C237.569 139.68 237.523 138.759 237.364 137.855C237.261 137.094 237.234 136.258 237.032 135.522C236.51 135.522 235.908 135.426 235.617 135.923C235.246 136.57 235.157 137.604 234.965 138.327Z" fill="#FFC0C6"/>
<path d="M237.819 124.781C237.692 125.143 237.512 125.487 237.394 125.854C237.281 126.236 237.199 126.626 237.148 127.02C236.782 129.337 236.29 131.632 235.671 133.895C235.451 134.56 235.327 135.253 235.302 135.952L236.71 135.903C236.842 135.882 236.978 135.912 237.089 135.987C237.209 136.095 237.29 136.334 237.443 136.272C237.707 134.92 237.892 133.554 237.997 132.18C238.053 131.196 238.026 130.231 238.09 129.259C238.213 127.323 238.789 125.116 238.036 123.243C238.064 123.765 237.991 124.287 237.819 124.781Z" fill="#3F3D56"/>
<path opacity="0.1" d="M237.819 124.781C237.692 125.143 237.512 125.487 237.394 125.854C237.281 126.236 237.199 126.626 237.148 127.02C236.782 129.337 236.29 131.632 235.671 133.895C235.451 134.56 235.327 135.253 235.302 135.952L236.71 135.903C236.842 135.882 236.978 135.912 237.089 135.987C237.209 136.095 237.29 136.334 237.443 136.272C237.707 134.92 237.892 133.554 237.997 132.18C238.053 131.196 238.026 130.231 238.09 129.259C238.213 127.323 238.789 125.116 238.036 123.243C238.064 123.765 237.991 124.287 237.819 124.781Z" fill="black"/>
<path d="M239.569 113.182C239.224 113.477 239.106 113.95 239.005 114.393L238.188 117.99C238.001 118.812 237.814 119.634 237.696 120.468C237.179 123.952 237.777 127.535 237.204 131.009C237.038 131.783 236.928 132.569 236.874 133.359C236.85 134.806 237.408 136.245 237.177 137.672C237.099 137.926 237.099 138.197 237.177 138.45C237.295 138.696 237.694 138.775 237.804 138.536C237.824 138.492 237.837 138.446 237.841 138.398L238.693 133.027C238.897 131.75 239.099 130.453 238.958 129.166C238.863 128.29 238.607 127.414 238.747 126.543C238.839 126.112 238.965 125.688 239.123 125.276C239.945 122.815 239.832 120.141 239.369 117.596C239.276 117.227 239.249 116.843 239.291 116.464C239.404 115.842 239.886 115.364 240.211 114.823C240.457 114.415 240.88 113.517 240.703 113.024C240.521 112.449 239.916 112.884 239.569 113.182Z" fill="#3F3D56"/>
<path d="M240.932 165.194C240.819 165.182 240.704 165.203 240.602 165.253C240.516 165.316 240.449 165.401 240.408 165.499C240.135 166.063 239.943 166.715 239.424 167.079C239.162 167.243 238.875 167.361 238.575 167.429L236.262 168.088C235.964 168.172 235.625 168.295 235.524 168.58C235.423 168.866 235.639 169.215 235.917 169.382C236.331 169.579 236.789 169.664 237.246 169.628L240.595 169.678C240.913 169.7 241.233 169.668 241.54 169.582C241.931 169.444 242.261 169.131 242.672 169.089C243.006 169.053 243.329 169.198 243.656 169.272C244.338 169.422 245.044 169.272 245.72 169.099C245.843 169.082 245.958 169.027 246.048 168.942C246.121 168.835 246.157 168.707 246.149 168.578C246.176 168.004 246.185 167.433 246.183 166.855C246.183 166.336 246.122 165.733 245.691 165.448C245.493 165.334 245.272 165.266 245.044 165.248C243.671 165.074 242.315 165.204 240.932 165.194Z" fill="#575A88"/>
<path d="M249.793 172.48C249.698 172.704 249.579 172.916 249.436 173.113L248.026 175.249C247.45 176.117 246.855 177.047 246.815 178.088C247.755 178.45 248.764 178.596 249.768 178.514C250.271 178.501 250.76 178.349 251.181 178.073C251.786 177.628 252.025 176.843 252.221 176.125C252.235 176.029 252.283 175.942 252.357 175.879C252.482 175.792 252.652 175.879 252.805 175.847C253.117 175.807 253.225 175.414 253.247 175.108C253.31 174.135 253.227 173.158 253.001 172.21C252.984 172.091 252.932 171.981 252.851 171.892C252.758 171.822 252.646 171.78 252.529 171.772C251.825 171.651 251.122 171.511 250.415 171.408C249.483 171.258 250.056 171.809 249.793 172.48Z" fill="#575A88"/>
<path d="M238.149 134.422C237.468 135.288 237.249 136.444 237.3 137.544C237.352 138.644 237.655 139.717 237.908 140.79C238.324 142.536 238.625 144.307 238.809 146.092C238.838 146.592 238.92 147.087 239.055 147.569C239.175 147.943 239.362 148.292 239.47 148.669C239.603 149.126 239.616 149.614 239.739 150.074C239.905 150.571 240.117 151.051 240.374 151.508C241.498 153.806 241.739 156.429 241.759 158.988C241.759 159.68 241.759 160.369 241.823 161.055C241.966 162.448 242.396 164.008 241.562 165.13C241.774 165.893 242.792 166.038 243.57 165.937C244.484 165.824 245.377 165.583 246.225 165.224C245.979 164.702 245.62 164.094 245.637 163.501C245.689 163.037 245.806 162.583 245.986 162.153C246.432 160.799 246.478 159.353 246.503 157.928C246.521 157.488 246.514 157.048 246.483 156.609C246.44 156.204 246.374 155.801 246.286 155.403L245.334 150.632C245.167 149.794 245.144 148.934 245.268 148.088C245.447 147.085 245.787 146.118 246.274 145.224C247.413 142.923 247.807 140.33 248.031 137.771C248.151 136.373 248.181 134.818 247.293 133.733C246.743 133.106 246 132.682 245.182 132.527C244.37 132.379 243.542 132.347 242.721 132.431C241.075 132.569 239.17 133.127 238.149 134.422Z" fill="#3F3D56"/>
<path d="M238.348 135.035C238.033 136.093 238.816 137.124 239.219 138.152C239.451 138.745 239.566 139.383 239.921 139.921C240.359 140.578 241.112 140.967 241.586 141.6C242.061 142.232 242.199 142.973 242.571 143.63C242.942 144.287 243.555 144.833 243.899 145.517C244.421 146.538 244.345 147.763 244.711 148.851C244.972 149.631 245.462 150.327 245.651 151.132C245.735 151.494 245.757 151.87 245.851 152.224C246.07 153.071 246.67 153.809 246.732 154.685C246.771 155.258 246.579 155.888 246.882 156.376C247.064 156.673 247.394 156.848 247.62 157.114C247.785 157.355 247.905 157.626 247.972 157.911L248.464 159.523C248.939 161.088 248.993 162.704 249.448 164.277C249.903 165.849 250.226 167.549 249.694 169.099C249.48 169.742 249.123 170.401 249.303 171.053C249.38 171.284 249.505 171.495 249.672 171.671C249.839 171.848 250.042 171.987 250.267 172.077C250.722 172.251 251.203 172.342 251.69 172.345C252.342 172.379 253.043 172.345 253.582 171.983C253.317 170.007 253.212 168.012 253.267 166.019C253.329 164.719 253.513 163.425 253.513 162.124C253.486 161.299 253.408 160.478 253.279 159.663C253.132 158.444 252.872 157.241 252.502 156.07C252.296 155.547 252.123 155.011 251.985 154.466C251.906 154.095 251.882 153.713 251.828 153.337C251.773 152.96 251.692 152.599 251.611 152.212L251.281 150.692C251.207 150.357 251.006 150.064 250.991 149.722L250.89 147.508C250.728 143.881 250.57 140.195 251.444 136.681C250.934 135.17 250.076 133.578 248.612 132.946C248.009 132.705 247.366 132.582 246.717 132.584C243.727 132.49 241.05 133.772 238.348 135.035Z" fill="#3F3D56"/>
<path d="M240.582 110.232C240.723 110.323 240.852 110.432 240.966 110.554C241.103 110.721 241.211 110.91 241.286 111.113C241.565 111.786 241.731 112.501 241.778 113.229C243.375 112.108 244.844 110.815 246.158 109.373C245.57 109.417 245.029 108.996 244.748 108.48C244.501 107.944 244.359 107.366 244.33 106.777C244.315 106.666 242.797 107.311 242.674 107.377C242.133 107.673 241.626 108.024 241.097 108.339C240.843 108.495 240.581 108.637 240.312 108.765C240.066 108.878 239.677 108.93 239.473 109.092C238.929 109.53 240.248 109.998 240.582 110.232Z" fill="#FFC0C6"/>
<path d="M240.336 111.897C240.275 112.372 240.356 112.857 240.285 113.33C240.184 114.011 239.793 114.604 239.497 115.229C238.69 116.984 238.759 118.994 238.722 120.923C238.685 123.034 238.511 125.138 238.334 127.242L238.011 131.093C237.955 131.757 237.898 132.426 237.765 133.083C237.695 133.36 237.661 133.644 237.664 133.93C237.706 134.273 237.808 134.606 237.964 134.914C238.111 135.324 238.345 135.697 238.651 136.006C238.807 136.158 239.007 136.257 239.222 136.288C239.437 136.32 239.657 136.282 239.849 136.181L240.14 135.308C240.15 135.657 240.292 135.99 240.536 136.24C240.78 136.49 241.109 136.64 241.459 136.659C241.709 136.65 241.958 136.607 242.197 136.531L244.473 135.913C244.965 135.802 245.444 135.637 245.9 135.421C246.884 134.897 247.544 133.912 247.898 132.859C248.252 131.806 248.324 130.687 248.365 129.579C248.456 127.023 248.388 124.442 247.846 121.951C247.62 120.906 247.31 119.877 247.123 118.824C246.905 117.403 246.798 115.968 246.803 114.53L246.724 110.972C246.745 110.531 246.671 110.09 246.505 109.68C246.418 109.478 246.269 109.309 246.08 109.196C245.891 109.084 245.671 109.033 245.452 109.053C244.771 109.181 244.611 110.059 244.241 110.647C243.927 111.152 243.397 111.477 242.888 111.784C242.554 111.986 242.135 112.193 241.791 112.006C241.446 111.819 241.449 111.216 241.094 111.061C240.624 110.807 240.378 111.533 240.336 111.897Z" fill="#F2F2F2"/>
<path d="M243.597 112.896C242.952 114.545 242.612 116.295 242.288 118.037C241.946 119.914 241.638 121.841 241.951 123.723C242.541 127.284 245.243 130.16 246.163 133.649C246.323 134.255 246.429 134.88 246.655 135.465C247.007 136.449 247.639 137.286 248.262 138.115C248.597 138.561 249.091 139.06 249.618 138.88C250.009 138.745 250.181 138.3 250.479 138.009C250.895 137.603 251.532 137.532 252.113 137.559C252.694 137.586 253.289 137.692 253.852 137.559C254.416 137.426 254.952 136.922 254.896 136.329C254.859 135.957 254.598 135.655 254.404 135.345C253.838 134.498 253.621 133.47 253.456 132.463C252.509 126.659 252.932 120.692 251.926 114.897C251.8 114.159 251.643 113.421 251.227 112.815C251.022 112.558 250.833 112.289 250.659 112.011C250.501 111.708 250.432 111.356 250.226 111.083C249.93 110.694 249.423 110.549 248.958 110.399C248.326 110.195 247.711 109.939 247.12 109.634C246.672 109.402 246.038 108.763 245.585 109.068C245.132 109.373 244.79 110.438 244.546 110.901C244.192 111.548 243.875 112.214 243.597 112.896Z" fill="#3F3D56"/>
<path d="M245.545 136.885C245.196 136.966 244.824 136.855 244.473 136.934C243.894 137.067 243.562 137.655 243.301 138.187C243.205 138.351 243.146 138.534 243.127 138.723C243.12 138.817 243.144 138.911 243.194 138.991C243.244 139.072 243.319 139.134 243.407 139.168C243.505 139.183 243.604 139.17 243.695 139.131C243.786 139.092 243.864 139.03 243.921 138.949C244.034 138.788 244.166 138.642 244.315 138.514C244.724 138.241 245.28 138.531 245.597 138.905C245.914 139.279 246.153 139.749 246.581 139.973C246.829 140.084 247.095 140.149 247.366 140.165C247.651 140.212 247.941 140.212 248.225 140.165C248.368 140.142 248.503 140.085 248.62 140C248.737 139.914 248.832 139.802 248.897 139.673C248.959 139.503 248.987 139.322 248.978 139.141L249.02 136.681C249.037 136.537 249.007 136.391 248.936 136.265C248.85 136.165 248.736 136.093 248.609 136.058C248.151 135.883 247.159 135.29 246.699 135.588C246.185 135.952 246.284 136.715 245.545 136.885Z" fill="#FFC0C6"/>
<path d="M240.819 110.193C243.227 110.193 245.179 108.24 245.179 105.832C245.179 103.424 243.227 101.472 240.819 101.472C238.411 101.472 236.458 103.424 236.458 105.832C236.458 108.24 238.411 110.193 240.819 110.193Z" fill="#FFC0C6"/>
<path d="M240.391 105.357C240.358 105.2 240.282 105.055 240.171 104.938C240.061 104.821 239.921 104.737 239.766 104.695C239.645 104.686 239.525 104.669 239.406 104.644C238.995 104.503 239.005 103.876 238.653 103.625C238.385 103.435 238.016 103.534 237.723 103.677C237.43 103.819 237.135 104.011 236.81 103.994C236.607 103.968 236.418 103.877 236.27 103.735C236.122 103.594 236.024 103.408 235.988 103.207C235.927 102.8 236.006 102.385 236.21 102.028C236.864 100.744 238.235 100.008 239.561 99.4468C240.136 99.1795 240.746 98.9947 241.372 98.8981C242.004 98.8029 242.648 98.9402 243.186 99.2844C243.356 99.4025 243.503 99.5452 243.678 99.656C243.85 99.7572 244.027 99.8484 244.209 99.9291C245.961 100.808 246.874 103.012 246.394 104.914C246.227 105.576 245.902 106.199 245.801 106.87C245.787 107.053 245.741 107.231 245.664 107.397C245.44 107.791 244.896 107.828 244.433 107.815C244.31 107.826 244.187 107.797 244.081 107.732C243.985 107.635 243.924 107.51 243.907 107.375C243.725 106.637 243.439 105.881 242.841 105.406C242.521 105.16 242.005 105.032 241.744 105.345C241.64 105.51 241.557 105.688 241.498 105.874C241.37 106.137 240.976 106.435 240.659 106.366C240.213 106.26 240.496 105.768 240.391 105.357Z" fill="#3F3D56"/>
<path opacity="0.1" d="M251.129 111.179C250.605 111.118 250.504 113.864 249.975 113.866C249.825 113.866 249.852 113.288 249.729 113.374C249.606 113.46 250.046 115.343 249.975 115.49C249.706 116.044 250.24 113.692 249.975 114.245C249.623 114.969 249.783 115.205 249.601 115.99C249.197 117.712 247.187 118.962 247.595 120.68C248.071 122.559 248.418 124.469 248.634 126.396C248.706 127.011 248.716 127.631 248.666 128.248C248.525 129.587 247.913 130.825 247.295 132.023C246.754 133.071 246.203 134.115 245.762 135.207C245.622 135.473 245.578 135.779 245.639 136.073C245.821 136.627 246.554 136.686 247.115 136.846C248.265 137.173 249.246 138.322 250.413 138.054C250.934 136.469 250.873 134.799 251.328 133.192C251.795 131.546 252.888 130.114 253.242 128.44C253.365 127.748 253.425 127.047 253.419 126.344L253.592 118.581C253.614 118.119 253.599 117.657 253.545 117.198C253.46 116.727 253.336 116.263 253.173 115.813L252.273 113.106C252.037 112.382 251.869 111.268 251.129 111.179Z" fill="black"/>
<path d="M251.502 111.179C250.977 111.118 250.449 111.088 249.92 111.091C249.766 111.065 249.607 111.098 249.475 111.183C249.344 111.268 249.249 111.399 249.209 111.551L248.405 113.207C248.028 113.919 247.73 114.67 247.516 115.446C247.113 117.168 247.561 118.957 247.969 120.675C248.445 122.554 248.792 124.464 249.007 126.391C249.08 127.006 249.09 127.626 249.039 128.244C248.899 129.582 248.286 130.82 247.669 132.018C247.128 133.066 246.576 134.11 246.136 135.202C245.994 135.467 245.951 135.774 246.013 136.068C246.195 136.622 246.928 136.681 247.489 136.841C248.638 137.168 249.62 138.317 250.786 138.049C251.308 136.464 251.247 134.794 251.702 133.187C252.169 131.541 253.262 130.109 253.616 128.436C253.739 127.744 253.799 127.042 253.793 126.339L253.963 118.576C253.988 118.114 253.972 117.652 253.916 117.193C253.834 116.721 253.71 116.258 253.547 115.808L252.647 113.101C252.41 112.383 252.243 111.268 251.502 111.179Z" fill="#3F3D56"/>
</g>
</g>
<defs>
<clipPath id="clip0">
<rect width="280" height="195" fill="white"/>
</clipPath>
<clipPath id="clip1">
<rect x="-1" y="-1" width="280" height="182.37" fill="white"/>
</clipPath>
</defs>
</svg>
