<svg width="280" height="196" viewBox="0 0 280 196" fill="none" xmlns="http://www.w3.org/2000/svg">
<g clip-path="url(#clip0)">
<g clip-path="url(#clip1)">
<path d="M57.7969 179.478C57.7969 179.478 161.98 92.5279 221.984 179.478H57.7969Z" fill="#F2F2F2"/>
<path d="M257.11 143.429C257.818 143.686 258.576 143.776 259.325 143.69C260.073 143.605 260.792 143.346 261.424 142.935C262.056 142.525 262.583 141.973 262.966 141.324C263.348 140.674 263.574 139.945 263.626 139.193C263.678 138.441 263.555 137.688 263.266 136.992C262.978 136.296 262.531 135.676 261.962 135.182C261.393 134.688 260.717 134.333 259.988 134.145C259.258 133.956 258.495 133.94 257.758 134.097L257.879 136.602L256.695 134.455C255.532 135.002 254.633 135.987 254.197 137.196C254.042 137.619 253.948 138.062 253.917 138.512C253.842 139.567 254.113 140.618 254.689 141.505C255.266 142.393 256.115 143.068 257.11 143.429Z" fill="#009F36"/>
<path d="M262.972 172.475C262.554 170.346 264.366 168.457 266.157 167.23C267.947 166.003 270.039 164.797 270.65 162.714C271.527 159.721 268.912 156.979 266.877 154.615C265.367 152.861 264.071 150.934 263.014 148.874C262.555 148.065 262.242 147.181 262.09 146.264C261.93 144.937 262.356 143.616 262.786 142.351C264.216 138.135 265.746 133.954 267.374 129.808" stroke="#3F3D56" stroke-miterlimit="10"/>
<path d="M257.31 142.784C258.019 143.042 258.777 143.131 259.526 143.046C260.274 142.96 260.993 142.702 261.625 142.291C262.256 141.88 262.784 141.328 263.166 140.679C263.548 140.03 263.775 139.3 263.827 138.548C263.879 137.797 263.756 137.043 263.467 136.347C263.178 135.651 262.732 135.032 262.163 134.537C261.594 134.043 260.918 133.688 260.188 133.5C259.459 133.312 258.695 133.296 257.958 133.453L258.08 135.957L256.895 133.811C255.732 134.357 254.834 135.343 254.398 136.551C254.243 136.975 254.148 137.418 254.118 137.868C254.043 138.923 254.314 139.974 254.89 140.861C255.466 141.748 256.316 142.423 257.31 142.784V142.784Z" stroke="#3F3D56" stroke-miterlimit="10"/>
<path d="M262.378 128.943C262.656 128.176 263.122 127.491 263.734 126.952C264.346 126.413 265.084 126.037 265.88 125.857L266.28 128.238L267.023 125.738C268.054 125.753 269.054 126.096 269.878 126.716C270.702 127.337 271.307 128.203 271.607 129.19C271.906 130.177 271.884 131.233 271.544 132.207C271.204 133.181 270.563 134.021 269.714 134.607C268.865 135.193 267.852 135.493 266.821 135.466C265.79 135.438 264.794 135.084 263.978 134.453C263.162 133.823 262.567 132.95 262.279 131.959C261.991 130.969 262.026 129.912 262.378 128.943H262.378Z" fill="#009F36"/>
<path d="M262.645 128.084C262.923 127.317 263.389 126.632 264.001 126.093C264.613 125.554 265.351 125.177 266.147 124.998L266.548 127.379L267.29 124.878C268.322 124.894 269.321 125.236 270.145 125.857C270.969 126.477 271.574 127.344 271.874 128.331C272.173 129.318 272.151 130.374 271.811 131.348C271.471 132.321 270.83 133.162 269.981 133.747C269.132 134.333 268.119 134.634 267.088 134.606C266.057 134.579 265.061 134.224 264.245 133.594C263.429 132.964 262.834 132.09 262.546 131.1C262.258 130.109 262.293 129.053 262.645 128.084V128.084Z" stroke="#3F3D56" stroke-miterlimit="10"/>
<path d="M266.023 154.664C267.146 155.071 268.38 155.051 269.489 154.607C270.599 154.163 271.506 153.327 272.038 152.257C272.57 151.188 272.69 149.959 272.375 148.807C272.06 147.655 271.332 146.658 270.329 146.008L269.758 147.93L269.354 145.521C269.35 145.519 269.346 145.518 269.341 145.516C268.741 145.298 268.103 145.201 267.465 145.229C266.827 145.258 266.2 145.412 265.621 145.683C265.043 145.953 264.523 146.335 264.092 146.807C263.66 147.278 263.326 147.83 263.109 148.431C262.891 149.031 262.793 149.669 262.822 150.307C262.85 150.946 263.004 151.572 263.275 152.151C263.546 152.73 263.928 153.249 264.399 153.681C264.871 154.112 265.422 154.446 266.023 154.664Z" fill="#009F36"/>
<path d="M266.255 153.793C267.378 154.2 268.611 154.18 269.721 153.736C270.83 153.292 271.737 152.456 272.269 151.386C272.802 150.316 272.922 149.088 272.606 147.936C272.291 146.783 271.563 145.787 270.561 145.137L269.99 147.059L269.585 144.65C269.581 144.648 269.577 144.646 269.573 144.645C268.36 144.205 267.022 144.265 265.853 144.812C264.684 145.358 263.78 146.347 263.34 147.56C262.9 148.773 262.96 150.111 263.506 151.28C264.053 152.449 265.042 153.353 266.255 153.793V153.793Z" stroke="#3F3D56" stroke-miterlimit="10"/>
<path d="M260.958 162.744C261.151 163.843 261.716 164.842 262.558 165.573C263.401 166.305 264.469 166.725 265.584 166.762C266.699 166.8 267.793 166.453 268.683 165.78C269.572 165.106 270.203 164.148 270.47 163.064C270.736 161.981 270.622 160.839 270.147 159.829C269.671 158.82 268.863 158.005 267.858 157.521C266.853 157.037 265.712 156.913 264.626 157.17C263.541 157.427 262.577 158.05 261.896 158.934L264.063 162.197L261.101 160.465C260.872 161.202 260.823 161.984 260.958 162.744Z" fill="#009F36"/>
<path d="M261.158 162.099C261.351 163.198 261.916 164.197 262.759 164.928C263.601 165.66 264.669 166.08 265.784 166.117C266.899 166.155 267.993 165.808 268.883 165.135C269.773 164.461 270.404 163.503 270.67 162.419C270.937 161.336 270.823 160.194 270.347 159.184C269.872 158.175 269.064 157.36 268.058 156.876C267.053 156.392 265.912 156.268 264.827 156.525C263.741 156.782 262.777 157.405 262.096 158.289L264.264 161.552L261.302 159.82C261.072 160.557 261.023 161.339 261.158 162.099V162.099Z" stroke="#3F3D56" stroke-miterlimit="10"/>
<path d="M256.217 175.36C256.217 175.36 260.511 173.678 261.805 172.756C263.099 171.835 268.41 170.734 268.731 172.212C269.052 173.69 275.183 179.562 270.336 179.601C265.488 179.64 259.072 180.396 257.781 179.61C256.489 178.823 256.217 175.36 256.217 175.36Z" fill="#656380"/>
<path opacity="0.2" d="M270.422 179.087C265.575 179.126 259.159 179.882 257.867 179.095C256.884 178.496 256.492 176.346 256.361 175.354C256.27 175.358 256.217 175.36 256.217 175.36C256.217 175.36 256.489 178.823 257.781 179.61C259.072 180.396 265.488 179.64 270.336 179.601C271.735 179.59 272.218 179.092 272.192 178.355C271.997 178.8 271.464 179.078 270.422 179.087Z" fill="black"/>
<path d="M69.9067 130.128H58.533C56.4823 130.128 54.8198 131.79 54.8198 133.841V175.921C54.8198 177.972 56.4823 179.635 58.533 179.635H69.9067C71.9574 179.635 73.6198 177.972 73.6198 175.921V133.841C73.6198 131.79 71.9574 130.128 69.9067 130.128Z" fill="#75CD22"/>
<path d="M105.627 100.361H94.2532C92.2025 100.361 90.54 102.024 90.54 104.074V175.921C90.54 177.972 92.2025 179.635 94.2532 179.635H105.627C107.678 179.635 109.34 177.972 109.34 175.921V104.074C109.34 102.024 107.678 100.361 105.627 100.361Z" fill="#75CD22"/>
<path d="M141.347 79.6812H129.973C127.922 79.6812 126.26 81.3436 126.26 83.3943V175.921C126.26 177.972 127.922 179.634 129.973 179.634H141.347C143.397 179.634 145.06 177.972 145.06 175.921V83.3943C145.06 81.3436 143.397 79.6812 141.347 79.6812Z" fill="#75CD22"/>
<path d="M177.067 59.9414H165.693C163.642 59.9414 161.98 61.6038 161.98 63.6546V175.922C161.98 177.972 163.642 179.635 165.693 179.635H177.067C179.118 179.635 180.78 177.972 180.78 175.922V63.6546C180.78 61.6038 179.118 59.9414 177.067 59.9414Z" fill="#75CD22"/>
<path d="M212.787 25.4746H201.413C199.363 25.4746 197.7 27.137 197.7 29.1878V175.921C197.7 177.972 199.363 179.635 201.413 179.635H212.787C214.838 179.635 216.5 177.972 216.5 175.921V29.1878C216.5 27.137 214.838 25.4746 212.787 25.4746Z" fill="#75CD22"/>
<path d="M72.4135 127.621H61.0398C58.9891 127.621 57.3267 129.284 57.3267 131.334V173.415C57.3267 175.465 58.9891 177.128 61.0398 177.128H72.4135C74.4642 177.128 76.1267 175.465 76.1267 173.415V131.334C76.1267 129.284 74.4642 127.621 72.4135 127.621Z" stroke="#3F3D56" stroke-miterlimit="10"/>
<path d="M108.134 97.8545H96.76C94.7093 97.8545 93.0469 99.5169 93.0469 101.568V173.415C93.0469 175.465 94.7093 177.128 96.76 177.128H108.134C110.184 177.128 111.847 175.465 111.847 173.415V101.568C111.847 99.5169 110.184 97.8545 108.134 97.8545Z" stroke="#3F3D56" stroke-miterlimit="10"/>
<path d="M143.853 77.1743H132.48C130.429 77.1743 128.767 78.8368 128.767 80.8875V173.414C128.767 175.465 130.429 177.128 132.48 177.128H143.853C145.904 177.128 147.567 175.465 147.567 173.414V80.8875C147.567 78.8368 145.904 77.1743 143.853 77.1743Z" stroke="#3F3D56" stroke-miterlimit="10"/>
<path d="M179.574 57.4346H168.2C166.149 57.4346 164.487 59.097 164.487 61.1477V173.415C164.487 175.465 166.149 177.128 168.2 177.128H179.574C181.624 177.128 183.287 175.465 183.287 173.415V61.1477C183.287 59.097 181.624 57.4346 179.574 57.4346Z" stroke="#3F3D56" stroke-miterlimit="10"/>
<path d="M215.293 22.9678H203.92C201.869 22.9678 200.207 24.6302 200.207 26.6809V173.415C200.207 175.465 201.869 177.128 203.92 177.128H215.293C217.344 177.128 219.007 175.465 219.007 173.415V26.6809C219.007 24.6302 217.344 22.9678 215.293 22.9678Z" stroke="#3F3D56" stroke-miterlimit="10"/>
<path d="M274.78 179.791H5" stroke="#3F3D56" stroke-miterlimit="10"/>
<path d="M257.767 149.735C257.767 149.735 260.716 160.35 256.981 161.923C253.246 163.496 254.425 150.128 254.425 150.128L257.767 149.735Z" fill="#A0616A"/>
<path d="M222.972 147.573C222.972 147.573 221.596 178.633 222.382 180.206C223.169 181.778 225.921 208.317 225.528 209.889C225.134 211.462 223.169 217.949 225.528 218.932C227.887 219.915 232.998 218.932 232.998 218.932C232.998 218.932 234.374 211.069 233.784 206.941C233.194 202.812 232.998 185.513 232.998 185.513L236.929 167.428L238.306 184.53C238.306 184.53 238.699 207.924 235.947 212.642C233.194 217.36 236.929 219.325 236.929 219.325C236.929 219.325 244.4 220.308 245.186 220.112C245.972 219.915 244.596 212.248 245.186 208.907C245.776 205.565 247.152 186.889 248.331 182.368C249.511 177.847 256.194 152.684 251.28 147.573C246.365 142.462 222.972 147.573 222.972 147.573Z" fill="#3F3D56"/>
<path d="M237.322 84.8628C241.122 84.8628 244.203 81.7824 244.203 77.9824C244.203 74.1825 241.122 71.1021 237.322 71.1021C233.522 71.1021 230.442 74.1825 230.442 77.9824C230.442 81.7824 233.522 84.8628 237.322 84.8628Z" fill="#A0616A"/>
<path d="M232.211 81.1278C232.211 81.1278 233.391 90.5638 232.801 90.7604C232.211 90.9569 243.22 90.7604 243.22 90.7604C243.22 90.7604 241.058 85.0595 243.22 80.5381L232.211 81.1278Z" fill="#A0616A"/>
<path d="M232.211 88.7946C232.211 88.7946 237.003 84.0767 242.667 88.7946L243.034 90.201L240.075 90.1707H232.211V88.7946Z" fill="#F2F2F2"/>
<path d="M255.605 149.145C255.151 149.235 254.038 149.42 252.587 149.64C247.757 150.37 239.198 151.475 238.895 150.718C238.502 149.735 237.126 146.196 236.143 147.769C235.16 149.342 235.75 150.718 231.622 150.914C228.812 151.048 224.729 150.635 222.469 149.986C221.407 149.682 220.747 149.326 220.81 148.948C221.006 147.769 223.169 125.359 223.169 123.196C223.169 121.034 223.955 110.615 223.955 110.615L218.305 99.4982L217.861 98.6234C217.861 98.6234 218.451 96.461 220.22 96.0678C221.989 95.6746 230.442 90.7601 230.442 90.7601C230.442 90.7601 232.211 88.008 235.553 88.2045C238.895 88.4011 239.681 87.025 244.203 90.7601C244.203 90.7601 249.707 93.1191 251.673 94.2986C253.639 95.4781 255.801 95.4781 255.998 97.4439C256.037 97.839 255.823 98.5998 255.455 99.5611C254.109 103.084 250.706 109.317 250.173 110.289C250.126 110.373 250.1 110.418 250.1 110.418C250.1 110.418 249.998 113.953 250.106 118.091V118.101C250.212 122.07 250.511 126.593 251.28 129.094C252.852 134.205 257.57 148.752 255.605 149.145Z" fill="#575A89"/>
<path d="M246.254 75.1581C246.117 74.5318 245.852 73.9404 245.477 73.4205C245.327 71.9827 244.847 70.5989 244.075 69.377C243.773 68.8044 243.343 68.3086 242.819 67.9277C242.22 67.5823 241.535 67.4117 240.844 67.4351C240.718 67.4331 240.493 67.4711 240.29 67.4803C240.16 67.4401 240.029 67.4042 239.897 67.3704C239.82 67.1997 239.668 66.7022 239.626 66.7359L239.053 67.1914C238.81 67.1493 238.567 67.1165 238.322 67.0905C238.233 66.8365 238.144 66.5826 238.055 66.3286C237.911 66.5558 237.784 66.7937 237.676 67.0404C237.433 67.0285 237.189 67.0243 236.946 67.0279L236.458 66.5599C236.43 66.6904 236.364 66.8097 236.268 66.9032C236.173 66.9967 236.052 67.0604 235.921 67.0864C235.697 67.1094 235.473 67.1394 235.251 67.1752C235.233 67.1751 235.214 67.1752 235.197 67.1748C233.997 67.1448 232.706 67.091 231.702 67.7498C231.233 68.0721 230.851 68.5059 230.59 69.0123C230.467 69.0958 230.344 69.1787 230.224 69.2672C229.822 69.5417 229.473 69.8875 229.195 70.2875C228.993 70.6326 228.84 71.0039 228.74 71.3911C228.357 72.5562 228.179 73.779 228.216 75.0049C228.257 76.2392 228.722 77.4215 229.534 78.3521C230.049 78.9051 230.703 79.3134 231.218 79.8656C232.279 81.0028 232.478 82.5887 233.386 83.7919C234.345 85.0645 236.097 85.9019 237.636 86.142C238.561 86.2814 239.505 86.2366 240.412 86.0102C241.32 85.7838 242.174 85.3803 242.925 84.8228C243.286 84.5718 243.592 84.2506 243.826 83.8787C244.36 82.9549 244.133 81.794 244.332 80.7456C244.703 78.7805 246.579 77.1315 246.254 75.1581Z" fill="#3F3D56"/>
<path d="M220.023 150.325C220.023 150.325 222.972 160.94 219.237 162.513C215.502 164.085 216.681 150.718 216.681 150.718L220.023 150.325Z" fill="#A0616A"/>
<path opacity="0.1" d="M223.56 126.235C223.56 126.235 222.27 145.375 222.469 149.987C221.407 149.682 220.747 149.326 220.81 148.949C221.006 147.769 223.169 125.359 223.169 123.196C223.169 121.034 223.955 110.615 223.955 110.615L218.305 99.4983C218.396 98.9479 218.451 98.6235 218.451 98.6235L221.301 104.619L225.331 105.701L223.56 126.235Z" fill="black"/>
<path d="M219.237 97.4438L217.861 98.6233C217.861 98.6233 216.092 109.042 216.288 111.598C216.485 114.153 212.16 152.88 215.502 152.88C218.844 152.88 222.579 152.29 221.989 150.914C221.399 149.538 222.971 126.235 222.971 126.235L224.741 105.7L219.237 97.4438Z" fill="#575A89"/>
<path opacity="0.1" d="M255.455 99.5614C254.108 103.084 250.706 109.318 250.173 110.289C250.189 107.775 250.198 105.996 250.198 105.996L254.327 97.5425L255.211 96.8545C255.211 96.8545 255.306 97.8944 255.455 99.5614Z" fill="black"/>
<path opacity="0.1" d="M255.604 149.145C255.15 149.236 254.038 149.421 252.587 149.641C251.834 144.074 249.821 128.064 249.949 126.556C250.012 125.813 250.065 122.141 250.106 118.101C250.212 122.07 250.511 126.593 251.28 129.094C252.852 134.205 257.57 148.752 255.604 149.145Z" fill="black"/>
<path d="M253.049 96.0684L255.998 96.8547C255.998 96.8547 257.964 118.675 258.16 122.41C258.357 126.145 260.716 149.146 260.323 150.128C259.93 151.111 253.835 152.487 253.639 151.505C253.442 150.522 250.585 128.343 250.736 126.556C250.887 124.769 249.904 106.291 249.904 106.291L253.049 96.0684Z" fill="#575A89"/>
<path d="M66.5698 108.665L102.29 78.898L138.323 58.5314L174.043 38.7914L209.763 4.32471" stroke="#3F3D56" stroke-miterlimit="10"/>
<path d="M65.6298 113.678C67.5333 113.678 69.0764 112.135 69.0764 110.231C69.0764 108.328 67.5333 106.785 65.6298 106.785C63.7262 106.785 62.1831 108.328 62.1831 110.231C62.1831 112.135 63.7262 113.678 65.6298 113.678Z" fill="#F2F2F2"/>
<path d="M101.35 83.9109C103.254 83.9109 104.797 82.3678 104.797 80.4642C104.797 78.5607 103.254 77.0176 101.35 77.0176C99.4464 77.0176 97.9033 78.5607 97.9033 80.4642C97.9033 82.3678 99.4464 83.9109 101.35 83.9109Z" fill="#F2F2F2"/>
<path d="M137.383 63.5447C139.287 63.5447 140.83 62.0016 140.83 60.098C140.83 58.1945 139.287 56.6514 137.383 56.6514C135.48 56.6514 133.937 58.1945 133.937 60.098C133.937 62.0016 135.48 63.5447 137.383 63.5447Z" fill="#F2F2F2"/>
<path d="M173.103 43.8045C175.007 43.8045 176.55 42.2613 176.55 40.3578C176.55 38.4543 175.007 36.9111 173.103 36.9111C171.2 36.9111 169.657 38.4543 169.657 40.3578C169.657 42.2613 171.2 43.8045 173.103 43.8045Z" fill="#F2F2F2"/>
<path d="M208.823 9.33767C210.727 9.33767 212.27 7.79454 212.27 5.891C212.27 3.98746 210.727 2.44434 208.823 2.44434C206.92 2.44434 205.376 3.98746 205.376 5.891C205.376 7.79454 206.92 9.33767 208.823 9.33767Z" fill="#F2F2F2"/>
<path d="M66.5702 112.111C68.4737 112.111 70.0169 110.568 70.0169 108.664C70.0169 106.761 68.4737 105.218 66.5702 105.218C64.6667 105.218 63.1235 106.761 63.1235 108.664C63.1235 110.568 64.6667 112.111 66.5702 112.111Z" stroke="#3F3D56" stroke-miterlimit="10"/>
<path d="M102.29 82.3445C104.193 82.3445 105.737 80.8014 105.737 78.8978C105.737 76.9943 104.193 75.4512 102.29 75.4512C100.386 75.4512 98.8433 76.9943 98.8433 78.8978C98.8433 80.8014 100.386 82.3445 102.29 82.3445Z" stroke="#3F3D56" stroke-miterlimit="10"/>
<path d="M138.323 61.9778C140.227 61.9778 141.77 60.4347 141.77 58.5311C141.77 56.6276 140.227 55.0845 138.323 55.0845C136.42 55.0845 134.876 56.6276 134.876 58.5311C134.876 60.4347 136.42 61.9778 138.323 61.9778Z" stroke="#3F3D56" stroke-miterlimit="10"/>
<path d="M174.043 42.2381C175.947 42.2381 177.49 40.6949 177.49 38.7914C177.49 36.8879 175.947 35.3447 174.043 35.3447C172.14 35.3447 170.597 36.8879 170.597 38.7914C170.597 40.6949 172.14 42.2381 174.043 42.2381Z" stroke="#3F3D56" stroke-miterlimit="10"/>
<path d="M209.763 7.77126C211.667 7.77126 213.21 6.22814 213.21 4.3246C213.21 2.42105 211.667 0.87793 209.763 0.87793C207.86 0.87793 206.316 2.42105 206.316 4.3246C206.316 6.22814 207.86 7.77126 209.763 7.77126Z" stroke="#3F3D56" stroke-miterlimit="10"/>
</g>
</g>
<defs>
<clipPath id="clip0">
<rect y="0.721191" width="280" height="195" fill="white"/>
</clipPath>
<clipPath id="clip1">
<rect x="5" y="0.721191" width="280" height="230.848" fill="white"/>
</clipPath>
</defs>
</svg>
