<svg width="280" height="195" viewBox="0 0 280 195" fill="none" xmlns="http://www.w3.org/2000/svg">
<g clip-path="url(#clip0)">
<path d="M74.2757 6.98682H48.4814V36.9201H74.2757V6.98682Z" fill="#F2F2F2"/>
<path d="M143.895 24.4478H118.101V54.381H143.895V24.4478Z" fill="#F2F2F2"/>
<path d="M213.766 6.98682H187.971V36.9201H213.766V6.98682Z" fill="#F2F2F2"/>
<path d="M136.118 108.345H68.2534V125.2H136.118V108.345Z" fill="#3F3D56"/>
<path d="M207.387 174.688H147.594L164.386 145.72L177.491 123.11L207.387 174.688Z" fill="#3F3D56"/>
<path d="M144.674 129.676H45.2935V174.7H144.674V129.676Z" fill="#3F3D56"/>
<path d="M177.386 123.07C183.894 123.07 189.17 117.815 189.17 111.333C189.17 104.85 183.894 99.5952 177.386 99.5952C170.878 99.5952 165.602 104.85 165.602 111.333C165.602 117.815 170.878 123.07 177.386 123.07Z" fill="#75CD22"/>
<path d="M226.959 174.501H11.3916V175H226.959V174.501Z" fill="#3F3D56"/>
<path opacity="0.1" d="M136.117 109.476V125.201H120.137L129.903 108.346H135.463L136.117 109.476Z" fill="black"/>
<path opacity="0.1" d="M144.674 129.676V174.7H91.4453L91.4954 174.613L117.543 129.676H144.674Z" fill="black"/>
<path opacity="0.1" d="M181.177 174.688H147.594L164.386 145.72L165.137 147.015L181.177 174.688Z" fill="black"/>
<path d="M177.443 174.725H94.936L95.0011 174.613L122.06 127.929L136.189 103.551L161.38 147.014L177.42 174.688L177.443 174.725Z" fill="#75CD22"/>
<path d="M136.065 104.166C138.868 104.166 141.141 101.902 141.141 99.1099C141.141 96.3177 138.868 94.0542 136.065 94.0542C133.262 94.0542 130.989 96.3177 130.989 99.1099C130.989 101.902 133.262 104.166 136.065 104.166Z" fill="#3F3D56"/>
<path d="M122.05 100.719C111.76 100.727 101.541 99.0185 91.8177 95.6643C78.7822 91.175 68.1032 84.9829 60.0776 77.2599C44.8962 62.6509 32.4498 60.4493 24.6834 61.1742C16.2764 61.9594 11.3829 66.2474 11.3344 66.2907L11 65.9193C11.0494 65.8751 16.0438 61.4897 24.6042 60.6806C29.6242 60.2064 34.8738 61.0326 40.2076 63.1369C46.8592 65.7611 53.6615 70.392 60.4256 76.901C68.3984 84.5733 79.0153 90.7275 91.9813 95.1927C115.784 103.39 142.611 101.405 165.582 89.7475C173.188 85.8875 180.706 83.2527 187.925 81.9165C197.029 80.231 205.663 80.6222 213.589 83.0784C231.006 88.4757 242.903 88.1895 249.816 86.9995C257.275 85.7154 260.659 83.1454 260.692 83.1196L261 83.5134C260.86 83.6219 257.482 86.1859 249.901 87.4911C242.934 88.6908 230.952 88.9814 213.441 83.5547C195.71 78.0608 177.752 84.1314 165.81 90.1919C154.456 95.9845 142.058 99.4683 129.338 100.44C126.9 100.626 124.471 100.719 122.05 100.719Z" fill="#3F3D56"/>
<path d="M65.5057 81.6574L65.1473 81.3089C66.7957 79.4473 68.0451 77.27 68.8191 74.9105C70.0377 71.2579 70.6329 65.4892 66.5483 58.7507C62.3691 51.8561 62.181 46.2562 62.759 42.7725C63.3882 38.9819 64.9931 36.8571 65.0611 36.7686L65.4591 37.0715C65.4431 37.0923 63.8521 39.2058 63.2484 42.8833C62.691 46.2786 62.8855 51.7429 66.977 58.4927C71.1661 65.4036 70.5455 71.3324 69.2873 75.089C67.924 79.1593 65.6039 81.5573 65.5057 81.6574Z" fill="#3F3D56"/>
<path d="M84.2929 37.1699H48.231V1.25H84.2929V37.1699ZM48.7318 36.6711H83.792V1.74889H48.7318V36.6711Z" fill="#3F3D56"/>
<path d="M135.376 99.3677L135.017 99.0194C136.666 97.1577 137.915 94.9805 138.689 92.6211C139.908 88.9683 140.503 83.1997 136.418 76.4611C132.239 69.5666 132.051 63.9667 132.629 60.483C133.258 56.6923 134.863 54.5676 134.931 54.479L135.329 54.7819C135.313 54.8027 133.722 56.9162 133.118 60.5938C132.561 63.9891 132.755 69.4533 136.847 76.2032C141.036 83.114 140.416 89.0429 139.157 92.7996C137.794 96.8699 135.474 99.2676 135.376 99.3677Z" fill="#3F3D56"/>
<path d="M154.163 54.8799H118.101V18.96H154.163V54.8799ZM118.602 54.381H153.662V19.4588H118.602V54.381Z" fill="#3F3D56"/>
<path d="M204.996 81.4079L204.637 81.0594C206.285 79.1977 207.535 77.0205 208.309 74.661C209.527 71.0083 210.123 65.2397 206.038 58.5012C201.859 51.6066 201.671 46.0067 202.249 42.523C202.878 38.7324 204.483 36.6076 204.551 36.519L204.949 36.822C204.933 36.8428 203.342 38.9562 202.738 42.6338C202.181 46.0291 202.375 51.4934 206.467 58.2432C210.656 65.1541 210.035 71.0829 208.777 74.8395C207.414 78.9098 205.094 81.3078 204.996 81.4079Z" fill="#3F3D56"/>
<path d="M223.783 36.9199H187.721V1H223.783V36.9199ZM188.222 36.4211H223.282V1.49889H188.222V36.4211Z" fill="#3F3D56"/>
<path d="M77.7815 11.7261H55.7437V12.225H77.7815V11.7261Z" fill="#3F3D56"/>
<path d="M77.7815 17.2139H55.7437V17.7128H77.7815V17.2139Z" fill="#3F3D56"/>
<path d="M77.7815 22.7017H55.7437V23.2006H77.7815V22.7017Z" fill="#3F3D56"/>
<path d="M147.151 28.6885H125.113V29.1874H147.151V28.6885Z" fill="#3F3D56"/>
<path d="M147.151 34.1763H125.113V34.6752H147.151V34.1763Z" fill="#3F3D56"/>
<path d="M147.151 39.6641H125.113V40.163H147.151V39.6641Z" fill="#3F3D56"/>
<path d="M216.77 11.7261H194.732V12.225H216.77V11.7261Z" fill="#3F3D56"/>
<path d="M216.77 17.2139H194.732V17.7128H216.77V17.2139Z" fill="#3F3D56"/>
<path d="M216.77 22.7017H194.732V23.2006H216.77V22.7017Z" fill="#3F3D56"/>
<path d="M216.708 166.669C218.059 171.64 222.683 174.718 222.683 174.718C222.683 174.718 225.118 169.737 223.768 164.766C222.418 159.795 217.794 156.717 217.794 156.717C217.794 156.717 215.358 161.698 216.708 166.669Z" fill="#75CD22"/>
<path d="M218.692 165.601C222.397 169.193 222.849 174.715 222.849 174.715C222.849 174.715 217.295 174.413 213.591 170.82C209.886 167.228 209.434 161.707 209.434 161.707C209.434 161.707 214.987 162.009 218.692 165.601Z" fill="#3F3D56"/>
<path d="M84.7938 140.19H58.9995V170.123H84.7938V140.19Z" fill="#F2F2F2"/>
<path d="M94.811 170.123H58.749V134.203H94.811V170.123ZM59.2499 169.624H94.3101V134.702H59.2499V169.624Z" fill="white"/>
<path d="M87.7991 144.929H65.7612V145.428H87.7991V144.929Z" fill="#75CD22"/>
<path d="M87.7991 150.417H65.7612V150.916H87.7991V150.417Z" fill="#75CD22"/>
<path d="M87.7991 155.905H65.7612V156.404H87.7991V155.905Z" fill="#75CD22"/>
<path d="M67.7321 55.1758H67.7321C61.7138 55.1758 56.835 60.5689 56.835 67.2216V75.674H59.4448L60.9557 72.5423L60.578 75.674H77.353L78.7266 72.827L78.3832 75.674H80.2719V69.0374C80.2719 61.3818 74.6577 55.1758 67.7321 55.1758Z" fill="#2F2E41"/>
<path d="M55.2457 110.399L48.5549 113.231L25.3045 132.058C24.4496 133.105 23.9257 134.38 23.7991 135.724C23.6318 137.89 16.6065 149.219 19.1156 150.719C21.6246 152.218 30.6571 156.717 31.1589 153.718C31.6607 150.719 34.337 137.89 34.337 137.89L56.7511 117.896L55.2457 110.399Z" fill="#2F2E41"/>
<path d="M28.9844 151.219L26.1408 159.549C26.1408 159.549 29.1516 162.715 27.6462 165.381V174.544H25.3044L24.6354 169.712C24.6354 169.712 21.9681 174.483 20.6209 174.544C17.7968 174.672 12.2041 175.673 12.0369 174.173C11.8696 172.674 16.2719 171.212 16.2719 171.212L20.9555 158.383L22.9627 150.552L28.9844 151.219Z" fill="#2F2E41"/>
<path d="M72.642 108.233C72.642 108.233 74.1474 122.895 69.7984 125.561C65.4494 128.226 46.2135 136.724 46.2135 136.724C46.2135 136.724 54.4097 144.388 52.737 146.22C51.0643 148.053 43.5372 153.051 42.5336 152.052C41.53 151.052 30.3229 139.056 31.6611 135.224C32.9992 131.392 51.5661 118.896 51.5661 118.896L53.7406 111.066L54.4097 104.734L61.435 100.236L72.642 108.233Z" fill="#2F2E41"/>
<path d="M64.9785 74.097C68.8297 74.097 71.9517 70.9873 71.9517 67.1513C71.9517 63.3153 68.8297 60.2056 64.9785 60.2056C61.1274 60.2056 58.0054 63.3153 58.0054 67.1513C58.0054 70.9873 61.1274 74.097 64.9785 74.097Z" fill="#FFB9B9"/>
<path d="M70.3834 69.9961C70.3834 69.9961 70.0489 76.3273 75.2342 78.3266C80.4196 80.3259 62.3545 93.3215 62.3545 93.3215V78.8264C62.3545 78.8264 64.6963 76.3273 62.3545 72.4953L70.3834 69.9961Z" fill="#FFB9B9"/>
<path d="M81.5072 99.7358L80.1691 106.234L76.1546 128.559C76.1546 128.559 79.5 138.056 74.9837 137.89C70.4675 137.723 72.642 127.56 72.642 127.56L74.9837 109.066V101.902L81.5072 99.7358Z" fill="#FFB9B9"/>
<path d="M52.7369 96.5703L51.2315 102.402L44.3734 118.896C44.3734 118.896 39.6899 126.727 43.5371 126.56C47.3843 126.394 47.3843 118.896 47.3843 118.896L55.2459 105.567V98.0698L52.7369 96.5703Z" fill="#FFB9B9"/>
<path d="M51.566 145.221L57.0859 150.386C57.0859 150.386 60.9331 149.553 62.4385 154.051C63.9439 158.55 64.9475 161.382 64.9475 161.382L62.9403 162.548L60.4313 159.049C60.4313 159.049 58.9258 165.381 57.4204 165.88C55.915 166.38 48.3879 169.712 49.057 165.88L52.7369 160.549C52.7369 160.549 53.2387 154.551 51.7333 154.051C50.2278 153.551 46.2134 148.553 46.2134 148.553L51.566 145.221Z" fill="#2F2E41"/>
<path d="M72.9072 113.398C72.9072 113.398 57.1839 107.733 56.1802 108.233C55.4332 108.562 54.6375 108.767 53.8242 108.842L53.8385 106.567C53.8385 106.567 59.0238 104.734 61.8674 105.901C64.711 107.067 73.409 112.232 73.409 112.232L72.9072 113.398Z" fill="#3F3D56"/>
<path d="M63.3583 89.9893C63.3583 89.9893 67.8746 84.8244 69.2128 81.6588C70.0594 79.7397 71.6134 78.2176 73.554 77.4067C73.554 77.4067 83.5979 79.6595 83.4306 83.6581C83.2634 87.6568 77.0744 93.8214 77.0744 93.8214C77.0744 93.8214 77.9108 115.981 73.3945 115.647C72.4204 114.489 71.7328 113.12 71.3873 111.649C70.8855 109.316 55.3294 106.817 55.3294 106.817C55.3294 106.817 53.9913 109.15 53.824 108.15C53.6567 107.15 55.1622 82.6585 55.1622 82.6585L63.1387 77.4067L63.3583 89.9893Z" fill="#D0CDE1"/>
<path d="M82.1422 82.0485L82.2542 82.1111C82.6117 82.3109 82.9093 82.602 83.1164 82.9543C83.3235 83.3067 83.4326 83.7076 83.4325 84.1159L83.4308 96.4806C83.4321 96.8167 83.5067 97.1485 83.6496 97.453C83.7925 97.7575 84.0002 98.0273 84.2582 98.2439C84.9026 98.7898 85.5001 99.5764 84.267 99.9858C82.2598 100.652 74.3981 103.984 74.2309 102.818C74.0636 101.652 73.729 100.319 74.2309 100.319C74.6237 100.319 76.9644 88.3717 78.8452 83.2635C78.96 82.9507 79.1417 82.6666 79.3777 82.4307C79.6137 82.1948 79.8983 82.0128 80.2119 81.8972C80.5254 81.7817 80.8604 81.7354 81.1937 81.7615C81.527 81.7876 81.8506 81.8855 82.1422 82.0485Z" fill="#D0CDE1"/>
<path d="M57.4203 82.0752L55.0785 82.7416L52.4022 94.2378C52.4022 94.2378 49.2241 94.9042 50.2277 96.0705C51.2313 97.2368 55.413 100.236 55.413 100.236L57.4203 82.0752Z" fill="#D0CDE1"/>
<path d="M70.8299 58.4942C70.3055 57.7928 69.6259 57.2212 68.8439 56.8237C68.0619 56.4262 67.1984 56.2135 66.3205 56.2021H66.1066C61.9816 56.2021 58.6377 59.9201 58.6377 64.5064V64.5064H60.0199L60.2431 62.814L60.5704 64.5064H68.7679L69.4547 63.0746L69.283 64.5064H70.8957C71.6483 68.229 70.567 71.9516 67.6519 75.6742H70.3991L71.7727 72.8107L71.4293 75.6742H76.6661L77.6963 69.088C77.6963 64.1556 74.8191 59.973 70.8299 58.4942Z" fill="#2F2E41"/>
<path opacity="0.1" d="M114.964 108.345H88.9189V116.801H114.964V108.345Z" fill="black"/>
<path d="M113.962 101.086H90.4219V115.554H113.962V101.086Z" fill="#75CD22"/>
</g>
<defs>
<clipPath id="clip0">
<rect x="11" y="1" width="250" height="174" fill="white"/>
</clipPath>
</defs>
</svg>
