<svg width="280" height="195" viewBox="0 0 280 195" fill="none" xmlns="http://www.w3.org/2000/svg">
<rect width="280" height="195" fill="white"/>
<g clip-path="url(#clip0)">
<path opacity="0.1" d="M55.2213 162.601C60.0509 162.601 63.966 161.998 63.966 161.254C63.966 160.51 60.0509 159.907 55.2213 159.907C50.3917 159.907 46.4766 160.51 46.4766 161.254C46.4766 161.998 50.3917 162.601 55.2213 162.601Z" fill="#75CD22"/>
<path opacity="0.1" d="M181.349 164.433C186.178 164.433 190.094 163.83 190.094 163.086C190.094 162.343 186.178 161.74 181.349 161.74C176.519 161.74 172.604 162.343 172.604 163.086C172.604 163.83 176.519 164.433 181.349 164.433Z" fill="#75CD22"/>
<path opacity="0.1" d="M159.806 176.91C164.635 176.91 168.551 176.307 168.551 175.563C168.551 174.819 164.635 174.216 159.806 174.216C154.976 174.216 151.061 174.819 151.061 175.563C151.061 176.307 154.976 176.91 159.806 176.91Z" fill="#75CD22"/>
<path opacity="0.1" d="M83.5572 152.553C88.3868 152.553 92.302 151.95 92.302 151.206C92.302 150.462 88.3868 149.859 83.5572 149.859C78.7277 149.859 74.8125 150.462 74.8125 151.206C74.8125 151.95 78.7277 152.553 83.5572 152.553Z" fill="#75CD22"/>
<path opacity="0.1" d="M86.1598 187C113.862 187 136.32 182.14 136.32 176.144C136.32 170.149 113.862 165.288 86.1598 165.288C58.4573 165.288 36 170.149 36 176.144C36 182.14 58.4573 187 86.1598 187Z" fill="#75CD22"/>
<path opacity="0.1" d="M235.027 132.647C233.673 135.924 231.897 139.065 229.411 141.474C226.382 144.409 222.62 146.01 218.592 146.776C217.405 146.998 216.206 147.154 215.001 147.242C211.818 147.488 208.559 147.325 205.433 146.984C197.775 146.144 190.224 144.522 182.895 142.142C181.691 141.752 180.494 141.341 179.304 140.91C177.509 140.264 175.729 139.57 173.966 138.829C166.785 135.816 159.36 131.973 151.72 133.165C148.017 133.744 144.538 135.498 140.827 136.019C138.222 136.363 135.576 136.174 133.046 135.464C131.821 135.135 130.621 134.719 129.455 134.219C126.827 133.072 124.326 131.65 121.994 129.977C116.397 126.05 111.374 121.18 105.481 117.779C98.9833 114.027 91.7911 112.244 84.4636 110.914C83.2709 110.698 82.074 110.491 80.8728 110.295C77.4826 109.733 74.084 109.213 70.734 108.598C67.5064 108 64.2219 107.268 61.4126 105.47C59.408 104.187 57.7225 102.41 56.1763 100.537C53.3241 97.067 50.8776 93.2801 48.8848 89.2504C48.7792 89.0383 48.6757 88.8263 48.5743 88.6142C45.4714 82.2222 43.3845 75.2535 42.1044 68.0429C42.0664 67.8308 42.0305 67.6188 41.9946 67.4067C40.7906 60.3382 40.3513 53.0301 40.4843 45.775L40.497 45.1388C40.5794 41.5569 40.8012 37.9898 41.1307 34.4736C41.3673 32.0008 41.6841 29.4347 42.9599 27.3563C44.2357 25.278 46.3142 23.944 48.3842 22.8328C57.5387 17.9402 66.3067 16.5787 76.1456 18.9497C77.7255 19.3293 79.2992 19.7386 80.8728 20.1628C82.0704 20.4851 83.2681 20.8181 84.4636 21.1531C92.7289 23.4669 100.973 25.9291 109.517 26.6671C110.342 26.7392 111.168 26.7943 111.995 26.8325C113.63 26.9089 115.265 26.9258 116.899 26.8834C121.111 26.7647 125.308 26.3309 129.455 25.5855C130.654 25.3777 131.851 25.1472 133.046 24.8941C138.199 23.8147 143.307 22.3747 148.332 20.782C149.358 20.4568 150.384 20.126 151.407 19.7895C153.714 19.0324 156.021 18.2604 158.331 17.5097C165.23 15.2638 172.162 13.2131 179.304 12.386C179.915 12.3167 180.526 12.2552 181.137 12.2015C181.722 12.1506 182.31 12.1103 182.895 12.0806C193.974 11.4868 205.179 14.1695 215.001 19.6601C216.221 20.3402 217.418 21.0641 218.592 21.8318C220.221 22.8964 221.8 24.0416 223.33 25.2674C226.464 27.7805 229.398 30.6414 231.633 34.0791C233.811 37.4278 235.224 41.1879 236.037 45.1409C236.081 45.353 236.124 45.5651 236.162 45.7772C237.355 52.1585 236.983 59.0022 235.644 65.3962C235.503 66.0664 235.353 66.7387 235.196 67.4088C235.148 67.6209 235.097 67.833 235.046 68.045C233.602 74.0913 231.756 80.1206 232.237 86.3026C232.298 87.0809 232.396 87.8528 232.522 88.6163C232.558 88.8284 232.594 89.0405 232.634 89.2525C233.576 94.2957 235.718 99.0801 237.002 104.074C239.413 113.565 238.721 123.582 235.027 132.647Z" fill="#75CD22"/>
<path opacity="0.1" d="M218.592 45.7772H236.164C236.126 45.5651 236.083 45.353 236.039 45.1409H218.592V21.8318C217.417 21.0655 216.22 20.3416 215.001 19.6601V45.1409H182.895V12.0806C182.31 12.1103 181.722 12.1506 181.137 12.2014C180.552 12.2523 179.914 12.316 179.304 12.386V45.1409H133.468L133.358 45.0201L158.331 17.5076C156.02 18.2583 153.714 19.0303 151.407 19.7874L133.045 40.0172V24.892C131.85 25.1437 130.653 25.3741 129.455 25.5834V40.7149L116.899 26.8813C115.264 26.9209 113.63 26.9039 111.995 26.8304L128.504 45.0201L128.394 45.1409H84.4593V21.1531C83.2638 20.8181 82.0661 20.4851 80.8685 20.1627V45.1409H40.4927L40.48 45.7772H80.8727V67.4088H41.9902C42.0262 67.6209 42.0621 67.8329 42.1001 68.045H80.8727V88.6163H48.5699C48.6713 88.8284 48.7748 89.0404 48.8804 89.2525H80.8727V110.303C82.0724 110.501 83.2694 110.707 84.4635 110.922V89.2525H129.455V134.212C130.621 134.712 131.821 135.128 133.045 135.457V89.2525H179.304V140.908C180.495 141.34 181.692 141.751 182.895 142.14V89.2525H215.001V147.24C216.206 147.152 217.404 146.996 218.592 146.774V89.2525H232.634C232.594 89.0404 232.558 88.8284 232.522 88.6163H218.581V68.045H235.036C235.086 67.8329 235.137 67.6209 235.186 67.4088H218.592V45.7772ZM215.001 45.7772V67.4088H182.895V45.7772H215.001ZM179.304 67.4088H133.045V45.7772H179.304V67.4088ZM84.4635 45.7772H128.821L129.455 46.3561V67.4088H84.4635V45.7772ZM84.4635 88.6163V68.045H129.455V88.6163H84.4635ZM133.045 88.6163V68.045H179.304V88.6163H133.045ZM215.001 88.6163H182.895V68.045H215.001V88.6163Z" fill="#009F36"/>
<path opacity="0.1" d="M199.565 30.8812H199.286C199.384 30.8243 199.467 30.7436 199.526 30.6466C199.586 30.5496 199.62 30.4393 199.626 30.3256C199.626 29.8887 199.092 29.5303 198.439 29.5303H190.117C189.464 29.5303 188.928 29.8887 188.928 30.3256C188.928 30.7645 189.464 31.123 190.117 31.123H190.396C190.297 31.18 190.215 31.2607 190.156 31.3577C190.096 31.4547 190.062 31.5649 190.055 31.6786C190.055 32.0518 190.444 32.3678 190.964 32.4527H188.564C187.909 32.4527 187.375 32.8111 187.375 33.2479C187.375 33.6848 187.909 34.0453 188.564 34.0453H196.889C197.543 34.0453 198.078 33.6869 198.078 33.2479C198.078 32.8747 197.689 32.5608 197.167 32.476H199.565C200.218 32.476 200.752 32.1176 200.752 31.6786C200.752 31.2396 200.218 30.8812 199.565 30.8812Z" fill="#009F36"/>
<path opacity="0.1" d="M109.338 38.4668H109.059C109.157 38.4091 109.239 38.3283 109.298 38.2315C109.357 38.1346 109.392 38.0246 109.399 37.9112C109.399 37.4722 108.865 37.1138 108.21 37.1138H99.8854C99.2306 37.1138 98.6962 37.4722 98.6962 37.9112C98.6962 38.348 99.2306 38.7065 99.8854 38.7065H100.162C100.065 38.7642 99.9831 38.8451 99.9242 38.942C99.8653 39.0389 99.8309 39.1488 99.8242 39.2621C99.8242 39.6375 100.213 39.9513 100.732 40.0362H98.3372C97.6824 40.0362 97.1479 40.3946 97.1479 40.8336C97.1479 41.2726 97.6824 41.6288 98.3372 41.6288H106.662C107.316 41.6288 107.851 41.2704 107.851 40.8336C107.851 40.4582 107.46 40.1443 106.94 40.0595H109.338C109.99 40.0595 110.525 39.7011 110.525 39.2621C110.525 38.8231 109.99 38.4668 109.338 38.4668Z" fill="#009F36"/>
<path opacity="0.1" d="M212.335 70.9271H212.057C212.154 70.8694 212.236 70.7886 212.295 70.6918C212.355 70.5949 212.389 70.4849 212.397 70.3715C212.397 69.9346 211.862 69.5762 211.207 69.5762H202.883C202.228 69.5762 201.694 69.9346 201.694 70.3715C201.694 70.8083 202.228 71.1667 202.883 71.1667H203.16C203.062 71.2244 202.98 71.3052 202.922 71.4021C202.863 71.499 202.828 71.609 202.822 71.7224C202.822 72.0956 203.21 72.4116 203.73 72.4964H201.333C200.68 72.4964 200.146 72.8548 200.146 73.2917C200.146 73.7286 200.68 74.0891 201.333 74.0891H209.659C210.312 74.0891 210.848 73.7307 210.848 73.2917C210.848 72.9185 210.458 72.6046 209.938 72.5198H212.335C212.988 72.5198 213.522 72.1614 213.522 71.7224C213.522 71.2834 212.988 70.9271 212.335 70.9271Z" fill="#009F36"/>
<path d="M84.022 139.557L181.349 150.538V153.653L83.7749 142.299L84.022 139.557Z" fill="#EAECF0"/>
<path d="M83.8744 151.131H82.0283V105.094L83.3569 105.499L83.3717 106.88L83.8744 151.131Z" fill="#EAECF0"/>
<path d="M84.6877 150.389L83.8744 151.132L83.3717 106.88L83.3569 105.5H84.318L84.3307 106.963L84.6877 150.389Z" fill="#D3DAE1"/>
<path d="M55.6079 149.202L82.5455 139.779V140.67L55.6079 150.018V149.202Z" fill="#D3DAE1"/>
<path d="M56.0895 152.169L55.6079 150.018L82.5455 140.67V142.523L56.0895 152.169Z" fill="#EAECF0"/>
<path d="M181.349 102.162V163.002H179.944L179.872 106.562L179.87 104.757L181.349 102.162Z" fill="#EAECF0"/>
<path d="M182.382 101.865V162.482L181.349 163.002V102.162L182.382 101.865Z" fill="#D3DAE1"/>
<path d="M159.806 161.667L179.927 150.376L181.349 151.206L159.806 163.001V161.667Z" fill="#D3DAE1"/>
<path d="M160.435 165.525L159.806 163.002L181.349 151.206V153.653L160.435 165.525Z" fill="#EAECF0"/>
<path d="M157.404 111.881L157.478 176.135H159.474L159.179 111.139L157.404 111.881Z" fill="#EAECF0"/>
<path d="M160.435 110.545V175.616L159.474 176.135L159.178 111.139L159.297 111.084L160.435 110.545Z" fill="#D3DAE1"/>
<path d="M55.3504 161.742H53.65L53.067 104.265L53.0586 103.275H54.685L54.6977 104.405L55.3504 161.742Z" fill="#EAECF0"/>
<path d="M56.5312 161.296L55.3504 161.742L54.6977 104.405L54.6851 103.275H55.9419L55.9524 104.516L56.5312 161.296Z" fill="#D3DAE1"/>
<path opacity="0.1" d="M159.297 111.084L160.435 110.545V113.069L159.326 113.44L159.297 111.084Z" fill="black"/>
<path opacity="0.1" d="M182.382 101.865V105.722L181.349 106.07L179.872 106.562L179.87 104.757L181.349 102.162L182.382 101.865Z" fill="black"/>
<path d="M182.381 94.4438V105.128L159.326 112.846L159.178 101.419L182.381 94.4438Z" fill="#D48A9B"/>
<path d="M52.7627 93.7019L83.063 87.9165L182.381 94.4442L159.178 101.419L52.7627 93.7019Z" fill="#EFC6CD"/>
<path opacity="0.1" d="M55.9418 103.275L55.9524 104.516L54.6977 104.405L53.067 104.265L53.0586 103.275H55.9418Z" fill="black"/>
<path opacity="0.1" d="M84.3307 106.963L83.3717 106.88L82.0283 106.765V105.094L83.3569 105.499H84.318L84.3307 106.963Z" fill="black"/>
<path d="M52.7627 93.7017V103.646L159.326 112.846L159.178 101.419L52.7627 93.7017Z" fill="#D48A9B"/>
<path d="M137.255 105.525H123.337V100.454L137.255 101.438V105.525Z" fill="#D48A9B"/>
<path opacity="0.1" d="M137.255 105.525H123.337V100.454L137.255 101.438V105.525Z" fill="black"/>
<path opacity="0.1" d="M104.64 99.3433V107.355L158.07 111.436V102.904L137.23 101.716L135.16 103.572L126.663 102.978L123.634 100.751L104.64 99.3433Z" fill="black"/>
<path d="M104.344 99.0439V107.058L157.774 111.139V102.607L136.934 101.419L134.866 103.275L126.367 102.681L123.338 100.454L104.344 99.0439Z" fill="white"/>
<path d="M71.3866 96.8936L84.0222 97.7843L83.8743 101.816H75.6238L70.1045 99.6378L71.3866 96.8936Z" fill="#D48A9B"/>
<path opacity="0.1" d="M71.3866 96.8936L84.0222 97.7843L83.8743 101.816H75.6238L70.1045 99.6378L71.3866 96.8936Z" fill="black"/>
<path opacity="0.1" d="M54.5371 95.7803V102.978L103.016 106.836V99.1926L84.3178 98.0813L82.3239 99.5637L74.7852 99.1204L71.6823 97.1906L54.5371 95.7803Z" fill="black"/>
<path d="M54.2412 95.4834V102.681L102.72 106.539V98.8978L84.0219 97.7844L82.0279 99.2689L74.4893 98.8236L71.3864 96.8937L54.2412 95.4834Z" fill="white"/>
<path opacity="0.1" d="M56.415 149.739L56.7467 149.624L56.5798 151.991L56.415 152.05V149.739Z" fill="black"/>
<path opacity="0.1" d="M158.076 95.5107L164.871 95.9582L153.61 99.3429L147.875 98.9252L158.076 95.5107Z" fill="black"/>
<path d="M158.076 95.2139L164.871 95.6613L153.61 99.0439L147.875 98.6283L158.076 95.2139Z" fill="white"/>
<path d="M157.263 95.9797C157.531 95.8652 157.816 96.0815 158.108 96.1367C158.27 96.1685 158.439 96.1367 158.602 96.1685C158.936 96.213 159.267 96.4378 159.584 96.3233" fill="#D3DAE1"/>
<path d="M156.912 96.1854C157.178 96.0687 157.466 96.2851 157.757 96.3402C157.92 96.372 158.089 96.3402 158.253 96.372C158.587 96.4165 158.917 96.6413 159.233 96.5268" fill="#D3DAE1"/>
<path d="M156.109 96.5925C156.378 96.478 156.665 96.6943 156.954 96.7495C157.117 96.7813 157.286 96.7495 157.451 96.7813C157.784 96.8258 158.114 97.0506 158.431 96.9361" fill="#D3DAE1"/>
<path d="M46.5615 170.346C47.6569 170.346 48.5449 169.454 48.5449 168.354C48.5449 167.254 47.6569 166.363 46.5615 166.363C45.4661 166.363 44.5781 167.254 44.5781 168.354C44.5781 169.454 45.4661 170.346 46.5615 170.346Z" fill="#535461"/>
<path d="M50.1099 178.135C51.2053 178.135 52.0933 177.244 52.0933 176.144C52.0933 175.044 51.2053 174.152 50.1099 174.152C49.0145 174.152 48.1265 175.044 48.1265 176.144C48.1265 177.244 49.0145 178.135 50.1099 178.135Z" fill="#535461"/>
<path d="M85.4966 179.546C86.592 179.546 87.48 178.654 87.48 177.554C87.48 176.455 86.592 175.563 85.4966 175.563C84.4012 175.563 83.5132 176.455 83.5132 177.554C83.5132 178.654 84.4012 179.546 85.4966 179.546Z" fill="#535461"/>
<path d="M93.4028 169.381C94.4983 169.381 95.3863 168.489 95.3863 167.389C95.3863 166.29 94.4983 165.398 93.4028 165.398C92.3074 165.398 91.4194 166.29 91.4194 167.389C91.4194 168.489 92.3074 169.381 93.4028 169.381Z" fill="#535461"/>
<path d="M71.0236 133.186H68.5396V148.767H71.0236V133.186Z" fill="#535461"/>
<path opacity="0.1" d="M71.0236 146.244H68.5396V148.767H71.0236V146.244Z" fill="black"/>
<path d="M71.503 146.837H68.0601V164.126H71.503V146.837Z" fill="#3A3768"/>
<path d="M92.9741 164.013L70.4321 163.086V166.728H96.5924C96.3324 165.962 95.8476 165.292 95.2019 164.808C94.5561 164.324 93.7796 164.046 92.9741 164.013Z" fill="#3A3768"/>
<path d="M47.8898 164.013L70.4318 163.086V166.728H44.2715C44.5313 165.962 45.016 165.292 45.6618 164.808C46.3076 164.323 47.0843 164.046 47.8898 164.013Z" fill="#3A3768"/>
<path d="M68.06 163.457L50.0635 172.365C49.3023 172.744 48.6617 173.329 48.2139 174.054C47.7661 174.779 47.5288 175.615 47.5288 176.468V176.74L68.5458 167.54L71.5029 167.317L88.9798 178.521C89.0913 177.693 88.9748 176.85 88.6431 176.084C88.3113 175.317 87.7769 174.657 87.0977 174.174L71.5029 163.088L68.06 163.457Z" fill="#3A3768"/>
<path opacity="0.1" d="M71.0236 133.184V134.864C70.5884 134.882 70.1449 134.891 69.6928 134.891C69.3021 134.891 68.9176 134.891 68.5396 134.87V133.184H71.0236Z" fill="black"/>
<path d="M69.6924 134.297C74.7542 134.297 78.8575 133.093 78.8575 131.606C78.8575 130.12 74.7542 128.915 69.6924 128.915C64.6307 128.915 60.5273 130.12 60.5273 131.606C60.5273 133.093 64.6307 134.297 69.6924 134.297Z" fill="#3A3768"/>
<path opacity="0.1" d="M78.7774 131.606C78.7686 131.755 78.7294 131.902 78.6622 132.035C78.595 132.169 78.5012 132.288 78.3867 132.384C77.2545 133.491 73.7545 134.293 69.6145 134.293C65.5653 134.293 62.1328 133.521 60.9183 132.454C60.7837 132.355 60.6719 132.228 60.5907 132.081C60.5094 131.935 60.4605 131.773 60.4473 131.606C60.4473 130.121 64.5514 128.915 69.6145 128.915C74.6775 128.915 78.7774 130.119 78.7774 131.606Z" fill="black"/>
<path opacity="0.1" d="M78.8556 131.606C78.8468 131.756 78.8076 131.902 78.7403 132.036C78.6731 132.17 78.5794 132.288 78.4648 132.384C77.2988 132.092 76.4919 131.85 76.4919 131.85C76.4919 131.85 68.4126 132.304 60.9964 132.458C60.8618 132.359 60.7501 132.232 60.6688 132.086C60.5875 131.94 60.5386 131.777 60.5254 131.61C60.5254 130.126 64.6295 128.919 69.6926 128.919C74.7557 128.919 78.8556 130.119 78.8556 131.606Z" fill="black"/>
<path d="M46.5613 96.1599C46.5613 96.1599 49.5924 104.471 49.4445 109.442C49.2967 114.413 46.931 123.761 46.931 123.761C46.931 123.761 44.5673 131.33 50.6274 131.998C56.6875 132.666 76.492 131.553 76.492 131.553C76.492 131.553 83.8849 133.778 86.2464 132.813C87.1652 132.44 87.9616 131.617 88.591 130.749C88.9357 130.277 89.1809 129.738 89.3117 129.167C89.4424 128.596 89.4561 128.005 89.3517 127.428C89.2474 126.852 89.0272 126.303 88.7047 125.815C88.3822 125.326 87.964 124.909 87.4757 124.589C86.3725 123.898 85.1709 123.38 83.9124 123.053C83.6475 122.981 83.3736 122.947 83.0991 122.953L57.2768 123.465C57.2768 123.465 54.3957 123.019 54.9132 120.127C55.4307 117.234 56.3157 108.329 56.3157 108.329C56.3157 108.329 56.4636 97.496 51.2907 94.4548C46.1177 91.4137 46.5613 96.1599 46.5613 96.1599Z" fill="#3A3768"/>
<path opacity="0.1" d="M46.5613 96.1343C46.5613 96.1343 49.5924 104.443 49.4445 109.414C49.2967 114.385 46.931 123.736 46.931 123.736C46.931 123.736 44.5673 131.303 50.6274 131.971C56.6875 132.639 76.492 131.523 76.492 131.523C76.492 131.523 83.8849 133.75 86.2464 132.796C87.1652 132.42 87.9616 131.597 88.591 130.732C88.9357 130.259 89.181 129.721 89.3118 129.15C89.4426 128.579 89.4562 127.987 89.3519 127.41C89.2475 126.834 89.0274 126.284 88.7048 125.796C88.3823 125.308 87.9641 124.89 87.4757 124.569C86.3716 123.881 85.1703 123.363 83.9124 123.034C83.6476 122.961 83.3735 122.928 83.0991 122.936L57.2768 123.439C57.2768 123.439 54.3957 122.994 54.9132 120.099C55.4307 117.204 56.3157 108.303 56.3157 108.303C56.3157 108.303 56.4636 97.4704 51.2907 94.4271C46.1177 91.3838 46.5613 96.1343 46.5613 96.1343Z" fill="black"/>
<path d="M47.1528 95.863C47.1528 95.863 50.1839 104.174 50.036 109.145C49.8882 114.116 47.5224 123.465 47.5224 123.465C47.5224 123.465 45.1588 131.034 51.2168 131.702C57.2747 132.37 77.0814 131.256 77.0814 131.256C77.0814 131.256 84.4743 133.481 86.8379 132.529C87.7567 132.153 88.553 131.33 89.1825 130.463C89.5271 129.99 89.7723 129.452 89.9031 128.881C90.0339 128.31 90.0475 127.719 89.9432 127.142C89.8389 126.566 89.6187 126.017 89.2962 125.528C88.9737 125.04 88.5555 124.623 88.0672 124.302C86.9646 123.608 85.763 123.087 84.5038 122.756C84.2389 122.684 83.965 122.651 83.6906 122.657L57.8683 123.168C57.8683 123.168 54.9872 122.722 55.5047 119.83C56.0222 116.937 56.9072 108.032 56.9072 108.032C56.9072 108.032 57.0551 97.1991 51.8821 94.158C46.7092 91.1168 47.1528 95.863 47.1528 95.863Z" fill="#3A3768"/>
<path d="M99.5873 167.307V169.989C99.5873 169.989 112.352 170.22 115.163 170.22C117.974 170.22 121.844 168.834 122.074 167.722C122.305 166.611 118.849 165.686 117.558 165.642C116.268 165.597 116.223 165.086 114.563 164.206C113.627 163.71 112.206 162.27 111.146 161.11C110.328 160.215 109.726 159.487 109.726 159.487C109.726 159.487 102.859 159.35 100.878 160.459C100.422 160.715 100.107 161.216 99.8914 161.837C99.1775 163.909 99.5873 167.307 99.5873 167.307Z" fill="#434175"/>
<path opacity="0.1" d="M99.8916 161.837C101.332 161.335 109.76 161.139 111.146 161.11C110.328 160.215 109.726 159.487 109.726 159.487C109.726 159.487 102.859 159.35 100.878 160.459C100.422 160.715 100.107 161.214 99.8916 161.837Z" fill="black"/>
<path d="M62.8618 119.051L63.6053 119.503L63.8842 119.672L64.9677 120.326C70.7595 123.831 86.5571 133.33 87.4231 133.262C87.6492 133.243 88.3293 133.141 89.2693 132.987C89.5185 132.946 89.7868 132.904 90.0677 132.855C93.686 132.251 99.6996 131.158 100.371 130.857C101.292 130.433 101.108 132.291 100.739 133.865C100.369 135.438 100.095 142.984 100.509 143.951C100.923 144.918 100.739 146.496 100.739 146.496L100.188 154.962L100.557 156.76C100.557 156.76 99.313 157.778 99.82 158.378C100.327 158.978 99.8664 161.572 99.8664 161.572C101.345 161.016 111.34 160.832 111.34 160.832C111.34 160.832 110.918 157.129 111.294 156.251C111.67 155.373 111.387 150.143 111.387 150.143C111.387 150.143 111.617 146.165 111.203 145.24C110.789 144.316 111.34 138.392 111.34 138.392C111.34 138.392 111.71 134.876 111.801 127.704C111.892 120.531 107.745 120.302 107.745 120.302C107.745 120.302 107.194 120.258 106.353 120.177C104.712 120.018 101.974 119.717 100.145 119.329C99.7706 119.25 99.4004 119.151 99.0363 119.032C96.7783 118.26 89.1763 118.23 87.9322 118.786C86.7345 119.32 85.5369 118.826 85.4482 118.786L84.4808 117.212L75.2375 118.003L74.2596 118.088L65.16 118.867L64.5263 118.922L62.8618 119.051Z" fill="#565387"/>
<path opacity="0.1" d="M99.9108 126.147C102.595 127.462 105.158 122.803 106.351 120.175C104.71 120.016 101.972 119.715 100.143 119.327C98.9413 121.343 97.3359 124.889 99.9108 126.147Z" fill="black"/>
<path d="M91.846 94.6689C91.9018 94.9867 92.0118 95.2923 92.1713 95.5724C93.1641 97.5913 96.0389 101.748 96.0389 101.748C96.8938 102.285 97.616 103.01 98.1511 103.869C98.9348 105.211 99.165 108.356 99.165 108.356C99.165 108.356 100.916 115.342 101.744 116.315C102.167 116.801 101.974 117.09 101.687 117.257C101.098 117.586 100.599 118.056 100.234 118.625C99.0256 120.574 97.0971 124.444 99.8114 125.772C103.497 127.577 106.955 118.118 106.955 118.118C106.955 118.118 106.262 111.41 106.078 110.254C105.895 109.099 104.788 104.331 104.788 104.331C104.788 104.331 104.004 102.295 103.544 100.862C103.083 99.4279 101.702 97.761 101.702 97.761C101.702 97.761 99.2115 92.7645 98.5208 92.0244C98.1997 91.6808 97.7498 91.2482 97.3611 90.8834C96.9112 90.4593 96.5395 90.1284 96.5395 90.1284C96.5395 90.1284 91.7996 93.5619 91.846 94.6689Z" fill="#EE8E9E"/>
<path d="M60.6035 166.751L68.9892 170.498C68.9892 170.498 79.8567 170.73 81.7578 170.221C83.6588 169.712 83.2364 167.584 80.7439 167.167C78.2514 166.749 77.6579 165.642 76.8278 165.133C76.268 164.789 74.2804 162.569 73.0489 161.163C72.4554 160.486 72.0351 159.996 72.0351 159.996C72.0351 159.996 70.4213 155.693 65.9517 156.665C65.1345 156.844 64.3815 157.243 63.774 157.821C61.3639 160.06 61.1548 164.49 61.1548 164.49L60.6035 166.751Z" fill="#434175"/>
<path opacity="0.1" d="M63.8838 119.673L64.9674 120.326C70.7592 123.831 86.5568 133.33 87.4228 133.262C87.6488 133.243 88.3289 133.141 89.2689 132.987C89.5182 132.946 89.7864 132.904 90.0673 132.855L90.099 132.802C90.5638 131.988 90.9189 131.116 91.1551 130.208C92.1226 126.508 87.3299 123.685 87.3299 123.685L86.316 122.894C85.1648 120.947 76.8699 119.106 76.8699 119.106L75.8011 118.375L75.2287 117.989L75.0788 117.889L73.7818 117.013L67.2845 117.476L65.3539 118.72L65.1427 118.852L64.4372 119.316L63.8838 119.673Z" fill="black"/>
<path opacity="0.1" d="M63.7739 157.821C65.5377 163.947 72.9052 161.945 72.9052 161.945L73.0446 161.169C72.4511 160.493 72.0307 160.003 72.0307 160.003C72.0307 160.003 70.417 155.7 65.9474 156.671C65.1324 156.849 64.381 157.246 63.7739 157.821Z" fill="black"/>
<path d="M61.8476 130.015C64.5661 130.015 71.564 133.3 71.564 133.3C72.9919 134.412 74.9267 134.041 74.9267 134.041C74.9267 134.041 71.5238 137.51 71.6189 138.946C71.7139 140.382 69.6819 142.74 69.6819 142.74L63.4149 155.184C63.8775 164.022 72.9074 161.57 72.9074 161.57L73.277 159.487C73.8304 159.21 74.6605 156.434 74.6605 156.434C74.6605 156.434 74.6605 155.324 75.2118 155C75.7631 154.675 76.9164 151.344 76.9164 151.344C76.9164 151.344 79.4047 147.134 79.2653 146.581C79.1259 146.027 81.0628 143.204 81.0628 143.204C81.0628 143.204 84.3347 139.966 84.1953 139.387C84.0559 138.808 86.8271 135.845 86.8271 135.845C87.8289 135.067 88.6614 134.092 89.2731 132.978C89.7374 132.165 90.0926 131.293 90.3293 130.387C91.1087 127.405 88.1515 124.993 86.9708 124.168C86.6856 123.969 86.504 123.863 86.504 123.863L85.4901 123.072C84.9662 122.186 82.9659 121.32 80.9382 120.644C79.4765 120.154 78.0021 119.759 77.058 119.524C76.4243 119.369 76.0441 119.282 76.0441 119.282L74.9753 118.561L74.5993 118.307L74.255 118.076L72.9559 117.2L70.0664 117.412L66.4586 117.668L64.5302 118.915L63.6092 119.509L60.0078 121.842C60.0078 121.842 59.9128 122.731 59.8832 123.927C59.8832 124.018 59.8832 124.111 59.8832 124.209C59.8346 126.612 60.0944 130.015 61.8476 130.015Z" fill="#565387"/>
<path d="M75.7168 78.1968L76.6884 81.6664C76.6884 81.6664 78.3951 87.6363 78.5789 88.052C78.7627 88.4676 83.2259 92.6794 83.4181 92.7706C83.6103 92.8618 86.0352 94.2552 86.0352 94.2552C86.0352 94.2552 86.2274 86.6205 86.0352 84.4022C86.0194 83.9142 86.0598 83.426 86.1556 82.9473C86.4492 81.2062 87.1927 78.6549 87.8095 76.689C88.3249 75.0412 88.7537 73.8069 88.7537 73.8069C88.7537 73.8069 77.9706 73.3424 78.3402 74.4071C78.4796 74.81 78.4332 75.4823 78.3001 76.1567C78.0762 77.268 77.6136 78.3792 77.3263 78.2944C77.0457 78.2301 76.7587 78.1981 76.4709 78.199C76.078 78.182 75.7168 78.1968 75.7168 78.1968Z" fill="#EE8E9E"/>
<path opacity="0.1" d="M78.3042 76.1528C79.621 77.2556 81.2568 77.903 82.969 77.9989C84.6812 78.0948 86.3785 77.6341 87.8094 76.6851C88.3247 75.0373 88.7535 73.803 88.7535 73.803C88.7535 73.803 77.9705 73.3385 78.3401 74.4032C78.4837 74.8061 78.4373 75.4784 78.3042 76.1528Z" fill="black"/>
<path d="M75.44 69.7309C75.4396 71.3143 75.9069 72.8624 76.7828 74.1792C77.6587 75.4961 78.9039 76.5225 80.3609 77.1288C81.8179 77.7351 83.4212 77.8939 84.9681 77.5852C86.515 77.2766 87.936 76.5142 89.0514 75.3947C90.1667 74.2751 90.9264 72.8486 91.2342 71.2956C91.5421 69.7426 91.3843 68.1328 90.7808 66.6698C90.1774 65.2068 89.1553 63.9563 87.844 63.0765C86.5327 62.1967 84.991 61.7271 83.4138 61.7271C82.3654 61.7221 81.3265 61.9256 80.3569 62.326C79.3874 62.7265 78.5064 63.3158 77.765 64.06C77.0236 64.8042 76.4364 65.6885 76.0373 66.6618C75.6383 67.6352 75.4353 68.6783 75.44 69.7309Z" fill="#EE8E9E"/>
<path opacity="0.1" d="M75.7168 78.1969L76.6884 81.6665C76.6884 81.6665 78.3951 87.6364 78.5789 88.052C78.7627 88.4677 83.2259 92.6795 83.4181 92.7707C83.6103 92.8619 86.0352 94.2552 86.0352 94.2552C86.0352 94.2552 86.2274 86.6205 86.0352 84.4022C86.0194 83.9143 86.0598 83.4261 86.1556 82.9474L85.5219 85.5114L85.5684 90.6479L85.9359 90.9257L85.1079 92.1748V91.248C85.1079 91.248 82.1507 88.3808 81.6966 87.1762C81.2425 85.9716 79.5843 83.7957 79.5843 83.7957C79.5843 83.7957 77.6833 80.6146 77.6495 80.0526C77.6136 79.6284 76.8194 78.619 76.4709 78.1991C76.078 78.1821 75.7168 78.1969 75.7168 78.1969Z" fill="black"/>
<path opacity="0.1" d="M91.846 94.6689C91.9018 94.9867 92.0118 95.2923 92.1713 95.5724C93.1789 95.4706 96.6071 94.8259 97.3675 90.8898C96.9176 90.4656 96.5458 90.1348 96.5458 90.1348C96.5458 90.1348 91.7996 93.5619 91.846 94.6689Z" fill="black"/>
<path opacity="0.1" d="M59.8726 124.194C60.802 123.533 61.687 122.631 62.2151 122.383C62.9987 122.012 64.1964 120.81 64.1964 120.81C64.1964 120.81 64.5005 120.597 64.9673 120.326C65.8228 119.823 67.2253 119.094 68.2984 119.005C69.2594 118.924 72.4574 118.719 74.971 118.562L78.2513 118.35C78.2513 118.35 81.2465 117.289 82.5371 117.978C83.4612 118.441 84.4349 118.797 85.4393 119.039C85.4393 119.039 85.4393 118.937 85.4393 118.763L84.4719 117.189L74.2507 118.065L72.9517 117.189L66.4544 117.652L64.5259 118.899L62.8614 119.041L63.6049 119.493L60.0035 121.825C60.0035 121.825 59.8937 122.86 59.8726 124.194Z" fill="black"/>
<path d="M58.5229 124.603C59.0109 124.457 59.4682 124.223 59.8726 123.912C60.7999 123.252 61.6828 122.353 62.2088 122.105C62.9924 121.734 64.1901 120.532 64.1901 120.532C64.1901 120.532 66.634 118.865 68.2921 118.727C68.7441 118.689 69.6904 118.623 70.8268 118.549L74.5887 118.307L76.5404 118.184L78.245 118.08C78.245 118.08 81.2402 117.02 82.5308 117.709C83.455 118.172 84.4287 118.528 85.4331 118.769C85.4331 118.769 85.4795 115.531 85.8555 114.188C86.2315 112.846 86.73 110.394 86.73 110.394C86.73 110.394 87.1524 107.018 87.5601 105.491C87.9678 103.964 89.5879 95.4516 90.418 94.8875C91.2481 94.3233 91.7065 95.3116 91.7065 95.3116C91.7065 95.3116 97.2363 95.2183 97.3293 89.1127C97.3293 89.1127 94.7481 86.5211 94.5643 85.8743C94.3806 85.2275 91.9388 82.8204 91.9388 82.8204C91.9388 82.8204 90.5553 80.2289 88.9816 80.1822C88.2418 80.139 87.4995 80.1624 86.7638 80.2522L85.4331 85.6877L85.4795 90.8241L85.8492 91.1019L85.0191 92.3511V91.4413C85.0191 91.4413 82.0619 88.5719 81.6099 87.3694C81.1578 86.1669 79.4976 83.9868 79.4976 83.9868C79.4976 83.9868 77.6093 80.8057 77.5628 80.2437C77.5163 79.6817 76.2257 78.2014 76.2257 78.2014C75.9655 78.1699 75.7024 78.1699 75.4421 78.2014C75.3259 78.209 75.2094 78.1924 75.0999 78.1526C74.3558 77.9145 73.5637 77.8692 72.7975 78.0212C71.2049 78.3541 68.7842 78.9606 68.1168 79.6881C67.1029 80.7993 65.6285 81.8639 63.9683 86.4893L72.9074 89.7277L72.1427 91.1889L65.0287 104.762C65.0287 104.762 64.7921 105.148 64.4731 105.65C64.0507 106.303 63.5036 107.158 63.1382 107.627C62.4939 108.46 62.6777 111.096 62.6777 111.096C62.6777 111.096 62.5404 112.345 62.0799 112.81C61.6195 113.274 61.7082 114.982 61.7082 114.982L60.5105 119.469C60.5105 119.469 59.4037 120.487 59.4037 120.954C59.4037 121.42 58.5292 122.712 58.5292 122.712C58.5292 122.712 57.1922 124.926 58.5229 124.603Z" fill="#DFE5EE"/>
<path opacity="0.1" d="M64.4712 105.65C64.5328 105.905 64.58 106.164 64.6127 106.424C64.6127 106.424 68.2521 114.984 68.7126 115.493C68.8541 115.65 69.3906 116.419 70.0623 117.401L70.8333 118.544C72.2253 120.621 73.7905 122.979 73.7905 122.979L77.1997 125.986C77.1997 125.986 84.6179 126.582 86.9752 124.164C86.69 123.965 86.5084 123.859 86.5084 123.859L85.4945 123.068C84.9706 122.181 82.9703 121.316 80.9426 120.64C79.0753 120.652 77.5482 120.805 77.5482 120.805L77.0624 119.52L76.5554 118.18L73.97 111.376C73.97 111.376 72.3077 102.772 71.7543 102.355C71.2008 101.937 71.3318 100.643 71.3318 100.643C71.3318 100.643 72.3457 96.9891 71.976 96.4801C71.6064 95.9711 72.5759 92.2216 72.5759 92.2216C72.4797 91.8559 72.3303 91.5064 72.1323 91.1846L65.0183 104.757C65.0183 104.757 64.7901 105.141 64.4712 105.65Z" fill="black"/>
<path d="M72.6751 91.9396C72.6751 91.9396 71.7077 95.687 72.0773 96.1959C72.447 96.7049 71.431 100.359 71.431 100.359C71.431 100.359 71.2937 101.655 71.8534 102.07C72.4132 102.486 74.0692 111.092 74.0692 111.092L77.6389 120.532C77.6389 120.532 88.8106 119.42 87.6595 122.936C86.5083 126.453 77.2904 125.713 77.2904 125.713L73.8812 122.705C73.8812 122.705 69.2723 115.72 68.8118 115.211C68.3513 114.702 64.7098 106.142 64.7098 106.142C64.7098 106.142 64.526 104.431 63.7424 103.551C62.9587 102.671 63.5586 101.186 63.5586 101.186C63.5586 101.186 62.5912 89.9949 63.6051 88.6546C64.619 87.3142 71.619 87.9144 72.6751 91.9396Z" fill="#EE8E9E"/>
<path opacity="0.1" d="M105.717 127.933C105.717 127.933 102.813 128.906 102.035 130.293C101.258 131.68 105.717 127.933 105.717 127.933Z" fill="black"/>
<path opacity="0.1" d="M104.241 124.881C104.15 125.019 100.266 128.932 100.508 129.878C100.751 130.824 104.241 124.881 104.241 124.881Z" fill="black"/>
<path opacity="0.1" d="M82.9067 127.657C82.9067 127.657 78.5745 129.708 78.2048 130.601C77.8352 131.494 82.9067 127.657 82.9067 127.657Z" fill="black"/>
<path opacity="0.1" d="M82.6301 130.293C82.6301 130.293 78.7203 131.958 78.1943 132.376C77.6684 132.794 82.6301 130.293 82.6301 130.293Z" fill="black"/>
<path opacity="0.1" d="M80.8327 133.856C80.8327 133.856 79.1006 135.152 78.1459 134.134C77.1912 133.116 80.8327 133.856 80.8327 133.856Z" fill="black"/>
<path opacity="0.1" d="M87.3301 100.081C87.2371 100.221 81.477 110.63 79.9562 111.416C78.4354 112.203 87.3301 100.081 87.3301 100.081Z" fill="black"/>
<path opacity="0.1" d="M87.0531 104.015C87.0531 104.246 81.4303 116.315 80.5051 116.46C79.5799 116.604 87.0531 104.015 87.0531 104.015Z" fill="black"/>
<path opacity="0.1" d="M65.6709 111.788C65.6709 111.788 62.9587 117.609 61.9026 117.951C60.8465 118.292 65.6709 111.788 65.6709 111.788Z" fill="black"/>
<path opacity="0.1" d="M65.2105 109.196C65.2105 109.196 64.2747 111.232 63.7065 111.232C63.1383 111.232 65.2105 109.196 65.2105 109.196Z" fill="black"/>
<path opacity="0.1" d="M75.4399 69.731C75.4393 70.6877 75.6103 71.6367 75.9448 72.5325C75.9153 71.4936 76.0995 70.4597 76.4859 69.4955C76.8724 68.5312 77.4528 67.6574 78.1908 66.9285C78.9288 66.1997 79.8086 65.6315 80.7753 65.2594C81.7419 64.8874 82.7745 64.7196 83.8087 64.7663C84.1953 64.7833 84.6536 64.8745 84.8099 65.2266C84.8714 65.4156 84.9035 65.613 84.905 65.8119C85.0211 66.7111 85.9294 67.2731 86.7828 67.5657C87.6361 67.8584 88.5866 68.045 89.2055 68.7046C89.7716 69.309 89.9322 70.1764 90.211 70.9589C90.3678 71.4381 90.634 71.8739 90.9883 72.2314C91.3488 71.1309 91.4672 69.9649 91.3351 68.814C91.2031 67.6631 90.8239 66.5546 90.2236 65.5652C89.6233 64.5758 88.8164 63.729 87.8583 63.0832C86.9003 62.4374 85.8142 62.0081 84.6748 61.8249C83.5354 61.6417 82.37 61.7089 81.2591 62.0219C80.1481 62.335 79.1181 62.8864 78.24 63.6381C77.362 64.3898 76.6569 65.3239 76.1735 66.3758C75.6901 67.4277 75.4398 68.5725 75.4399 69.731Z" fill="black"/>
<path d="M90.3294 62.4843C89.6746 61.5915 88.5129 61.2819 87.5032 60.8323C86.2545 60.264 85.1523 59.4159 84.2811 58.353C83.41 57.2901 82.7932 56.0408 82.4782 54.7012C82.0757 55.2953 81.887 56.0094 81.943 56.7257C81.9991 57.442 82.2966 58.1178 82.7866 58.6415C80.951 58.5164 78.9232 58.3043 77.6791 56.9449C77.3961 57.9247 78.2431 59.0381 77.7805 59.9458C77.3834 60.7262 76.3019 60.7941 75.6028 61.3243C74.8571 61.8799 74.61 62.8873 74.5635 63.8183C74.5171 64.7493 74.6142 65.7036 74.3396 66.5943C74.1284 67.2709 73.706 67.8922 73.6637 68.5984C73.6589 69.1246 73.7745 69.6448 74.0017 70.119C74.5229 71.3823 75.2291 72.5603 76.097 73.614C75.8608 72.4843 75.885 71.3152 76.1678 70.1963C76.4506 69.0774 76.9845 68.0382 77.7287 67.1583C78.4729 66.2783 79.4076 65.5808 80.4614 65.1192C81.5152 64.6576 82.6602 64.444 83.8089 64.4948C84.1954 64.5118 84.6538 64.6051 84.8101 64.9571C84.872 65.1461 84.904 65.3436 84.9052 65.5424C85.0213 66.4395 85.9296 67.0015 86.783 67.2942C87.6363 67.5869 88.5868 67.7756 89.2057 68.433C89.7718 69.0374 89.9323 69.9048 90.2111 70.6874C90.49 71.4699 91.0286 72.2886 91.8503 72.384C92.0382 71.2218 92.2283 70.0512 92.1122 68.872C91.9854 67.6102 91.1405 66.8955 90.8448 65.7969C90.5238 64.6454 91.1321 63.5786 90.3294 62.4843Z" fill="#603556"/>
<path opacity="0.1" d="M66.9721 84.9071L64.0699 86.6652C64.0699 86.6652 63.2398 89.4858 62.5913 89.8463C62.5913 89.8463 68.3979 86.6079 72.7745 94.056C72.7745 94.056 72.6372 93.0847 73.235 92.6224C73.8327 92.1601 73.6954 90.1708 73.6954 90.1708C73.8566 89.8556 73.9977 89.5305 74.1179 89.1974C74.5192 88.19 72.3542 82.3622 66.9721 84.9071Z" fill="black"/>
<path d="M66.8707 84.7204L63.9664 86.4785C63.9664 86.4785 63.1363 89.3012 62.4878 89.6723C62.4878 89.6723 68.2944 86.4318 72.671 93.882C72.671 93.882 72.5337 92.9107 73.1336 92.4484C73.7334 91.986 73.594 89.9947 73.594 89.9947C73.7563 89.6807 73.8974 89.3562 74.0165 89.0234C74.4263 88.0054 72.2528 82.1755 66.8707 84.7204Z" fill="#DFE5EE"/>
<g opacity="0.1">
<path opacity="0.1" d="M77.92 59.2781C77.9094 58.5231 77.4616 57.6918 77.6792 56.9453L77.7172 56.9856C77.77 57.7576 78.1967 58.5698 77.92 59.2781Z" fill="black"/>
<path opacity="0.1" d="M74.6565 63.2583C74.6121 64.1066 74.6882 64.9549 74.498 65.7799C74.5678 65.1331 74.5297 64.4671 74.5635 63.814C74.5775 63.5043 74.6178 63.1964 74.6839 62.8936C74.6713 63.0229 74.6607 63.1374 74.6565 63.2583Z" fill="black"/>
<path opacity="0.1" d="M73.6637 68.5944C73.6758 68.4261 73.7062 68.2597 73.7545 68.0981C73.7625 68.604 73.8784 69.1023 74.0946 69.5593C74.5717 70.715 75.2042 71.7996 75.9745 72.7829C75.9997 73.0607 76.0406 73.3368 76.097 73.61C75.2291 72.5562 74.5229 71.3782 74.0017 70.115C73.7745 69.6408 73.6589 69.1206 73.6637 68.5944Z" fill="black"/>
<path opacity="0.1" d="M82.8795 58.086C82.702 58.0754 82.5204 58.0626 82.3409 58.0478C81.9384 57.3196 81.8288 56.4644 82.0346 55.6577C81.9958 56.0995 82.0511 56.5445 82.1967 56.9631C82.3424 57.3818 82.5751 57.7646 82.8795 58.086Z" fill="black"/>
<path opacity="0.1" d="M77.8185 66.5965C78.5686 65.7234 79.5045 65.0307 80.5571 64.5696C81.6097 64.1086 82.752 63.8909 83.8997 63.9328C84.2862 63.9519 84.7446 64.0431 84.903 64.3951C84.9637 64.5844 84.9957 64.7817 84.9981 64.9805C85.1142 65.8775 86.0204 66.4416 86.8759 66.7322C87.7313 67.0227 88.6776 67.2136 89.2965 67.8732C89.8647 68.4776 90.0252 69.3449 90.3041 70.1254C90.5829 70.9058 91.1194 71.7244 91.9389 71.822L91.8502 72.3776C91.0286 72.2885 90.4899 71.4699 90.2111 70.681C89.9323 69.8921 89.7718 69.0311 89.2057 68.4267C88.5868 67.7692 87.6363 67.5784 86.7829 67.2878C85.9296 66.9973 85.0213 66.4395 84.9051 65.5361C84.904 65.3372 84.8719 65.1397 84.8101 64.9508C84.6453 64.5987 84.1954 64.5054 83.8089 64.4884C82.0135 64.4044 80.2477 64.9702 78.8328 66.0829C77.4179 67.1957 76.4478 68.7814 76.0991 70.5517C76.2829 69.0951 76.8797 67.7222 77.8185 66.5965Z" fill="black"/>
</g>
<path d="M127.207 84.0312V92.3298L119.299 91.6935V84.0312H127.207Z" fill="#3A3768"/>
<path opacity="0.1" d="M127.207 91.6509V92.3295L119.299 91.6933V91.0146L127.207 91.6509Z" fill="black"/>
<path d="M129.624 92.9256L117.322 92.2894C117.322 91.9688 117.449 91.6613 117.674 91.4346C117.9 91.2079 118.206 91.0806 118.526 91.0806L128.42 91.7168C128.739 91.7168 129.045 91.8441 129.271 92.0708C129.497 92.2975 129.624 92.605 129.624 92.9256Z" fill="#3A3768"/>
<path d="M144.648 86.3109L102.097 85.0385C101.926 85.0387 101.758 85.0053 101.601 84.9401C101.444 84.8748 101.301 84.7791 101.18 84.6583C101.06 84.5375 100.965 84.3941 100.9 84.2363C100.835 84.0784 100.801 83.9092 100.802 83.7384V58.5015C100.802 58.3309 100.835 58.1619 100.9 58.0043C100.965 57.8467 101.061 57.7036 101.181 57.583C101.301 57.4625 101.444 57.3669 101.601 57.3018C101.758 57.2367 101.927 57.2033 102.097 57.2036L144.648 58.4761C144.991 58.4761 145.32 58.6127 145.563 58.8561C145.806 59.0994 145.942 59.4295 145.943 59.774V85.0109C145.943 85.3557 145.806 85.6863 145.564 85.9301C145.321 86.1739 144.991 86.3109 144.648 86.3109Z" fill="#3A3768"/>
<path d="M144.897 84.4662L101.752 83.1938V60.4551L144.897 61.7275V84.4662Z" fill="#75CD22"/>
<path d="M123.325 59.6573C123.535 59.6573 123.705 59.4883 123.705 59.2798C123.705 59.0714 123.535 58.9023 123.325 58.9023C123.115 58.9023 122.945 59.0714 122.945 59.2798C122.945 59.4883 123.115 59.6573 123.325 59.6573Z" fill="white"/>
<path opacity="0.1" d="M127.199 85.6028L119.316 85.4756V85.7449H127.199V85.6028Z" fill="black"/>
<path opacity="0.1" d="M112.844 93.4111L123.64 94.1216L121.339 97.4406L109.471 96.1681L112.844 93.4111Z" fill="black"/>
<path d="M112.633 93.1992L123.428 93.9097L121.128 97.2286L109.259 95.9562L112.633 93.1992Z" fill="#3A3768"/>
<path d="M113.11 93.4453L122.524 94.0222L120.52 96.7261L110.167 95.6891L113.11 93.4453Z" fill="#D5E1F4"/>
<path opacity="0.1" d="M222.603 182.553C230.093 182.553 236.164 181.618 236.164 180.464C236.164 179.31 230.093 178.375 222.603 178.375C215.114 178.375 209.042 179.31 209.042 180.464C209.042 181.618 215.114 182.553 222.603 182.553Z" fill="#75CD22"/>
<path d="M230.224 131.161C230.224 131.161 231.73 133.139 229.527 136.127C227.324 139.116 225.514 141.641 226.242 143.499C226.242 143.499 229.567 137.949 232.271 137.873C234.975 137.796 233.207 134.492 230.224 131.161Z" fill="#75CD22"/>
<path opacity="0.1" d="M230.224 131.161C230.354 131.352 230.457 131.56 230.53 131.78C233.171 134.895 234.577 137.801 232.041 137.873C229.677 137.941 226.842 142.182 226.162 143.255C226.185 143.338 226.212 143.419 226.242 143.499C226.242 143.499 229.567 137.949 232.271 137.873C234.974 137.796 233.207 134.492 230.224 131.161Z" fill="black"/>
<path d="M233.025 133.682C233.025 134.378 232.947 134.955 232.852 134.955C232.757 134.955 232.676 134.389 232.676 133.682C232.676 132.976 232.773 133.313 232.871 133.313C232.968 133.313 233.025 132.987 233.025 133.682Z" fill="#FFD037"/>
<path d="M233.986 134.513C233.378 134.846 232.846 135.048 232.801 134.963C232.757 134.878 233.211 134.539 233.819 134.206C234.428 133.873 234.189 134.117 234.242 134.206C234.295 134.295 234.597 134.181 233.986 134.513Z" fill="#FFD037"/>
<path d="M222.263 131.161C222.263 131.161 220.755 133.139 222.958 136.127C225.161 139.116 226.971 141.641 226.243 143.499C226.243 143.499 222.92 137.949 220.214 137.873C217.508 137.796 219.287 134.492 222.263 131.161Z" fill="#75CD22"/>
<path opacity="0.1" d="M222.263 131.161C222.131 131.351 222.028 131.56 221.955 131.78C219.316 134.895 217.91 137.801 220.446 137.873C222.81 137.941 225.645 142.182 226.323 143.255C226.301 143.338 226.274 143.42 226.243 143.499C226.243 143.499 222.92 137.949 220.214 137.873C217.508 137.796 219.287 134.492 222.263 131.161Z" fill="black"/>
<path d="M219.462 133.682C219.462 134.378 219.538 134.955 219.636 134.955C219.733 134.955 219.809 134.389 219.809 133.682C219.809 132.976 219.712 133.313 219.617 133.313C219.522 133.313 219.462 132.987 219.462 133.682Z" fill="#FFD037"/>
<path d="M218.499 134.513C219.109 134.846 219.639 135.048 219.686 134.963C219.732 134.878 219.263 134.539 218.666 134.206C218.068 133.873 218.298 134.117 218.243 134.206C218.188 134.295 217.89 134.181 218.499 134.513Z" fill="#FFD037"/>
<path opacity="0.1" d="M226.243 158.637C234.945 158.637 242 157.55 242 156.209C242 154.868 234.945 153.781 226.243 153.781C217.54 153.781 210.485 154.868 210.485 156.209C210.485 157.55 217.54 158.637 226.243 158.637Z" fill="#75CD22"/>
<path d="M234.354 140.831L234.278 141.451L234.172 142.322L234.128 142.687L234.022 143.559L233.978 143.923L233.872 144.795L232.666 154.72C232.558 155.607 231.116 156.296 229.375 156.296H223.11C221.37 156.296 219.931 155.607 219.824 154.72L218.615 144.795L218.51 143.923L218.465 143.559L218.358 142.687L218.313 142.322L218.208 141.451L218.134 140.831C218.072 140.331 218.852 139.907 219.836 139.907H232.651C233.629 139.907 234.415 140.331 234.354 140.831Z" fill="#65617D"/>
<path d="M234.277 141.451L234.172 142.322H218.315L218.209 141.451H234.277Z" fill="#9D9CB5"/>
<path d="M234.128 142.687L234.022 143.561H218.465L218.357 142.687H234.128Z" fill="#9D9CB5"/>
<path d="M233.978 143.923L233.872 144.797H218.615L218.51 143.923H233.978Z" fill="#9D9CB5"/>
</g>
<defs>
<clipPath id="clip0">
<rect x="36" y="12" width="206" height="175" fill="white"/>
</clipPath>
</defs>
</svg>
