<svg width="40" height="40" viewBox="0 0 40 40" fill="none" xmlns="http://www.w3.org/2000/svg">
<path d="M20.4648 14.7217L19.9998 15.1867L19.5348 14.7217C17.7215 12.9084 14.8465 12.9084 13.0248 14.7217C11.2098 16.545 11.2098 19.4184 13.0248 21.2334L19.9998 28.21L26.9765 21.2334C28.7915 19.42 28.7915 16.545 26.9765 14.7217C25.1532 12.9084 22.2782 12.9084 20.4648 14.7217Z" fill="#75CD22"/>
<path d="M20.0002 3.33331C10.8102 3.33331 3.3335 10.81 3.3335 20C3.3335 29.19 10.8102 36.6666 20.0002 36.6666C29.1902 36.6666 36.6668 29.19 36.6668 20C36.6668 10.81 29.1902 3.33331 20.0002 3.33331ZM20.0002 33.3333C12.6485 33.3333 6.66683 27.3516 6.66683 20C6.66683 12.6483 12.6485 6.66665 20.0002 6.66665C27.3518 6.66665 33.3335 12.6483 33.3335 20C33.3335 27.3516 27.3518 33.3333 20.0002 33.3333Z" fill="#75CD22"/>
</svg>
