<svg width="34" height="34" viewBox="0 0 34 34" fill="none" xmlns="http://www.w3.org/2000/svg">
<path d="M25.1585 7.86499L29.8468 3.17832L27.4902 0.821655L22.7468 5.56499C22.3585 5.28832 21.9585 5.02999 21.5418 4.80832C18.6702 3.29166 15.3318 3.28999 12.4585 4.80832C12.0418 5.02832 11.6452 5.28666 11.2552 5.56332L6.51183 0.821655L4.15516 3.17832L8.8435 7.86499C7.8835 9.06999 7.1335 10.465 6.5935 12H0.333496V15.3333H4.1785C4.07016 16.1583 4.00016 16.995 4.00016 17.8333C4.00016 18.6783 4.07016 19.5217 4.1785 20.3517H0.333496V23.685H4.92183C4.9435 23.75 4.95683 23.8183 4.9785 23.8817C5.29183 24.8067 5.68016 25.7033 6.13683 26.5483C6.21016 26.6833 6.29516 26.8067 6.37183 26.9383L2.4885 30.8217L4.84516 33.1783L8.36183 29.66C8.7535 30.0833 9.1585 30.49 9.5885 30.8533C10.2852 31.4433 11.0335 31.9483 11.8085 32.3583C12.6068 32.78 13.4452 33.1067 14.3018 33.325C15.1852 33.5517 16.0918 33.6667 17.0002 33.6667C17.9085 33.6667 18.8152 33.5517 19.6968 33.3267C20.5535 33.1083 21.3918 32.7817 22.1902 32.36C22.9652 31.95 23.7135 31.4433 24.4118 30.8533C24.8418 30.49 25.2452 30.0833 25.6352 29.66L29.1535 33.1783L31.5102 30.8217L27.6268 26.9383C27.7052 26.805 27.7902 26.68 27.8635 26.545C28.3185 25.7033 28.7085 24.8067 29.0202 23.88C29.0418 23.815 29.0552 23.7483 29.0768 23.6833H33.6668V20.35H29.8202C29.9285 19.5183 29.9985 18.6767 29.9985 17.8317C29.9985 16.9933 29.9285 16.1567 29.8218 15.3317H33.6668V12H27.4068C26.8668 10.465 26.1168 9.06999 25.1585 7.86499ZM11.4685 9.91332C12.2102 8.98332 13.0685 8.25832 14.0152 7.75666C15.9168 6.75166 18.0852 6.75332 19.9835 7.75666C20.9318 8.25832 21.7902 8.98332 22.5335 9.91499C23.0318 10.5367 23.4335 11.2483 23.7885 12H10.2118C10.5685 11.2483 10.9685 10.535 11.4685 9.91332ZM26.6668 17.8333C26.6668 18.7033 26.5968 19.5733 26.4568 20.4217C26.3252 21.2383 26.1252 22.0433 25.8652 22.815C25.6135 23.5633 25.2985 24.285 24.9335 24.9617C24.5718 25.6267 24.1618 26.2483 23.7118 26.8117C23.2668 27.3667 22.7785 27.8717 22.2635 28.3083C21.7468 28.7433 21.1985 29.115 20.6318 29.415C20.0652 29.715 19.4735 29.9433 18.8702 30.0983C18.8035 30.115 18.7335 30.1217 18.6668 30.1367V20.3333H15.3335V30.135C15.2668 30.12 15.1968 30.1133 15.1302 30.0967C14.5285 29.9417 13.9352 29.7133 13.3685 29.4133C12.8018 29.1133 12.2535 28.7417 11.7385 28.3067C11.2202 27.8683 10.7318 27.365 10.2868 26.8083C9.83683 26.2467 9.42683 25.625 9.0685 24.9617C8.70183 24.2833 8.3885 23.5617 8.13516 22.8133C7.87516 22.0417 7.67516 21.2367 7.54183 20.4167C7.4035 19.5733 7.3335 18.7033 7.3335 17.8333C7.3335 16.9917 7.40183 16.1517 7.53183 15.3333H26.4668C26.5985 16.1517 26.6668 16.9917 26.6668 17.8333Z" fill="#75CD22"/>
</svg>
