<svg width="40" height="40" viewBox="0 0 40 40" fill="none" xmlns="http://www.w3.org/2000/svg">
<path d="M36.1768 8.82004L31.1785 3.82171C30.8668 3.50837 30.4435 3.33337 30.0002 3.33337H10.0002C9.55683 3.33337 9.1335 3.50837 8.82183 3.82171L3.8235 8.82004C3.52016 9.12171 3.3335 9.53837 3.3335 10V31.6667C3.3335 33.505 4.8285 35 6.66683 35H33.3335C35.1718 35 36.6668 33.505 36.6668 31.6667V10C36.6668 9.53837 36.4802 9.12171 36.1768 8.82004ZM10.6902 6.66671H29.3102L30.9768 8.33337H9.0235L10.6902 6.66671ZM6.66683 31.6667V11.6667H33.3335L33.3368 31.6667H6.66683Z" fill="#75CD22"/>
<path d="M23.3332 15H16.6665V20H11.6665L19.9998 28.3333L28.3332 20H23.3332V15Z" fill="#75CD22"/>
</svg>
