<svg width="34" height="26" viewBox="0 0 34 26" fill="none" xmlns="http://www.w3.org/2000/svg">
<path d="M28.6668 7.33335H25.3335V12.3334H20.3335V15.6667H25.3335V20.6667H28.6668V15.6667H33.6668V12.3334H28.6668V7.33335ZM3.66683 7.33335C3.66683 11.1334 6.5335 14 10.3335 14C14.1335 14 17.0002 11.1334 17.0002 7.33335C17.0002 3.53335 14.1335 0.666687 10.3335 0.666687C6.5335 0.666687 3.66683 3.53335 3.66683 7.33335ZM3.66683 24C3.66683 21.2434 5.91016 19 8.66683 19H12.0002C14.7568 19 17.0002 21.2434 17.0002 24V25.6667H20.3335V24C20.3335 19.405 16.5952 15.6667 12.0002 15.6667H8.66683C4.07183 15.6667 0.333496 19.405 0.333496 24V25.6667H3.66683V24Z" fill="#75CD22"/>
</svg>
