<svg width="34" height="34" viewBox="0 0 34 34" fill="none" xmlns="http://www.w3.org/2000/svg">
<path d="M17.0002 0.333374C7.81016 0.333374 0.333496 7.81004 0.333496 17V18.19V23.6667V23.905C0.333496 25.6117 1.8285 27 3.66683 27H5.3335C6.25516 27 7.00016 26.2534 7.00016 25.3334V16.7617C7.00016 15.8417 6.25516 15.095 5.3335 15.095H3.82016C4.74683 8.64504 10.2968 3.66671 17.0002 3.66671C23.7035 3.66671 29.2535 8.64504 30.1802 15.095H28.6668C27.7452 15.095 27.0002 15.8417 27.0002 16.7617V23.6667V25.3334V27C27.0002 28.8384 25.5052 30.3334 23.6668 30.3334H20.3335V28.6667H13.6668V33.6667H17.0002H20.3335H23.6668C27.3435 33.6667 30.3335 30.6767 30.3335 27C32.1718 27 33.6668 25.6117 33.6668 23.905V23.6667V18.19V17C33.6668 7.81004 26.1902 0.333374 17.0002 0.333374Z" fill="#75CD22"/>
</svg>
