<svg width="28" height="30" viewBox="0 0 28 30" fill="none" xmlns="http://www.w3.org/2000/svg">
<path d="M27.3332 23.3333V6.66667C27.3332 3.05333 21.2282 0 13.9998 0C6.7715 0 0.666504 3.05333 0.666504 6.66667V23.3333C0.666504 26.9467 6.7715 30 13.9998 30C21.2282 30 27.3332 26.9467 27.3332 23.3333ZM13.9998 3.33333C20.1515 3.33333 23.8848 5.845 23.9998 6.65667C23.8848 7.48833 20.1515 10 13.9998 10C7.84817 10 4.11484 7.48833 3.99984 6.67667C4.11484 5.845 7.84817 3.33333 13.9998 3.33333ZM3.99984 11.0117C6.46484 12.4233 10.0615 13.3333 13.9998 13.3333C17.9382 13.3333 21.5348 12.4233 23.9998 11.0117V14.99C23.8848 15.8217 20.1515 18.3333 13.9998 18.3333C7.84817 18.3333 4.11484 15.8217 3.99984 15V11.0117ZM3.99984 23.3333V19.345C6.46484 20.7567 10.0615 21.6667 13.9998 21.6667C17.9382 21.6667 21.5348 20.7567 23.9998 19.345V23.3233C23.8848 24.155 20.1515 26.6667 13.9998 26.6667C7.84817 26.6667 4.11484 24.155 3.99984 23.3333Z" fill="#75CD22"/>
</svg>
