<svg width="40" height="40" viewBox="0 0 40 40" fill="none" xmlns="http://www.w3.org/2000/svg">
<path d="M20.0002 3.33331C10.8102 3.33331 3.3335 10.81 3.3335 20C3.3335 29.19 10.8102 36.6666 20.0002 36.6666C29.1902 36.6666 36.6668 29.19 36.6668 20C36.6668 10.81 29.1902 3.33331 20.0002 3.33331ZM20.0002 33.3333C12.6485 33.3333 6.66683 27.3516 6.66683 20C6.66683 12.6483 12.6485 6.66665 20.0002 6.66665C27.3518 6.66665 33.3335 12.6483 33.3335 20C33.3335 27.3516 27.3518 33.3333 20.0002 33.3333Z" fill="#75CD22"/>
<path d="M24.7132 24.7134C24.4065 25.02 24.0749 25.2934 23.7282 25.5284C23.3699 25.77 22.9882 25.9767 22.5965 26.1417C22.1882 26.3134 21.7682 26.445 21.3465 26.53C20.4615 26.7084 19.5349 26.7084 18.6532 26.53C18.2299 26.4434 17.8099 26.3117 17.4049 26.1434C17.0115 25.975 16.6282 25.7684 16.2732 25.53C15.9232 25.2917 15.5915 25.0184 15.2832 24.71C14.9799 24.41 14.7065 24.0784 14.4699 23.7267L11.7065 25.5884C12.0649 26.12 12.4765 26.62 12.9282 27.07C13.3815 27.525 13.8799 27.9367 14.4082 28.2917C14.9415 28.6534 15.5132 28.9617 16.1099 29.215C16.7199 29.47 17.3499 29.6667 17.9882 29.7967C18.6482 29.9317 19.3265 30 19.9999 30C20.6732 30 21.3515 29.9317 22.0132 29.7967C22.6499 29.6684 23.2799 29.4717 23.8932 29.2134C24.4849 28.9634 25.0565 28.6534 25.5949 28.29C26.1182 27.935 26.6165 27.525 27.0699 27.0733C27.5232 26.6217 27.9365 26.1217 28.2932 25.5884L25.5299 23.7267C25.2915 24.0784 25.0182 24.41 24.7132 24.7134Z" fill="#75CD22"/>
<path d="M14.1665 20C15.5472 20 16.6665 18.8807 16.6665 17.5C16.6665 16.1193 15.5472 15 14.1665 15C12.7858 15 11.6665 16.1193 11.6665 17.5C11.6665 18.8807 12.7858 20 14.1665 20Z" fill="#75CD22"/>
<path d="M25.8332 16.6667C22.4998 16.6667 21.6665 20 21.6665 20H29.9998C29.9998 20 29.1648 16.6667 25.8332 16.6667Z" fill="#75CD22"/>
</svg>
