<svg width="554" height="424" viewBox="0 0 554 424" fill="none" xmlns="http://www.w3.org/2000/svg">
<g clip-path="url(#clip0)">
<path opacity="0.1" d="M142.214 415.46C111.219 415.46 86.0922 409.185 86.0922 401.444C86.0922 393.703 111.219 387.428 142.214 387.428C173.209 387.428 198.335 393.703 198.335 401.444C198.335 409.185 173.209 415.46 142.214 415.46Z" fill="#75CD22"/>
<path opacity="0.1" d="M536.916 292.74C543.265 294.914 550.971 299.348 549.672 306.398C549.023 309.971 546.124 312.619 543.372 314.855C531.613 324.385 518.689 332.381 504.91 338.651C498.334 341.633 491.34 344.369 486.373 349.868C481.405 355.368 479.103 363.056 477.489 370.469C473.702 388.023 472.766 406.071 474.717 423.923C454.89 424.3 432.936 423.855 418.906 409.587C410.507 401.042 406.004 388.367 396.127 381.754C389.541 377.343 381.423 376.249 373.582 375.329C336.468 370.995 299.162 368.371 261.663 367.457C245.951 367.075 229.895 366.939 215.225 361.468C200.555 355.998 187.237 344.039 184.256 327.826C183.796 325.327 183.495 322.573 181.784 320.83C180.258 319.266 177.97 318.893 175.833 318.617L46.9713 301.188C39.915 300.22 32.6114 299.189 26.6697 295.204C20.9218 291.331 17.0446 285.144 13.3371 279.111C4.84131 265.304 -3.9743 248.611 1.90924 232.823C6.61517 220.206 19.2643 212.939 31.3513 208.427C43.4383 203.915 56.4509 200.744 66.2746 191.898C81.221 178.439 84.536 156.096 88.7475 136.048C92.5584 117.893 97.9088 100.095 104.741 82.846C110.77 67.6731 118.112 52.718 129.055 40.9098C139.999 29.1016 155.056 20.7309 170.381 21.3312C190.397 22.1252 208.004 37.7096 228.053 35.7731C244.987 34.1512 258.765 20.5953 274.012 12.1616C301.079 -2.82255 333.027 -1.50569 362.643 3.16626C394.048 8.10933 425.647 16.7609 451.091 36.2185C456.906 40.6726 462.47 45.8141 465.887 52.5146C471.121 62.7929 470.67 75.3176 473.292 86.7385C483.857 132.732 540.503 151.918 552.148 197.577C556.287 213.786 553.224 231.366 545.63 246.345C537.464 262.472 521.059 269.346 512.65 283.188C518.272 288.315 529.472 290.189 536.916 292.74Z" fill="#75CD22"/>
<path d="M132.288 405.172C132.288 405.172 137.367 370.217 122.111 347.211C115.638 337.602 112.461 326.155 113.058 314.589C113.381 309.101 114.208 303.654 115.529 298.317" stroke="#535461" stroke-width="2" stroke-miterlimit="10"/>
<path d="M105.962 283.75C106.549 287.86 115.708 298.714 115.708 298.714C115.708 298.714 121.432 285.725 120.86 281.614C120.736 280.623 120.416 279.666 119.918 278.8C119.42 277.934 118.754 277.175 117.959 276.569C117.164 275.963 116.257 275.521 115.289 275.269C114.321 275.017 113.313 274.96 112.323 275.102C111.333 275.244 110.381 275.582 109.523 276.095C108.665 276.609 107.919 277.288 107.326 278.093C106.734 278.898 106.309 279.813 106.074 280.784C105.84 281.755 105.802 282.763 105.962 283.75Z" fill="#009F36"/>
<path d="M96.9091 308.281C99.6425 311.408 113.237 315.543 113.237 315.543C113.237 315.543 110.988 301.503 108.26 298.395C107.61 297.65 106.82 297.041 105.935 296.601C105.05 296.162 104.086 295.901 103.1 295.833C102.114 295.765 101.124 295.893 100.187 296.207C99.2497 296.522 98.3838 297.017 97.6385 297.666C96.8933 298.315 96.2832 299.104 95.8432 299.988C95.4032 300.873 95.1419 301.835 95.0741 302.82C95.0064 303.805 95.1336 304.794 95.4485 305.73C95.7633 306.667 96.2596 307.532 96.9091 308.276V308.281Z" fill="#009F36"/>
<path d="M103.016 347.109C106.956 348.435 120.783 345.172 120.783 345.172C120.783 345.172 111.759 334.202 107.819 332.88C105.963 332.363 103.979 332.577 102.276 333.478C100.573 334.378 99.2811 335.896 98.6655 337.72C98.0499 339.544 98.1579 341.534 98.9672 343.281C99.7765 345.027 101.226 346.398 103.016 347.109Z" fill="#009F36"/>
<path d="M114.279 375.45C117.938 377.421 132.119 376.516 132.119 376.516C132.119 376.516 125.082 364.185 121.423 362.214C119.665 361.268 117.604 361.057 115.692 361.629C114.745 361.913 113.863 362.379 113.097 363.003C112.331 363.627 111.695 364.395 111.226 365.264C110.757 366.133 110.463 367.086 110.363 368.068C110.263 369.051 110.357 370.043 110.64 370.989C110.924 371.935 111.391 372.816 112.015 373.581C112.64 374.347 113.409 374.982 114.279 375.45Z" fill="#009F36"/>
<path d="M128.992 314.105C126.453 317.392 113.125 322.335 113.125 322.335C113.125 322.335 114.54 308.208 117.08 304.906C118.301 303.328 120.1 302.299 122.08 302.046C124.06 301.793 126.061 302.336 127.64 303.556C129.22 304.775 130.25 306.572 130.503 308.551C130.757 310.529 130.213 312.527 128.992 314.105Z" fill="#009F36"/>
<path d="M141.729 347.414C138.337 349.791 124.132 350.517 124.132 350.517C124.132 350.517 129.705 337.445 133.117 335.083C133.927 334.5 134.844 334.083 135.817 333.858C136.789 333.633 137.797 333.603 138.781 333.77C139.765 333.937 140.706 334.298 141.549 334.832C142.392 335.366 143.12 336.062 143.691 336.88C144.262 337.698 144.665 338.621 144.875 339.595C145.086 340.57 145.101 341.577 144.918 342.557C144.735 343.538 144.359 344.472 143.812 345.306C143.265 346.139 142.557 346.856 141.729 347.414Z" fill="#009F36"/>
<path d="M149.663 381.488C146.706 384.392 132.841 387.515 132.841 387.515C132.841 387.515 136.127 373.703 139.088 370.798C139.787 370.088 140.621 369.523 141.541 369.138C142.461 368.752 143.449 368.553 144.446 368.553C145.444 368.552 146.431 368.749 147.352 369.133C148.273 369.517 149.108 370.08 149.808 370.789C150.509 371.498 151.062 372.339 151.435 373.264C151.807 374.188 151.992 375.177 151.978 376.174C151.965 377.17 151.753 378.154 151.355 379.068C150.958 379.982 150.383 380.808 149.663 381.497V381.488Z" fill="#009F36"/>
<path opacity="0.25" d="M105.962 283.75C106.549 287.86 115.708 298.714 115.708 298.714C115.708 298.714 121.432 285.725 120.86 281.614C120.736 280.623 120.416 279.666 119.918 278.8C119.42 277.934 118.754 277.175 117.959 276.569C117.164 275.963 116.257 275.521 115.289 275.269C114.321 275.017 113.313 274.96 112.323 275.102C111.333 275.244 110.381 275.582 109.523 276.095C108.665 276.609 107.919 277.288 107.326 278.093C106.734 278.898 106.309 279.813 106.074 280.784C105.84 281.755 105.802 282.763 105.962 283.75Z" fill="black"/>
<path opacity="0.25" d="M96.9091 308.281C99.6425 311.408 113.237 315.543 113.237 315.543C113.237 315.543 110.988 301.503 108.26 298.395C107.61 297.65 106.82 297.041 105.935 296.601C105.05 296.162 104.086 295.901 103.1 295.833C102.114 295.765 101.124 295.893 100.187 296.207C99.2497 296.522 98.3838 297.017 97.6385 297.666C96.8933 298.315 96.2832 299.104 95.8432 299.988C95.4032 300.873 95.1419 301.835 95.0741 302.82C95.0064 303.805 95.1336 304.794 95.4485 305.73C95.7633 306.667 96.2596 307.532 96.9091 308.276V308.281Z" fill="black"/>
<path opacity="0.25" d="M103.016 347.109C106.956 348.435 120.783 345.172 120.783 345.172C120.783 345.172 111.759 334.202 107.819 332.88C105.963 332.363 103.979 332.577 102.276 333.478C100.573 334.378 99.2811 335.896 98.6655 337.72C98.0499 339.544 98.1579 341.534 98.9672 343.281C99.7765 345.027 101.226 346.398 103.016 347.109Z" fill="black"/>
<path opacity="0.25" d="M114.279 375.45C117.938 377.421 132.119 376.516 132.119 376.516C132.119 376.516 125.082 364.185 121.423 362.214C119.665 361.268 117.604 361.057 115.692 361.629C114.745 361.913 113.863 362.379 113.097 363.003C112.331 363.627 111.695 364.395 111.226 365.264C110.757 366.133 110.463 367.086 110.363 368.068C110.263 369.051 110.357 370.043 110.64 370.989C110.924 371.935 111.391 372.816 112.015 373.581C112.64 374.347 113.409 374.982 114.279 375.45Z" fill="black"/>
<path opacity="0.25" d="M128.992 314.105C126.453 317.392 113.125 322.335 113.125 322.335C113.125 322.335 114.54 308.208 117.08 304.906C118.301 303.328 120.1 302.299 122.08 302.046C124.06 301.793 126.061 302.336 127.64 303.556C129.22 304.775 130.25 306.572 130.503 308.551C130.757 310.529 130.213 312.527 128.992 314.105Z" fill="black"/>
<path opacity="0.25" d="M141.729 347.414C138.337 349.791 124.132 350.517 124.132 350.517C124.132 350.517 129.705 337.445 133.117 335.083C133.927 334.5 134.844 334.083 135.817 333.858C136.789 333.633 137.797 333.603 138.781 333.77C139.765 333.937 140.706 334.298 141.549 334.832C142.392 335.366 143.12 336.062 143.691 336.88C144.262 337.698 144.665 338.621 144.875 339.595C145.086 340.57 145.101 341.577 144.918 342.557C144.735 343.538 144.359 344.472 143.812 345.306C143.265 346.139 142.557 346.856 141.729 347.414Z" fill="black"/>
<path opacity="0.25" d="M149.663 381.488C146.706 384.392 132.841 387.515 132.841 387.515C132.841 387.515 136.127 373.703 139.088 370.798C139.787 370.088 140.621 369.523 141.541 369.138C142.461 368.752 143.449 368.553 144.446 368.553C145.444 368.552 146.431 368.749 147.352 369.133C148.273 369.517 149.108 370.08 149.808 370.789C150.509 371.498 151.062 372.339 151.435 373.264C151.807 374.188 151.992 375.177 151.978 376.174C151.965 377.17 151.753 378.154 151.355 379.068C150.958 379.982 150.383 380.808 149.663 381.497V381.488Z" fill="black"/>
<path d="M131.871 404.063C131.871 404.063 150.695 374.163 146.057 346.935C144.033 335.535 145.766 323.788 150.995 313.456C153.519 308.57 156.486 303.925 159.859 299.581" stroke="#535461" stroke-width="2" stroke-miterlimit="10"/>
<path d="M157.048 282.408C155.924 286.407 159.893 300.036 159.893 300.036C159.893 300.036 170.41 290.489 171.524 286.48C171.793 285.53 171.872 284.536 171.756 283.555C171.64 282.574 171.331 281.626 170.849 280.764C170.366 279.902 169.718 279.144 168.941 278.532C168.165 277.92 167.276 277.467 166.324 277.199C165.373 276.931 164.378 276.852 163.396 276.968C162.414 277.084 161.465 277.392 160.602 277.874C159.739 278.357 158.98 279.004 158.368 279.78C157.756 280.555 157.302 281.443 157.034 282.394L157.048 282.408Z" fill="#009F36"/>
<path d="M138.826 301.174C140.052 305.139 150.801 314.425 150.801 314.425C150.801 314.425 154.436 300.704 153.224 296.734C152.635 294.829 151.312 293.235 149.547 292.304C147.781 291.373 145.718 291.18 143.81 291.769C141.903 292.358 140.308 293.679 139.376 295.443C138.443 297.207 138.251 299.268 138.84 301.174H138.826Z" fill="#009F36"/>
<path d="M128.668 339.15C131.731 341.953 145.703 344.548 145.703 344.548C145.703 344.548 141.904 330.871 138.841 328.087C137.369 326.739 135.421 326.03 133.426 326.116C131.431 326.202 129.552 327.077 128.203 328.547C126.853 330.017 126.143 331.963 126.23 333.956C126.316 335.949 127.191 337.826 128.663 339.174L128.668 339.15Z" fill="#009F36"/>
<path d="M127.456 369.612C130 372.894 143.333 377.808 143.333 377.808C143.333 377.808 141.879 363.686 139.359 360.379C138.764 359.572 138.013 358.893 137.151 358.38C136.289 357.867 135.334 357.531 134.34 357.393C133.346 357.254 132.335 357.315 131.365 357.573C130.396 357.83 129.488 358.279 128.694 358.892C127.901 359.505 127.238 360.271 126.745 361.144C126.252 362.017 125.938 362.979 125.823 363.975C125.708 364.97 125.793 365.979 126.073 366.941C126.354 367.903 126.824 368.8 127.456 369.578V369.612Z" fill="#009F36"/>
<path d="M165.792 319.479C162.137 321.459 147.957 320.573 147.957 320.573C147.957 320.573 154.974 308.233 158.619 306.257C159.488 305.787 160.441 305.492 161.424 305.389C162.408 305.287 163.401 305.379 164.349 305.66C165.296 305.941 166.179 306.406 166.947 307.028C167.715 307.65 168.352 308.417 168.823 309.286C169.294 310.154 169.589 311.106 169.692 312.088C169.794 313.07 169.702 314.063 169.421 315.009C169.139 315.956 168.674 316.838 168.051 317.605C167.429 318.372 166.661 319.009 165.792 319.479Z" fill="#009F36"/>
<path d="M163.926 355.092C159.845 355.886 146.575 350.808 146.575 350.808C146.575 350.808 156.971 341.125 161.052 340.336C162.032 340.122 163.045 340.105 164.031 340.287C165.018 340.47 165.958 340.847 166.796 341.398C167.634 341.948 168.354 342.661 168.913 343.493C169.471 344.325 169.858 345.261 170.049 346.245C170.241 347.228 170.234 348.24 170.028 349.221C169.823 350.202 169.423 351.132 168.852 351.957C168.282 352.781 167.552 353.483 166.706 354.021C165.86 354.56 164.915 354.924 163.926 355.092Z" fill="#009F36"/>
<path d="M157.359 389.457C153.482 390.909 139.534 388.154 139.534 388.154C139.534 388.154 148.141 376.864 152.028 375.392C153.863 374.806 155.854 374.946 157.589 375.782C159.325 376.618 160.673 378.088 161.356 379.888C162.04 381.687 162.006 383.68 161.262 385.456C160.519 387.232 159.121 388.655 157.359 389.432V389.457Z" fill="#009F36"/>
<path d="M415.572 27.9978V41.2536V369.539H169.664V41.2536V27.9978H415.572Z" fill="url(#paint0_linear)"/>
<path d="M171.82 30.9946H413.415V44.0132H171.82V30.9946Z" fill="#F6F7F9"/>
<g opacity="0.2">
<path opacity="0.2" d="M171.82 30.9946H413.415V44.0132H171.82V30.9946Z" fill="#75CD22"/>
</g>
<path d="M171.82 44.0132H413.415V366.542H171.82V44.0132Z" fill="#F6F7F9"/>
<path d="M407.061 39.7139C405.84 39.7139 404.851 38.7255 404.851 37.5063C404.851 36.287 405.84 35.2986 407.061 35.2986C408.282 35.2986 409.271 36.287 409.271 37.5063C409.271 38.7255 408.282 39.7139 407.061 39.7139Z" fill="#F6F7F9"/>
<path d="M401.071 39.7139C399.851 39.7139 398.861 38.7255 398.861 37.5063C398.861 36.287 399.851 35.2986 401.071 35.2986C402.292 35.2986 403.281 36.287 403.281 37.5063C403.281 38.7255 402.292 39.7139 401.071 39.7139Z" fill="#F6F7F9"/>
<path d="M395.081 39.7139C393.861 39.7139 392.871 38.7255 392.871 37.5063C392.871 36.287 393.861 35.2986 395.081 35.2986C396.302 35.2986 397.291 36.287 397.291 37.5063C397.291 38.7255 396.302 39.7139 395.081 39.7139Z" fill="#F6F7F9"/>
<g opacity="0.2">
<path opacity="0.2" d="M214.944 63.8967H370.296V69.9727H214.944V63.8967Z" fill="#75CD22"/>
</g>
<path d="M214.944 63.8967H235.585V69.9727H214.944V63.8967Z" fill="#009F36"/>
<g opacity="0.2">
<path opacity="0.2" d="M194.856 98.5079H390.38V168.461H194.856V98.5079Z" fill="#75CD22"/>
</g>
<path d="M222.727 124.003H335.508V130.079H222.727V124.003Z" fill="#F6F7F9"/>
<path d="M276.997 136.891H335.508V142.966H276.997V136.891Z" fill="#F6F7F9"/>
<path d="M214.944 155.297H235.585V161.373H214.944V155.297Z" fill="#009F36"/>
<path d="M366.792 144.525C360.687 144.525 355.737 139.581 355.737 133.482C355.737 127.383 360.687 122.439 366.792 122.439C372.897 122.439 377.847 127.383 377.847 133.482C377.847 139.581 372.897 144.525 366.792 144.525Z" fill="#F6F7F9"/>
<g opacity="0.2">
<path opacity="0.2" d="M194.856 188.069H390.38V258.022H194.856V188.069Z" fill="#75CD22"/>
</g>
<path d="M222.727 213.564H335.508V219.64H222.727V213.564Z" fill="#F6F7F9"/>
<path d="M276.997 226.452H335.508V232.528H276.997V226.452Z" fill="#F6F7F9"/>
<path d="M214.944 244.859H235.585V250.934H214.944V244.859Z" fill="#009F36"/>
<path d="M366.792 234.086C360.687 234.086 355.737 229.142 355.737 223.043C355.737 216.944 360.687 212 366.792 212C372.897 212 377.847 216.944 377.847 223.043C377.847 229.142 372.897 234.086 366.792 234.086Z" fill="#F6F7F9"/>
<g opacity="0.2">
<path opacity="0.2" d="M194.856 277.63H390.38V347.583H194.856V277.63Z" fill="#75CD22"/>
</g>
<path d="M222.727 303.125H335.508V309.201H222.727V303.125Z" fill="#F6F7F9"/>
<path d="M276.997 316.013H335.508V322.089H276.997V316.013Z" fill="#F6F7F9"/>
<path d="M214.944 334.42H235.585V340.496H214.944V334.42Z" fill="#009F36"/>
<path d="M366.792 323.648C360.687 323.648 355.737 318.703 355.737 312.604C355.737 306.505 360.687 301.561 366.792 301.561C372.897 301.561 377.847 306.505 377.847 312.604C377.847 318.703 372.897 323.648 366.792 323.648Z" fill="#F6F7F9"/>
<path d="M474.737 219.993C476.612 228.519 479.995 239.025 479.995 239.025C476.651 242.922 462.063 243.619 462.063 243.619L462.039 243.59H461.811C461.709 244.128 461.593 244.646 461.453 245.139C461.478 245.627 461.503 246.121 461.525 246.621C461.733 247.204 461.805 247.827 461.734 248.441C461.705 248.579 461.67 248.714 461.627 248.848C461.976 256.565 462.223 264.795 462.01 269.55C462.009 270.896 461.871 272.24 461.598 273.558C461.346 274.565 461.203 275.596 461.172 276.633C460.934 283.59 462.625 295.277 462.625 295.277C462.625 295.277 462.582 295.437 462.558 295.519C462.587 295.717 462.606 295.834 462.606 295.834C462.459 296.305 462.376 296.793 462.359 297.286C462.233 303.154 465.601 315.921 465.601 315.921C465.601 315.921 468.325 335.553 467.937 343.032C467.925 343.63 467.881 344.226 467.806 344.819C466.973 351.04 465.868 368.411 465.868 368.411C465.674 368.698 465.462 368.971 465.233 369.229C465.33 369.617 465.446 370.009 465.572 370.396C466.876 374.311 467.427 378.438 467.196 382.558C467.162 383.042 467.123 383.569 467.074 384.102C466.517 390.512 450.994 386.523 449.971 385.777C449.622 385.521 449.87 383.197 450.349 380.248L434.356 384.194C434.356 384.194 423.016 385.869 417.621 384.194C412.227 382.519 412.416 377.9 420.132 377.14C425.536 376.617 429.825 371.592 431.943 368.624C431.124 366.392 424.983 349.452 423.854 338.966C423.123 332.191 421.927 325.475 420.272 318.864L419.066 303.26L416.924 294.062L414.37 281.9C411.486 272.982 410.604 258.076 410.604 258.076L408.375 243.45C408.064 241.86 407.89 240.247 407.856 238.628C405.765 239.056 403.702 239.607 401.677 240.279C398.187 237.567 403.131 211.443 403.131 211.443C403.131 211.443 405.51 194.944 407.526 179.902C402.908 179.209 397.901 180.294 397.901 180.294L368.614 180.938C368.006 180.141 367.48 179.284 367.044 178.381H365.789C365.633 178.165 365.511 177.927 365.425 177.675L364.907 177.771C363.003 178.211 361.131 178.779 359.304 179.471C359.304 179.471 350.067 180.584 351.463 170.906C352.5 163.693 360.72 166.312 364.829 168.103L365.348 168.34C365.387 168.069 365.411 167.914 365.411 167.914L366.734 168.156C366.816 167.955 366.908 167.758 367.01 167.566C367.01 167.566 381.375 167.009 393.021 165.266C401.304 164.027 407.56 159.297 410.502 156.673C412.542 146.326 418.47 143.184 418.47 143.184C421.76 143.02 424.726 141.572 426.549 140.454C427.207 140.061 427.839 139.624 428.439 139.147L428.759 139.331L428.797 139.297C426.825 137.467 424.78 135.787 422.982 134.378L422.172 133.753C419.343 133.477 416.619 132.533 414.226 131C411.832 129.467 409.837 127.388 408.404 124.935C406.972 122.481 406.143 119.723 405.985 116.887C405.827 114.051 406.346 111.218 407.497 108.622C407.575 108.447 407.667 108.273 407.749 108.104C406.849 108.004 406.008 107.605 405.363 106.97C404.718 106.335 404.305 105.501 404.192 104.603C404.013 102.575 405.413 100.415 404.497 98.5951C404.329 98.3251 404.183 98.0417 404.061 97.7479C403.985 97.4706 403.962 97.1816 403.993 96.8958C404.061 96.0384 404.312 95.2056 404.73 94.4538C405.149 93.702 405.724 93.0488 406.417 92.5385C408.496 91.0329 410.342 91.7978 412.615 91.6671C415.242 91.517 417.844 90.8828 420.432 90.4567C423.403 89.9726 426.447 89.6434 429.413 90.1614C432.379 90.6794 435.282 92.1319 437.002 94.601C437.739 95.6564 438.238 96.8619 438.941 97.9512C439.731 99.21 440.754 100.299 441.66 101.471C443.186 103.441 444.422 105.804 444.301 108.292C444.233 109.701 443.734 111.057 443.637 112.466C443.633 113.778 443.73 115.09 443.928 116.387C444.078 118.059 443.982 119.744 443.642 121.388C443.574 121.903 443.377 122.393 443.07 122.812C442.724 123.182 442.291 123.46 441.81 123.62C441.307 123.819 440.79 123.98 440.264 124.104C440.853 125.473 441.579 126.779 442.43 128.002L443.215 127.188L445.338 130.5L445.421 130.277C445.522 130.485 445.639 130.684 445.76 130.882L445.978 130.277C446.918 132.161 448.677 133.734 450.732 135.031C456.286 138.517 464.036 139.96 464.036 139.96C476.52 141.771 474.213 154.654 474.213 154.654C474.213 154.654 479.51 177.641 480.998 191.85C482.486 206.06 476.956 215.113 476.956 215.113L474.737 219.993ZM415.198 177.98C414.714 179.563 414.287 181.063 413.924 182.376L414.156 182.468C414.423 181.252 414.786 179.693 415.184 177.98H415.198ZM428.933 139.408L429.001 139.452L428.938 139.389L428.933 139.408ZM450.466 379.604C451.076 375.959 451.988 371.558 452.55 368.929C452.152 367.636 451.624 365.661 451.004 362.722C449.608 356.133 448.774 332.817 448.774 332.817L445.518 313.229C442.542 305.705 441.892 296.768 441.892 296.768C440.695 293.611 437.928 274.289 437.487 271.186C437.613 273.331 437.914 278.763 438.073 284.795C438.073 284.849 438.073 284.907 438.073 284.96C438.195 289.516 438.229 294.401 438.073 298.453C438.03 299.591 437.972 300.67 437.894 301.668C437.87 301.924 437.855 302.19 437.846 302.452C437.497 312.958 442.207 326.175 442.207 326.175C442.207 326.175 444.306 335.974 443.996 341.449C443.999 342.433 443.859 343.411 443.579 344.354C443.44 344.79 443.36 345.243 443.342 345.7C443.254 350.938 446.351 361.933 447.141 364.63C448.866 368.184 450.151 377.242 450.466 379.604Z" fill="url(#paint1_linear)"/>
<path d="M433.188 365.308C433.188 365.308 427.751 375.155 420.103 375.891C412.455 376.627 412.271 381.216 417.617 382.887C422.963 384.557 434.201 382.887 434.201 382.887L450.233 378.931C450.233 378.931 448.295 363.1 445.721 362.272C443.148 361.444 433.188 365.308 433.188 365.308Z" fill="#4C4C78"/>
<path d="M452.724 365.472C452.724 365.472 448.668 383.695 449.681 384.436C450.694 385.177 466.081 389.127 466.643 382.775C466.692 382.248 466.73 381.735 466.759 381.246C466.993 377.162 466.447 373.071 465.15 369.19C464.708 368.002 464.495 366.74 464.525 365.472C464.792 362.916 452.724 365.472 452.724 365.472Z" fill="#4C4C78"/>
<path d="M447.698 134.765C447.698 134.765 435.262 165.266 437.472 155.486C438.926 148.989 429.471 140.367 422.933 135.298C419.603 132.712 417.025 131.052 417.025 131.052C417.025 131.052 440.385 103.853 438.727 115.588C438.274 118.802 438.715 122.078 440.002 125.058C441.706 128.891 444.353 132.231 447.698 134.765Z" fill="#FFB9B9"/>
<path d="M368.227 178.11C367.276 177.979 366.308 178.039 365.382 178.289C363.495 178.722 361.641 179.285 359.833 179.974C359.833 179.974 350.673 181.078 352.078 171.487C353.106 164.332 361.248 166.927 365.324 168.708C366.71 169.313 367.63 169.827 367.63 169.827L368.227 178.11Z" fill="#FFB9B9"/>
<path opacity="0.1" d="M368.227 178.11C367.276 177.979 366.308 178.04 365.382 178.289C364.388 175.777 365.144 169.827 365.304 168.708C366.69 169.313 367.611 169.827 367.611 169.827L368.227 178.11Z" fill="black"/>
<path d="M368.275 168.975L365.881 168.534C365.881 168.534 364.65 176.764 366.254 178.914H369.012L368.275 168.975Z" fill="#CBCDDA"/>
<path d="M416.328 183.978C416.328 183.978 409 179.621 408.128 185.125C407.255 190.63 406.097 200.085 406.097 200.085L404.071 212.097L401.444 236.168L401.813 240.264C401.813 240.264 409.601 237.659 411.442 238.56C413.284 239.46 414.762 228.461 414.762 228.461L417.801 217.045L418.286 192.838L416.328 183.978Z" fill="#4C4C78"/>
<path opacity="0.1" d="M416.328 183.978C416.328 183.978 409 179.621 408.128 185.125C407.255 190.63 406.097 200.085 406.097 200.085L404.071 212.097L401.444 236.168L401.813 240.264C401.813 240.264 409.601 237.659 411.442 238.56C413.284 239.46 414.762 228.461 414.762 228.461L417.801 217.045L418.286 192.838L416.328 183.978Z" fill="black"/>
<path d="M412.387 155.627C412.387 155.627 404.783 164.186 393.244 165.915C381.704 167.643 367.466 168.19 367.466 168.19C367.466 168.19 363.874 174.61 369.055 181.446L398.081 180.807C398.081 180.807 404.507 179.413 409.484 180.807L412.387 155.627Z" fill="#4C4C78"/>
<path opacity="0.05" d="M412.387 155.627C412.387 155.627 404.783 164.186 393.244 165.915C381.704 167.643 367.466 168.19 367.466 168.19C367.466 168.19 363.874 174.61 369.055 181.446L398.081 180.807C398.081 180.807 404.507 179.413 409.484 180.807L412.387 155.627Z" fill="black"/>
<path opacity="0.1" d="M438.762 124.792C435.926 130.849 431.007 135.317 423.854 135.317C423.539 135.317 423.234 135.317 422.924 135.317C419.594 132.732 417.016 131.071 417.016 131.071C417.016 131.071 440.376 103.872 438.718 115.608C438.209 119.176 437.623 122.095 438.762 124.792Z" fill="black"/>
<path d="M441.66 116.978C441.661 120.496 440.617 123.935 438.662 126.861C436.706 129.786 433.926 132.067 430.672 133.414C427.419 134.761 423.839 135.115 420.385 134.429C416.931 133.744 413.758 132.051 411.267 129.564C408.776 127.077 407.079 123.908 406.391 120.458C405.703 117.007 406.055 113.431 407.402 110.18C408.748 106.93 411.03 104.151 413.957 102.196C416.885 100.24 420.327 99.1963 423.849 99.1954C426.189 99.1896 428.507 99.6456 430.669 100.537C432.832 101.429 434.798 102.738 436.452 104.39C438.107 106.043 439.419 108.005 440.313 110.165C441.206 112.325 441.664 114.641 441.66 116.978Z" fill="#FFB9B9"/>
<path d="M452.54 225.672C452.54 225.672 412.828 229.173 411.345 224.108C409.862 219.044 415.397 205.333 415.397 205.333L413.623 186.186L413.555 185.45C413.555 185.45 418.518 164.738 418.353 163.102C418.184 161.616 426.364 144.22 428.046 140.681L428.352 140.042L428.667 140.226L428.802 140.309L430.741 141.442L438.432 139.631L447.689 134.789L448.566 187.754L452.54 225.672Z" fill="#CBCDDA"/>
<path opacity="0.1" d="M431.899 140.667C431.899 140.667 429.18 139.931 428.119 142.647C427.709 143.807 427.224 144.94 426.665 146.036L425.603 152.33L423.665 162.269L422.24 206.326L422.88 214.169L426.427 207.875L427.072 166.723V161.591C427.281 157.163 428.282 152.808 430.028 148.733L430.513 147.575L433.6 143.62L431.899 140.667Z" fill="black"/>
<path d="M431.346 140.115C431.346 140.115 428.628 139.379 427.566 142.095C427.157 143.255 426.671 144.388 426.112 145.484L425.051 151.778L423.112 161.717L421.683 205.774L422.332 213.598L425.88 207.304L426.524 166.152V161.02C426.732 156.592 427.731 152.237 429.476 148.161L429.96 147.004L433.057 143.063L431.346 140.115Z" fill="#4C4C78"/>
<path opacity="0.1" d="M442.954 128.728C442.954 128.728 433.557 138.672 430.242 139.863C430.242 139.863 431.899 147.411 433.557 148.883C433.557 148.883 443.419 138.837 445.188 138.023L446.642 134.446L442.954 128.728Z" fill="black"/>
<path d="M442.954 128.195C442.954 128.195 433.557 138.14 430.242 139.331C430.242 139.331 431.899 146.878 433.557 148.35C433.557 148.35 443.419 138.304 445.188 137.491L446.642 133.913L442.954 128.195Z" fill="#CBCDDA"/>
<path opacity="0.1" d="M428.899 140.033L428.802 140.289L425.788 148.355L420.408 163.586C420.408 163.586 420.355 163.741 420.263 164.031C419.371 166.801 414.573 181.833 413.628 186.205L413.56 185.469C413.56 185.469 418.518 164.738 418.354 163.102C418.184 161.616 426.365 144.22 428.046 140.681C428.313 140.497 428.531 140.342 428.667 140.226L428.899 140.033Z" fill="black"/>
<path d="M428.352 140.023L425.24 148.355L419.856 163.586C419.856 163.586 419.802 163.741 419.71 164.031C418.765 166.985 413.381 183.833 412.925 186.917C412.441 190.306 405.656 208.597 405.656 208.597L401.779 240.283C398.323 237.592 403.233 211.719 403.233 211.719C403.233 211.719 408.762 173.337 410.071 160.57C411.379 147.803 418.47 144.027 418.47 144.027C421.731 143.862 424.668 142.429 426.476 141.32C427.129 140.93 427.756 140.497 428.352 140.023Z" fill="#4C4C78"/>
<path opacity="0.1" d="M467.37 343.86C466.542 350.028 465.432 367.244 465.432 367.244C461.555 373.054 452.991 369.912 452.991 369.912C452.991 369.912 452.075 368.159 450.694 361.623C449.313 355.088 448.479 331.984 448.479 331.984L445.251 312.566C442.305 305.11 441.66 296.274 441.66 296.274C440.371 292.885 437.235 270.499 437.235 270.499C437.235 270.499 438.529 290.566 437.72 301.15C436.911 311.733 441.956 326.005 441.956 326.005C441.956 326.005 444.815 339.353 443.337 343.492C441.859 347.632 447.025 364.756 447.025 364.756C446.565 369.728 431.914 367.699 431.914 367.699C431.914 367.699 425.003 349.2 423.806 338.06C423.081 331.344 421.894 324.686 420.253 318.133L419.061 302.67L416.938 293.558L414.404 281.503C411.549 272.663 410.672 257.892 410.672 257.892L408.462 243.397C407.008 236.226 408.884 227.822 410.144 223.406C410.687 221.504 411.113 220.337 411.113 220.337C412.383 221.237 419.652 222.274 423.413 223.15C425.478 223.622 427.601 223.785 429.714 223.634C439.218 222.884 448.62 221.166 457.774 218.507L458.744 218.216L458.938 219.872L459.393 223.823L460.198 230.828C460.198 230.828 462.689 268.199 461.215 273.263C459.742 278.327 462.228 295.335 462.228 295.335C460.847 299.373 465.175 315.785 465.175 315.785C465.175 315.785 468.199 337.697 467.37 343.86Z" fill="black"/>
<path d="M467.37 343.308C466.541 349.476 465.431 366.692 465.431 366.692C461.554 372.502 452.991 369.36 452.991 369.36C452.991 369.36 452.075 367.607 450.693 361.071C449.312 354.536 448.479 331.432 448.479 331.432L445.251 312.014C442.304 304.558 441.66 295.722 441.66 295.722C440.371 292.333 437.235 269.947 437.235 269.947C437.235 269.947 438.529 290.014 437.72 300.598C436.91 311.181 441.955 325.453 441.955 325.453C441.955 325.453 444.815 338.801 443.337 342.94C441.858 347.08 447.025 364.204 447.025 364.204C446.564 369.176 431.914 367.147 431.914 367.147C431.914 367.147 425.003 348.648 423.805 337.508C423.081 330.792 421.894 324.134 420.253 317.581L419.061 302.118L416.938 293.006L414.403 280.951C411.549 272.111 410.672 257.34 410.672 257.34L408.462 242.84C407.008 235.674 408.883 227.27 410.143 222.854C410.686 220.952 411.113 219.785 411.113 219.785C412.382 220.685 419.652 221.722 423.413 222.598C425.477 223.07 427.601 223.233 429.713 223.082C439.217 222.332 448.62 220.614 457.774 217.955L458.743 217.664L458.937 219.32L459.393 223.271L460.197 230.276C460.197 230.276 462.688 267.647 461.215 272.711C459.742 277.775 462.213 294.788 462.213 294.788C460.832 298.826 465.16 315.238 465.16 315.238C465.16 315.238 468.199 337.145 467.37 343.308Z" fill="#474463"/>
<path opacity="0.1" d="M441.66 116.978C441.661 120.082 440.847 123.132 439.299 125.823C436.527 126.307 433.576 125.775 431.477 123.94C430.057 122.691 429.141 120.982 427.92 119.534C427.131 118.641 426.281 117.803 425.376 117.026C424.788 116.44 424.111 115.949 423.369 115.574C422.995 115.383 422.581 115.28 422.161 115.275C421.741 115.27 421.325 115.363 420.946 115.545C419.977 116.092 419.628 117.307 419.075 118.28C418.648 119.112 417.918 119.747 417.035 120.057C416.595 120.195 416.123 120.189 415.687 120.04C415.251 119.891 414.875 119.607 414.612 119.229C414.011 118.193 414.452 116.576 413.439 115.947C413.173 115.815 412.897 115.704 412.615 115.613C411.311 115.022 411.161 113.274 411.054 111.851C410.996 111.149 410.846 110.355 410.255 109.977C409.664 109.6 408.893 109.788 408.19 109.808C407.982 109.812 407.774 109.794 407.57 109.755C409.224 106.026 412.11 102.978 415.745 101.122C419.38 99.2662 423.543 98.7143 427.537 99.559C431.531 100.404 435.113 102.594 437.683 105.762C440.253 108.931 441.655 112.885 441.655 116.963L441.66 116.978Z" fill="black"/>
<path d="M406.504 93.8699C405.818 94.372 405.249 95.016 404.835 95.7579C404.421 96.4998 404.172 97.3222 404.105 98.169C404.072 98.4529 404.094 98.7404 404.168 99.0163C404.29 99.3075 404.435 99.5891 404.599 99.8587C405.51 101.66 404.115 103.8 404.299 105.814C404.416 106.763 404.873 107.638 405.586 108.277C406.298 108.916 407.218 109.276 408.176 109.29C408.879 109.29 409.63 109.082 410.241 109.459C410.851 109.837 410.982 110.631 411.04 111.333C411.152 112.761 411.297 114.509 412.601 115.095C412.882 115.19 413.158 115.303 413.425 115.433C414.438 116.063 413.992 117.685 414.598 118.711C414.859 119.09 415.236 119.376 415.672 119.526C416.108 119.676 416.581 119.682 417.021 119.544C417.902 119.233 418.632 118.597 419.061 117.767C419.618 116.799 419.953 115.579 420.932 115.032C421.31 114.85 421.726 114.757 422.146 114.761C422.566 114.766 422.98 114.866 423.355 115.056C424.096 115.432 424.773 115.922 425.361 116.508C426.265 117.286 427.115 118.124 427.906 119.016C429.127 120.469 430.043 122.173 431.468 123.422C434.143 125.77 438.253 126.002 441.548 124.666C442.024 124.505 442.453 124.231 442.799 123.867C443.11 123.446 443.31 122.953 443.38 122.434C443.715 120.804 443.812 119.134 443.666 117.477C443.469 116.195 443.372 114.9 443.376 113.603C443.468 112.209 443.967 110.863 444.035 109.469C444.156 107.005 442.93 104.661 441.418 102.691C440.516 101.529 439.503 100.449 438.723 99.2051C438.045 98.1254 437.55 96.9296 436.818 95.8839C435.112 93.4632 432.234 92.0108 429.297 91.483C426.36 90.9553 423.34 91.2894 420.394 91.7735C417.83 92.1996 415.252 92.8241 412.64 92.9742C410.396 93.1098 408.564 92.3497 406.504 93.8699Z" fill="#472727"/>
<path opacity="0.1" d="M428.352 140.023L425.24 148.355L419.856 163.586C419.856 163.586 419.802 163.741 419.71 164.031L426.495 141.32C427.142 140.929 427.762 140.496 428.352 140.023Z" fill="black"/>
<path d="M461.981 235.34C461.981 235.34 462.305 245.415 459.586 247.928L452.356 234.304L458.433 231.366L461.981 235.34Z" fill="#FFB9B9"/>
<path opacity="0.1" d="M478.866 239.02C475.546 242.893 461.108 243.576 461.108 243.576L446.797 221.073C446.797 221.073 443.404 218.725 437.06 208.161C430.716 197.597 430.91 189.454 431.245 183.378C431.579 177.302 435.607 159.834 435.607 159.834C436.222 155.903 445.135 131.27 445.135 131.27C446.07 133.138 447.81 134.693 449.85 135.98C455.351 139.423 463.042 140.831 463.042 140.831C475.415 142.628 473.132 155.399 473.132 155.399C473.132 155.399 473.283 205.057 472.507 210.993C471.732 216.929 478.866 239.02 478.866 239.02Z" fill="black"/>
<path d="M462.165 237.272L461.753 240.951L456.727 239.112L453.044 233.544L455.807 231.38L462.165 237.272Z" fill="#CBCDDA"/>
<path opacity="0.1" d="M461.991 223.005L459.364 223.271L434.027 225.798C429.962 226.206 425.858 226.005 421.853 225.203L410.11 222.854C410.653 220.952 411.079 219.785 411.079 219.785C412.349 220.686 419.618 221.722 423.379 222.598C425.444 223.07 427.567 223.233 429.68 223.082C439.195 222.334 448.609 220.616 457.774 217.955L458.918 219.32L461.991 223.005Z" fill="black"/>
<g opacity="0.1">
<path opacity="0.1" d="M411.37 219.925C411.285 219.883 411.203 219.836 411.123 219.785L411.099 219.853L411.37 219.925Z" fill="black"/>
<path opacity="0.1" d="M465.184 315.233C465.184 315.233 460.852 298.821 462.238 294.783C462.238 294.783 459.747 277.775 461.225 272.711C462.703 267.647 460.207 230.276 460.207 230.276L459.388 223.271L458.903 219.32L458.709 217.664C458.709 217.664 458.38 217.771 457.74 217.955L457.154 218.129L457.289 218.778L457.75 222.729L458.569 229.734C458.569 229.734 461.055 267.1 459.587 272.169C458.118 277.238 460.595 294.241 460.595 294.241C459.213 298.279 463.541 314.691 463.541 314.691C463.541 314.691 466.585 336.603 465.756 342.771C464.927 348.939 463.818 366.15 463.818 366.15C460.992 370.391 455.656 369.859 452.991 369.263C453.02 369.336 453.039 369.374 453.039 369.374C453.039 369.374 461.608 372.502 465.48 366.707C465.48 366.707 466.585 349.491 467.418 343.323C468.252 337.155 465.184 315.233 465.184 315.233Z" fill="black"/>
<path opacity="0.1" d="M443.346 342.94C444.8 338.801 441.96 325.453 441.96 325.453C441.96 325.453 436.9 311.186 437.729 300.598C438.073 296.187 438.049 290.135 437.904 284.573C436.726 277.407 435.606 269.395 435.606 269.395C435.606 269.395 436.9 289.458 436.067 300.046C435.233 310.634 440.303 324.901 440.303 324.901C440.303 324.901 443.162 338.249 441.684 342.389C440.206 346.528 445.372 363.652 445.372 363.652C445.004 367.636 435.534 367.128 431.802 366.765L431.943 367.147C431.943 367.147 446.593 369.176 447.049 364.204C447.029 364.204 441.873 347.075 443.346 342.94Z" fill="black"/>
</g>
<path d="M479.418 239.02C476.099 242.893 461.661 243.576 461.661 243.576L447.354 221.073C447.354 221.073 443.962 218.725 437.613 208.161C431.264 197.597 431.463 189.454 431.797 183.378C432.132 177.302 436.159 159.834 436.159 159.834C436.775 155.903 445.687 131.27 445.687 131.27C446.623 133.138 448.363 134.693 450.403 135.98C455.908 139.423 463.59 140.831 463.59 140.831C475.963 142.628 473.68 155.399 473.68 155.399C473.68 155.399 473.816 205.038 473.055 210.974C472.294 216.909 479.418 239.02 479.418 239.02Z" fill="#4C4C78"/>
<path opacity="0.1" d="M448.323 143.475L445.212 144.646L447.286 146.099L431.816 183.378C432.175 177.302 436.178 159.834 436.178 159.834C436.794 155.903 445.706 131.27 445.706 131.27C446.642 133.138 448.382 134.693 450.422 135.98L448.323 143.475Z" fill="black"/>
<path opacity="0.1" d="M452.05 209.884L467.879 205.813L469.953 212.232L453.781 216.168L452.05 209.884Z" fill="black"/>
<path opacity="0.1" d="M461.108 146.099C461.108 146.099 453.921 152.877 456.616 167.914C459.31 182.952 463.663 199.325 463.663 199.325L451.958 231.704C451.958 231.704 460.115 240.196 464.123 241.228L475.803 215.341C475.803 215.341 481.26 206.365 479.811 192.286C478.362 178.207 473.108 155.419 473.108 155.419C473.108 155.419 473.132 141.543 461.108 146.099Z" fill="black"/>
<path d="M461.651 146.099C461.651 146.099 454.464 152.877 457.159 167.914C459.853 182.952 464.205 199.325 464.205 199.325L452.54 231.704C452.54 231.704 460.682 240.196 464.7 241.228L476.38 215.341C476.38 215.341 481.837 206.365 480.388 192.286C478.938 178.207 473.685 155.419 473.685 155.419C473.685 155.419 473.685 141.543 461.651 146.099Z" fill="#4C4C78"/>
<path opacity="0.1" d="M452.928 232.392C452.928 232.392 462.049 244.98 461.355 248.369C460.662 251.758 457.992 249.932 457.992 249.932L454.381 245.004L451.154 235.805C451.154 235.805 451.474 231.85 452.928 232.392Z" fill="black"/>
<path opacity="0.1" d="M451.799 232.392C451.799 232.392 460.925 244.98 460.231 248.369C459.538 251.758 456.868 249.932 456.868 249.932L453.277 245.009L450.049 235.81C450.049 235.81 450.364 231.85 451.799 232.392Z" fill="black"/>
<path d="M452.356 232.392C452.356 232.392 461.477 244.98 460.784 248.369C460.091 251.758 457.42 249.932 457.42 249.932L453.829 245.009L450.601 235.81C450.601 235.81 450.916 231.85 452.356 232.392Z" fill="#474463"/>
</g>
<defs>
<linearGradient id="paint0_linear" x1="292.618" y1="369.539" x2="292.618" y2="27.9978" gradientUnits="userSpaceOnUse">
<stop stop-color="#808080" stop-opacity="0.25"/>
<stop offset="0.54" stop-color="#808080" stop-opacity="0.12"/>
<stop offset="1" stop-color="#808080" stop-opacity="0.1"/>
</linearGradient>
<linearGradient id="paint1_linear" x1="134422" y1="242144" x2="134422" y2="58995.4" gradientUnits="userSpaceOnUse">
<stop stop-color="#808080" stop-opacity="0.25"/>
<stop offset="0.54" stop-color="#808080" stop-opacity="0.12"/>
<stop offset="1" stop-color="#808080" stop-opacity="0.1"/>
</linearGradient>
<clipPath id="clip0">
<rect width="554" height="424" transform="matrix(-1 0 0 1 554 0)" fill="white"/>
</clipPath>
</defs>
</svg>
