<svg width="570" height="433" viewBox="0 0 570 433" fill="none" xmlns="http://www.w3.org/2000/svg">
<g clip-path="url(#clip0)">
<path opacity="0.1" d="M562.748 124.783C562.649 125.248 562.555 125.712 562.445 126.172C559.021 141.965 553.424 157.184 545.102 171.16C544.825 171.624 544.548 172.089 544.267 172.554C538.779 181.546 532.213 189.834 524.715 197.233C520.569 201.326 516.048 205.215 510.671 208.019C503.137 211.955 494.329 213.553 485.673 214.858C476.683 216.221 467.567 217.359 458.478 218.586C455.248 219.014 452.037 219.468 448.845 219.948C440.064 221.248 431.345 222.752 422.835 224.746C412.315 227.205 402.119 230.427 392.487 234.958C391.717 235.306 390.957 235.675 390.205 236.065C389.453 236.441 388.696 236.822 387.955 237.208C387.214 237.595 386.483 237.981 385.757 238.378C385.381 238.582 385.005 238.785 384.634 238.999C384.264 239.213 383.898 239.401 383.538 239.61C382.452 240.216 381.387 240.837 380.322 241.463L380.28 241.49C379.575 241.902 378.881 242.325 378.192 242.748C374.255 245.139 370.402 247.635 366.549 250.146L364.127 251.712L360.373 254.14C359.642 254.615 358.896 255.09 358.16 255.56C357.637 255.904 357.115 256.249 356.546 256.604C353.811 258.327 351.038 260.018 348.193 261.632C347.52 262.018 346.841 262.404 346.157 262.78C340.408 265.987 334.396 268.698 328.187 270.883L328.103 270.914C324.979 272.004 321.792 272.904 318.56 273.608C316.696 274.015 314.827 274.349 312.937 274.605C307.885 275.322 302.762 275.393 297.692 274.819C287.736 273.666 278.406 269.844 268.455 268.554C247.969 265.944 228.072 274.355 208.807 280.943C204.07 282.562 199.298 284.078 194.492 285.491C191.297 286.436 188.091 287.328 184.859 288.19C165.06 293.421 144.852 296.965 124.454 298.783C115.927 299.619 107.349 299.809 98.7939 299.352C95.5413 299.154 92.3253 298.83 89.1667 298.308C78.3596 296.637 68.2834 293.134 60.1493 286.718C53.4875 281.45 48.7209 274.584 45.0924 267.401C41.3781 260.07 38.7556 252.236 37.3082 244.147C37.1098 243.045 36.9323 241.939 36.7861 240.832C36.5251 238.938 36.3301 237.034 36.2014 235.12C35.4989 224.917 36.7173 214.672 39.7933 204.918C43.239 193.996 48.982 183.512 51.5088 172.507C51.6133 172.04 51.7125 171.576 51.8064 171.113C52.1515 169.441 52.4077 167.752 52.5739 166.054C53.8634 152.532 48.9193 139.349 45.0402 126.125C44.9045 125.665 44.7687 125.201 44.6382 124.736C44.2206 123.267 43.8203 121.8 43.4374 120.335C39.8455 106.354 38.8483 91.3854 42.0487 77.4301C42.1479 76.9655 42.268 76.5008 42.3828 76.0414C44.5254 67.2201 48.5544 58.968 54.1924 51.8533C60.1859 44.3353 68.0536 38.0755 76.4592 32.578C80.5558 29.8979 84.7916 27.3937 89.1667 25.0652C92.2992 23.3945 95.5083 21.8126 98.7939 20.3195C125.133 8.31154 155.179 2.44854 184.891 3.74331C186.457 3.81118 188.023 3.89471 189.589 4.00957C191.156 4.12443 192.868 4.26017 194.507 4.41157C213.647 6.27019 232.27 10.7549 250.762 15.6572C256.959 17.3018 263.146 18.9881 269.327 20.6431C272.079 21.3741 274.825 22.105 277.576 22.815C291.051 26.2973 304.724 29.4507 318.57 31.8053C321.776 32.3587 324.985 32.8634 328.197 33.3193C339.351 34.9586 350.595 35.9123 361.866 36.1751C366.248 36.2621 370.632 36.2238 375.018 36.0603C377.231 35.9802 379.447 35.8601 381.664 35.7C404.557 34.0868 426.683 28.6884 448.845 23.6451C452.051 22.9142 455.262 22.1937 458.478 21.4837C462.696 20.5544 466.915 19.6564 471.154 18.8263C497.535 13.642 521.049 16.6231 545.577 27.3206C551.153 29.7483 556.723 32.6824 560.138 37.2402C563.552 41.798 564.409 47.3947 565.045 52.7982C565.949 60.4938 566.539 68.2885 566.763 76.1249C566.763 76.5844 566.763 77.049 566.794 77.5137C567.149 93.3432 565.97 109.324 562.748 124.783Z" fill="#75CD22"/>
<path opacity="0.1" d="M387.757 171.16H386.034V171.776V172.554H387.986L387.757 171.16ZM368.215 171.16C368.213 171.172 368.213 171.184 368.215 171.196C368.168 171.577 368.116 171.959 368.064 172.345V172.449V172.554H382.995V172.47L384.039 171.16H368.215ZM328.197 171.16V126.172H345.374C345.191 126.052 345.003 125.926 344.81 125.812L344.56 125.65L344.236 125.451C344.048 125.342 343.86 125.232 343.661 125.128C343.463 125.023 343.343 124.95 343.176 124.861L343.061 124.799H343.035H328.197V122.319L327.795 122.475L327.373 122.674H327.341L327.252 122.721L326.986 122.862L326.72 123.003C326.459 123.144 326.198 123.3 325.937 123.462L325.686 123.629L325.164 123.963C324.491 124.412 323.828 124.882 323.144 125.321C322.971 125.43 322.799 125.54 322.622 125.639C322.251 125.859 321.87 126.067 321.478 126.255C321.311 126.339 321.149 126.412 320.956 126.48L320.674 126.589L320.413 126.678C319.801 126.891 319.172 127.056 318.534 127.169V171.149H292.779C292.779 171.201 292.816 171.243 292.832 171.295C292.972 171.713 293.113 172.126 293.249 172.543H318.57V220.763C318.702 220.763 318.833 220.763 318.962 220.763L319.416 220.789L320.236 220.836L321.546 220.993L322.146 221.05L322.799 221.118H322.898L324.052 221.259L324.297 221.29L324.856 221.368L325.655 221.483L327.571 221.4L327.832 221.447C327.936 221.447 328.046 221.478 328.156 221.499V172.554H368.011V172.449V172.345C368.064 171.959 368.116 171.577 368.163 171.196C368.16 171.184 368.16 171.172 368.163 171.16H328.197ZM387.757 171.16H386.034V171.776V172.554H387.986L387.757 171.16ZM367.14 171.16C367.077 171.624 367.02 172.089 366.957 172.554H383.606L384.739 171.16H367.14ZM328.197 171.16V126.172H345.374C345.191 126.052 345.003 125.926 344.81 125.812L344.56 125.65L344.236 125.451C344.048 125.342 343.86 125.232 343.661 125.128C343.463 125.023 343.343 124.95 343.176 124.861L343.061 124.799H343.025H328.197V122.319L327.795 122.475L327.373 122.674H327.341L327.252 122.721L326.986 122.862L326.72 123.003C326.459 123.144 326.198 123.3 325.937 123.462L325.686 123.629L325.164 123.963C324.491 124.412 323.828 124.882 323.144 125.321C322.971 125.43 322.799 125.54 322.622 125.639C322.251 125.859 321.87 126.067 321.478 126.255C321.311 126.339 321.149 126.412 320.956 126.48L320.674 126.589L320.413 126.678C319.801 126.891 319.172 127.056 318.534 127.169V171.149H292.779C292.779 171.201 292.816 171.243 292.832 171.295C292.972 171.708 293.119 172.126 293.254 172.543H318.57V220.758H318.962L319.416 220.784L320.236 220.831L321.546 220.993L322.146 221.05L322.799 221.118H322.898L324.052 221.259L324.297 221.29L324.856 221.368L325.655 221.483L327.571 221.4L327.832 221.447C327.936 221.447 328.046 221.478 328.156 221.499V172.554H366.967C367.03 172.089 367.087 171.624 367.15 171.16H328.197ZM458.478 77.4771H566.795C566.795 77.0125 566.795 76.5478 566.763 76.0884H458.478V21.468C455.262 22.1641 452.051 22.8846 448.846 23.6294V76.0884H331.043L330.745 75.8221L331.194 75.4253L375.013 36.0498C370.627 36.2169 366.243 36.2552 361.861 36.1647L328.192 66.4142V33.3193C324.976 32.8634 321.767 32.3587 318.565 31.8053V64.8897L269.338 20.6431C263.156 18.9881 256.97 17.3018 250.772 15.6572L317.719 75.8221L317.422 76.0884H194.523V4.45855C192.884 4.3054 191.245 4.1714 189.605 4.05654C188.039 3.94169 186.473 3.85815 184.906 3.79028V76.0884H98.7941V20.3664C95.5432 21.8561 92.3341 23.438 89.1668 25.1122V76.0884H42.383C42.2681 76.5478 42.148 77.0125 42.0488 77.4771H89.1668V124.783H44.6384C44.7689 125.248 44.9046 125.712 45.0404 126.172H89.1668V171.16H51.8066C51.7126 171.623 51.6134 172.087 51.509 172.554H89.1668V298.339C92.2993 298.825 95.5415 299.164 98.7941 299.383V172.554H184.891V288.211C188.122 287.349 191.328 286.457 194.523 285.512V172.554H318.57V273.603C321.803 272.898 324.99 271.999 328.114 270.909L328.197 270.878V172.554H448.846V219.948C452.048 219.479 455.259 219.028 458.478 218.596V172.554H544.267C544.549 172.089 544.825 171.624 545.102 171.16H458.478V126.172H562.446C562.555 125.712 562.649 125.248 562.749 124.783H458.478V77.4771ZM98.7941 77.4771H184.891V124.783H98.7941V77.4771ZM98.7941 171.16V126.172H184.891V171.16H98.7941ZM194.523 77.4771H318.57V124.783H194.523V77.4771ZM194.523 171.16V126.172H318.57V171.16H194.523ZM448.846 171.16H328.197V126.172H448.846V171.16ZM448.846 124.783H328.197V78.7458L329.889 77.4771H448.846V124.783ZM368.215 171.16C368.213 171.172 368.213 171.184 368.215 171.196C368.168 171.577 368.116 171.959 368.064 172.345V172.449V172.554H382.995V172.47L384.039 171.16H368.215ZM387.757 171.16H386.034V171.776V172.554H387.986L387.757 171.16ZM328.197 171.16V126.172H345.374C345.191 126.052 345.003 125.926 344.81 125.812L344.56 125.65L344.236 125.451C344.048 125.342 343.86 125.232 343.661 125.128C343.463 125.023 343.343 124.95 343.176 124.861L343.061 124.799H343.035H328.197V122.319L327.795 122.475L327.373 122.674H327.341L327.252 122.721L326.986 122.862L326.72 123.003C326.459 123.144 326.198 123.3 325.937 123.462L325.686 123.629L325.164 123.963C324.491 124.412 323.828 124.882 323.144 125.321C322.971 125.43 322.799 125.54 322.622 125.639C322.251 125.859 321.87 126.067 321.478 126.255C321.311 126.339 321.149 126.412 320.956 126.48L320.674 126.589L320.413 126.678C319.801 126.891 319.172 127.056 318.534 127.169V171.149H292.779C292.779 171.201 292.816 171.243 292.832 171.295C292.972 171.713 293.113 172.126 293.249 172.543H318.57V220.763C318.702 220.763 318.833 220.763 318.962 220.763L319.416 220.789L320.236 220.836L321.546 220.993L322.146 221.05L322.799 221.118H322.898L324.052 221.259L324.297 221.29L324.856 221.368L325.655 221.483L327.571 221.4L327.832 221.447C327.936 221.447 328.046 221.478 328.156 221.499V172.554H368.011V172.449V172.345C368.064 171.959 368.116 171.577 368.163 171.196C368.16 171.184 368.16 171.172 368.163 171.16H328.197Z" fill="#009F36"/>
<path opacity="0.1" d="M140.19 44.9096H140.936C140.69 44.8054 140.476 44.6381 140.315 44.4244C140.155 44.2108 140.054 43.9585 140.023 43.6931C140.023 42.7325 141.458 41.9493 143.212 41.9493H165.537C167.291 41.9493 168.721 42.7325 168.721 43.6931C168.721 44.6485 167.291 45.4369 165.537 45.4369H164.79C165.036 45.5392 165.251 45.7054 165.412 45.9183C165.572 46.1312 165.673 46.3832 165.704 46.6481C165.704 47.4678 164.66 48.1569 163.266 48.3396H169.693C171.441 48.3396 172.877 49.1228 172.877 50.0834C172.877 51.044 171.441 51.8272 169.693 51.8272H147.363C145.614 51.8272 144.178 51.0388 144.178 50.0834C144.178 49.2637 145.222 48.5798 146.616 48.3918H140.19C138.435 48.3918 137.005 47.6087 137.005 46.6481C137.005 45.6875 138.435 44.9096 140.19 44.9096Z" fill="#009F36"/>
<path opacity="0.1" d="M382.144 61.4962H382.891C382.646 61.3914 382.433 61.2237 382.273 61.0101C382.114 60.7965 382.013 60.5446 381.982 60.2798C381.982 59.3191 383.413 58.536 385.167 58.536H407.491C409.246 58.536 410.681 59.3191 410.681 60.2798C410.681 61.2352 409.246 62.0183 407.491 62.0183H406.75C406.995 62.1231 407.208 62.2908 407.368 62.5044C407.527 62.718 407.627 62.97 407.658 63.2348C407.658 64.0544 406.614 64.7436 405.22 64.9263H411.647C413.401 64.9263 414.832 65.7094 414.832 66.6701C414.832 67.6307 413.401 68.4138 411.647 68.4138H389.323C387.569 68.4138 386.133 67.6255 386.133 66.6701C386.133 65.8504 387.177 65.1612 388.571 64.9785H382.144C380.395 64.9785 378.959 64.1954 378.959 63.2348C378.959 62.2741 380.395 61.4962 382.144 61.4962Z" fill="#009F36"/>
<path opacity="0.1" d="M105.925 132.479H106.667C106.421 132.374 106.208 132.207 106.048 131.993C105.889 131.779 105.789 131.527 105.758 131.262C105.758 130.307 107.194 129.518 108.943 129.518H131.272C133.021 129.518 134.457 130.307 134.457 131.262C134.457 132.223 133.021 133.006 131.272 133.006H130.526C130.771 133.109 130.985 133.275 131.145 133.488C131.305 133.701 131.405 133.953 131.434 134.217C131.434 135.037 130.39 135.726 128.996 135.909H135.423C137.177 135.909 138.613 136.697 138.613 137.652C138.613 138.608 137.177 139.396 135.423 139.396H113.12C111.365 139.396 109.935 138.613 109.935 137.652C109.935 136.838 110.979 136.149 112.373 135.961H105.925C104.171 135.961 102.735 135.178 102.735 134.217C102.735 133.257 104.192 132.479 105.925 132.479Z" fill="#009F36"/>
<path opacity="0.1" d="M526.282 318.525C530.032 300.174 484.116 275.293 423.726 262.951C363.336 250.61 311.341 255.482 307.59 273.833C303.84 292.184 349.756 317.065 410.146 329.407C470.536 341.748 522.531 336.876 526.282 318.525Z" fill="#75CD22"/>
<path d="M404.327 200.939C404.327 200.939 410.263 171.802 432.927 174.501C432.927 174.501 448.589 175.577 451.811 185.83V208.494L404.327 200.939Z" fill="#3A3768"/>
<path d="M528.442 211.736L326.62 195.003L300.72 200.402L302.338 236.556L304.103 236.77L306.113 291.061L504.155 326.673L525.205 308.864V250.01L527.899 248.428L528.442 211.736Z" fill="#D48A9B"/>
<path opacity="0.05" d="M528.714 211.736L528.171 248.428L506.316 258.682L506.045 220.366L528.714 211.736Z" fill="black"/>
<path opacity="0.05" d="M525.205 250.047L525.471 307.789L504.426 325.597L505.778 258.682L525.205 250.047Z" fill="black"/>
<path opacity="0.05" d="M304.375 238.931L505.94 263.527L506.045 258.859L304.223 237.094L304.375 238.931Z" fill="black"/>
<path opacity="0.05" d="M525.205 252.166V250.047L505.235 258.859V263.537L525.205 252.166Z" fill="black"/>
<path d="M300.448 200.402L326.349 195.003L528.171 211.736L505.507 220.366L300.448 200.402Z" fill="#EFC6CD"/>
<path opacity="0.1" d="M506.671 212.775L516.575 213.422L500.161 218.335L491.802 217.735L506.671 212.775Z" fill="black"/>
<path d="M506.671 212.342L516.575 212.989L500.161 217.907L491.802 217.301L506.671 212.342Z" fill="white"/>
<path d="M505.486 213.454C505.878 213.287 506.29 213.605 506.708 213.684C506.948 213.73 507.194 213.684 507.434 213.73C507.919 213.793 508.4 214.117 508.864 213.955" fill="#D3DAE1"/>
<path d="M504.975 213.751C505.361 213.584 505.779 213.897 506.196 213.981C506.436 214.023 506.682 213.981 506.922 214.023C507.407 214.091 507.888 214.414 508.352 214.252" fill="#D3DAE1"/>
<path d="M503.794 214.346C504.186 214.179 504.604 214.493 505.021 214.571C505.256 214.618 505.507 214.571 505.742 214.618C506.233 214.686 506.713 215.009 507.172 214.842" fill="#D3DAE1"/>
<path opacity="0.1" d="M463.861 207.899L473.765 208.551L457.35 213.464L448.992 212.859L463.861 207.899Z" fill="black"/>
<path d="M463.861 207.471L473.765 208.118L457.35 213.031L448.992 212.43L463.861 207.471Z" fill="white"/>
<path d="M462.675 208.583C463.067 208.416 463.479 208.729 463.897 208.812C464.137 208.854 464.382 208.812 464.623 208.854C465.108 208.922 465.588 209.246 466.053 209.084" fill="#D3DAE1"/>
<path d="M462.164 208.88C462.55 208.713 462.968 209.026 463.385 209.105C463.625 209.152 463.871 209.105 464.111 209.152C464.596 209.22 465.077 209.543 465.541 209.376" fill="#D3DAE1"/>
<path d="M460.984 209.47C461.375 209.303 461.793 209.622 462.211 209.7C462.446 209.747 462.696 209.7 462.931 209.747C463.422 209.81 463.902 210.139 464.362 209.971" fill="#D3DAE1"/>
<path opacity="0.1" d="M484.394 210.337L494.303 210.984L477.889 215.902L469.525 215.297L484.394 210.337Z" fill="black"/>
<path d="M484.394 209.909L494.303 210.556L477.889 215.469L469.525 214.863L484.394 209.909Z" fill="white"/>
<path d="M483.209 211.021C483.601 210.854 484.018 211.167 484.436 211.245C484.671 211.292 484.916 211.245 485.156 211.292C485.642 211.355 486.127 211.684 486.587 211.517" fill="#D3DAE1"/>
<path d="M482.697 211.313C483.089 211.146 483.507 211.465 483.924 211.543C484.159 211.59 484.405 211.543 484.645 211.59C485.13 211.653 485.616 211.981 486.075 211.814" fill="#D3DAE1"/>
<path d="M481.522 211.908C481.909 211.741 482.326 212.055 482.744 212.138C482.984 212.18 483.23 212.138 483.47 212.18C483.955 212.248 484.436 212.571 484.9 212.41" fill="#D3DAE1"/>
<path opacity="0.1" d="M260.165 413.166C318.547 413.166 365.876 403.424 365.876 391.406C365.876 379.388 318.547 369.645 260.165 369.645C201.782 369.645 154.453 379.388 154.453 391.406C154.453 403.424 201.782 413.166 260.165 413.166Z" fill="#75CD22"/>
<path d="M375.926 213.208C374.798 203.299 370.334 193.844 370.334 193.844L370.674 190.503C370.674 190.503 370.747 188.832 370.637 186.326C370.649 184.762 370.854 183.205 371.248 181.69C372.162 178.793 370.105 175.232 369.875 174.903C369.645 174.574 369.99 168.22 367.933 165.104C365.876 161.987 352.176 156.192 352.176 156.192C352.176 156.192 351.44 154.652 350.401 152.85L350.495 152.668C349.645 151.126 348.592 149.705 347.363 148.444C346.522 147.546 345.713 147.034 345.06 147.285C344.795 146.418 344.593 145.534 344.455 144.638C344.59 144.674 344.731 144.711 344.867 144.737C345.433 144.868 346.019 144.883 346.59 144.779C347.864 144.492 348.71 143.348 349.42 142.273C352.959 136.895 356.008 130.996 356.63 124.632C356.797 123.333 356.735 122.015 356.447 120.737C356.153 119.744 355.743 118.789 355.225 117.892C354.31 116.051 353.151 114.342 351.78 112.812C349.341 110.243 345.979 108.672 342.523 107.742C338.629 106.695 334.573 106.392 330.567 106.85C329.523 106.97 328.479 107.142 327.435 107.21C326.11 107.268 324.783 107.245 323.462 107.142L316.628 106.745L316.596 106.641L315.458 106.573C315.009 107.466 315.458 108.525 316.017 109.361C316.575 110.196 317.218 111.068 317.171 112.055C317.124 113.041 316.408 113.835 315.85 114.665C315.291 115.495 314.868 116.581 315.427 117.396C315.505 117.508 315.599 117.61 315.704 117.698C316.294 118.309 317.322 118.377 318.215 118.367H318.371C316.123 121.328 314.907 124.944 314.91 128.662C314.925 131.839 315.814 134.951 317.48 137.657C319.146 140.362 321.524 142.557 324.355 144.001C324.454 144.34 324.553 144.69 324.647 145.045C325.682 148.712 326.053 152.535 325.743 156.333L325.623 156.594L325.55 156.317C325.55 156.317 317.5 161.778 315.108 163.224C312.717 164.67 310.316 169.573 310.201 170.909C310.086 172.246 306.317 192.403 306.317 192.403C305.551 194.434 304.919 196.513 304.427 198.627L299.618 202.85C299.618 202.85 289.699 203.743 286.827 203.075L286.911 203.628C284.379 203.05 281.8 202.701 279.205 202.584C277.788 202.402 276.348 202.594 275.028 203.143L274.929 203.19L274.851 203.226C273.339 203.433 271.863 203.847 270.465 204.458C270.298 204.526 270.147 204.594 270 204.662L270.032 203.978L259.298 203.425L253.816 202.312C253.816 202.312 251.874 200.746 250.73 200.976C249.587 201.206 247.191 199.639 247.191 199.639C246.644 199.211 246.052 198.843 245.426 198.543C245.243 197.28 245.128 196.512 245.128 196.512C245.128 196.512 240.863 179.586 237.668 169.635C235.527 162.989 232.447 159.716 230.63 158.29C229.821 156.881 229.288 155.972 229.288 155.972C228.939 154.751 227.017 151.999 226.527 151.931C226.448 151.806 226.391 151.743 226.36 151.743C226.255 151.732 226.148 151.748 226.051 151.79C225.154 147.321 224.631 141.72 226.005 136.838C227.884 135.293 229.399 133.352 230.441 131.153C231.482 128.955 232.025 126.553 232.029 124.12C232.029 124.047 232.029 123.974 232.029 123.901C232.029 123.828 232.029 123.749 232.029 123.676C232.028 119.796 230.654 116.042 228.15 113.078L227.973 112.88C228.02 112.846 228.066 112.809 228.109 112.77C228.501 112.452 228.8 112.033 228.973 111.559C229.147 111.085 229.189 110.572 229.095 110.076C228.86 109.074 228.077 108.285 227.675 107.335C227.434 106.604 227.24 105.857 227.096 105.101C226.788 104.026 226.224 103.042 225.451 102.234L225.529 102.443C223.483 100.141 219.964 98.9974 216.795 99.5091C214.44 99.885 212.248 100.981 209.883 101.321C208.186 101.561 206.458 101.404 204.751 101.577C203.167 101.739 201.625 102.185 200.198 102.892C199.825 103.051 199.495 103.294 199.232 103.602C198.989 104.015 198.826 104.471 198.752 104.944C198.172 107.058 196.335 108.567 195.003 110.332C193.482 112.348 192.602 114.774 192.476 117.296C192.424 117.937 192.486 118.583 192.659 119.202C192.774 119.573 192.951 119.923 193.035 120.298C193.296 121.447 192.696 122.59 192.403 123.729C192.035 125.18 192.165 126.714 192.774 128.083C194.836 132.698 201.608 134.238 203.017 139.083C204.096 139.579 205.235 139.93 206.406 140.127C206.499 140.607 206.583 141.093 206.651 141.584C206.619 141.597 206.589 141.615 206.562 141.636C204.735 143.416 204.281 146.857 204.281 146.857L204.061 147.034C203.315 147.65 200.762 149.718 198.454 151.31C195.713 153.205 191.145 159.554 187.95 161.449C184.755 163.344 182.123 175.023 182.813 179.268C183.502 183.512 186.352 195.416 185.209 199.759C184.066 204.103 186.921 223.927 186.921 223.927C188.838 224.292 190.713 224.848 192.518 225.587L192.461 226.454L192.288 229.064C192.288 229.064 187.115 247.775 189.093 262.18C191.072 276.584 188.18 278.067 188.18 278.067C188.18 278.067 188.785 284.452 187.266 286.681C185.747 288.91 185.439 293.808 185.439 293.808C185.439 293.808 185.287 304.797 185.59 307.904C185.893 311.01 186.044 316.67 184.979 318.006C183.914 319.343 181.935 328.098 182.087 330.771C182.238 333.444 178.281 339.537 180.411 347.405C182.541 355.272 174.146 355.424 174.146 355.424C174.146 355.424 175.216 367.432 177.498 370.867L177.832 371.358C177.774 371.556 177.717 371.765 177.654 371.99C176.793 375.122 175.613 380.066 176.433 381.262C177.649 383.047 178.26 382.744 178.26 382.744L178.714 390.764C178.714 390.764 187.851 398.485 194.857 398.193C201.863 397.9 200.49 390.764 200.49 390.764L194.523 375.289L194.319 374.767L200.95 362.237C200.95 362.237 202.777 356.745 203.231 354.813C203.685 352.881 206.165 346.037 206.165 346.037C206.165 346.037 212.43 331.189 212.561 329.403C212.691 327.618 213.172 317.975 214.388 316.038C215.605 314.101 218.956 302.986 218.956 302.986L219.04 303.059C219.609 303.618 220.015 304.32 220.215 305.092C220.416 305.863 220.403 306.674 220.178 307.439C219.411 310.258 219.87 316.048 219.87 316.048C219.87 316.048 219.567 320.951 218.956 323.478C218.346 326.004 218.199 346.642 219.264 351.54C220.115 355.46 220.089 362.801 220.048 365.578C219.332 368.528 218.706 372.193 219.87 372.626C221.854 373.373 231.904 373.222 231.904 373.222C231.904 373.222 236.164 371.734 241.954 376.934C247.744 382.134 265.552 375.451 265.552 375.451C265.552 375.451 271.034 373.963 260.222 369.661C252.678 366.659 247.807 364.659 244.622 362.519C244.695 362.378 244.773 362.237 244.841 362.086C244.841 362.086 240.424 357.909 244.079 350.506C247.734 343.103 247.582 336.843 247.582 336.843L248.193 311.893L246.366 278.772L244.951 244.011L245.202 243.928C245.442 250.318 246.689 265.532 253.221 262.582C261.444 258.87 254.437 249.216 254.437 249.216L250.746 242.022L251.848 241.646L247.718 228.302C247.322 225.697 247.269 223.052 247.561 220.434C247.643 218.902 247.612 217.367 247.467 215.84C252.876 214.895 258.055 213.892 258.984 214.122C260.081 214.388 266.215 214.44 268.627 214.451C267.839 215.067 267.207 215.678 267.207 215.678L277.028 222.287C277.028 222.287 280.359 220.465 281.053 218.534C281.736 218.361 282.367 218.024 282.891 217.552C282.995 219.834 283.601 222.303 285.71 222.36C286.237 222.372 286.761 222.268 287.245 222.058L303.304 218.878L301.926 227.487L302.886 229.195C302.401 236.457 301.842 244.168 301.352 250.95L301.127 252.432L301.242 252.459C300.48 262.9 299.869 270.81 299.869 270.81C300.768 269.096 302.164 267.693 303.873 266.785L303.978 282.28C303.978 282.28 304.782 306.781 304.782 310.123C304.782 313.464 304.891 320.925 304.891 320.925C304.891 320.925 306.609 330.056 307.632 333.063C308.655 336.07 309.459 349.77 309.459 349.77C309.459 349.77 311.861 353.555 310.833 354.99C309.804 356.426 314.832 359.554 314.832 359.554C314.832 359.554 311.631 363.897 311.402 366.795C311.376 367.129 311.704 367.484 312.3 367.839C312.112 367.99 311.919 368.142 311.704 368.288C310.222 369.28 308.05 369.969 304.782 369.687C295.87 368.904 289.589 377.148 295.071 378.818C300.553 380.489 316.998 380.823 316.998 380.823C316.998 380.823 321.979 377.717 325.874 379.116C325.816 382.384 325.978 385.381 326.004 385.778L325.957 385.814C323.629 387.903 319.17 391.495 314.816 392.962C308.551 395.076 307.162 403.654 315.27 404.766C323.378 405.878 335.256 403.429 335.256 403.429C335.256 403.429 341.421 398.866 346.105 397.864C350.788 396.862 354.787 394.632 353.988 391.959C353.466 390.252 352.124 385.778 351.216 382.771C351.164 382.59 351.111 382.416 351.059 382.248C351.2 381.935 351.341 381.612 351.472 381.277C351.472 381.277 349.075 368.805 351.017 365.688C352.959 362.571 351.931 331.382 351.931 331.382C351.931 331.382 348.616 323.478 350.333 318.69C352.051 313.903 347.592 307.105 347.592 307.105C347.592 307.105 348.078 293.484 349.383 285.893C349.442 285.569 349.5 285.256 349.555 284.953C351.741 284.304 353.871 283.482 355.925 282.494C355.925 282.494 357.068 265.338 357.752 261.444C357.82 261.078 357.914 260.488 358.029 259.721L358.551 256.969L359.167 253.837L361.255 243.16L365.025 238.284L374.736 228.364C374.736 228.364 377.069 223.123 375.926 213.208ZM226.172 151.952L226.098 152.005C226.087 151.967 226.079 151.929 226.072 151.89C226.103 151.915 226.136 151.936 226.172 151.952ZM322.115 164.112L321.739 164.931L323.112 163.563L321.248 165.652L321.875 164.336L322.115 164.112ZM312.843 183.272C312.482 184.228 312.096 185.261 311.694 186.337L312.43 184.139L312.843 183.272Z" fill="url(#paint0_linear)"/>
<path d="M282.88 214.508C282.88 214.508 281.601 223.023 285.439 223.133C289.276 223.243 291.839 216.565 291.839 216.565L290.273 211.224L282.88 214.508Z" fill="#585B8A"/>
<path opacity="0.2" d="M282.88 214.508C282.88 214.508 281.601 223.023 285.439 223.133C289.276 223.243 291.839 216.565 291.839 216.565L290.273 211.224L282.88 214.508Z" fill="black"/>
<path d="M196.93 398.825C190.101 399.122 181.194 391.406 181.194 391.406L180.75 383.392C180.75 383.392 180.16 383.689 178.97 381.909C178.171 380.714 179.32 375.759 180.16 372.642C180.568 371.118 180.902 370.032 180.902 370.032L195.886 374.041L196.601 375.937L202.417 391.401C202.417 391.401 203.753 398.527 196.93 398.825Z" fill="#636992"/>
<path d="M265.777 376.124C265.777 376.124 248.417 382.802 242.805 377.607C237.193 372.412 233.011 373.895 233.011 373.895C233.011 373.895 223.216 374.046 221.285 373.3C220.147 372.867 220.763 369.155 221.473 366.2C221.953 364.158 222.475 362.472 222.475 362.472C222.475 362.472 239.537 356.682 242.21 360.243C243.013 361.289 243.973 362.204 245.055 362.957C248.146 365.192 252.975 367.218 260.613 370.334C271.118 374.636 265.777 376.124 265.777 376.124Z" fill="#636992"/>
<path d="M250.198 240.492L254.943 249.989C254.943 249.989 261.772 259.637 253.758 263.344C245.744 267.051 245.896 241.98 245.896 241.98L250.198 240.492Z" fill="#FFD6D6"/>
<path d="M230.312 158.139C230.312 158.139 235.507 160.515 238.624 170.455C241.74 180.395 245.896 197.316 245.896 197.316C245.896 197.316 248.715 216.456 248.266 221.207C247.981 223.823 248.032 226.466 248.418 229.069L252.422 242.424L244.408 245.243L232.092 198.058L230.312 158.139Z" fill="#DCE6F2"/>
<path opacity="0.05" d="M230.312 158.139C230.312 158.139 235.507 160.515 238.624 170.455C241.74 180.395 245.896 197.316 245.896 197.316C245.896 197.316 248.715 216.456 248.266 221.207C247.981 223.823 248.032 226.466 248.418 229.069L252.422 242.424L244.408 245.243L232.092 198.058L230.312 158.139Z" fill="black"/>
<path opacity="0.1" d="M195.886 374.046L196.601 375.942L195.724 377.618C192.31 379.1 183.852 377.915 183.852 377.915C183.852 377.915 182.286 375.926 180.145 372.653C180.552 371.128 180.886 370.042 180.886 370.042L195.886 374.046Z" fill="black"/>
<path opacity="0.1" d="M245.598 363.657C241.27 373.462 226.558 369.823 222.47 368.596C221.796 368.392 221.426 368.257 221.426 368.257C221.426 368.257 221.452 367.458 221.462 366.2C221.943 364.158 222.465 362.472 222.465 362.472C222.465 362.472 239.526 356.682 242.199 360.243C243.002 361.289 243.962 362.204 245.045 362.957C245.208 363.206 245.393 363.441 245.598 363.657Z" fill="black"/>
<path d="M244.852 351.195C241.291 358.609 245.598 362.77 245.598 362.77C241.27 372.569 226.558 368.935 222.47 367.703C221.797 367.505 221.426 367.369 221.426 367.369C221.426 367.369 221.724 357.126 220.685 352.229C219.646 347.332 219.792 326.709 220.387 324.188C220.982 321.666 221.275 316.764 221.275 316.764C221.275 316.764 220.831 310.979 221.572 308.16C221.795 307.398 221.81 306.591 221.616 305.821C221.421 305.052 221.024 304.349 220.465 303.785L220.387 303.706C220.387 303.706 217.124 314.837 215.934 316.758C214.743 318.68 214.305 328.333 214.153 330.113C214.002 331.894 207.92 346.736 207.92 346.736C207.92 346.736 205.549 353.56 205.106 355.486C204.662 357.413 202.876 362.911 202.876 362.911L195.724 376.714C192.309 378.197 183.852 377.012 183.852 377.012C183.852 377.012 182.223 374.924 179.993 371.52C177.764 368.116 176.73 356.092 176.73 356.092C176.73 356.092 184.891 355.941 182.813 348.078C180.735 340.216 184.593 334.128 184.447 331.455C184.301 328.782 186.227 320.032 187.266 318.695C188.305 317.359 188.154 311.72 187.856 308.603C187.558 305.487 187.71 294.507 187.71 294.507C187.71 294.507 188.007 289.61 189.49 287.386C190.973 285.162 190.383 278.777 190.383 278.777C190.383 278.777 193.197 277.294 191.27 262.9C189.344 248.506 194.403 229.811 194.403 229.811L194.575 227.2L194.847 222.971C194.847 222.971 237.287 220.298 240.701 223.561C241.594 224.467 242.326 225.517 242.868 226.668C244.036 229.179 244.861 231.836 245.322 234.567L247.102 279.529L248.882 312.618L248.287 337.548C248.287 337.548 248.418 343.771 244.852 351.195Z" fill="#565988"/>
<path opacity="0.1" d="M232.27 262.456L227.816 358.906L222.47 367.698C221.797 367.5 221.426 367.364 221.426 367.364C221.426 367.364 221.724 357.121 220.685 352.223C219.646 347.326 219.792 326.704 220.387 324.182C220.982 321.661 221.275 316.758 221.275 316.758C221.275 316.758 220.831 310.974 221.572 308.154C221.795 307.393 221.81 306.585 221.616 305.816C221.421 305.046 221.024 304.343 220.466 303.779L220.539 303.257L232.27 262.456Z" fill="black"/>
<path opacity="0.1" d="M184.311 366.033C184.311 366.033 195.886 361.433 197.666 362.9C199.446 364.367 184.019 366.607 184.019 366.607L184.311 366.033Z" fill="black"/>
<path opacity="0.1" d="M241.443 353.863C240.999 354.014 229.722 358.039 230.761 362.321C231.8 366.602 241.443 353.863 241.443 353.863Z" fill="black"/>
<path d="M206.202 134.327C206.202 134.327 209.982 143.453 207.982 148.131C205.983 152.809 229.571 160.817 229.571 160.817C229.571 160.817 222.674 143.009 229.351 132.99C236.029 122.971 206.202 134.327 206.202 134.327Z" fill="#FFD6D6"/>
<path d="M344.314 398.527C339.751 399.529 333.742 404.092 333.742 404.092C333.742 404.092 322.167 406.541 314.263 405.429C306.358 404.317 307.7 395.744 313.819 393.63C318.064 392.168 322.413 388.56 324.684 386.493C325.686 385.569 326.281 384.927 326.281 384.927L348.433 380.473C348.433 380.473 348.793 381.711 349.295 383.418C350.182 386.43 351.493 390.899 351.994 392.601C352.772 395.301 348.877 397.525 344.314 398.527Z" fill="#505484"/>
<path d="M338.639 381.387C338.639 381.387 329.288 382.389 325.394 380.165C321.499 377.941 315.934 381.502 315.934 381.502C315.934 381.502 299.906 381.168 294.565 379.497C289.224 377.826 295.343 369.577 304.025 370.371C307.189 370.658 309.329 369.964 310.775 368.972C312.286 367.936 313.339 366.358 313.715 364.565L332.51 365.677L335.12 372.339L338.639 381.387Z" fill="#505484"/>
<path opacity="0.1" d="M335.407 375.378C335.407 375.378 313.563 371.807 310.775 368.972C312.286 367.936 313.339 366.358 313.715 364.565L332.51 365.677L335.12 372.339L335.407 375.378Z" fill="black"/>
<path d="M303.022 250.402L303.247 283.006C303.247 283.006 304.025 307.491 304.025 310.833C304.025 314.174 304.135 321.624 304.135 321.624C304.135 321.624 305.805 330.75 306.808 333.757C307.81 336.765 308.588 350.464 308.588 350.464C308.588 350.464 310.927 354.249 309.924 355.685C308.922 357.121 313.819 360.248 313.819 360.248C313.819 360.248 310.687 364.592 310.483 367.484C310.279 370.376 335.407 374.485 335.407 374.485L325.618 274.104L317.824 248.955L303.022 250.402Z" fill="#575988"/>
<path opacity="0.1" d="M303.022 250.402L303.247 283.006C303.247 283.006 304.025 307.491 304.025 310.833C304.025 314.174 304.135 321.624 304.135 321.624C304.135 321.624 305.805 330.75 306.808 333.757C307.81 336.765 308.588 350.464 308.588 350.464C308.588 350.464 310.927 354.249 309.924 355.685C308.922 357.121 313.819 360.248 313.819 360.248C313.819 360.248 310.687 364.592 310.483 367.484C310.279 370.376 335.407 374.485 335.407 374.485L325.618 274.104L317.824 248.955L303.022 250.402Z" fill="black"/>
<path opacity="0.1" d="M349.295 383.444C342.022 400.782 324.725 387.401 324.725 387.401C324.725 387.401 324.725 387.067 324.684 386.493C325.686 385.569 326.281 384.927 326.281 384.927L348.433 380.473C348.433 380.473 348.793 381.737 349.295 383.444Z" fill="black"/>
<path d="M349.545 381.946C342.419 400.219 324.725 386.509 324.725 386.509C324.725 386.509 324.167 377.048 325.284 372.71C326.401 368.371 324.057 355.345 324.057 355.345C324.057 355.345 322.72 343.771 321.499 341.103C320.277 338.435 320.387 333.089 320.387 332.645C320.387 332.202 320.83 328.636 319.828 326.187C318.826 323.739 318.262 317.729 318.262 317.729C318.262 317.729 318.262 309.272 317.259 304.265L313.808 287.036L307.575 251.754L309.522 251.42L344.413 245.301C344.413 245.301 350.981 278.714 348.751 282.139C348.271 282.891 347.848 284.535 347.498 286.655C346.225 294.236 345.749 307.846 345.749 307.846C345.749 307.846 350.088 314.633 348.423 319.421C346.757 324.208 349.989 332.108 349.989 332.108C349.989 332.108 350.991 363.271 349.096 366.388C347.201 369.504 349.545 381.946 349.545 381.946Z" fill="#575988"/>
<path d="M346.204 154.135C346.204 154.135 314.597 176.391 321.718 165.26C325.555 159.267 324.85 151.634 323.347 145.87C322.587 142.938 321.537 140.09 320.214 137.365C320.214 137.365 347.07 125.942 343.51 136.18C342.675 138.565 342.32 141.092 342.466 143.615C342.679 147.407 343.976 151.058 346.204 154.135Z" fill="#D28690"/>
<path d="M289.296 205.106C289.296 205.106 275.942 201.247 273.718 205.033C271.493 208.818 274.386 217.124 278.416 218.461C282.447 219.797 291.698 213.934 291.698 213.934L289.296 205.106Z" fill="#D28690"/>
<path d="M304.583 198.543L299.018 203.665C299.018 203.665 289.333 204.552 286.55 203.884C286.55 203.884 289.114 221.024 285.438 223.138L307.919 218.575L304.583 198.543Z" fill="#585B8A"/>
<path opacity="0.1" d="M304.583 198.543L299.018 203.665C299.018 203.665 289.333 204.552 286.55 203.884C286.55 203.884 289.114 221.024 285.438 223.138L307.919 218.575L304.583 198.543Z" fill="black"/>
<path opacity="0.1" d="M233.131 124.976C233.131 129.407 231.371 133.657 228.238 136.79C225.105 139.923 220.855 141.683 216.424 141.683C207.852 137.564 199.718 134.212 199.718 124.976C199.629 122.729 199.995 120.486 200.794 118.383C201.592 116.28 202.808 114.36 204.367 112.738C205.926 111.117 207.796 109.826 209.866 108.945C211.935 108.064 214.162 107.609 216.411 107.609C218.661 107.609 220.887 108.064 222.957 108.945C225.027 109.826 226.897 111.117 228.456 112.738C230.015 114.36 231.23 116.28 232.029 118.383C232.828 120.486 233.194 122.729 233.105 124.976H233.131Z" fill="black"/>
<path d="M233.131 124.527C233.133 128.456 231.748 132.26 229.22 135.268C226.692 138.275 223.183 140.294 219.312 140.967C215.441 141.64 211.457 140.924 208.062 138.947C204.667 136.969 202.079 133.856 200.755 130.157C199.432 126.457 199.456 122.41 200.826 118.727C202.195 115.044 204.82 111.963 208.239 110.027C211.658 108.091 215.651 107.425 219.514 108.145C223.376 108.866 226.86 110.927 229.351 113.966C231.791 116.945 233.126 120.676 233.131 124.527Z" fill="#FFD6D6"/>
<path opacity="0.1" d="M242.868 226.683C241.215 227.71 239.485 228.607 237.694 229.367C237.694 229.367 229.236 228.14 228.014 229.586C226.793 231.032 216.007 231.591 216.007 231.591C216.007 231.591 199.535 230.813 197.086 228.699C196.329 228.085 195.487 227.586 194.585 227.216L194.857 222.987C194.857 222.987 237.297 220.314 240.711 223.577C241.6 224.483 242.329 225.534 242.868 226.683Z" fill="black"/>
<path d="M244.93 223.692C244.596 225.582 237.694 228.474 237.694 228.474C237.694 228.474 229.236 227.252 228.015 228.699C226.793 230.145 216.007 230.703 216.007 230.703C216.007 230.703 199.535 229.92 197.086 227.806C194.638 225.691 189.182 224.673 189.182 224.673C189.182 224.673 186.399 204.866 187.517 200.527C188.634 196.188 185.846 184.275 185.178 180.046C184.51 175.817 187.068 164.133 190.185 162.243C193.301 160.353 197.755 154.004 200.423 152.114C202.673 150.522 205.158 148.46 205.884 147.838L206.098 147.661C206.098 147.661 206.547 144.21 208.327 142.44C210.107 140.67 226.464 153.68 226.464 153.68C226.464 153.68 226.579 154.683 227.691 152.793C227.942 152.37 230.098 155.482 230.474 156.797C230.474 156.797 239.375 172.381 239.934 175.592C240.493 178.803 242.826 189.281 243.27 191.84C243.385 192.497 243.573 194.805 243.792 197.896C243.834 198.501 243.87 199.143 243.917 199.812C244.246 204.939 244.601 211.486 244.815 216.435C244.815 216.999 244.862 217.542 244.878 218.064C244.991 219.938 245.008 221.816 244.93 223.692Z" fill="#DCE6F2"/>
<path opacity="0.1" d="M188.415 183.512C188.415 183.512 194.533 190.968 196.538 190.968C198.543 190.968 188.415 183.512 188.415 183.512Z" fill="black"/>
<path opacity="0.1" d="M201.305 199.54C201.305 199.54 191.286 210.446 192.623 212.451C193.959 214.456 201.305 199.54 201.305 199.54Z" fill="black"/>
<path opacity="0.1" d="M193.959 221.243C193.959 221.243 205.445 208.666 205.967 204.328L193.959 221.243Z" fill="black"/>
<path opacity="0.1" d="M208.426 222.131C208.426 222.131 221.672 215.119 222.784 209.554C223.896 203.988 208.426 222.131 208.426 222.131Z" fill="black"/>
<path opacity="0.1" d="M225.232 154.469L223.394 158.917L226.453 160.363L229.461 168.769C229.461 168.769 237.751 185.35 237.417 193.975C237.083 202.6 238.921 215.563 238.921 215.563L243.703 214.675L241.448 189.307C241.096 185.38 240.113 181.534 238.534 177.921C234.713 169.171 227.602 153.017 227.153 153.017C226.542 153.017 226.97 153.242 226.97 153.242L225.232 154.469Z" fill="black"/>
<path d="M225.676 154.02L223.838 158.473L226.903 159.919L229.904 168.325C229.904 168.325 238.195 184.906 237.861 193.531C237.527 202.156 239.365 215.119 239.365 215.119L244.152 214.232L241.892 188.864C241.544 184.936 240.562 181.09 238.984 177.477C235.162 168.722 228.051 152.574 227.607 152.574C226.991 152.574 227.419 152.798 227.419 152.798L225.676 154.02Z" fill="#575989"/>
<path d="M279.873 219.426C277.545 219.249 271.958 216.424 269.74 215.25L268.8 214.728L268.915 206.108C269.463 205.785 270.032 205.498 270.617 205.247C273.582 203.952 279.664 202.192 282.713 207.857C286.827 215.453 282.823 219.625 279.873 219.426Z" fill="#FFD6D6"/>
<path opacity="0.1" d="M229.351 113.966C229.112 114.115 228.849 114.223 228.573 114.284C226.636 114.707 224.433 113.041 222.773 114.112C221.76 114.77 221.525 116.132 221.389 117.333C221.152 119.421 220.916 121.496 220.679 123.556C220.629 124.29 220.475 125.012 220.22 125.702C219.4 127.576 217.15 128.459 215.098 128.427C214.294 128.485 213.501 128.222 212.89 127.696C212.529 127.331 212.336 126.819 211.939 126.485C209.329 124.298 208.535 129.659 209.225 131.184C210.331 133.674 214.263 136.076 212.613 139.24C212.335 139.754 211.915 140.176 211.402 140.456C208.916 139.677 206.646 138.328 204.774 136.516C202.902 134.704 201.48 132.479 200.622 130.02C199.763 127.56 199.491 124.934 199.829 122.35C200.166 119.767 201.103 117.298 202.564 115.142C204.025 112.985 205.971 111.2 208.245 109.929C210.519 108.658 213.059 107.937 215.662 107.822C218.265 107.708 220.858 108.204 223.235 109.271C225.612 110.337 227.706 111.945 229.351 113.966Z" fill="black"/>
<path d="M211.496 126.464C211.888 126.793 212.086 127.305 212.446 127.67C213.057 128.195 213.851 128.458 214.655 128.401C216.706 128.432 218.957 127.555 219.771 125.671C220.031 124.984 220.187 124.263 220.236 123.53L220.946 117.307C221.082 116.106 221.311 114.743 222.329 114.086C223.99 113.041 226.193 114.681 228.13 114.258C228.828 114.08 229.432 113.644 229.82 113.037C230.208 112.43 230.35 111.698 230.218 110.99C229.993 109.993 229.231 109.204 228.84 108.254C228.602 107.524 228.412 106.779 228.271 106.025C227.19 101.973 222.434 99.697 218.299 100.376C216.002 100.757 213.866 101.853 211.564 102.187C209.914 102.428 208.228 102.271 206.562 102.448C205.015 102.608 203.511 103.052 202.125 103.759C201.761 103.92 201.439 104.163 201.185 104.469C200.948 104.882 200.789 105.335 200.715 105.805C200.156 107.894 198.36 109.434 197.06 111.193C195.574 113.218 194.713 115.634 194.586 118.142C194.535 118.783 194.595 119.428 194.763 120.048C194.873 120.413 195.045 120.768 195.129 121.144C195.385 122.288 194.8 123.431 194.513 124.569C194.156 126.021 194.284 127.551 194.878 128.923C196.883 133.533 203.487 135.073 204.86 139.913C206.08 140.498 207.397 140.852 208.745 140.957C210.092 140.983 211.543 140.404 212.17 139.208C213.814 136.076 209.888 133.643 208.781 131.158C208.087 129.628 208.865 124.271 211.496 126.464Z" fill="#353045"/>
<path opacity="0.1" d="M343.536 136.18C342.702 138.565 342.347 141.092 342.492 143.615C341.688 144.299 340.811 142.252 339.881 142.779C337.334 144.252 334.389 147.755 331.236 147.755C328.501 147.757 325.805 147.111 323.368 145.87C322.608 142.938 321.558 140.09 320.235 137.365C320.235 137.365 347.097 125.942 343.536 136.18Z" fill="black"/>
<path d="M348.579 129.503C348.579 132.937 347.561 136.294 345.653 139.15C343.745 142.006 341.033 144.231 337.86 145.545C334.687 146.86 331.195 147.204 327.827 146.534C324.459 145.864 321.365 144.21 318.936 141.781C316.508 139.353 314.854 136.259 314.184 132.89C313.514 129.522 313.858 126.031 315.172 122.858C316.486 119.685 318.712 116.973 321.567 115.065C324.423 113.157 327.78 112.138 331.215 112.138C333.495 112.138 335.753 112.586 337.861 113.459C339.968 114.331 341.882 115.61 343.495 117.223C345.107 118.835 346.386 120.75 347.259 122.857C348.131 124.964 348.58 127.222 348.579 129.503Z" fill="#D28690"/>
<path d="M347.838 157.993C347.838 157.993 344.57 161.553 344.126 161.846C343.682 162.138 334.206 202.046 334.039 202.511C333.872 202.975 322.757 239.01 322.757 239.01L304.949 247.765L306.437 203.691L319.489 167.343C319.489 167.343 323.796 162.446 325.127 160.666C326.459 158.886 343.082 148.198 343.082 148.198L345.922 154.051L347.838 157.993Z" fill="#F0F3F7"/>
<path opacity="0.1" d="M345.483 154.944L325.007 169.604L324.678 161.553C326.015 159.773 342.633 149.091 342.633 149.091L345.483 154.944Z" fill="black"/>
<path d="M345.927 154.051L325.451 168.711L325.132 160.666C326.469 158.88 343.087 148.198 343.087 148.198L345.927 154.051Z" fill="#F0F3F7"/>
<path d="M324.448 157.084L325.132 160.666L320.554 165.318L324.208 157.137C324.208 157.137 316.377 162.592 314.028 164.039C311.678 165.485 309.329 170.382 309.24 171.718C309.151 173.055 305.455 193.197 305.455 193.197C305.455 193.197 302.672 200.652 303.455 202.767C304.239 204.881 299.227 271.546 299.227 271.546C299.897 270.251 300.844 269.12 302.001 268.233C303.157 267.346 304.495 266.725 305.92 266.414L304.134 227.017C304.134 227.017 306.306 200.809 306.416 200.475C306.525 200.141 311.48 184.948 311.48 184.948L324.448 157.084Z" fill="#585B8A"/>
<path opacity="0.1" d="M325.581 161.11L325.226 168.419C325.226 168.419 320.272 184.055 318.606 186.613C316.941 189.172 311.871 204.422 311.871 204.422L309.016 230.912L304.119 233.141L301.707 228.699L305.716 203.116C305.716 203.116 313.281 181.528 314.398 179.299L319.979 167.542L325.581 161.11Z" fill="black"/>
<path d="M325.133 160.666L324.783 167.975C324.783 167.975 319.828 183.611 318.158 186.17C316.487 188.728 311.428 203.978 311.428 203.978L308.588 230.463L303.691 232.687L301.242 228.239L305.252 202.657C305.252 202.657 312.817 181.064 313.929 178.84L319.552 167.098L325.133 160.666Z" fill="#663D5C"/>
<path d="M267.411 216.456L276.981 223.081C276.981 223.081 283.731 219.296 279.8 216.847C275.869 214.399 272.381 214.028 271.118 214.028C269.854 214.028 267.411 216.456 267.411 216.456Z" fill="#D28690"/>
<path d="M274.558 204.208C274.345 204.341 274.169 204.526 274.047 204.746C273.925 204.967 273.862 205.214 273.864 205.466C273.864 207.497 274.094 212.874 275.796 210.447C277.884 207.476 277.503 204.808 280.693 206.734C282.675 207.969 284.41 209.563 285.809 211.433L284.921 205.053C284.921 205.053 278.364 201.816 274.558 204.208Z" fill="#D28690"/>
<path opacity="0.1" d="M348.762 282.118C348.282 282.87 347.859 284.514 347.509 286.634C327.993 292.487 313.715 280.113 313.715 280.113C311.987 274.259 310.575 268.316 309.486 262.31C309.136 260.253 309.214 256.265 309.538 251.399L344.429 245.28C344.429 245.28 350.991 278.667 348.762 282.118Z" fill="black"/>
<path d="M368.795 182.51C367.907 185.407 368.241 191.302 368.241 191.302L360.227 229.142C360.227 229.142 356.332 258.301 355.664 262.195C354.996 266.09 353.884 283.23 353.884 283.23C331.178 294.361 313.683 279.226 313.683 279.226C311.956 273.37 310.545 267.425 309.455 261.418C308.337 254.808 311.626 228.328 313.182 216.565C313.647 213.083 313.96 210.89 313.96 210.89L319.802 189.187C319.802 189.187 326.981 170.878 329.654 165.537C332.327 160.196 343.061 148.199 343.061 148.199C344.392 147.353 346.522 150.339 348.104 153.059C349.3 155.116 350.193 157.027 350.193 157.027C350.193 157.027 363.548 162.812 365.547 165.902C367.547 168.993 367.218 175.363 367.442 175.697C367.667 176.031 369.687 179.618 368.795 182.51Z" fill="#585B8A"/>
<path opacity="0.1" d="M337.302 169.045C337.302 169.045 338.304 174.945 335.736 176.725C333.256 178.448 314.795 214.748 313.646 217.014C314.111 213.527 314.424 211.334 314.424 211.334L320.266 189.636C320.266 189.636 327.45 171.327 330.118 165.981C332.786 160.635 343.531 148.642 343.531 148.642C344.862 147.797 346.987 150.783 348.569 153.503C346.183 158.457 341.207 167.824 337.302 169.045Z" fill="black"/>
<path d="M336.858 168.602C336.858 168.602 337.856 174.501 335.292 176.281C332.729 178.062 314.357 214.299 313.192 216.565C313.657 213.083 313.97 210.89 313.97 210.89L319.812 189.187C319.812 189.187 326.991 170.878 329.664 165.537C332.337 160.196 343.071 148.199 343.071 148.199C344.402 147.353 346.533 150.339 348.115 153.059C345.739 158.008 340.758 167.38 336.858 168.602Z" fill="#585B8A"/>
<path d="M363.344 221.911L357.063 254.589V254.594L356.463 257.721V257.726L355.11 264.759L349.341 263.537L346.653 262.968L309.444 255.085L306.708 254.505L300.464 253.184L301.686 245.071L302.192 241.698L306.698 211.783L363.344 221.911Z" fill="#009F36"/>
<path d="M328.62 248.621C328.62 248.621 313.819 253.962 317.046 260.305C320.272 266.649 340.973 255.408 340.973 255.408L328.62 248.621Z" fill="#D28690"/>
<path opacity="0.1" d="M339.192 294.136C339.192 294.58 339.751 300.261 341.975 302.26C344.199 304.26 339.192 294.136 339.192 294.136Z" fill="black"/>
<path opacity="0.1" d="M324.282 314.278C324.282 314.278 326.95 321.624 337.522 324.631C348.094 327.639 324.282 314.278 324.282 314.278Z" fill="black"/>
<path opacity="0.1" d="M348.579 129.503C348.58 132.555 347.776 135.554 346.248 138.197C344.72 140.839 342.522 143.032 339.876 144.554C338.879 143.996 337.994 143.258 337.266 142.377C336.509 141.458 335.919 140.205 336.373 139.109C336.738 138.227 337.704 137.668 337.939 136.754C338.05 136.196 338.021 135.618 337.856 135.073C337.662 134.212 337.48 133.35 337.292 132.494C337.13 131.763 336.843 130.902 336.117 130.724C335.391 130.547 334.786 131.153 334.217 131.602C332.823 132.703 330.15 133.45 328.474 132.546C326.798 131.643 327.268 128.62 326.996 126.986C326.993 126.844 326.958 126.705 326.895 126.578C326.832 126.45 326.742 126.339 326.631 126.25C326.387 126.169 326.126 126.151 325.874 126.198C324.971 126.198 324.245 125.389 323.984 124.522C323.799 123.637 323.697 122.737 323.681 121.833C323.582 120.93 323.253 119.975 322.48 119.51C321.863 119.223 321.178 119.111 320.502 119.186L317.228 119.223C319.4 116.287 322.441 114.11 325.921 113.003C329.401 111.895 333.141 111.913 336.61 113.053C340.08 114.193 343.101 116.398 345.245 119.354C347.389 122.31 348.547 125.867 348.553 129.518L348.579 129.503Z" fill="black"/>
<path d="M334.682 131.601C335.251 131.153 335.877 130.557 336.582 130.73C337.287 130.902 337.59 131.774 337.751 132.494L338.315 135.068C338.482 135.615 338.513 136.194 338.404 136.754C338.138 137.673 337.177 138.227 336.806 139.109C336.352 140.205 336.947 141.458 337.699 142.372C339.07 144.025 340.966 145.158 343.071 145.583C343.621 145.715 344.193 145.727 344.747 145.619C345.99 145.332 346.836 144.189 347.504 143.119C350.955 137.741 353.926 131.847 354.531 125.488C354.697 124.191 354.637 122.875 354.354 121.598C354.071 120.606 353.671 119.651 353.163 118.753C352.275 116.918 351.146 115.21 349.806 113.673C347.431 111.115 344.152 109.543 340.785 108.614C336.997 107.563 333.042 107.253 329.137 107.701C328.093 107.821 327.091 107.993 326.062 108.061C324.771 108.121 323.477 108.1 322.188 107.998L314.503 107.539C314.065 108.431 314.503 109.491 315.025 110.327C315.547 111.162 316.195 112.029 316.153 113.021C316.111 114.013 315.406 114.796 314.863 115.631C314.32 116.466 313.908 117.547 314.451 118.361C314.994 119.176 316.101 119.228 317.061 119.218L320.935 119.176C321.61 119.107 322.291 119.224 322.903 119.515C323.676 119.98 324.005 120.941 324.104 121.839C324.126 122.742 324.227 123.642 324.407 124.527C324.673 125.394 325.394 126.214 326.297 126.203C326.55 126.153 326.812 126.173 327.054 126.261C327.165 126.348 327.255 126.459 327.318 126.585C327.381 126.712 327.416 126.85 327.419 126.992C327.691 128.626 327.19 131.643 328.897 132.552C330.604 133.46 333.288 132.703 334.682 131.601Z" fill="#663D5C"/>
<path opacity="0.1" d="M356.75 165.897C354.83 165.693 352.898 166.148 351.271 167.187C349.644 168.226 348.419 169.787 347.796 171.614C345.708 177.561 342.225 188.289 343.097 192.529C344.324 198.538 345.77 208.557 345.77 208.557C345.77 208.557 352.114 212.211 348.903 215.897C345.692 219.583 344.784 224.804 344.784 224.804C344.784 224.804 340.664 226.584 339.777 230.369C338.889 234.154 332.875 239.38 332.875 239.38L323.864 248.397C323.864 248.397 338.774 263.537 341.782 264.31L351.017 253.513L361.924 239.046L371.384 229.127C371.384 229.127 373.608 223.906 372.496 213.986C371.384 204.067 367.04 194.622 367.04 194.622L367.374 191.281C367.374 191.281 368.398 167.343 356.75 165.897Z" fill="black"/>
<path d="M357.638 165.897C355.72 165.696 353.79 166.152 352.165 167.19C350.541 168.229 349.317 169.789 348.694 171.614C346.606 177.56 343.124 188.289 343.996 192.529C345.217 198.538 346.663 208.557 346.663 208.557C346.663 208.557 353.007 212.211 349.796 215.897C346.585 219.583 345.682 224.804 345.682 224.804C345.682 224.804 341.563 226.584 340.67 230.369C339.777 234.154 333.773 239.38 333.773 239.38L324.757 248.397C324.757 248.397 339.667 263.537 342.675 264.31L351.91 253.513L362.791 239.046L372.251 229.127C372.251 229.127 374.48 223.906 373.363 213.986C372.245 204.067 367.912 194.622 367.912 194.622L368.246 191.281C368.246 191.281 369.285 167.343 357.638 165.897Z" fill="#585B8A"/>
<path opacity="0.1" d="M348.318 199.765C348.318 199.765 357.779 211.334 361.788 208.776C365.798 206.218 348.318 199.765 348.318 199.765Z" fill="black"/>
<path opacity="0.1" d="M351.879 190.858C352.881 191.192 361.12 202.657 365.349 201.3C369.578 199.942 351.879 190.858 351.879 190.858Z" fill="black"/>
<path opacity="0.1" d="M354.218 210.551C354.218 210.551 354.776 217.119 361.563 216.226C368.351 215.333 354.218 210.551 354.218 210.551Z" fill="black"/>
<path opacity="0.1" d="M324.224 157.58L320.554 165.761L325.138 161.11L324.224 157.58Z" fill="black"/>
<path d="M324.224 157.137L320.554 165.318L325.138 160.666L324.224 157.137Z" fill="#F0F3F7"/>
<path opacity="0.3" d="M309.444 255.085L306.708 254.505L301.686 245.071L302.192 241.698L309.444 255.085Z" fill="black"/>
<path opacity="0.3" d="M357.063 254.594L356.463 257.721V257.726L349.342 263.537L346.653 262.968L357.063 254.594Z" fill="black"/>
<path opacity="0.1" d="M244.862 218.085C243.484 218.314 242.148 218.523 240.926 218.68C234.139 219.573 217.996 211.559 217.996 211.559C217.996 211.559 198.298 195.087 192.623 179.508C186.948 163.929 199.41 161.59 199.41 161.59C204.109 158.917 214.326 166.372 215.772 167.599C217.218 168.826 218.445 171.938 218.33 173.943C218.215 175.947 221.671 178.506 221.671 178.506C221.671 178.506 227.571 188.744 229.017 189.856C230.463 190.968 230.797 191.97 231.241 193.865C231.685 195.76 235.58 197.316 237.25 197.201C238.921 197.086 240.905 197.76 240.905 198.648C240.905 199.363 242.539 199.718 243.881 199.833C244.278 205.539 244.669 213.015 244.862 218.085Z" fill="black"/>
<path opacity="0.1" d="M244.8 216.456C243.755 216.623 242.753 216.774 241.813 216.899C235.026 217.792 218.889 209.778 218.889 209.778C218.889 209.778 199.19 193.307 193.515 177.728C187.84 162.149 200.302 159.81 200.302 159.81C205.001 157.137 215.213 164.592 216.659 165.819C218.105 167.046 219.332 170.157 219.223 172.162C219.113 174.167 222.559 176.725 222.559 176.725C222.559 176.725 228.458 186.963 229.905 188.075C231.351 189.187 231.685 190.19 232.134 192.085C232.583 193.98 236.472 195.531 238.143 195.421C239.814 195.311 241.798 195.98 241.798 196.867C241.798 197.389 242.727 197.739 243.761 197.911C243.802 198.517 243.839 199.159 243.886 199.827C244.231 204.959 244.586 211.506 244.8 216.456Z" fill="black"/>
<path opacity="0.1" d="M270.617 205.247L270.194 215.25H269.74L268.8 214.728L268.915 206.108C269.463 205.785 270.032 205.498 270.617 205.247Z" fill="black"/>
<path d="M199.41 160.697C199.41 160.697 186.948 163.036 192.623 178.615C198.298 194.194 217.996 210.671 217.996 210.671C217.996 210.671 234.134 218.68 240.926 217.792C247.718 216.905 258.061 214.566 259.397 214.9C260.734 215.234 269.75 215.234 269.75 215.234L270.194 204.792L259.752 204.234L254.411 203.122C254.411 203.122 252.516 201.555 251.404 201.785C250.292 202.015 247.958 200.449 247.958 200.449C247.958 200.449 246.173 199.002 244.826 199.002C243.479 199.002 240.931 198.668 240.931 197.781C240.931 196.893 238.926 196.215 237.277 196.335C235.627 196.455 231.685 194.888 231.226 192.972C230.766 191.056 230.448 190.08 229.002 188.968C227.555 187.856 221.656 177.613 221.656 177.613C221.656 177.613 218.205 175.055 218.314 173.055C218.424 171.055 217.202 167.933 215.756 166.706C214.31 165.48 204.077 158.029 199.41 160.697Z" fill="#DCE6F2"/>
<path opacity="0.1" d="M231.466 196.533C231.466 196.533 226.678 201.32 227.9 202.208L231.466 196.533Z" fill="black"/>
<path opacity="0.1" d="M236.582 200.318C236.582 200.318 230.348 205.106 232.019 205.44C233.69 205.774 236.582 200.318 236.582 200.318Z" fill="black"/>
<path opacity="0.1" d="M226.004 207.418C226.897 207.867 240.137 215.772 245.149 215.657L226.004 207.418Z" fill="black"/>
<path opacity="0.1" d="M226.903 154.578C226.903 154.578 224.564 162.258 223.671 162.258C222.972 162.258 211.225 152.746 206.322 148.747L206.536 148.569C206.536 148.569 206.98 145.118 208.76 143.348C210.541 141.578 226.903 154.578 226.903 154.578Z" fill="black"/>
<path d="M226.454 153.686C226.454 153.686 224.12 161.366 223.227 161.366C222.522 161.366 210.775 151.853 205.873 147.854L206.087 147.676C206.087 147.676 206.536 144.226 208.316 142.456C210.097 140.686 226.454 153.686 226.454 153.686Z" fill="#DCE6F2"/>
<g opacity="0.15">
<path opacity="0.15" d="M194.936 128.866C196.502 132.442 200.814 134.175 203.315 137.026C201.827 133.523 197.478 131.805 194.936 128.866Z" fill="black"/>
<path opacity="0.15" d="M210.896 137.104C210.275 138.3 208.807 138.879 207.471 138.853C206.283 138.768 205.119 138.471 204.036 137.976C204.429 138.556 204.728 139.193 204.923 139.866C206.142 140.452 207.459 140.806 208.807 140.91C210.16 140.941 211.611 140.362 212.232 139.161C213.23 137.256 212.191 135.627 210.974 134.087C211.201 134.56 211.312 135.08 211.298 135.605C211.285 136.129 211.147 136.643 210.896 137.104Z" fill="black"/>
<path opacity="0.15" d="M230.27 110.937C230.046 109.935 229.283 109.147 228.892 108.202C228.652 107.471 228.462 106.724 228.323 105.967C228.026 104.897 227.476 103.914 226.72 103.101C226.825 103.358 226.914 103.621 226.986 103.889C227.133 104.649 227.328 105.399 227.571 106.134C227.963 107.079 228.725 107.868 228.949 108.87C229.082 109.578 228.939 110.31 228.551 110.917C228.164 111.524 227.559 111.961 226.861 112.138C224.929 112.561 222.726 110.89 221.066 111.966C220.048 112.619 219.813 113.981 219.677 115.182C219.444 117.27 219.207 119.346 218.967 121.41C218.92 122.143 218.765 122.864 218.508 123.551C217.688 125.43 215.438 126.313 213.386 126.281C212.584 126.335 211.794 126.073 211.183 125.551C210.886 125.13 210.567 124.726 210.227 124.339C207.617 122.147 206.823 127.508 207.513 129.038C207.858 129.726 208.285 130.37 208.786 130.954C208.212 129.231 209.016 124.271 211.564 126.396C211.903 126.782 212.221 127.186 212.514 127.608C213.127 128.129 213.919 128.391 214.723 128.338C216.774 128.37 219.025 127.487 219.844 125.608C220.102 124.919 220.257 124.196 220.304 123.462C220.54 121.374 220.777 119.299 221.014 117.239C221.149 116.038 221.384 114.676 222.397 114.023C224.063 112.947 226.266 114.618 228.198 114.19C228.89 114.01 229.489 113.575 229.874 112.972C230.258 112.368 230.4 111.641 230.27 110.937Z" fill="black"/>
</g>
<path opacity="0.1" d="M345.859 144.288C345.304 144.392 344.733 144.377 344.184 144.246C342.081 143.822 340.187 142.69 338.817 141.041C338.06 140.122 337.464 138.869 337.924 137.773C338.289 136.89 339.25 136.337 339.49 135.418C339.599 134.857 339.568 134.278 339.401 133.732L338.837 131.158C338.676 130.427 338.394 129.565 337.668 129.393C336.942 129.221 336.337 129.816 335.768 130.265C334.374 131.367 331.695 132.118 330.025 131.21C328.354 130.302 328.819 127.284 328.547 125.65C328.543 125.509 328.508 125.37 328.445 125.244C328.381 125.118 328.292 125.007 328.182 124.919C327.937 124.834 327.674 124.814 327.419 124.861C326.516 124.861 325.796 124.052 325.53 123.186C325.349 122.3 325.249 121.4 325.232 120.497C325.127 119.599 324.804 118.638 324.026 118.174C323.413 117.885 322.732 117.767 322.058 117.834L318.184 117.876C317.228 117.876 316.095 117.813 315.573 117.02C315.051 116.226 315.438 115.098 315.986 114.289C316.534 113.48 317.228 112.676 317.275 111.679C317.322 110.682 316.675 109.82 316.148 108.985C315.845 108.528 315.623 108.023 315.49 107.492L314.378 107.424C313.944 108.311 314.378 109.371 314.9 110.212C315.422 111.052 316.075 111.914 316.028 112.9C315.981 113.887 315.286 114.681 314.738 115.511C314.19 116.341 313.788 117.427 314.331 118.241C314.874 119.056 315.975 119.113 316.941 119.103L320.815 119.056C321.49 118.99 322.171 119.11 322.783 119.4C323.561 119.865 323.89 120.826 323.989 121.724C324.006 122.627 324.107 123.528 324.292 124.412C324.553 125.274 325.279 126.099 326.182 126.083C326.435 126.038 326.696 126.058 326.939 126.141C327.05 126.23 327.14 126.341 327.203 126.468C327.266 126.596 327.301 126.735 327.305 126.877C327.576 128.506 327.075 131.528 328.782 132.437C330.489 133.345 333.152 132.593 334.525 131.492C335.094 131.043 335.726 130.448 336.431 130.615C337.135 130.782 337.438 131.659 337.595 132.379L338.164 134.958C338.329 135.505 338.358 136.084 338.247 136.645C337.986 137.558 337.021 138.117 336.655 138.994C336.201 140.091 336.791 141.349 337.548 142.262C338.928 143.919 340.836 145.051 342.951 145.468C343.501 145.599 344.072 145.613 344.627 145.51C345.525 145.236 346.295 144.651 346.799 143.86C346.514 144.058 346.196 144.203 345.859 144.288Z" fill="black"/>
<path opacity="0.1" d="M106.343 374.861C113.312 374.861 118.962 373.994 118.962 372.924C118.962 371.854 113.312 370.987 106.343 370.987C99.3742 370.987 93.7246 371.854 93.7246 372.924C93.7246 373.994 99.3742 374.861 106.343 374.861Z" fill="#75CD22"/>
<path opacity="0.1" d="M546.94 324.501C553.909 324.501 559.558 323.634 559.558 322.564C559.558 321.494 553.909 320.627 546.94 320.627C539.97 320.627 534.321 321.494 534.321 322.564C534.321 323.634 539.97 324.501 546.94 324.501Z" fill="#009F36"/>
<path opacity="0.1" d="M418.293 406.223C438.477 406.223 454.839 403.712 454.839 400.615C454.839 397.519 438.477 395.008 418.293 395.008C398.109 395.008 381.747 397.519 381.747 400.615C381.747 403.712 398.109 406.223 418.293 406.223Z" fill="#75CD22"/>
<path opacity="0.1" d="M522.182 381.236C537.926 381.236 550.688 379.277 550.688 376.861C550.688 374.444 537.926 372.485 522.182 372.485C506.439 372.485 493.677 374.444 493.677 376.861C493.677 379.277 506.439 381.236 522.182 381.236Z" fill="#75CD22"/>
<path opacity="0.1" d="M517.489 427.873C544.186 427.873 565.829 424.552 565.829 420.454C565.829 416.357 544.186 413.036 517.489 413.036C490.792 413.036 469.149 416.357 469.149 420.454C469.149 424.552 490.792 427.873 517.489 427.873Z" fill="#75CD22"/>
<path opacity="0.1" d="M52.3334 432.588C72.5171 432.588 88.8792 430.077 88.8792 426.98C88.8792 423.884 72.5171 421.373 52.3334 421.373C32.1497 421.373 15.7876 423.884 15.7876 426.98C15.7876 430.077 32.1497 432.588 52.3334 432.588Z" fill="#75CD22"/>
<path d="M106.918 311.235C106.918 311.235 108.348 313.104 106.26 315.933C104.171 318.763 102.449 321.154 103.127 322.898C103.127 322.898 106.26 317.677 108.87 317.583C111.481 317.489 109.742 314.388 106.918 311.235Z" fill="#009F36"/>
<path opacity="0.1" d="M106.918 311.235C107.045 311.413 107.144 311.61 107.21 311.819C109.716 314.764 111.047 317.505 108.64 317.562C106.401 317.625 103.712 321.635 103.07 322.647C103.089 322.725 103.114 322.802 103.143 322.877C103.143 322.877 106.275 317.656 108.886 317.562C111.496 317.468 109.742 314.388 106.918 311.235Z" fill="black"/>
<path d="M109.58 313.615C109.58 314.273 109.502 314.806 109.413 314.806C109.324 314.806 109.246 314.284 109.246 313.615C109.246 312.947 109.34 313.271 109.429 313.271C109.518 313.271 109.58 312.957 109.58 313.615Z" fill="#FFD037"/>
<path d="M110.489 314.404C109.914 314.717 109.408 314.926 109.366 314.827C109.324 314.727 109.752 314.43 110.332 314.111C110.911 313.793 110.682 314.028 110.724 314.111C110.765 314.195 111.068 314.085 110.489 314.404Z" fill="#FFD037"/>
<path d="M99.3683 311.235C99.3683 311.235 97.9378 313.104 100.026 315.933C102.114 318.763 103.843 321.154 103.159 322.898C103.159 322.898 100.026 317.677 97.4418 317.583C94.8575 317.489 96.5282 314.388 99.3683 311.235Z" fill="#009F36"/>
<path opacity="0.1" d="M99.3679 311.235C99.2432 311.415 99.1447 311.612 99.0756 311.819C96.5696 314.764 95.2382 317.505 97.6451 317.562C99.8848 317.625 102.574 321.635 103.221 322.647C103.199 322.725 103.173 322.802 103.143 322.877C103.143 322.877 100.01 317.656 97.4258 317.562C94.8415 317.468 96.5278 314.388 99.3679 311.235Z" fill="black"/>
<path d="M96.7109 313.615C96.7109 314.273 96.784 314.806 96.8728 314.806C96.9615 314.806 97.0398 314.284 97.0398 313.615C97.0398 312.947 96.9459 313.271 96.8571 313.271C96.7684 313.271 96.7109 312.957 96.7109 313.615Z" fill="#FFD037"/>
<path d="M95.7969 314.404C96.3764 314.717 96.8776 314.926 96.9246 314.827C96.9716 314.727 96.5331 314.43 95.9535 314.111C95.374 313.793 95.6037 314.028 95.562 314.111C95.5202 314.195 95.2174 314.085 95.7969 314.404Z" fill="#FFD037"/>
<path opacity="0.1" d="M103.143 337.193C111.398 337.193 118.09 336.167 118.09 334.901C118.09 333.635 111.398 332.609 103.143 332.609C94.8874 332.609 88.1953 333.635 88.1953 334.901C88.1953 336.167 94.8874 337.193 103.143 337.193Z" fill="#75CD22"/>
<path d="M110.838 320.371L110.765 320.956L110.666 321.781L110.624 322.125L110.525 322.95L110.478 323.295L110.379 324.12L109.236 333.517C109.136 334.353 107.769 335.005 106.103 335.005H100.183C98.533 335.005 97.1651 334.353 97.0503 333.517L95.9069 324.12L95.8077 323.295L95.7659 322.95L95.6615 322.125L95.6197 321.781L95.5206 320.956L95.4475 320.371C95.39 319.896 96.1314 319.499 97.0659 319.499H109.225C110.155 319.499 110.896 319.896 110.838 320.371Z" fill="#65617D"/>
<path d="M110.765 320.956L110.666 321.781H95.6197L95.5205 320.956H110.765Z" fill="#9D9CB5"/>
<path d="M110.624 322.125L110.525 322.95H95.7655L95.6611 322.125H110.624Z" fill="#9D9CB5"/>
<path d="M110.483 323.295L110.379 324.12H95.9068L95.8076 323.295H110.483Z" fill="#9D9CB5"/>
<path d="M536.994 304.004C536.994 304.004 535.209 312.315 543.149 313.297L543.64 312.373C543.64 312.373 537.485 306.583 536.994 304.004Z" fill="#009F36"/>
<path d="M546.167 312.305L544.319 312.697L544.136 312.738C544.136 312.738 539.207 308.739 539.27 299.812C539.929 301.128 540.718 302.375 541.625 303.534C543.577 306.118 545.796 309.564 546.167 312.305Z" fill="#009F36"/>
<path d="M546.788 313.161C546.643 313.256 546.479 313.316 546.307 313.339C546.135 313.362 545.961 313.345 545.796 313.292C541.056 312.185 542.664 296.736 542.664 296.736C542.925 296.857 543.186 298.825 544.303 301.362C546.209 305.815 548.313 312.044 546.788 313.161Z" fill="#009F36"/>
<path d="M557.303 304.004C557.303 304.004 557.611 312.315 549.67 313.297L549.174 312.357C549.174 312.357 556.812 306.583 557.303 304.004Z" fill="#009F36"/>
<path d="M555.027 299.827C555.089 308.755 548.689 312.754 548.689 312.754L548.501 312.712L546.658 312.321C547.023 309.58 549.268 306.134 551.195 303.55C552.3 302.144 553.589 300.892 555.027 299.827Z" fill="#009F36"/>
<path d="M548.474 312.357C548.194 312.704 547.836 312.981 547.43 313.166C547.304 313.223 547.173 313.267 547.039 313.297C545.874 313.568 545.472 312.728 545.535 311.297C545.645 308.755 547.242 304.343 548.668 301.038C549.354 299.417 550.367 297.954 551.643 296.742C551.643 296.742 551.57 308.765 548.474 312.357Z" fill="#009F36"/>
<path d="M547.148 291.317C547.148 291.317 541.854 310.112 546.412 312.921C550.97 315.73 548.318 292.977 547.148 291.317Z" fill="#009F36"/>
<path opacity="0.1" d="M536.994 304.004C536.994 304.004 535.209 312.315 543.149 313.297L543.64 312.373C543.64 312.373 537.485 306.583 536.994 304.004Z" fill="black"/>
<path opacity="0.1" d="M546.167 312.305L544.319 312.697L544.136 312.738C544.136 312.738 539.207 308.739 539.27 299.812C539.929 301.128 540.718 302.375 541.625 303.534C543.577 306.118 545.796 309.564 546.167 312.305Z" fill="black"/>
<path opacity="0.1" d="M546.788 313.161C546.643 313.256 546.479 313.316 546.307 313.339C546.135 313.362 545.961 313.345 545.796 313.292C541.056 312.185 542.664 296.736 542.664 296.736C542.925 296.857 543.186 298.825 544.303 301.362C546.209 305.815 548.313 312.044 546.788 313.161Z" fill="black"/>
<path opacity="0.1" d="M557.303 304.004C557.303 304.004 557.611 312.315 549.67 313.297L549.174 312.357C549.174 312.357 556.812 306.583 557.303 304.004Z" fill="black"/>
<path opacity="0.1" d="M555.027 299.827C555.089 308.755 548.689 312.754 548.689 312.754L548.501 312.712L546.658 312.321C547.023 309.58 549.268 306.134 551.195 303.55C552.3 302.144 553.589 300.892 555.027 299.827Z" fill="black"/>
<path opacity="0.1" d="M548.474 312.357C548.194 312.704 547.836 312.981 547.43 313.166C547.304 313.223 547.173 313.267 547.039 313.297C545.874 313.568 545.472 312.728 545.535 311.297C545.645 308.755 547.242 304.343 548.668 301.038C549.354 299.417 550.367 297.954 551.643 296.742C551.643 296.742 551.57 308.765 548.474 312.357Z" fill="black"/>
<path opacity="0.1" d="M547.148 291.317C547.148 291.317 541.854 310.112 546.412 312.921C550.97 315.73 548.318 292.977 547.148 291.317Z" fill="black"/>
<path d="M536.994 304.004C536.994 304.004 535.95 312.315 543.885 313.297L544.376 312.373C544.376 312.373 537.485 306.583 536.994 304.004Z" fill="#009F36"/>
<path d="M546.903 312.305L545.055 312.697L544.872 312.738C544.872 312.738 539.208 308.739 539.255 299.827C539.255 299.827 540.706 301.393 542.345 303.55C544.314 306.118 546.532 309.564 546.903 312.305Z" fill="#009F36"/>
<path opacity="0.1" d="M546.903 312.305L545.055 312.697C543.306 311.162 542.611 307.152 542.361 303.534C544.313 306.118 546.532 309.564 546.903 312.305Z" fill="black"/>
<path d="M547.529 313.161C547.383 313.256 547.218 313.317 547.046 313.339C546.873 313.362 546.698 313.346 546.532 313.292C541.792 312.185 542.658 296.736 542.658 296.736C542.919 296.857 543.943 298.825 545.034 301.362C546.95 305.815 549.049 312.044 547.529 313.161Z" fill="#009F36"/>
<path d="M557.303 304.004C557.303 304.004 558.347 312.315 550.412 313.297L549.921 312.373C549.921 312.373 556.812 306.583 557.303 304.004Z" fill="#009F36"/>
<path d="M555.026 299.827C555.089 308.755 549.424 312.754 549.424 312.754L549.242 312.712L547.394 312.321C547.759 309.58 550.004 306.134 551.936 303.55C553.575 301.393 555.026 299.827 555.026 299.827Z" fill="#009F36"/>
<path opacity="0.1" d="M551.936 303.534C551.696 306.907 551.079 310.619 549.581 312.352C549.479 312.477 549.365 312.592 549.242 312.697L547.394 312.305C547.759 309.564 549.983 306.118 551.936 303.534Z" fill="black"/>
<path d="M549.211 312.357C548.932 312.706 548.574 312.983 548.167 313.166C548.042 313.222 547.913 313.266 547.78 313.297C546.611 313.568 546.214 312.728 546.271 311.297C546.386 308.755 547.984 304.343 549.404 301.038C550.448 298.663 551.393 296.862 551.644 296.742C551.644 296.736 552.307 308.765 549.211 312.357Z" fill="#009F36"/>
<path opacity="0.1" d="M547.53 313.161C547.26 313.164 546.996 313.08 546.778 312.921C544.549 311.532 544.502 306.322 545.034 301.362C546.95 305.815 549.049 312.044 547.53 313.161Z" fill="black"/>
<path opacity="0.1" d="M549.211 312.357C548.955 312.916 548.61 313.208 548.167 313.166C547.94 313.139 547.723 313.056 547.535 312.926C546.954 312.528 546.512 311.959 546.271 311.297C546.386 308.755 547.984 304.343 549.404 301.038C549.916 305.617 550.088 310.472 549.211 312.357Z" fill="black"/>
<path d="M547.148 291.317C547.148 291.317 542.596 310.112 547.148 312.921C551.701 315.73 548.318 292.977 547.148 291.317Z" fill="#009F36"/>
<path d="M555.888 312.002H536.931V315.14H539.824L539.897 315.511L541.056 321.603H552.077L553.236 315.511L553.304 315.14H555.888V312.002Z" fill="#4B4770"/>
<path opacity="0.1" d="M555.888 312.002H536.931V315.14H539.824L539.897 315.511L541.056 321.603H552.077L553.236 315.511L553.304 315.14H555.888V312.002Z" fill="black"/>
<path d="M554.291 313.845L553.972 315.511L552.813 321.603H541.792L540.633 315.511L540.314 313.845H554.291Z" fill="#4B4770"/>
<path opacity="0.1" d="M554.291 313.845L553.972 315.51H540.633L540.314 313.845H554.291Z" fill="black"/>
<path d="M556.624 312.002H537.667V315.14H556.624V312.002Z" fill="#4B4770"/>
<path d="M72.773 365.693C72.2732 366.382 71.8725 367.138 71.5826 367.938C71.5095 368.131 71.4364 368.356 71.3633 368.57C71.2309 368.508 71.0927 368.459 70.9509 368.424C70.3423 368.27 69.7127 368.217 69.0871 368.267C69.0871 368.022 69.1184 367.745 69.1236 367.5C69.2019 364.748 68.8782 360.916 66.2521 362.54C63.7357 364.106 65.5317 366.716 67.1553 368.387C67.2963 368.533 67.4373 368.669 67.573 368.8C66.0903 369.844 65.8084 372.313 65.563 374.877C65.3176 377.44 63.1405 380.244 61.6944 381.836C61.5482 381.998 61.4176 382.144 61.2871 382.28C60.7025 381.813 60.0258 381.476 59.3014 381.289C58.5771 381.103 57.8215 381.072 57.0844 381.199C57.0269 380.974 56.9591 380.74 56.8912 380.494C55.7217 376.271 53.294 368.956 50.1981 367.353L50.6053 366.831C51.921 365.114 53.4037 362.555 51.2161 361.903C49.0286 361.25 48.8302 364.116 48.9503 366.267C48.9712 366.539 48.9921 366.795 49.013 367.035C48.5757 367.055 48.1471 367.164 47.7538 367.356C47.3604 367.549 47.0107 367.819 46.7262 368.152L46.3869 367.75C44.6118 365.662 41.3592 362.336 40.3725 364.847C39.4536 367.186 42.3198 370.225 44.3351 371.984L44.4604 372.094C43.1082 377.581 49.013 382.055 52.1924 384.013L52.6049 384.264C48.2194 389.432 45.5098 399.122 45.5098 399.122L57.7892 401.315C57.7892 401.315 65.9337 394.288 64.8895 387.688H64.973C73.1123 386.06 74.9605 377.383 73.6918 372.23L73.838 372.172C75.3209 371.566 76.6201 370.583 77.6074 369.322C79.8837 366.163 75.1223 362.592 72.773 365.693Z" fill="#009F36"/>
<path opacity="0.1" d="M72.773 365.693C72.2732 366.382 71.8725 367.138 71.5826 367.938C71.5095 368.131 71.4364 368.356 71.3633 368.57C71.2309 368.508 71.0927 368.459 70.9509 368.424C70.3423 368.27 69.7127 368.217 69.0871 368.267C69.0871 368.022 69.1184 367.745 69.1236 367.5C69.2019 364.748 68.8782 360.916 66.2521 362.54C63.7357 364.106 65.5317 366.716 67.1553 368.387C67.2963 368.533 67.4373 368.669 67.573 368.8C66.0903 369.844 65.8084 372.313 65.563 374.877C65.3176 377.44 63.1405 380.244 61.6944 381.836C61.5482 381.998 61.4176 382.144 61.2871 382.28C60.7025 381.813 60.0258 381.476 59.3014 381.289C58.5771 381.103 57.8215 381.072 57.0844 381.199C57.0269 380.974 56.9591 380.74 56.8912 380.494C55.7217 376.271 53.294 368.956 50.1981 367.353L50.6053 366.831C51.921 365.114 53.4037 362.555 51.2161 361.903C49.0286 361.25 48.8302 364.116 48.9503 366.267C48.9712 366.539 48.9921 366.795 49.013 367.035C48.5757 367.055 48.1471 367.164 47.7538 367.356C47.3604 367.549 47.0107 367.819 46.7262 368.152L46.3869 367.75C44.6118 365.662 41.3592 362.336 40.3725 364.847C39.4536 367.186 42.3198 370.225 44.3351 371.984L44.4604 372.094C43.1082 377.581 49.013 382.055 52.1924 384.013L52.6049 384.264C48.2194 389.432 45.5098 399.122 45.5098 399.122L57.7892 401.315C57.7892 401.315 65.9337 394.288 64.8895 387.688H64.973C73.1123 386.06 74.9605 377.383 73.6918 372.23L73.838 372.172C75.3209 371.566 76.6201 370.583 77.6074 369.322C79.8837 366.163 75.1223 362.592 72.773 365.693Z" fill="black"/>
<path d="M48.3292 369.264L46.8934 373.441C46.8934 373.441 46.0947 372.877 45.087 371.989C43.0718 370.23 40.2056 367.192 41.1244 364.853C42.1112 362.341 45.3637 365.657 47.1388 367.755C47.8541 368.591 48.3292 369.264 48.3292 369.264Z" fill="#009F36"/>
<path d="M51.3574 366.837C50.9213 367.411 50.4542 367.962 49.9582 368.486C49.8357 367.753 49.7503 367.014 49.7024 366.273C49.5823 364.122 49.812 361.266 51.9682 361.908C54.1244 362.55 52.6731 365.119 51.3574 366.837Z" fill="#009F36"/>
<path d="M69.9016 367.5C69.8598 368.883 69.7241 369.99 69.7241 369.99C69.0926 369.496 68.4943 368.96 67.9333 368.387C66.3097 366.701 64.5137 364.101 67.0301 362.54C69.6301 360.911 69.9538 364.748 69.9016 367.5Z" fill="#009F36"/>
<path d="M78.3597 369.311C77.3724 370.573 76.0732 371.555 74.5902 372.162C74.1786 372.34 73.7567 372.493 73.3268 372.621L71.6353 370.246C71.8129 369.461 72.0467 368.69 72.3348 367.938C72.6247 367.138 73.0254 366.382 73.5252 365.693C75.8641 362.592 80.636 366.163 78.3597 369.311Z" fill="#009F36"/>
<path opacity="0.1" d="M47.1387 367.755C47.8539 368.591 48.329 369.238 48.329 369.238L46.8933 373.415C46.8933 373.415 46.0945 372.851 45.0869 371.963C45.3108 370.617 45.8671 369.349 46.7054 368.272C46.8463 368.1 46.9977 367.922 47.1387 367.755Z" fill="black"/>
<path opacity="0.1" d="M51.3572 366.837C50.921 367.411 50.4539 367.962 49.958 368.486C49.8354 367.753 49.75 367.014 49.7021 366.273C50.2988 366.285 50.877 366.482 51.3572 366.837Z" fill="black"/>
<path d="M58.4158 383.522L54.8448 385.089C54.8448 385.089 54.0669 384.713 52.9444 384.013C49.1906 381.705 41.6465 375.895 46.6794 369.045C51.7123 362.195 55.9568 374.48 57.6432 380.489C58.1496 382.316 58.4158 383.522 58.4158 383.522Z" fill="#009F36"/>
<path opacity="0.1" d="M67.9072 368.387C68.4267 367.852 69.1304 367.534 69.8755 367.5C69.8337 368.883 69.698 369.99 69.698 369.99C69.0665 369.496 68.4682 368.96 67.9072 368.387Z" fill="black"/>
<path opacity="0.1" d="M74.6005 372.162C74.1889 372.34 73.767 372.493 73.3371 372.621L71.6455 370.246C71.8231 369.461 72.0569 368.69 72.3451 367.938C73.4258 368.575 74.2298 370.162 74.6005 372.162Z" fill="black"/>
<path d="M65.7252 387.678C65.532 387.72 65.3284 387.756 65.1248 387.788C53.1534 389.605 61.1778 383.147 61.1778 383.147C61.1778 383.147 61.6999 382.624 62.4465 381.836C63.8927 380.244 66.0645 377.456 66.3151 374.877C66.691 370.998 67.1244 367.359 71.703 368.424C76.1982 369.478 77.0596 385.407 65.7252 387.678Z" fill="#009F36"/>
<path d="M65.5004 417.484H42.6279V423.498H65.5004V417.484Z" fill="#D4DFEC"/>
<path d="M68.8787 397.937H38.9946V418.925H68.8787V397.937Z" fill="#D4DFEC"/>
<path opacity="0.1" d="M65.5004 417.484H42.6279V423.498H65.5004V417.484Z" fill="black"/>
<path opacity="0.1" d="M68.8787 397.937H38.9946V418.925H68.8787V397.937Z" fill="black"/>
<path d="M67.0043 417.484H44.1318V423.498H67.0043V417.484Z" fill="#D4DFEC"/>
<path opacity="0.1" d="M57.6431 380.494C58.1652 382.29 58.4158 383.522 58.4158 383.522L54.8447 385.089C54.8447 385.089 54.0668 384.713 52.9443 384.013C54.3435 382.243 55.9202 380.907 57.6431 380.494Z" fill="black"/>
<path opacity="0.1" d="M65.7252 387.678C65.532 387.72 65.3284 387.756 65.1248 387.788C53.1534 389.605 61.1778 383.146 61.1778 383.146C61.1778 383.146 61.6999 382.624 62.4465 381.836C64.681 383.627 65.6051 385.642 65.7252 387.678Z" fill="black"/>
<path d="M46.2617 399.127C46.2617 399.127 52.9653 375.112 62.368 382.52C71.7707 389.928 58.5411 401.315 58.5411 401.315L46.2617 399.127Z" fill="#009F36"/>
<path opacity="0.1" d="M49.6449 373.561C50.0601 373.561 50.3967 373.224 50.3967 372.809C50.3967 372.394 50.0601 372.057 49.6449 372.057C49.2297 372.057 48.8931 372.394 48.8931 372.809C48.8931 373.224 49.2297 373.561 49.6449 373.561Z" fill="black"/>
<path opacity="0.1" d="M49.5824 377.069C49.9976 377.069 50.3342 376.733 50.3342 376.318C50.3342 375.902 49.9976 375.566 49.5824 375.566C49.1672 375.566 48.8306 375.902 48.8306 376.318C48.8306 376.733 49.1672 377.069 49.5824 377.069Z" fill="black"/>
<path opacity="0.1" d="M71.3895 374.25C71.8047 374.25 72.1413 373.914 72.1413 373.498C72.1413 373.083 71.8047 372.747 71.3895 372.747C70.9743 372.747 70.6377 373.083 70.6377 373.498C70.6377 373.914 70.9743 374.25 71.3895 374.25Z" fill="black"/>
<path opacity="0.1" d="M53.8475 392.236C54.2627 392.236 54.5993 391.899 54.5993 391.484C54.5993 391.069 54.2627 390.732 53.8475 390.732C53.4323 390.732 53.0957 391.069 53.0957 391.484C53.0957 391.899 53.4323 392.236 53.8475 392.236Z" fill="black"/>
<path opacity="0.1" d="M69.8236 380.077C70.2388 380.077 70.5754 379.74 70.5754 379.325C70.5754 378.91 70.2388 378.573 69.8236 378.573C69.4084 378.573 69.0718 378.91 69.0718 379.325C69.0718 379.74 69.4084 380.077 69.8236 380.077Z" fill="black"/>
<path opacity="0.1" d="M62.055 387.85C62.4702 387.85 62.8068 387.514 62.8068 387.099C62.8068 386.683 62.4702 386.347 62.055 386.347C61.6398 386.347 61.3032 386.683 61.3032 387.099C61.3032 387.514 61.6398 387.85 62.055 387.85Z" fill="black"/>
<path opacity="0.1" d="M52.2137 375.065C52.6289 375.065 52.9655 374.728 52.9655 374.313C52.9655 373.898 52.6289 373.561 52.2137 373.561C51.7985 373.561 51.4619 373.898 51.4619 374.313C51.4619 374.728 51.7985 375.065 52.2137 375.065Z" fill="black"/>
<path opacity="0.1" d="M69.3221 376.505C69.7373 376.505 70.0739 376.169 70.0739 375.754C70.0739 375.339 69.7373 375.002 69.3221 375.002C68.9069 375.002 68.5703 375.339 68.5703 375.754C68.5703 376.169 68.9069 376.505 69.3221 376.505Z" fill="black"/>
<path opacity="0.1" d="M66.7538 382.332C67.169 382.332 67.5056 381.995 67.5056 381.58C67.5056 381.165 67.169 380.828 66.7538 380.828C66.3385 380.828 66.002 381.165 66.002 381.58C66.002 381.995 66.3385 382.332 66.7538 382.332Z" fill="black"/>
<path opacity="0.1" d="M58.8597 391.672C59.2749 391.672 59.6115 391.335 59.6115 390.92C59.6115 390.505 59.2749 390.168 58.8597 390.168C58.4445 390.168 58.1079 390.505 58.1079 390.92C58.1079 391.335 58.4445 391.672 58.8597 391.672Z" fill="black"/>
<path opacity="0.1" d="M57.2308 387.976C57.646 387.976 57.9826 387.639 57.9826 387.224C57.9826 386.809 57.646 386.472 57.2308 386.472C56.8156 386.472 56.479 386.809 56.479 387.224C56.479 387.639 56.8156 387.976 57.2308 387.976Z" fill="black"/>
<path opacity="0.1" d="M53.3412 379.638C53.7564 379.638 54.093 379.301 54.093 378.886C54.093 378.471 53.7564 378.134 53.3412 378.134C52.9259 378.134 52.5894 378.471 52.5894 378.886C52.5894 379.301 52.9259 379.638 53.3412 379.638Z" fill="black"/>
<path opacity="0.1" d="M67.0043 417.484H44.1318V419.682H67.0043V417.484Z" fill="black"/>
<path d="M70.3821 397.937H40.498V418.925H70.3821V397.937Z" fill="#D4DFEC"/>
<path opacity="0.1" d="M59.8622 395.055C60.2774 395.055 60.6139 394.719 60.6139 394.303C60.6139 393.888 60.2774 393.552 59.8622 393.552C59.4469 393.552 59.1104 393.888 59.1104 394.303C59.1104 394.719 59.4469 395.055 59.8622 395.055Z" fill="black"/>
<path opacity="0.1" d="M55.3514 395.995C55.7666 395.995 56.1032 395.658 56.1032 395.243C56.1032 394.828 55.7666 394.491 55.3514 394.491C54.9362 394.491 54.5996 394.828 54.5996 395.243C54.5996 395.658 54.9362 395.995 55.3514 395.995Z" fill="black"/>
<path opacity="0.1" d="M26.1041 32.6094C29.1201 32.6094 31.565 30.1644 31.565 27.1484C31.565 24.1323 29.1201 21.6874 26.1041 21.6874C23.088 21.6874 20.6431 24.1323 20.6431 27.1484C20.6431 30.1644 23.088 32.6094 26.1041 32.6094Z" fill="#75CD22"/>
<path opacity="0.1" d="M550.573 206.27C554.61 206.27 557.882 202.997 557.882 198.961C557.882 194.924 554.61 191.651 550.573 191.651C546.537 191.651 543.264 194.924 543.264 198.961C543.264 202.997 546.537 206.27 550.573 206.27Z" fill="#75CD22"/>
<path opacity="0.1" d="M564.664 188.634C567.611 188.634 570 186.245 570 183.298C570 180.351 567.611 177.963 564.664 177.963C561.718 177.963 559.329 180.351 559.329 183.298C559.329 186.245 561.718 188.634 564.664 188.634Z" fill="#75CD22"/>
<path opacity="0.1" d="M35.5015 14.6183C39.5383 14.6183 42.8107 11.3459 42.8107 7.30916C42.8107 3.27242 39.5383 0 35.5015 0C31.4648 0 28.1924 3.27242 28.1924 7.30916C28.1924 11.3459 31.4648 14.6183 35.5015 14.6183Z" fill="#75CD22"/>
<path opacity="0.1" d="M7.30916 48.0317C11.3459 48.0317 14.6183 44.7592 14.6183 40.7225C14.6183 36.6858 11.3459 33.4133 7.30916 33.4133C3.27242 33.4133 0 36.6858 0 40.7225C0 44.7592 3.27242 48.0317 7.30916 48.0317Z" fill="#75CD22"/>
</g>
<defs>
<linearGradient id="paint0_linear" x1="275.206" y1="405.058" x2="275.206" y2="99.3786" gradientUnits="userSpaceOnUse">
<stop stop-color="#808080" stop-opacity="0.25"/>
<stop offset="0.54" stop-color="#808080" stop-opacity="0.12"/>
<stop offset="1" stop-color="#808080" stop-opacity="0.1"/>
</linearGradient>
<clipPath id="clip0">
<rect width="570" height="432.588" fill="white"/>
</clipPath>
</defs>
</svg>
