<svg width="200" height="87" viewBox="0 0 200 87" fill="none" xmlns="http://www.w3.org/2000/svg">
<path d="M44.2475 42.9928H8.1626L26.8145 9.57178H62.8994L44.2475 42.9928Z" fill="#EFEFEF"/>
<path d="M37.0081 15.0476L29.8429 27.6615C27.5529 31.6769 27.9592 33.7049 30.6924 33.6238C33.4994 33.5832 36.1587 31.6364 38.4855 27.4993L45.6877 14.8853L51.0432 14.8042L43.5825 27.9049C39.4828 35.0839 33.8318 38.572 27.6637 38.6937C21.6804 38.7748 20.0183 35.6112 24.2658 28.1483L31.6896 15.1692L37.0081 15.0476Z" fill="#8D8E8E"/>
<path d="M93.0376 19.6308V11.6812H93.961V19.5902C93.961 23.0378 95.4753 24.6602 98.0976 24.6602C100.72 24.6602 102.197 23.0378 102.197 19.5902V11.6812H103.121V19.6308C103.121 23.5651 101.2 25.593 98.0607 25.593C94.9213 25.593 93.0376 23.5651 93.0376 19.6308Z" fill="white"/>
<path d="M110.434 19.996L107.996 22.4296V25.4715H107.11V10.8701H107.996V21.2128L113.98 15.21H115.125L111.099 19.3876L115.531 25.5121H114.423L110.434 19.996Z" fill="white"/>
<path d="M121.92 15.1289V16.1023C121.847 16.1023 121.773 16.1023 121.699 16.1023C119.63 16.1023 118.375 17.603 118.375 20.1583V25.5121H117.488V15.21H118.338V17.4408C118.929 15.9401 120.185 15.1289 121.92 15.1289Z" fill="white"/>
<path d="M131.191 18.9415V25.4716H130.342V23.6464C129.751 24.8226 128.606 25.5527 126.981 25.5527C124.875 25.5527 123.62 24.3765 123.62 22.6324C123.62 21.0911 124.506 19.7527 127.128 19.7527H130.342V18.9415C130.342 17.0352 129.381 16.0212 127.572 16.0212C126.279 16.0212 125.097 16.5485 124.321 17.3191L123.878 16.589C124.802 15.6967 126.168 15.1289 127.645 15.1289C129.898 15.1289 131.191 16.4268 131.191 18.9415ZM130.268 22.4296V20.4828H127.055C125.097 20.4828 124.432 21.3751 124.432 22.5513C124.432 23.8897 125.392 24.7009 127.055 24.7009C128.643 24.7415 129.751 23.9303 130.268 22.4296Z" fill="white"/>
<path d="M134.589 11.8839C134.589 11.4378 134.921 11.0728 135.328 11.0728C135.734 11.0728 136.066 11.4378 136.066 11.8434C136.066 12.2895 135.734 12.6546 135.328 12.6546C134.921 12.6951 134.589 12.3301 134.589 11.8839ZM134.884 15.2098H135.771V25.5119H134.884V15.2098Z" fill="white"/>
<path d="M147.96 19.4688V25.4716H147.073V19.5499C147.073 17.238 145.928 15.9807 144.044 15.9807C141.828 15.9807 140.499 17.5219 140.499 19.996V25.4716H139.612V15.21H140.462V17.4408C141.09 16.0212 142.419 15.1289 144.192 15.1289C146.445 15.1289 147.96 16.589 147.96 19.4688Z" fill="white"/>
<path d="M151.357 11.8839C151.357 11.4378 151.69 11.0728 152.096 11.0728C152.502 11.0728 152.835 11.4378 152.835 11.8434C152.835 12.2895 152.502 12.6546 152.096 12.6546C151.69 12.6951 151.357 12.3301 151.357 11.8839ZM151.653 15.2098H152.539V25.5119H151.653V15.2098Z" fill="white"/>
<path d="M163.102 18.9415V25.4716H162.253V23.6464C161.662 24.8226 160.517 25.5527 158.892 25.5527C156.787 25.5527 155.531 24.3765 155.531 22.6324C155.531 21.0911 156.417 19.7527 159.04 19.7527H162.253V18.9415C162.253 17.0352 161.293 16.0212 159.483 16.0212C158.19 16.0212 157.008 16.5485 156.233 17.3191L155.789 16.589C156.713 15.6967 158.079 15.1289 159.557 15.1289C161.81 15.1289 163.102 16.4268 163.102 18.9415ZM162.216 22.4296V20.4828H159.003C157.045 20.4828 156.38 21.3751 156.38 22.5513C156.38 23.8897 157.341 24.7009 159.003 24.7009C160.591 24.7415 161.662 23.9303 162.216 22.4296Z" fill="white"/>
<path d="M175.217 19.4688V25.4716H174.33V19.5499C174.33 17.238 173.185 15.9807 171.302 15.9807C169.086 15.9807 167.756 17.5219 167.756 19.996V25.4716H166.87V15.21H167.719V17.4408C168.347 16.0212 169.677 15.1289 171.45 15.1289C173.666 15.1289 175.217 16.589 175.217 19.4688Z" fill="white"/>
<path d="M93.1484 35.3682H94.0718V49.1584H93.1484V35.3682Z" fill="white"/>
<path d="M106.519 43.1553V49.1581H105.632V43.2364C105.632 40.9246 104.487 39.6672 102.604 39.6672C100.387 39.6672 99.0578 41.2085 99.0578 43.6826V49.1581H98.1714V38.856H99.0209V41.0868C99.6488 39.6267 100.978 38.7749 102.751 38.7749C105.004 38.7749 106.519 40.2756 106.519 43.1553Z" fill="white"/>
<path d="M114.903 48.5094C114.423 48.9961 113.684 49.2395 112.982 49.2395C111.32 49.2395 110.434 48.1849 110.434 46.4409V39.708H108.698V38.8563H110.434V36.6255H111.32V38.8563H114.312V39.708H111.32V46.3192C111.32 47.6576 111.911 48.3877 113.056 48.3877C113.61 48.3877 114.127 48.1849 114.496 47.8199L114.903 48.5094Z" fill="white"/>
<path d="M124.949 44.2505H116.897C116.971 46.684 118.633 48.347 120.849 48.347C122.031 48.347 123.139 47.8603 123.841 46.8868L124.358 47.5358C123.546 48.6309 122.253 49.1987 120.813 49.1987C117.969 49.1987 115.974 47.0491 115.974 43.9665C115.974 40.884 117.895 38.7344 120.48 38.7344C123.066 38.7344 124.949 40.884 124.949 43.926C124.986 44.0477 124.949 44.1288 124.949 44.2505ZM116.897 43.4798H124.1C123.989 41.2491 122.511 39.6672 120.517 39.6672C118.523 39.6672 117.045 41.2085 116.897 43.4798Z" fill="white"/>
<path d="M127.756 34.5161H128.643V49.1581H127.756V34.5161Z" fill="white"/>
<path d="M132.447 34.5161H133.333V49.1581H132.447V34.5161Z" fill="white"/>
<path d="M136.842 35.571C136.842 35.1248 137.174 34.7598 137.58 34.7598C137.987 34.7598 138.319 35.1248 138.319 35.5304C138.319 35.9765 137.987 36.3416 137.58 36.3416C137.174 36.3416 136.842 36.0171 136.842 35.571ZM137.137 38.8563H138.024V49.1584H137.137V38.8563Z" fill="white"/>
<path d="M150.286 38.856V48.063C150.286 51.5105 148.772 53.0924 145.743 53.0924C144.044 53.0924 142.419 52.484 141.459 51.47L141.939 50.7399C142.862 51.6728 144.229 52.2406 145.743 52.2406C148.255 52.2406 149.4 50.9833 149.4 48.2252V46.4812C148.624 47.9819 147.184 48.8336 145.485 48.8336C142.826 48.8336 140.831 46.7651 140.831 43.8042C140.831 40.884 142.826 38.8154 145.485 38.8154C147.221 38.8154 148.661 39.6672 149.4 41.2084V38.8966L150.286 38.856ZM149.4 43.7637C149.4 41.3301 147.775 39.6672 145.559 39.6672C143.343 39.6672 141.717 41.3301 141.717 43.7637C141.717 46.1973 143.343 47.9007 145.559 47.9007C147.775 47.9007 149.4 46.1973 149.4 43.7637Z" fill="white"/>
<path d="M161.994 44.2505H153.942C154.016 46.684 155.678 48.347 157.894 48.347C159.076 48.347 160.184 47.8603 160.886 46.8868L161.403 47.5358C160.591 48.6309 159.298 49.1987 157.857 49.1987C155.014 49.1987 153.019 47.0491 153.019 43.9665C153.019 40.884 154.94 38.7344 157.525 38.7344C160.11 38.7344 161.994 40.884 161.994 43.926C162.031 44.0477 161.994 44.1288 161.994 44.2505ZM153.942 43.4798H161.145C161.034 41.2491 159.556 39.6672 157.562 39.6672C155.568 39.6672 154.09 41.2085 153.942 43.4798Z" fill="white"/>
<path d="M173.186 43.1553V49.1581H172.299V43.2364C172.299 40.9246 171.154 39.6672 169.271 39.6672C167.054 39.6672 165.725 41.2085 165.725 43.6826V49.1581H164.838V38.856H165.688V41.0868C166.316 39.6267 167.645 38.7749 169.418 38.7749C171.671 38.7749 173.186 40.2756 173.186 43.1553Z" fill="white"/>
<path d="M181.533 48.5094C181.052 48.9961 180.314 49.2395 179.612 49.2395C177.95 49.2395 177.064 48.1849 177.064 46.4409V39.708H175.328V38.8563H177.064V36.6255H177.95V38.8563H180.942V39.708H177.95V46.3192C177.95 47.6576 178.541 48.3877 179.686 48.3877C180.24 48.3877 180.757 48.1849 181.126 47.8199L181.533 48.5094Z" fill="white"/>
<path d="M95.5493 59.947H91.0063V59.0547H100.979V59.947H96.4357V72.8449H95.5124L95.5493 59.947Z" fill="white"/>
<path d="M109.88 67.8964H101.828C101.902 70.33 103.564 71.9929 105.78 71.9929C106.962 71.9929 108.07 71.5062 108.772 70.5328L109.289 71.1818C108.476 72.2769 107.184 72.8447 105.743 72.8447C102.899 72.8447 100.905 70.695 100.905 67.6125C100.905 64.53 102.825 62.3804 105.411 62.3804C107.996 62.3804 109.88 64.53 109.88 67.572C109.917 67.7342 109.88 67.8153 109.88 67.8964ZM101.828 67.1664H109.03C108.92 64.9356 107.442 63.3538 105.448 63.3538C103.453 63.3132 101.976 64.8951 101.828 67.1664Z" fill="white"/>
<path d="M111.653 67.6941C111.653 64.6116 113.647 62.4619 116.38 62.4619C117.858 62.4619 119.151 63.1109 119.926 64.3682L119.298 64.8955C118.633 63.8409 117.562 63.3542 116.417 63.3542C114.201 63.3542 112.576 65.0983 112.576 67.6941C112.576 70.2899 114.201 72.0339 116.417 72.0339C117.599 72.0339 118.633 71.5472 119.298 70.4927L119.963 71.02C119.187 72.2773 117.895 72.9263 116.417 72.9263C113.647 72.9263 111.653 70.736 111.653 67.6941Z" fill="white"/>
<path d="M130.896 66.8018V72.8046H130.009V66.8829C130.009 64.571 128.864 63.3137 126.98 63.3137C124.764 63.3137 123.435 64.8549 123.435 67.329V72.8046H122.548V58.1626H123.435V64.6521C124.1 63.2325 125.392 62.4213 127.128 62.4213C129.381 62.4619 130.896 63.922 130.896 66.8018Z" fill="white"/>
<path d="M142.973 66.8018V72.8046H142.087V66.8829C142.087 64.571 140.942 63.3137 139.058 63.3137C136.842 63.3137 135.512 64.855 135.512 67.3291V72.8046H134.626V62.5025H135.475V64.7333C136.103 63.2731 137.433 62.4214 139.206 62.4214C141.459 62.4619 142.973 63.9221 142.973 66.8018Z" fill="white"/>
<path d="M145.669 67.6941C145.669 64.6521 147.664 62.4619 150.36 62.4619C153.056 62.4619 155.051 64.6116 155.051 67.6941C155.051 70.7766 153.056 72.9263 150.36 72.9263C147.664 72.9263 145.669 70.736 145.669 67.6941ZM154.127 67.6941C154.127 65.0983 152.502 63.3542 150.36 63.3542C148.218 63.3542 146.593 65.0983 146.593 67.6941C146.593 70.2899 148.218 72.0339 150.36 72.0339C152.502 72.0339 154.127 70.2493 154.127 67.6941Z" fill="white"/>
<path d="M157.821 58.2031H158.707V72.8451H157.821V58.2031Z" fill="white"/>
<path d="M161.514 67.6941C161.514 64.6521 163.509 62.4619 166.205 62.4619C168.901 62.4619 170.896 64.6116 170.896 67.6941C170.896 70.7766 168.901 72.9263 166.205 72.9263C163.509 72.9263 161.514 70.736 161.514 67.6941ZM169.972 67.6941C169.972 65.0983 168.347 63.3542 166.205 63.3542C164.063 63.3542 162.438 65.0983 162.438 67.6941C162.438 70.2899 164.063 72.0339 166.205 72.0339C168.347 72.0339 169.972 70.2493 169.972 67.6941Z" fill="white"/>
<path d="M182.087 62.543V71.75C182.087 75.1975 180.572 76.7794 177.544 76.7794C175.845 76.7794 174.22 76.171 173.259 75.157L173.739 74.4269C174.663 75.3598 176.029 75.9276 177.544 75.9276C180.055 75.9276 181.2 74.6703 181.2 71.9122V70.1682C180.425 71.6689 178.984 72.5206 177.285 72.5206C174.626 72.5206 172.631 70.4521 172.631 67.4912C172.631 64.571 174.626 62.5024 177.285 62.5024C179.021 62.5024 180.461 63.3542 181.2 64.8954V62.5836L182.087 62.543ZM181.237 67.4507C181.237 65.0171 179.612 63.3542 177.396 63.3542C175.18 63.3542 173.555 65.0171 173.555 67.4507C173.555 69.8843 175.18 71.5878 177.396 71.5878C179.612 71.5472 181.237 69.8843 181.237 67.4507Z" fill="white"/>
<path d="M193.426 62.543L188.624 74.2241C187.886 76.1304 186.925 76.7388 185.706 76.7388C184.857 76.7388 184.081 76.4143 183.527 75.8059L183.971 75.0758C184.451 75.6437 185.005 75.887 185.706 75.887C186.556 75.887 187.184 75.4409 187.775 74.0619L188.292 72.8045L184.081 62.543H185.042L188.809 71.75L192.576 62.543H193.426Z" fill="white"/>
<path d="M65.2632 78.3606L84.4322 43.9662L65.2632 9.53125L46.0942 43.9662L65.2632 78.3606Z" fill="#EFEFEF"/>
<path d="M46.1312 43.9258L46.0942 43.9663L65.2632 78.3607L84.4322 43.9663V43.9258H46.1312Z" fill="#EFEFEF"/>
<path d="M61.5699 39.7889L57.2855 47.049L54.4785 42.1008L64.4878 23.9707L67.2948 28.9595L64.3031 34.7595L74.5339 52.8085L71.8377 57.7973L61.5699 39.7889Z" fill="#8D8E8E"/>
<path d="M26.8145 78.4825H62.8994L44.2476 45.021H8.1626L26.8145 78.4825Z" fill="#EFEFEF"/>
<path d="M29.7324 50.4966L42.5856 73.7372L37.4886 73.6155L24.6724 50.4155L29.7324 50.4966Z" fill="#8D8E8E"/>
</svg>
