<svg width="497" height="456" viewBox="0 0 497 456" fill="none" xmlns="http://www.w3.org/2000/svg">
<g clip-path="url(#clip0)">
<path opacity="0.1" d="M272.689 456C177.174 456 99.7438 445.525 99.7438 432.604C99.7438 419.682 177.174 409.208 272.689 409.208C368.204 409.208 445.635 419.682 445.635 432.604C445.635 445.525 368.204 456 272.689 456Z" fill="#202020"/>
<path d="M230.006 119.257C230.006 119.257 235.36 108.691 234.638 105.551C233.915 102.41 238.404 95.7016 238.404 95.7016L238.114 84.5724C238.114 84.5724 238.734 85.7104 241.966 86.7061C242.239 86.3476 242.535 85.9948 242.842 85.6591C244.012 84.4404 245.313 83.3546 246.722 82.4217L252.412 70.1432L257.914 61.7166C257.914 61.7166 266.59 44.0784 275.551 40.1866L276.962 37.4271C276.916 37.3996 276.881 37.3558 276.865 37.3042C276.85 37.2526 276.854 37.197 276.877 37.1483L278.311 34.3432C278.336 34.2947 278.379 34.2574 278.43 34.2385C278.482 34.2196 278.538 34.2204 278.589 34.2408L279.961 31.5552C280.484 28.0749 281.852 24.7757 283.943 21.9452C284.085 21.7461 284.239 21.564 284.387 21.3763L282.157 21.2966C280.2 21.2226 278.015 21.0519 276.7 19.5897C276.229 19.0446 275.882 18.4041 275.682 17.712C275.513 17.1697 275.402 16.6108 275.352 16.045C275.352 15.9596 275.352 15.8743 275.352 15.7946C275.352 15.6011 275.352 15.4115 275.352 15.2256C275.352 15.072 275.352 14.9241 275.352 14.7704C275.352 14.6168 275.352 14.5258 275.352 14.4063C275.352 14.2868 275.415 14.0137 275.449 13.8373C275.449 13.7634 275.449 13.6894 275.494 13.6154C275.542 13.3925 275.601 13.1722 275.671 12.9554C275.687 12.9129 275.701 12.8691 275.71 12.8245C275.79 12.597 275.875 12.3694 275.972 12.1475C275.988 12.1182 276.001 12.0878 276.012 12.0564C276.114 11.8345 276.228 11.6183 276.348 11.4078L276.382 11.3395C276.424 11.2512 276.471 11.1657 276.524 11.0835C278.066 8.65964 280.774 7.24289 283.352 5.96269C285.757 4.69815 288.225 3.55868 290.748 2.54884C300.128 -0.968807 310.488 -0.822533 319.765 2.9585C320.681 3.30545 321.549 3.76818 322.348 4.33543C323.461 5.27792 324.413 6.39657 325.164 7.64686L329.574 14.1616C330.19 14.9541 330.672 15.8421 331.002 16.7903C331.827 19.8855 329.238 22.9865 329.528 26.1784C329.676 27.7659 330.529 29.2224 330.694 30.8099C330.905 32.8582 329.955 34.8325 329.027 36.6817L322.718 49.1992C323.053 50.8435 323.423 52.5277 323.827 54.155C326.734 57.1591 327.713 58.7978 327.98 59.6854L328.066 59.7309C328.642 60.1028 329.137 60.5865 329.522 61.1534L335.519 66.9797C335.519 66.9797 345.942 69.688 348.11 73.1189C348.11 73.1189 364.468 72.402 364.325 95.2464C364.325 95.2464 365.048 103.815 365.463 104.959C365.879 106.102 365.463 117.664 365.463 117.664L365.657 141.083C365.657 141.083 366.283 153.504 365.657 157.93C365.031 162.357 364.308 179.204 364.308 179.204C364.308 179.204 360.4 195.625 361.845 201.48C363.233 207.084 361.845 219.34 359.569 219.391C359.136 220.285 358.641 220.723 358.101 220.472C357.866 220.37 357.624 220.283 357.378 220.211V234.202C357.378 234.202 360.195 253.803 357.037 257.53C359.131 260.511 361.589 265.598 362.214 266.935L384.347 265.746L387.163 266.537L389.746 267.259L391.311 303.258L390.685 303.304L390.731 304.402L389.251 304.51L391.311 340.765L360.673 343.286C362.021 346.307 363.586 349.544 364.194 349.857C365.332 350.426 367.813 348.719 368.393 349.425C368.974 350.13 370.709 350.995 372.734 350.563C374.76 350.13 376.063 352.418 376.063 352.418C376.063 352.418 375.767 352.68 375.323 353.163C378.612 352.765 382.771 354.529 385.03 355.667C386.042 356.179 386.674 356.56 386.674 356.56H392.648L389.365 377.504L387.049 379.086L386.48 395.586C386.48 395.586 377.218 424.143 372.973 423.955C372.698 423.945 372.428 423.876 372.181 423.753C371.935 423.629 371.718 423.453 371.545 423.238C369.27 420.61 370.846 411.58 370.846 411.58V396.548C370.846 396.548 367.375 395.023 367.762 393.879C368.149 392.735 362.163 380.224 361.628 379.086C361.613 379.076 361.601 379.063 361.593 379.047C361.585 379.031 361.581 379.013 361.583 378.995C361.583 377.709 358.977 376.281 359.125 375.712C359.273 375.143 352.753 371.57 352.298 368.429C351.842 365.288 347.524 367.001 347.524 367.001L342.028 360.685C341.863 368.383 341.55 373.771 341.01 375.137C338.404 381.709 337.391 391.99 337.391 391.99C337.391 391.99 338.984 399.842 337.391 402.414C336.412 403.984 334.137 405.668 332.555 407.062C334.199 412.046 333.966 422.641 333.966 422.641V428.729L321.807 432.143C321.807 432.143 321.426 429.099 320.846 429.099C320.265 429.099 312.545 434.999 312.545 434.999C312.545 434.999 282.822 435.38 275.301 434.999C272.456 434.857 271.682 433.633 272.12 432.154C272.843 429.69 276.9 426.498 280.507 426.254C286.299 425.873 293.633 419.785 293.633 419.785C293.633 419.785 293.064 418.447 296.142 416.547C298.27 415.238 304.158 409.941 307.8 406.84C307.629 406.607 307.453 406.374 307.288 406.123C307.288 406.123 312.209 399.296 311.191 396.269C310.172 393.242 311.629 388.872 311.629 388.872C311.629 388.872 314.377 380.446 314.377 376.161C314.377 373.447 314.786 358.011 315.082 347.064L312.545 347.274L312.493 346.182L311.356 346.284L300.597 347.274L300.927 335.775C295.743 333.499 291.431 331.388 289.644 330.04C283.568 325.488 278.356 325.187 278.356 325.187C278.356 325.187 266.055 318.621 264.172 315.907C262.289 313.193 262.465 293.489 262.465 293.489L263.478 251.26V251.225C263.478 251.225 264.343 230.811 266.084 226.384C266.721 224.745 268.297 219.283 270.021 213.047C269.03 212.945 268.03 212.987 267.051 213.172C266.988 214.697 266.949 215.744 266.949 216.103C266.949 218.526 263.478 220.586 263.478 220.586L265.936 165.964V128.805C258.357 131.217 240.031 131.968 240.031 131.968C226.826 131.274 230.006 119.257 230.006 119.257ZM301.49 72.328H301.53C301.261 70.896 300.909 69.4807 300.477 68.0892L301.49 72.328ZM351.228 259.675C346.739 260.414 341.556 260.198 341.163 259.328C341.123 259.242 341.072 259.089 341.004 258.89C340.862 259.14 340.725 259.396 340.583 259.658L341.021 267.896V268.084L355.814 267.288C354.778 262.878 352.821 260.727 351.228 259.675ZM301.917 301.244L302.298 287.902C301.638 285.444 301.046 283.213 300.54 281.301C300.312 282.889 300.119 284.351 299.971 285.7C298.571 298.359 300.636 300.829 301.917 301.244ZM259.814 101.204C260.662 101.528 263.888 99.4966 266.949 97.3914C266.949 97.0045 266.92 96.6233 266.903 96.2535C266.471 87.5425 280.655 82.1201 284.996 81.1187C286.049 80.8468 287.071 80.4654 288.045 79.9808C290.358 78.8351 292.607 77.5644 294.782 76.1743L294.725 76.0093C294.725 76.0093 300.323 72.4646 300.443 68.0436C299.167 64.0225 297.557 60.1152 295.63 56.3626C295.522 56.1407 295.402 55.9074 295.288 55.6855C292.642 54.8626 290.173 53.5544 288.006 51.8278C287.135 63.2074 270.67 72.9994 270.67 72.9994L268.911 75.8443L268.496 76.5157C269.384 77.0392 269.81 77.4602 269.509 77.7049C268.257 78.7063 265.23 84.3733 263.979 86.7686C263.637 87.4173 263.41 87.8213 263.41 87.8213C263.41 87.8213 260.718 95.144 259.177 101.272C259.382 101.186 259.607 101.163 259.825 101.204H259.814Z" fill="url(#paint0_linear)"/>
<path d="M253.453 71.6908L253.646 71.9468L254.306 72.8287L266.966 81.773L269.651 77.3578L271.358 74.5129C271.358 74.5129 296.591 59.3781 285.741 44.7896C274.891 30.2011 258.858 63.2813 258.858 63.2813L253.453 71.6908Z" fill="#FFC5D3"/>
<path d="M278.913 36.0518C278.967 35.9452 279.097 35.9023 279.203 35.956C279.31 36.0097 279.353 36.1397 279.299 36.2463L277.892 39.0413C277.838 39.1479 277.708 39.1908 277.601 39.1371C277.495 39.0834 277.452 38.9534 277.506 38.8468L278.913 36.0518Z" fill="#3A3768"/>
<path d="M293.359 39.9593L293.364 39.9619C293.423 39.9916 293.447 40.0634 293.417 40.1223L292.998 40.9557C292.968 41.0147 292.896 41.0384 292.837 41.0087L292.832 41.0062C292.773 40.9765 292.75 40.9046 292.779 40.8457L293.199 40.0123C293.229 39.9534 293.3 39.9296 293.359 39.9593Z" fill="#3A3768"/>
<path d="M292.21 41.9327C292.244 41.8653 292.326 41.8382 292.394 41.8722C292.461 41.9061 292.488 41.9882 292.454 42.0556L291.658 43.636C291.624 43.7033 291.542 43.7304 291.475 43.6965C291.408 43.6626 291.38 43.5805 291.414 43.5131L292.21 41.9327Z" fill="#3A3768"/>
<path d="M290.983 44.3927C291.016 44.3282 291.094 44.3022 291.159 44.3347C291.224 44.3672 291.25 44.4459 291.217 44.5104L290.408 46.1163C290.376 46.1808 290.297 46.2068 290.233 46.1743C290.168 46.1418 290.142 46.0631 290.175 45.9985L290.983 44.3927Z" fill="#3A3768"/>
<path d="M283.328 30.5637L293.959 35.9175C294.588 36.2341 294.841 37.0004 294.524 37.629L282.46 61.5843C282.144 62.213 281.378 62.4659 280.749 62.1493L270.118 56.7955C269.49 56.4789 269.237 55.7126 269.553 55.084L281.617 31.1287C281.933 30.5 282.7 30.2471 283.328 30.5637Z" fill="#3A3768"/>
<path d="M284.688 32.0845C284.749 32.1147 284.803 32.1567 284.848 32.2081C284.893 32.2595 284.926 32.3193 284.948 32.3839C284.969 32.4485 284.977 32.5167 284.971 32.5845C284.966 32.6522 284.947 32.7183 284.916 32.7787L284.87 32.8754C284.839 32.9362 284.82 33.0027 284.814 33.0709C284.809 33.1391 284.817 33.2077 284.838 33.2728C284.859 33.3379 284.893 33.3981 284.938 33.45C284.982 33.5019 285.037 33.5445 285.098 33.5752L290.571 36.3291C290.632 36.3603 290.698 36.3792 290.765 36.3847C290.833 36.3901 290.901 36.382 290.966 36.3608C291.031 36.3396 291.09 36.3058 291.142 36.2613C291.193 36.2167 291.235 36.1624 291.265 36.1015L291.317 36.0048C291.347 35.9439 291.389 35.8895 291.44 35.8448C291.491 35.8002 291.551 35.766 291.615 35.7443C291.68 35.7227 291.748 35.7139 291.816 35.7186C291.883 35.7232 291.95 35.7412 292.011 35.7715L293.075 36.312C293.191 36.3694 293.295 36.4495 293.381 36.5475C293.466 36.6455 293.531 36.7596 293.572 36.883C293.612 37.0064 293.628 37.1367 293.618 37.2663C293.608 37.3959 293.572 37.5221 293.513 37.6377L281.883 60.7211C281.764 60.9548 281.557 61.132 281.308 61.2141C281.058 61.2961 280.787 61.2764 280.552 61.1592L271.005 56.3513C270.771 56.232 270.594 56.0251 270.512 55.7758C270.43 55.5264 270.45 55.2548 270.567 55.0199L282.202 31.9252C282.26 31.8089 282.341 31.7053 282.44 31.6203C282.539 31.5354 282.653 31.4707 282.777 31.43C282.9 31.3893 283.031 31.3734 283.161 31.3832C283.29 31.393 283.417 31.4283 283.533 31.4871L284.688 32.0845Z" fill="#8BC53F"/>
<path d="M287.869 33.8325L289.307 34.5568C289.408 34.6077 289.449 34.7308 289.398 34.8319C289.347 34.9329 289.224 34.9736 289.123 34.9227L287.685 34.1984C287.584 34.1476 287.543 34.0244 287.594 33.9234C287.645 33.8223 287.768 33.7817 287.869 33.8325Z" fill="#E6E8EC"/>
<path d="M287.124 33.8997C286.995 33.8997 286.89 33.7952 286.89 33.6664C286.89 33.5375 286.995 33.4331 287.124 33.4331C287.252 33.4331 287.357 33.5375 287.357 33.6664C287.357 33.7952 287.252 33.8997 287.124 33.8997Z" fill="#E6E8EC"/>
<path d="M276.495 120.623L280.051 216.052C280.051 216.052 268.103 212.069 266.254 215.056C264.405 218.043 268.245 167.262 268.245 167.262L276.495 120.623Z" fill="#5F5570"/>
<path opacity="0.15" d="M276.495 120.623L280.051 216.052C280.051 216.052 268.103 212.069 266.254 215.056C264.405 218.043 268.245 167.262 268.245 167.262L276.495 120.623Z" fill="black"/>
<path d="M275.926 435.17C283.323 435.551 312.527 435.17 312.527 435.17C312.527 435.17 320.117 429.292 320.686 429.292C321.255 429.292 321.631 432.325 321.631 432.325L333.579 428.911V422.846C333.579 422.846 333.96 405.578 330.358 404.826C326.757 404.075 310.82 404.826 310.82 404.826C310.252 404.639 299.441 414.88 296.409 416.775C293.376 418.67 293.945 420.001 293.945 420.001C293.945 420.001 286.737 426.066 281.047 426.448C277.502 426.687 273.514 429.861 272.803 432.325C272.37 433.81 273.139 435.028 275.926 435.17Z" fill="#BC8487"/>
<path opacity="0.1" d="M275.926 435.17C283.323 435.551 312.527 435.17 312.527 435.17C312.527 435.17 320.117 429.292 320.686 429.292C321.255 429.292 321.631 432.325 321.631 432.325L333.579 428.911V422.965L322.393 427.016L313.477 432.325H272.803C272.37 433.81 273.138 435.028 275.926 435.17Z" fill="black"/>
<g opacity="0.1">
<path d="M309.136 426.26C309.136 426.26 300.033 417.537 293.945 420.001L309.136 426.26Z" fill="black"/>
<path d="M309.136 426.26C309.136 426.26 300.033 417.537 293.945 420.001" stroke="black" stroke-miterlimit="10"/>
</g>
<path d="M366.772 394.204C366.391 395.342 369.804 396.861 369.804 396.861V411.842C369.804 411.842 368.257 420.837 370.493 423.46C370.661 423.673 370.873 423.847 371.114 423.97C371.356 424.093 371.621 424.161 371.892 424.172C376.063 424.359 385.166 395.911 385.166 395.911L385.735 379.473L388.011 377.897L391.237 357.032H385.354C385.354 357.032 384.734 356.651 383.738 356.139C380.893 354.688 374.936 352.156 371.699 354.569L360.701 379.348C360.701 379.348 367.147 393.066 366.772 394.204Z" fill="#BC8487"/>
<path opacity="0.1" d="M370.493 423.46C370.661 423.673 370.873 423.847 371.114 423.97C371.356 424.093 371.621 424.161 371.892 424.172C376.063 424.359 385.166 395.911 385.166 395.911L385.735 379.473L388.011 377.897L391.237 357.032H385.354C385.354 357.032 384.734 356.651 383.738 356.139L382.321 377.516L381.565 395.911C381.565 395.911 374.418 415.938 370.493 423.46Z" fill="black"/>
<path d="M264.974 316.493C266.823 319.195 278.914 325.738 278.914 325.738C278.914 325.738 284.034 326.023 290.008 330.575C293.098 332.93 303.834 337.602 313.478 341.567C322.484 345.271 330.546 348.355 330.546 348.355L339.832 359.166L346.904 367.399C346.904 367.399 351.171 365.692 351.598 368.821C352.024 371.951 358.425 375.507 358.283 376.076C358.141 376.645 360.701 378.067 360.701 379.347C360.701 380.627 370.231 370.101 370.089 363.7C369.946 357.299 374.925 352.89 374.925 352.89C374.925 352.89 373.645 350.614 371.653 351.041C369.662 351.467 367.955 350.614 367.386 349.903C366.817 349.192 364.399 350.898 363.261 350.33C362.123 349.761 357.572 338.523 357.572 338.523L339.837 326.626L304.562 302.979L302.935 301.887C302.935 301.887 298.241 304.038 300.147 286.416C300.517 283.003 301.137 278.855 302.081 273.802C307.913 242.651 287.004 239.095 287.004 239.095L268.655 245.211L264.246 252.039V252.073L263.25 294.143C263.25 294.143 263.125 313.79 264.974 316.493Z" fill="#433A59"/>
<path opacity="0.1" d="M313.62 336.407C313.62 336.407 313.563 338.427 313.478 341.568C322.484 345.272 330.546 348.356 330.546 348.356L339.832 359.166C339.985 350.205 339.951 338.563 339.832 326.632L304.557 302.985C308.92 319.161 313.62 336.407 313.62 336.407Z" fill="black"/>
<path opacity="0.1" d="M264.263 252.056V252.091L291.857 252.625C291.857 252.625 296.693 271.544 297.405 275.527C297.581 276.505 298.651 280.687 300.164 286.434C300.534 283.02 301.154 278.872 302.099 273.82C307.93 242.668 287.021 239.112 287.021 239.112L268.672 245.229L264.263 252.056Z" fill="black"/>
<path d="M336.947 200.422L340.503 268.699C340.503 268.699 343.064 368.981 340.503 375.524C337.943 382.067 336.947 392.309 336.947 392.309C336.947 392.309 338.512 400.132 336.947 402.693C335.383 405.253 330.404 408.098 330.546 409.52C330.689 410.943 315.327 418.624 307.362 406.391C307.362 406.391 312.198 399.563 311.202 396.576C310.206 393.589 311.629 389.179 311.629 389.179C311.629 389.179 314.331 380.787 314.331 376.503C314.331 372.218 315.327 336.39 315.327 336.39C315.327 336.39 299.823 279.492 299.112 275.509C298.4 271.527 293.564 252.608 293.564 252.608L264.263 252.039C264.263 252.039 265.117 231.698 266.823 227.289C268.53 222.879 276.922 190.59 276.922 190.59L336.947 200.422Z" fill="#433A59"/>
<path d="M385.849 267.356L388.392 268.084L388.495 270.599L312.243 271.583V270.593L385.849 267.356Z" fill="#7B728F"/>
<path d="M295.908 57.9616C307.003 80.4646 300.113 85.17 299.015 85.7504C301.365 84.658 331.906 70.3084 327.889 66.6669C325.278 64.2943 323.042 53.9731 321.728 46.5764C320.948 42.1611 320.493 38.7871 320.493 38.7871L288.444 44.6646C291.55 49.6716 294.019 54.0812 295.908 57.9616Z" fill="#FFC5D3"/>
<path opacity="0.1" d="M253.623 71.9469L254.283 72.8288L266.965 81.7731L269.651 77.3579C265.742 75.082 254.022 71.0991 254.022 71.0991L253.623 71.9469Z" fill="black"/>
<path d="M241.932 92.4587C243.07 96.4416 262.272 92.4587 262.272 92.4587L264.263 89.3294C264.263 89.3294 264.462 88.9311 264.798 88.2824C266.027 85.8984 269.003 80.2542 270.232 79.2528C271.796 77.9726 253.447 71.7139 253.447 71.7139L247.826 83.9468C246.44 84.8785 245.162 85.9604 244.014 87.1729C242.592 88.7149 241.414 90.6437 241.932 92.4587Z" fill="#E5E8EF"/>
<path d="M273.793 94.2905C273.793 94.2905 262.414 103.269 260.707 102.62C259 101.972 231.406 120.606 231.406 120.606C231.406 120.606 228.276 132.554 241.22 133.265C241.22 133.265 268.672 132.127 269.81 128.145C270.948 124.162 273.793 94.2905 273.793 94.2905Z" fill="#5F5570"/>
<path opacity="0.1" d="M304.801 76.2427L317.176 89.0446L299.823 199.426L292.995 195.443C292.995 195.443 275.358 203.267 273.935 196.012C272.513 188.758 272.905 160.167 272.905 160.167L275.215 108.515C275.215 108.515 283.323 90.45 283.323 89.881C283.323 89.312 295.015 80.4929 295.015 80.4929L300.534 76.2256L304.801 76.2427Z" fill="black"/>
<path d="M304.801 74.5356L317.176 87.3376L299.823 197.719L292.995 193.736C292.995 193.736 275.358 201.559 273.935 194.305C272.513 187.051 272.905 158.46 272.905 158.46L275.215 106.808C275.215 106.808 283.323 88.7429 283.323 88.174C283.323 87.605 295.015 78.7859 295.015 78.7859L300.534 74.5186L304.801 74.5356Z" fill="#E5E8EF"/>
<path opacity="0.1" d="M304.09 76.3849L307.503 83.3549L304.09 86.9565C304.09 86.9565 291.857 111.661 294.275 126.313L291.715 174.533L283.465 182.641L276.922 175.085L280.051 131.274C280.051 131.274 288.443 95.1441 297.262 83.9068L299.823 73.9497L304.09 76.3849Z" fill="black"/>
<path d="M304.09 75.2467L307.503 82.2167L304.09 85.8183C304.09 85.8183 291.857 110.523 294.275 125.174L291.715 173.395L283.465 181.503L276.922 173.947L280.051 130.136C280.051 130.136 288.443 94.0059 297.262 82.7686L299.823 72.8115L304.09 75.2467Z" fill="#BC8487"/>
<path opacity="0.1" d="M288.444 44.6648C291.55 49.6717 293.997 54.0813 295.908 57.9617C297.922 58.5555 300.011 58.8564 302.11 58.855C309.142 58.855 313.193 53.9903 317.176 48.824C318.086 47.6519 321.079 47.925 321.728 46.5481C320.948 42.1328 320.493 38.7588 320.493 38.7588L288.444 44.6648Z" fill="black"/>
<path d="M280.302 36.4712C280.302 41.6651 282.156 46.6885 285.53 50.6373C288.904 54.5861 293.576 57.2011 298.706 58.0116C303.837 58.8222 309.088 57.7752 313.515 55.0589C317.942 52.3427 321.254 48.1356 322.855 43.1948C324.457 38.2539 324.242 32.9036 322.251 28.1067C320.259 23.3098 316.621 19.3813 311.991 17.028C307.36 14.6748 302.043 14.0513 296.994 15.2698C291.945 16.4883 287.497 19.4688 284.449 23.6749C281.753 27.3967 280.302 31.8753 280.302 36.4712Z" fill="#FFC5D3"/>
<path opacity="0.1" d="M309.068 85.0619L326.99 63.4409C326.99 63.4409 328.646 62.7752 323.053 56.9204C323.053 56.9204 302.514 72.9314 301.239 75.6511C299.965 78.3708 309.068 85.0619 309.068 85.0619Z" fill="black"/>
<path d="M309.637 83.9238L327.559 62.3027C327.559 62.3027 329.215 61.637 323.622 55.7822C323.622 55.7822 303.083 71.7932 301.808 74.5129C300.534 77.2326 309.637 83.9238 309.637 83.9238Z" fill="#E5E8EF"/>
<path d="M264.263 221.531C264.263 221.531 267.676 219.482 267.676 217.064C267.676 214.646 269.383 180.508 269.383 180.508C269.383 180.508 271.887 160.133 274.504 143.94C276.04 134.398 277.616 126.301 278.731 124.697L278.777 124.628C281.764 120.788 281.195 102.012 299.828 74.5586C299.578 74.7293 293.154 79.2356 288.449 81.5001C287.491 81.9814 286.487 82.3627 285.451 82.638C281.183 83.6338 267.244 89.039 267.671 97.7159C268.097 106.393 266.675 126.307 266.675 126.307V167.12L264.263 221.531Z" fill="#5F5570"/>
<path d="M264.263 89.3291C264.263 89.3291 258.289 105.829 259.143 109.954C259.996 114.08 245.345 130.295 245.345 130.295L231.406 120.623C231.406 120.623 236.669 110.097 235.958 106.967C235.246 103.838 239.656 97.1525 239.656 97.1525L239.371 86.0688C239.371 86.0688 241.932 90.8767 264.263 89.3291Z" fill="#5F5570"/>
<path opacity="0.1" d="M284.449 23.6752L295.26 24.0848C296.315 24.0779 297.367 24.2099 298.389 24.4774C302.252 25.6666 304.033 29.7746 304.175 33.4672C304.317 37.1599 306.451 41.2964 310.587 41.6207C310.999 41.6906 311.422 41.5967 311.765 41.3589C312.027 41.0798 312.201 40.7295 312.266 40.3519C312.859 38.2002 313.776 36.1512 314.985 34.2752C316.692 34.5824 317.955 36.204 318.399 37.8996C318.843 39.5951 318.723 41.3817 318.718 43.1398C318.712 45.3727 318.928 47.6006 319.36 49.7912C321.124 47.5014 322.415 44.8839 323.159 42.0908C323.902 39.2976 324.083 36.3846 323.69 33.521C323.298 30.6574 322.34 27.9004 320.873 25.4103C319.405 22.9201 317.458 20.7464 315.143 19.0157C312.828 17.2849 310.192 16.0315 307.389 15.3284C304.586 14.6253 301.67 14.4865 298.813 14.9201C295.955 15.3536 293.212 16.3509 290.744 17.8539C288.275 19.3569 286.13 21.3357 284.432 23.6752H284.449Z" fill="black"/>
<path d="M298.952 23.9084C297.931 23.6409 296.879 23.5089 295.823 23.5158L282.697 23.0265C280.774 22.9525 278.629 22.7818 277.338 21.3537C276.874 20.8084 276.533 20.1701 276.336 19.4818C275.998 18.382 275.899 17.2228 276.045 16.0816C276.191 14.9404 276.58 13.8436 277.184 12.8646C278.703 10.4465 281.366 9.04108 283.903 7.74382C286.265 6.48203 288.69 5.34257 291.169 4.32996C300.376 0.833236 310.571 0.979746 319.674 4.73962C320.573 5.08486 321.426 5.54172 322.211 6.09948C323.308 7.03965 324.243 8.1547 324.976 9.39954L329.295 15.9086C329.89 16.7034 330.35 17.5918 330.654 18.5373C331.468 21.6268 328.948 24.7164 329.209 27.8969C329.357 29.4787 330.194 30.9296 330.347 32.5113C330.552 34.554 329.619 36.4942 328.703 38.3547L321.113 53.6659C319.887 50.0955 319.266 46.3457 319.275 42.5708C319.275 40.8127 319.423 39.0261 318.957 37.3306C318.49 35.635 317.25 34.0134 315.543 33.7062C314.331 35.5813 313.412 37.6304 312.818 39.7828C312.755 40.1609 312.58 40.5116 312.317 40.7899C311.974 41.0282 311.551 41.1222 311.139 41.0517C306.98 40.7273 304.881 36.6307 304.727 32.8982C304.573 29.1658 302.815 25.0976 298.952 23.9084Z" fill="#8F7080"/>
<path d="M388.392 268.084L383.078 266.565L302.952 270.929L311.771 272.067L388.392 268.084Z" fill="#7B728F"/>
<path opacity="0.1" d="M388.392 268.084L383.078 266.565L302.952 270.929L311.771 272.067L388.392 268.084Z" fill="black"/>
<path d="M300.773 347.741L311.344 346.757L315.054 346.415V287.617L314.075 273.968L313.859 270.929H302.952L300.773 347.741Z" fill="#7B728F"/>
<path opacity="0.1" d="M303.663 345.653L312.095 344.72L315.054 344.395V288.647L314.274 275.708L314.104 272.824H305.404L303.663 345.653Z" fill="black"/>
<path d="M361.486 268.084C361.486 268.084 356.223 256.54 354.016 256.181C351.808 255.823 347.757 256.181 347.757 256.181L348.116 259.527C348.116 259.527 353.521 259.954 355.228 268.983L361.486 268.084Z" fill="#7B728F"/>
<path opacity="0.1" d="M361.486 268.084C361.486 268.084 356.223 256.54 354.016 256.181C351.808 255.823 347.757 256.181 347.757 256.181L348.116 259.527C348.116 259.527 353.521 259.954 355.228 268.983L361.486 268.084Z" fill="black"/>
<path d="M341.072 254.975C341.072 254.975 326.922 262.013 328.771 270.263L336.452 269.837C336.452 269.837 340.15 257.535 343.063 256.893C345.976 256.25 341.072 254.975 341.072 254.975Z" fill="#7B728F"/>
<path d="M288.443 143.524V143.939L288.728 191.318C288.728 191.318 295.982 231.146 297.973 232.711C299.965 234.276 343.632 230.008 343.632 230.008L363.403 96.7258C363.546 73.9667 347.473 74.678 347.473 74.678C345.339 71.2641 335.098 68.5615 335.098 68.5615L329.408 63.014L329.226 62.7579C328.848 62.1943 328.361 61.7124 327.792 61.3412C326.62 60.6641 325.875 61.5574 325.448 62.4393C325.256 62.8534 325.107 63.2862 325.005 63.7309C301.956 80.6351 288.443 143.524 288.443 143.524Z" fill="#5F5570"/>
<path opacity="0.1" d="M289.013 144.093V144.508C296.164 131.422 323.719 81.8414 331.258 79.372L328.356 77.3806C328.356 77.3806 326.421 76.2427 329.977 75.1047C329.977 75.1047 335.525 75.8159 335.667 69.1305L329.795 63.3269L328.362 61.9102L326.017 63.0083C325.825 63.4224 325.677 63.8552 325.574 64.2999C302.525 81.2041 289.013 144.093 289.013 144.093Z" fill="black"/>
<path d="M288.444 143.524V143.94C295.596 130.853 323.15 81.2725 330.689 78.8032L327.787 76.8118C327.787 76.8118 325.853 75.6738 329.409 74.5359C329.409 74.5359 334.956 75.2471 335.098 68.5616L329.227 62.7581L327.793 61.3413L325.449 62.4394C325.257 62.8535 325.108 63.2863 325.005 63.731C301.956 80.6353 288.444 143.524 288.444 143.524Z" fill="#433A59"/>
<path opacity="0.1" d="M278.157 125.243L278.203 125.175C281.19 121.334 280.621 102.558 299.254 75.105C299.004 75.2757 292.58 79.782 287.875 82.0465L289.189 86.3821L286.344 87.9012L278.157 125.243Z" fill="black"/>
<path d="M278.726 124.674L278.771 124.606C281.758 120.765 281.189 101.989 299.823 74.5356C299.572 74.7063 293.149 79.2126 288.444 81.4771L289.758 85.8128L286.913 87.3319L278.726 124.674Z" fill="#433A59"/>
<path opacity="0.1" d="M300.642 70.1548L301.808 75.0821C301.808 75.0821 300.955 80.0151 295.84 80.4419L295.015 78.092C295.015 78.092 300.534 74.553 300.642 70.1548Z" fill="black"/>
<path d="M300.642 69.5859L301.808 74.5133C301.808 74.5133 300.955 79.4463 295.84 79.873L295.015 77.5231C295.015 77.5231 300.534 73.9841 300.642 69.5859Z" fill="#E5E8EF"/>
<path opacity="0.1" d="M307.999 271.726L311.344 346.757L315.054 346.416V287.618L314.075 273.968L307.999 271.726Z" fill="black"/>
<path d="M387.629 300.704L389.905 341.289L312.527 347.741L309.136 271.726L387.629 300.704Z" fill="#7B728F"/>
<path opacity="0.1" d="M389.336 305.068L387.823 269.222L308.567 272.864L312.34 310.757L389.336 305.068Z" fill="black"/>
<path d="M389.905 303.93L388.392 268.084L309.136 271.726L312.908 309.62L389.905 303.93Z" fill="#7B728F"/>
<path d="M347.046 303.976H356.576V315.071H347.046V303.976Z" fill="#C3BBC8"/>
<path d="M355.153 231.289L356.576 235.129C356.576 235.129 359.563 256.181 355.865 258.742C352.166 261.302 341.214 261.444 340.645 260.164C340.076 258.884 336.093 244.375 336.093 244.375C336.093 244.375 332.537 255.043 330.688 254.19C328.839 253.336 334.956 233.058 334.956 233.058L355.153 231.289Z" fill="#FFC5D3"/>
<path opacity="0.1" d="M356.576 215.357V235.698C356.576 235.698 341.499 238.543 334.956 233.627C334.956 233.627 341.072 213.935 338.796 208.956C336.52 203.978 356.576 215.357 356.576 215.357Z" fill="black"/>
<path d="M356.576 214.789V235.129C356.576 235.129 341.499 237.974 334.956 233.058C334.956 233.058 341.072 213.366 338.796 208.388C336.52 203.409 356.576 214.789 356.576 214.789Z" fill="#E5E8EF"/>
<path opacity="0.1" d="M358.283 95.7303L362.266 97.864C362.266 97.864 362.977 106.399 363.404 107.537C363.83 108.675 363.404 120.196 363.404 120.196L363.597 143.524C363.597 143.524 364.211 155.9 363.597 160.309C362.983 164.719 362.294 181.503 362.294 181.503C362.294 181.503 358.448 197.861 359.87 203.693C361.293 209.525 359.728 222.612 357.31 221.474C354.892 220.336 332.56 215.926 331.423 215.073C330.285 214.22 330.854 206.254 331.423 205.258C331.992 204.262 335.405 190.749 335.121 187.62C334.836 184.491 336.116 157.037 336.116 157.037C336.116 157.037 333.983 127.735 333.129 120.908C332.276 114.08 334.836 94.0234 337.112 93.7389C339.388 93.4544 346.05 77.9498 358.283 95.7303Z" fill="black"/>
<path d="M359.421 94.5921L363.403 96.7258C363.403 96.7258 364.115 105.26 364.541 106.398C364.968 107.536 364.541 119.058 364.541 119.058L364.735 142.386C364.735 142.386 365.349 154.761 364.735 159.171C364.12 163.58 363.432 180.365 363.432 180.365C363.432 180.365 359.586 196.723 361.008 202.555C362.43 208.387 360.866 221.474 358.448 220.336C356.03 219.198 333.698 214.788 332.56 213.935C331.422 213.081 331.991 205.116 332.56 204.12C333.129 203.124 336.543 189.611 336.258 186.482C335.974 183.352 337.254 155.899 337.254 155.899C337.254 155.899 335.121 126.597 334.267 119.769C333.414 112.942 335.974 92.8852 338.25 92.6007C340.526 92.3162 347.188 76.8116 359.421 94.5921Z" fill="#5F5570"/>
<g opacity="0.1">
<path opacity="0.1" d="M316.402 31.5728C318.109 31.88 319.372 33.5016 319.816 35.1971C320.26 36.8927 320.14 38.6793 320.135 40.4374C320.124 44.2119 320.743 47.9618 321.967 51.5324L329.562 36.2213C329.71 35.9197 329.864 35.6068 330.012 35.2939C329.66 36.3475 329.225 37.3712 328.709 38.3549L321.113 53.6661C319.889 50.0955 319.27 46.3456 319.281 42.5711C319.281 40.8129 319.423 39.0263 318.963 37.3308C318.502 35.6352 317.256 34.0137 315.549 33.7064C314.998 34.5694 314.506 35.4686 314.075 36.3977C314.653 34.7013 315.435 33.0812 316.402 31.5728Z" fill="black"/>
<path opacity="0.1" d="M277.048 13.1094C276.714 14.5092 276.761 15.9728 277.184 17.3482C277.383 18.0369 277.726 18.6752 278.191 19.2202C279.483 20.6483 281.605 20.819 283.551 20.893L296.671 21.3823C297.729 21.3753 298.783 21.5073 299.806 21.7749C303.664 22.964 305.45 27.072 305.592 30.7647C305.735 34.4574 307.868 38.5938 312.004 38.9181C312.416 38.988 312.839 38.8941 313.182 38.6564C313.051 39.0262 312.926 39.4018 312.818 39.7943C312.76 40.1727 312.587 40.524 312.323 40.8014C311.98 41.0391 311.557 41.1331 311.145 41.0632C306.981 40.7388 304.887 36.6422 304.733 32.9097C304.58 29.1773 302.804 25.1091 298.947 23.9199C297.924 23.6524 296.87 23.5204 295.812 23.5273L282.692 23.038C280.769 22.964 278.624 22.7933 277.332 21.3652C276.867 20.8202 276.524 20.1819 276.325 19.4933C276.003 18.4363 275.9 17.3245 276.025 16.2264C276.149 15.1284 276.497 14.0675 277.048 13.1094Z" fill="black"/>
</g>
<path opacity="0.1" d="M298.412 246.475C298.412 246.475 293.484 243.914 291.584 244.056C289.684 244.199 272.621 265.899 272.621 265.899L298.412 246.475Z" fill="black"/>
<path opacity="0.1" d="M348.952 99.6108C348.952 99.6108 357.959 103.457 357.72 106.114C357.481 108.771 348.952 99.6108 348.952 99.6108Z" fill="black"/>
<path opacity="0.1" d="M353.338 112.185C353.338 112.185 362.789 124.27 360.701 124.674C358.613 125.078 353.338 112.185 353.338 112.185Z" fill="black"/>
<path opacity="0.1" d="M321.727 130.295C321.727 130.295 320.863 157.322 327.792 160.736L321.727 130.295Z" fill="black"/>
<path opacity="0.1" d="M357.742 202.459C357.742 202.459 351.074 198.669 349.544 199.426C348.013 200.183 357.742 202.459 357.742 202.459Z" fill="black"/>
<path opacity="0.1" d="M356.576 207.699C356.576 207.699 352.366 208 350.369 207.13C348.372 206.259 356.576 207.699 356.576 207.699Z" fill="black"/>
<path opacity="0.1" d="M256.07 108.179C256.07 108.179 250.847 123.183 247.837 123.183L256.07 108.179Z" fill="black"/>
<path opacity="0.1" d="M330.341 395.535C330.341 395.535 320.544 392.878 319.099 395.535C317.654 398.192 330.341 395.535 330.341 395.535Z" fill="black"/>
<path opacity="0.1" d="M361.486 356.139C361.486 356.139 363.927 359.877 360.701 361.015C357.475 362.153 361.486 356.139 361.486 356.139Z" fill="black"/>
<path opacity="0.1" d="M296.409 303.976C296.409 303.976 289.013 310.564 285.519 310.758C282.026 310.951 296.409 303.976 296.409 303.976Z" fill="black"/>
<path d="M5.08067 34.0419C5.08067 34.0419 52.9811 31.1344 47.337 64.704C47.337 64.704 48.475 70.6384 43.0812 73.3354C43.0812 73.3354 42.9959 70.8433 38.1655 71.691C36.4476 71.9761 34.7024 72.0602 32.9652 71.9414C30.6199 71.7819 28.3897 70.8655 26.61 69.3298C26.61 69.3298 13.1428 63.7709 7.90837 41.7572C7.90837 41.7572 4.03376 36.9551 4.18737 35.7204L12.2723 39.1741C12.2723 39.1741 9.50713 45.0061 11.7033 49.8537C11.7033 49.8537 11.965 39.3846 13.5183 39.6122C13.8369 39.6634 17.7229 41.632 17.7229 41.632C17.7229 41.632 12.9664 51.7939 16.5565 59.1736C16.5565 59.1736 15.191 46.6561 19.2021 42.366L24.8917 45.6888C24.8917 45.6888 19.333 56.1808 23.0995 64.7438C23.0995 64.7438 22.1323 51.6119 26.0865 46.4968L31.2413 50.5194C31.2413 50.5194 26.0239 60.8634 29.2044 67.9642C29.2044 67.9642 29.6197 52.6759 32.3621 51.5208C32.3621 51.5208 36.8682 55.5037 37.5567 57.1309C37.5567 57.1309 33.9836 64.6414 36.2026 68.6015C36.2026 68.6015 37.5624 58.4168 38.6775 58.3599C38.6775 58.3599 43.1723 65.108 43.6388 69.7395C43.6388 69.7395 43.4454 62.8548 39.7642 57.717C39.7642 57.717 44.111 58.4624 46.6486 61.2845C46.6486 61.2845 45.9488 56.5108 38.6832 56.0954C38.6832 56.0954 34.9736 50.9746 33.9779 50.6617C33.9779 50.6617 41.2321 50.0586 45.6302 52.0045C45.6302 52.0045 41.7556 47.5039 32.6466 49.5522L27.526 45.3987C27.526 45.3987 37.0788 44.09 41.124 45.5352C41.124 45.5352 36.4643 41.5524 26.1548 44.4542L20.6132 41.137C20.6132 41.137 28.7549 39.3846 33.6024 39.9991C33.6024 39.9991 28.4818 37.2395 18.9916 40.2324L15.0089 38.4515C15.0089 38.4515 20.9716 37.2794 22.7183 37.0973C24.465 36.9152 24.5617 36.4259 24.5617 36.4259C20.7823 35.7961 16.9022 36.2274 13.3533 37.672C13.3533 37.672 4.93274 34.5483 5.08067 34.0419Z" fill="#8BC53F"/>
<path d="M100.159 27.6066C100.159 27.6066 121.779 26.3037 119.253 41.4726C119.253 41.4726 119.76 44.1524 117.33 45.37C117.33 45.37 117.29 44.2321 115.111 44.6247C114.334 44.7583 113.543 44.7965 112.756 44.7385C111.705 44.6598 110.707 44.2449 109.911 43.555C109.911 43.555 103.829 41.0401 101.462 31.0944C101.462 31.0944 99.7096 28.9266 99.7551 28.369L103.419 29.928C103.419 29.928 102.173 32.5624 103.152 34.753C103.152 34.753 103.271 30.0248 103.977 30.1329C104.119 30.1329 105.871 31.0489 105.871 31.0489C105.871 31.0489 103.726 35.6406 105.348 38.9748C105.348 38.9748 104.728 33.3191 106.543 31.3789L109.109 32.881C109.109 32.881 106.6 37.6206 108.301 41.4896C108.301 41.4896 107.863 35.5552 109.649 33.2452L111.976 35.0659C111.976 35.0659 109.621 39.7372 111.06 42.9462C111.06 42.9462 111.248 36.0388 112.483 35.5154C112.483 35.5154 114.519 37.3133 114.832 38.053C114.832 38.053 113.217 41.4669 114.218 43.2364C114.218 43.2364 114.832 38.6334 115.356 38.6106C115.356 38.6106 117.387 41.6603 117.598 43.7314C117.499 41.7998 116.895 39.9279 115.845 38.3034C117.018 38.5241 118.1 39.084 118.957 39.9136C118.957 39.9136 118.639 37.7571 115.344 37.5694C115.344 37.5694 113.666 35.2537 113.217 35.1171C113.217 35.1171 116.494 34.8383 118.485 35.7202C118.485 35.7202 116.733 33.689 112.619 34.5823L110.343 32.7046C110.343 32.7046 114.662 32.1357 116.488 32.7672C116.488 32.7672 114.383 30.9693 109.729 32.2779L107.22 30.7815C107.22 30.7815 110.901 29.9906 113.091 30.2751C113.091 30.2751 110.781 29.0291 106.486 30.3775L104.699 29.5753C104.699 29.5753 107.39 29.0461 108.181 28.9608C108.972 28.8754 109.012 28.6592 109.012 28.6592C107.304 28.3787 105.552 28.5756 103.948 29.2282C103.948 29.2282 100.091 27.8456 100.159 27.6066Z" fill="#8BC53F"/>
<path opacity="0.1" d="M15.3221 413.89C6.85997 413.89 6.10352e-05 412.731 6.10352e-05 411.301C6.10352e-05 409.871 6.85997 408.712 15.3221 408.712C23.7842 408.712 30.644 409.871 30.644 411.301C30.644 412.731 23.7842 413.89 15.3221 413.89Z" fill="#75CD22"/>
<path opacity="0.1" d="M481.678 375.353C473.216 375.353 466.356 374.194 466.356 372.765C466.356 371.335 473.216 370.176 481.678 370.176C490.14 370.176 497 371.335 497 372.765C497 374.194 490.14 375.353 481.678 375.353Z" fill="#75CD22"/>
<path opacity="0.1" d="M25.9842 363.746C17.5221 363.746 10.6622 362.587 10.6622 361.157C10.6622 359.727 17.5221 358.568 25.9842 358.568C34.4463 358.568 41.3062 359.727 41.3062 361.157C41.3062 362.587 34.4463 363.746 25.9842 363.746Z" fill="#75CD22"/>
<path opacity="0.1" d="M422.416 389.242C413.954 389.242 407.094 388.083 407.094 386.653C407.094 385.224 413.954 384.064 422.416 384.064C430.878 384.064 437.738 385.224 437.738 386.653C437.738 388.083 430.878 389.242 422.416 389.242Z" fill="#75CD22"/>
<path opacity="0.1" d="M94.2815 391.467C85.8194 391.467 78.9596 390.308 78.9596 388.878C78.9596 387.448 85.8194 386.289 94.2815 386.289C102.744 386.289 109.604 387.448 109.604 388.878C109.604 390.308 102.744 391.467 94.2815 391.467Z" fill="#75CD22"/>
<path d="M48.8562 442.914C36.2212 442.914 25.9785 441.182 25.9785 439.045C25.9785 436.908 36.2212 435.176 48.8562 435.176C61.4912 435.176 71.7339 436.908 71.7339 439.045C71.7339 441.182 61.4912 442.914 48.8562 442.914Z" fill="#8BC53F"/>
<path d="M39.3999 432.717C38.3574 431.867 37.5975 430.72 37.2208 429.429C36.9363 428.12 37.4939 426.584 38.7456 426.078C40.1452 425.543 41.6416 426.51 42.7738 427.489C43.906 428.467 45.2089 429.588 46.6939 429.383C45.9296 428.691 45.3577 427.812 45.0336 426.833C44.7096 425.854 44.6445 424.808 44.8448 423.796C44.9115 423.377 45.0904 422.984 45.3626 422.658C46.1363 421.827 47.5473 422.186 48.4747 422.84C51.4333 424.923 52.2583 428.939 52.2754 432.558C52.5712 431.25 52.3209 429.89 52.3323 428.575C52.3437 427.261 52.7021 425.73 53.8343 425.036C54.5329 424.661 55.3174 424.475 56.1101 424.496C57.4415 424.45 58.9208 424.581 59.8254 425.554C60.9634 426.76 60.6618 428.792 59.6832 430.106C58.7046 431.42 57.2082 432.268 55.8314 433.19C54.7286 433.845 53.789 434.742 53.0833 435.813C52.997 435.96 52.9283 436.116 52.8785 436.279H44.5376C42.6726 435.328 40.9444 434.13 39.3999 432.717Z" fill="#8BC53F"/>
<path d="M421.625 323.019C421.625 323.019 418.496 327.104 423.064 333.261C427.633 339.417 431.4 344.64 429.892 348.486C429.892 348.486 422.996 337.027 417.375 336.868C411.754 336.709 415.452 329.926 421.625 323.019Z" fill="#8BC53F"/>
<path opacity="0.1" d="M421.625 323.019C421.351 323.412 421.136 323.844 420.988 324.299C415.514 330.729 412.596 336.731 417.858 336.885C422.757 337.022 428.634 345.784 430.045 347.997C429.999 348.169 429.944 348.338 429.88 348.503C429.88 348.503 422.985 337.044 417.363 336.885C411.742 336.726 415.452 329.926 421.625 323.019Z" fill="black"/>
<path d="M415.816 328.242C415.816 329.682 415.975 330.848 416.174 330.848C416.373 330.848 416.533 329.71 416.533 328.242C416.533 326.774 416.334 327.48 416.134 327.48C415.935 327.48 415.816 326.802 415.816 328.242Z" fill="#FFD037"/>
<path d="M413.819 329.961C415.082 330.649 416.186 331.065 416.277 330.894C416.368 330.723 415.429 330.018 414.166 329.329C412.903 328.641 413.398 329.141 413.307 329.329C413.216 329.517 412.556 329.278 413.819 329.961Z" fill="#FFD037"/>
<path d="M438.13 323.019C438.13 323.019 441.259 327.104 436.69 333.261C432.122 339.417 428.355 344.64 429.863 348.486C429.863 348.486 436.753 337.027 442.38 336.868C448.007 336.709 444.303 329.926 438.13 323.019Z" fill="#8BC53F"/>
<path opacity="0.1" d="M438.13 323.019C438.405 323.413 438.621 323.844 438.773 324.299C444.246 330.729 447.16 336.731 441.902 336.885C436.998 337.022 431.121 345.784 429.71 347.997C429.755 348.169 429.812 348.339 429.88 348.503C429.88 348.503 436.77 337.044 442.397 336.885C448.024 336.726 444.303 329.926 438.13 323.019Z" fill="black"/>
<path d="M443.945 328.242C443.945 329.682 443.78 330.848 443.581 330.848C443.382 330.848 443.222 329.71 443.222 328.242C443.222 326.774 443.421 327.48 443.621 327.48C443.82 327.48 443.945 326.802 443.945 328.242Z" fill="#FFD037"/>
<path d="M445.93 329.961C444.667 330.649 443.569 331.065 443.473 330.894C443.376 330.723 444.326 330.018 445.589 329.329C446.852 328.641 446.351 329.141 446.448 329.329C446.545 329.517 447.199 329.278 445.93 329.961Z" fill="#FFD037"/>
<path d="M442.949 347.985C442.949 347.985 434.21 347.718 431.57 345.84C428.93 343.963 418.126 341.727 417.477 344.737C416.828 347.746 404.34 359.695 414.206 359.775C424.071 359.854 437.134 358.238 439.763 356.634C442.392 355.029 442.949 347.985 442.949 347.985Z" fill="#A8A8A8"/>
<path opacity="0.2" d="M414.035 358.728C423.901 358.807 436.964 357.192 439.592 355.587C441.589 354.369 442.392 349.994 442.659 347.974H442.949C442.949 347.974 442.38 355.024 439.769 356.623C437.157 358.221 424.077 359.843 414.211 359.763C411.366 359.763 410.382 358.728 410.433 357.226C410.832 358.142 411.918 358.711 414.035 358.728Z" fill="black"/>
</g>
<defs>
<linearGradient id="paint0_linear" x1="311.156" y1="435.17" x2="311.156" y2="-0.000170006" gradientUnits="userSpaceOnUse">
<stop stop-color="#808080" stop-opacity="0.25"/>
<stop offset="0.54" stop-color="#808080" stop-opacity="0.12"/>
<stop offset="1" stop-color="#808080" stop-opacity="0.1"/>
</linearGradient>
<clipPath id="clip0">
<rect width="497" height="456" transform="matrix(-1 0 0 1 497 0)" fill="white"/>
</clipPath>
</defs>
</svg>
