<svg width="20" height="18" viewBox="0 0 20 18" fill="none" xmlns="http://www.w3.org/2000/svg">
<path d="M10.1245 0H9.42188C8.97259 0 8.5405 0.172702 8.21499 0.482377C7.86757 0.8129 7.6709 1.27145 7.6709 1.75098V16.249C7.6709 16.7286 7.86757 17.1871 8.21499 17.5176C8.5405 17.8273 8.9726 18 9.42188 18H10.1245C10.5737 18 11.0058 17.8273 11.3314 17.5176C11.6788 17.1871 11.8754 16.7286 11.8754 16.249V1.75098C11.8754 1.27145 11.6788 0.8129 11.3314 0.482377C11.0058 0.172702 10.5737 0 10.1245 0Z" fill="#8BC53F"/>
<path d="M0.3125 8.75098V9.24902C0.3125 9.72855 0.509167 10.1871 0.856593 10.5176C1.1821 10.8273 1.6142 11 2.06348 11L17.482 11C17.9313 11 18.3634 10.8273 18.6889 10.5176C19.0363 10.1871 19.233 9.72855 19.233 9.24902V8.75098C19.233 8.27145 19.0363 7.8129 18.6889 7.48238C18.3634 7.1727 17.9313 7 17.482 7L2.06348 7C1.6142 7 1.1821 7.1727 0.856593 7.48238C0.509167 7.8129 0.3125 8.27145 0.3125 8.75098Z" fill="#8BC53F"/>
</svg>
