<svg width="247" height="197" viewBox="0 0 247 197" fill="none" xmlns="http://www.w3.org/2000/svg">
<g clip-path="url(#clip0)">
<path d="M97.9204 73.4373L97.6605 73.9744L95.976 77.4409L78.3061 113.779L48.3224 187.358L44.0366 187.391L74.0369 113.779L94.4804 71.7312L95.976 72.4719L97.6605 73.3071L97.9204 73.4373Z" fill="#535461"/>
<path d="M150.526 187.391L146.998 187.358L117.012 113.779L99.8078 78.3944L97.6602 73.9744L97.3979 73.4373L97.6602 73.3071L99.8078 72.2423L100.84 71.7312L120.977 113.779L150.526 187.391Z" fill="#535461"/>
<path d="M99.8101 61.8476H95.9756V187.391H99.8101V61.8476Z" fill="#535461"/>
<path d="M97.4546 41.1647C96.1611 41.166 94.9209 41.6812 94.0062 42.5972C93.0916 43.5133 92.5771 44.7554 92.5759 46.0509V47.7972C92.5616 48.448 92.6772 49.0952 92.9161 49.7007C93.1549 50.3062 93.512 50.8578 93.9666 51.3232C94.4212 51.7886 94.964 52.1583 95.5631 52.4108C96.1623 52.6632 96.8058 52.7933 97.4558 52.7933C98.1059 52.7933 98.7494 52.6632 99.3485 52.4108C99.9477 52.1583 100.491 51.7886 100.945 51.3232C101.4 50.8578 101.757 50.3062 101.996 49.7007C102.234 49.0952 102.35 48.448 102.336 47.7972V46.0509C102.334 44.7552 101.819 43.5131 100.904 42.5971C99.9889 41.6811 98.7484 41.166 97.4546 41.1647ZM101.114 47.7901C101.114 48.7628 100.728 49.6956 100.042 50.3834C99.355 51.0713 98.4235 51.4577 97.4523 51.4577C96.4811 51.4577 95.5496 51.0713 94.8628 50.3834C94.1761 49.6956 93.7903 48.7628 93.7903 47.7901V46.0438C93.7903 45.0711 94.1761 44.1382 94.8628 43.4504C95.5496 42.7626 96.4811 42.3762 97.4523 42.3762C98.4235 42.3762 99.355 42.7626 100.042 43.4504C100.728 44.1382 101.114 45.0711 101.114 46.0438V47.7901Z" fill="#535461"/>
<path opacity="0.1" d="M120.977 113.779H117.012L99.8078 78.3944V113.779H95.9757V77.4409L78.3058 113.779H74.0366L94.4802 71.7312L95.9757 72.4718V61.8476H99.8078V72.2423L100.84 71.7312L120.977 113.779Z" fill="black"/>
<path opacity="0.1" d="M102.336 46.226V47.7971C102.35 48.448 102.234 49.0952 101.996 49.7007C101.757 50.3062 101.4 50.8578 100.945 51.3232C100.491 51.7886 99.9477 52.1583 99.3485 52.4108C98.7494 52.6632 98.1059 52.7932 97.4558 52.7932C96.8058 52.7932 96.1623 52.6632 95.5631 52.4108C94.964 52.1583 94.4212 51.7886 93.9666 51.3232C93.512 50.8578 93.1549 50.3062 92.9161 49.7007C92.6772 49.0952 92.5616 48.448 92.5759 47.7971V46.226H93.795V47.7971C93.795 48.7698 94.1808 49.7027 94.8676 50.3905C95.5543 51.0783 96.4858 51.4647 97.457 51.4647C98.4282 51.4647 99.3597 51.0783 100.046 50.3905C100.733 49.7027 101.119 48.7698 101.119 47.7971V46.226H102.336Z" fill="black"/>
<path d="M171.18 46.5762H23.7324V113.256H171.18V46.5762Z" fill="#535461"/>
<path d="M168.217 48.6703H26.3477V109.415H168.217V48.6703Z" fill="white"/>
<g opacity="0.2">
<path opacity="0.2" d="M47.0653 55.2744H40.3579V58.3338H47.0653V55.2744Z" fill="#75CD22"/>
</g>
<g opacity="0.2">
<path opacity="0.2" d="M47.0653 61.1922H40.3579V64.2517H47.0653V61.1922Z" fill="#75CD22"/>
</g>
<g opacity="0.2">
<path opacity="0.2" d="M47.0653 67.1077H40.3579V70.1672H47.0653V67.1077Z" fill="#75CD22"/>
</g>
<g opacity="0.2">
<path opacity="0.2" d="M47.0653 73.0232H40.3579V76.0827H47.0653V73.0232Z" fill="#75CD22"/>
</g>
<g opacity="0.2">
<path opacity="0.2" d="M47.0653 78.941H40.3579V82.0005H47.0653V78.941Z" fill="#75CD22"/>
</g>
<g opacity="0.2">
<path opacity="0.2" d="M47.0653 84.8565H40.3579V87.916H47.0653V84.8565Z" fill="#75CD22"/>
</g>
<g opacity="0.2">
<path opacity="0.2" d="M47.0653 90.772H40.3579V93.8315H47.0653V90.772Z" fill="#75CD22"/>
</g>
<g opacity="0.2">
<path opacity="0.2" d="M47.0653 96.6875H40.3579V99.747H47.0653V96.6875Z" fill="#75CD22"/>
</g>
<g opacity="0.2">
<path opacity="0.2" d="M59.6933 99.7493H52.9858V102.809H59.6933V99.7493Z" fill="#75CD22"/>
</g>
<g opacity="0.2">
<path opacity="0.2" d="M71.5087 99.7493H64.8013V102.809H71.5087V99.7493Z" fill="#75CD22"/>
</g>
<g opacity="0.2">
<path opacity="0.2" d="M83.3217 99.7493H76.6143V102.809H83.3217V99.7493Z" fill="#75CD22"/>
</g>
<g opacity="0.2">
<path opacity="0.2" d="M95.1371 99.7493H88.4297V102.809H95.1371V99.7493Z" fill="#75CD22"/>
</g>
<g opacity="0.2">
<path opacity="0.2" d="M106.95 99.7493H100.243V102.809H106.95V99.7493Z" fill="#75CD22"/>
</g>
<g opacity="0.2">
<path opacity="0.2" d="M118.766 99.7493H112.058V102.809H118.766V99.7493Z" fill="#75CD22"/>
</g>
<g opacity="0.2">
<path opacity="0.2" d="M130.579 99.7493H123.871V102.809H130.579V99.7493Z" fill="#75CD22"/>
</g>
<g opacity="0.2">
<path opacity="0.2" d="M142.394 99.7493H135.687V102.809H142.394V99.7493Z" fill="#75CD22"/>
</g>
<g opacity="0.2">
<path opacity="0.2" d="M154.207 99.7493H147.5V102.809H154.207V99.7493Z" fill="#75CD22"/>
</g>
<path d="M59.6933 77.5118H52.9858V96.6875H59.6933V77.5118Z" fill="#009F36"/>
<path d="M71.5087 68.6386H64.8013V96.6899H71.5087V68.6386Z" fill="#009F36"/>
<path d="M83.3217 61.1922H76.6143V96.6899H83.3217V61.1922Z" fill="#009F36"/>
<path d="M95.1371 65.0515H88.4297V96.6875H95.1371V65.0515Z" fill="#009F36"/>
<path d="M106.95 58.3362H100.243V96.6899H106.95V58.3362Z" fill="#009F36"/>
<g opacity="0.2">
<path opacity="0.2" d="M118.766 73.0232H112.058V96.6875H118.766V73.0232Z" fill="#75CD22"/>
</g>
<g opacity="0.2">
<path opacity="0.2" d="M130.579 73.0232H123.871V96.6875H130.579V73.0232Z" fill="#75CD22"/>
</g>
<g opacity="0.2">
<path opacity="0.2" d="M142.394 73.0232H135.687V96.6875H142.394V73.0232Z" fill="#75CD22"/>
</g>
<g opacity="0.2">
<path opacity="0.2" d="M154.207 73.0232H147.5V96.6875H154.207V73.0232Z" fill="#75CD22"/>
</g>
<path d="M146.729 72.9711L89.2944 76.5109V77.6325L147.953 75.3018L146.729 72.9711Z" fill="#535461"/>
<path d="M214.729 96.3397C214.729 96.3397 217.734 91.3896 216.936 83.6237C216.137 75.8579 213.248 63.2886 213.248 63.2886C213.248 63.2886 214.502 56.2468 207.698 55.2578C207.698 55.2578 203.469 54.4698 200.445 52.565C199.32 51.8552 198.363 50.9963 197.846 49.9622C197.846 49.9622 197.806 50.0782 197.728 50.2911C197.661 50.1847 197.6 50.0749 197.544 49.9622C197.544 49.9622 197.527 50.0048 197.501 50.0805L196.346 48.2775C196.346 48.2775 196.187 48.4455 195.921 48.7223C195.456 48.0543 195.06 47.3408 194.739 46.5928C195.026 46.5233 195.308 46.4331 195.583 46.323C195.845 46.2361 196.081 46.0848 196.27 45.8829C196.436 45.6526 196.543 45.3854 196.582 45.1044C196.766 44.2051 196.819 43.2836 196.738 42.3691C196.674 41.6592 196.53 40.9494 196.58 40.2277C196.632 39.4587 196.903 38.7157 196.941 37.9443C197.007 36.5861 196.334 35.2942 195.502 34.2176C195.006 33.5763 194.449 32.98 194.019 32.2938C193.645 31.6976 193.374 31.0398 192.972 30.46C192.027 29.1113 190.451 28.3163 188.835 28.0347C187.219 27.7531 185.556 27.9282 183.937 28.1956C182.52 28.4322 181.102 28.7753 179.685 28.8581C178.447 28.9291 177.438 28.5103 176.304 29.3314C175.928 29.6087 175.616 29.9634 175.389 30.3715C175.162 30.7796 175.024 31.2318 174.986 31.6976C174.967 31.8561 174.979 32.0168 175.021 32.1708C175.088 32.3304 175.167 32.4847 175.257 32.6322C175.76 33.626 174.995 34.8067 175.094 35.9165C175.155 36.4072 175.379 36.8631 175.731 37.2101C176.082 37.5572 176.541 37.775 177.032 37.8284C176.987 37.923 176.937 38.0153 176.895 38.1123C176.267 39.5321 175.985 41.0807 176.071 42.6309C176.157 44.1812 176.61 45.6888 177.391 47.03C178.172 48.3712 179.259 49.5077 180.564 50.346C181.869 51.1844 183.354 51.7008 184.897 51.8528L185.336 52.1912C186.328 52.9602 187.444 53.8807 188.519 54.8816L188.497 54.8981L188.322 54.7987C187.995 55.058 187.651 55.2951 187.292 55.5086C186.298 56.1191 184.693 56.9117 182.888 57.0017C182.888 57.0017 179.656 58.7172 178.544 64.3747C176.947 65.8086 173.528 68.3973 169.011 69.0716C162.662 70.0181 154.835 70.3281 154.835 70.3281C154.835 70.3281 154.771 70.4417 154.681 70.6499L153.958 70.5174C153.958 70.5174 153.958 70.6049 153.928 70.754L153.644 70.6262C151.402 69.6442 146.923 68.2127 146.356 72.1571C145.595 77.448 150.632 76.8398 150.632 76.8398C151.628 76.4608 152.649 76.1502 153.687 75.9099L153.968 75.8555C154.016 75.9935 154.082 76.1241 154.166 76.2436H154.851C155.089 76.7368 155.377 77.2045 155.709 77.6396L171.676 77.2894C171.676 77.2894 174.404 76.6931 176.923 77.0717C175.824 85.2966 174.527 94.3166 174.527 94.3166C174.527 94.3166 171.81 108.601 173.712 110.094C174.816 109.726 175.941 109.424 177.081 109.19C177.098 110.073 177.192 110.953 177.36 111.819L178.577 119.796C178.577 119.796 179.049 127.945 180.63 132.81L182.024 139.459L183.191 144.485L183.848 153.015C184.75 156.628 185.402 160.3 185.799 164.003C186.416 169.734 189.764 178.996 190.21 180.214C189.067 181.835 186.718 184.585 183.772 184.869C179.567 185.276 179.465 187.814 182.404 188.728C185.343 189.641 191.528 188.728 191.528 188.728L200.251 186.567C199.989 188.179 199.852 189.452 200.043 189.589C200.601 189.996 209.066 192.192 209.371 188.676C209.394 188.385 209.416 188.104 209.435 187.831C209.561 185.579 209.26 183.323 208.549 181.182C208.48 180.971 208.419 180.758 208.364 180.545C208.49 180.405 208.605 180.255 208.709 180.098C208.709 180.098 209.319 170.605 209.775 167.202C209.81 166.93 209.834 166.599 209.846 166.225C210.056 162.146 208.57 151.415 208.57 151.415C208.57 151.415 206.734 144.435 206.803 141.226C206.813 140.96 206.858 140.696 206.937 140.441C206.937 140.441 206.937 140.377 206.914 140.27C206.914 140.226 206.935 140.178 206.949 140.136C206.949 140.136 206.018 133.747 206.148 129.947C206.166 129.38 206.246 128.817 206.384 128.267C206.532 127.545 206.607 126.81 206.609 126.073C206.727 123.47 206.59 118.975 206.401 114.758C206.422 114.687 206.444 114.616 206.46 114.533C206.498 114.198 206.459 113.858 206.344 113.54C206.33 113.267 206.318 112.998 206.304 112.73C206.382 112.463 206.446 112.179 206.503 111.886H206.625V111.902C206.625 111.902 214.568 111.521 216.395 109.389C216.395 109.389 214.55 103.646 213.527 98.978L214.729 96.3397ZM180.5 78.4773L180.375 78.4323C180.575 77.7224 180.814 76.8966 181.083 76.0306C180.854 76.9676 180.656 77.8195 180.5 78.4773ZM188.561 54.936L188.596 54.9691L188.559 54.9478L188.561 54.936ZM198.484 178.101C198.056 176.627 196.358 170.617 196.412 167.751C196.424 167.502 196.467 167.256 196.542 167.018C196.699 166.499 196.779 165.959 196.778 165.416C196.948 162.425 195.805 157.066 195.805 157.066C195.805 157.066 193.246 149.837 193.442 144.097C193.442 143.952 193.459 143.808 193.468 143.664C193.511 143.119 193.544 142.53 193.567 141.908V141.896C193.664 139.679 193.643 137.01 193.579 134.521L193.565 134.428C193.478 131.132 193.315 128.165 193.246 126.991C193.482 128.688 194.994 139.248 195.646 140.976C195.646 140.976 196.003 145.848 197.624 149.967L199.401 160.677C199.401 160.677 199.857 173.421 200.615 177.025C200.955 178.629 201.243 179.71 201.458 180.415C201.151 181.852 200.655 184.258 200.322 186.25C200.126 184.951 199.436 180.001 198.486 178.101H198.484Z" fill="url(#paint0_linear)"/>
<path d="M190.889 178.43C190.889 178.43 187.923 183.813 183.754 184.215C179.584 184.618 179.484 187.133 182.397 188.039C185.31 188.945 191.441 188.039 191.441 188.039L200.183 185.877C200.183 185.877 199.127 177.221 197.721 176.769C196.315 176.317 190.889 178.43 190.889 178.43Z" fill="#4C4C78"/>
<path d="M201.544 178.529C201.544 178.529 199.332 188.491 199.89 188.896C200.448 189.3 208.832 191.461 209.135 187.99C209.158 187.698 209.18 187.418 209.199 187.152C209.322 184.919 209.024 182.684 208.32 180.562C208.083 179.852 207.918 179.093 207.979 178.529C208.119 177.122 201.544 178.529 201.544 178.529Z" fill="#4C4C78"/>
<path d="M198.801 52.4089C198.801 52.4089 192.018 69.0953 193.225 63.7358C194.024 60.1865 188.861 55.4707 185.292 52.6999C183.475 51.2802 182.071 50.3787 182.071 50.3787C182.071 50.3787 194.806 35.5095 193.903 41.9242C193.656 43.6811 193.896 45.4724 194.598 47.1015C196.004 50.4473 198.801 52.4089 198.801 52.4089Z" fill="#FFB9B9"/>
<path d="M155.473 76.1134C155.114 76.0212 154.528 76.0803 153.921 76.2104C152.892 76.4483 151.881 76.7558 150.894 77.1309C150.894 77.1309 145.902 77.7343 146.656 72.4908C147.216 68.5818 151.655 70.0015 153.878 70.9717C154.634 71.3053 155.135 71.5845 155.135 71.5845L155.473 76.1134Z" fill="#FFB9B9"/>
<path opacity="0.1" d="M155.473 76.1134C155.114 76.0212 154.528 76.0803 153.921 76.2104C153.377 74.838 153.791 71.5845 153.878 70.9717C154.634 71.3053 155.135 71.5845 155.135 71.5845L155.473 76.1134Z" fill="black"/>
<path d="M155.494 71.1066L154.188 70.8699C154.188 70.8699 153.519 75.3657 154.393 76.5488H155.896L155.494 71.1066Z" fill="#CBCDDA"/>
<path d="M181.698 79.3101C181.698 79.3101 177.705 76.9179 177.228 79.9372C176.751 82.9564 176.122 88.1147 176.122 88.1147L175.017 94.6809L173.585 107.837L173.786 110.075C173.786 110.075 178.038 108.641 179.035 109.145C180.032 109.649 180.845 103.611 180.845 103.611L182.499 97.3713L182.749 84.1395L181.698 79.3101Z" fill="#4C4C78"/>
<path opacity="0.1" d="M181.698 79.3101C181.698 79.3101 177.705 76.9179 177.228 79.9372C176.751 82.9564 176.122 88.1147 176.122 88.1147L175.017 94.6809L173.585 107.837L173.786 110.075C173.786 110.075 178.038 108.641 179.035 109.145C180.032 109.649 180.845 103.611 180.845 103.611L182.499 97.3713L182.749 84.1395L181.698 79.3101Z" fill="black"/>
<path d="M179.546 63.8116C179.546 63.8116 175.402 68.4919 169.11 69.4336C162.819 70.3754 155.055 70.6806 155.055 70.6806C155.055 70.6806 153.096 74.1897 155.922 77.9259L171.752 77.5757C171.752 77.5757 175.255 76.8138 177.97 77.5757L179.546 63.8116Z" fill="#4C4C78"/>
<path opacity="0.05" d="M179.546 63.8116C179.546 63.8116 175.402 68.4919 169.11 69.4336C162.819 70.3754 155.055 70.6806 155.055 70.6806C155.055 70.6806 153.096 74.1897 155.922 77.9259L171.752 77.5757C171.752 77.5757 175.255 76.8138 177.97 77.5757L179.546 63.8116Z" fill="black"/>
<path opacity="0.1" d="M193.927 46.9571C192.382 50.2698 189.695 52.7117 185.799 52.7117C185.627 52.7117 185.459 52.7117 185.292 52.6999C183.475 51.2802 182.071 50.3787 182.071 50.3787C182.071 50.3787 194.806 35.5095 193.903 41.9242C193.624 43.8882 193.305 45.483 193.927 46.9571Z" fill="black"/>
<path d="M195.505 42.6862C195.503 44.6089 194.933 46.4881 193.865 48.0861C192.797 49.6841 191.281 50.9292 189.506 51.6639C187.732 52.3987 185.78 52.5901 183.898 52.2139C182.015 51.8378 180.286 50.911 178.929 49.5507C177.572 48.1905 176.648 46.4578 176.275 44.5718C175.901 42.6858 176.094 40.7312 176.829 38.9551C177.565 37.1789 178.809 35.6611 180.406 34.5933C182.002 33.5256 183.879 32.9559 185.799 32.9564C187.075 32.9539 188.339 33.2039 189.518 33.6921C190.698 34.1803 191.769 34.8971 192.671 35.8012C193.573 36.7053 194.287 37.779 194.774 38.9605C195.26 40.1421 195.508 41.4082 195.505 42.6862Z" fill="#FFB9B9"/>
<path d="M201.438 102.101C201.438 102.101 179.787 104.016 178.993 101.247C178.199 98.4787 181.202 90.9826 181.202 90.9826L180.224 80.5169L180.188 80.117C180.188 80.117 182.901 68.7948 182.801 67.8909C182.707 67.0769 187.168 57.5767 188.084 55.634C188.193 55.4092 188.25 55.2862 188.25 55.2862L188.422 55.3856L188.498 55.4305L189.559 56.0505L193.747 55.0567L198.796 52.4089L199.269 81.3735L201.438 102.101Z" fill="#CBCDDA"/>
<path opacity="0.1" d="M190.184 55.6364C190.184 55.6364 188.703 55.2341 188.124 56.7177C187.898 57.3555 187.629 57.9776 187.321 58.5799L186.744 62.0251L185.688 67.4673L184.909 91.5434L185.261 95.8191L187.196 92.3739L187.548 69.869V67.0698C187.661 64.6497 188.207 62.2694 189.159 60.0422L189.428 59.4104L191.111 57.2454L190.184 55.6364Z" fill="black"/>
<path d="M189.884 55.3335C189.884 55.3335 188.4 54.9312 187.824 56.4148C187.597 57.0528 187.328 57.6749 187.018 58.277L186.442 61.7246L185.386 67.1668L184.608 91.2428L184.96 95.5209L186.895 92.0639L187.247 69.5732V66.7669C187.363 64.3471 187.909 61.9673 188.859 59.7393L189.13 59.1076L190.813 56.9449L189.884 55.3335Z" fill="#4C4C78"/>
<path opacity="0.1" d="M196.214 49.1199C196.214 49.1199 191.089 54.5621 189.279 55.2081C189.279 55.2081 190.184 59.3347 191.089 60.1393C191.089 60.1393 196.466 54.6473 197.418 54.2025L198.217 52.2456L196.214 49.1199Z" fill="black"/>
<path d="M196.214 48.8099C196.214 48.8099 191.089 54.2521 189.279 54.8981C189.279 54.8981 190.184 59.0248 191.089 59.8293C191.089 59.8293 196.466 54.3373 197.418 53.8925L198.217 51.938L196.214 48.8099Z" fill="#CBCDDA"/>
<path opacity="0.1" d="M188.549 55.2862L188.497 55.4282L186.855 59.8364L183.919 68.1536C183.919 68.1536 183.893 68.2387 183.841 68.3902C183.354 69.9045 180.738 78.1223 180.223 80.5098L180.188 80.1099C180.188 80.1099 182.9 68.7877 182.801 67.8838C182.707 67.0698 187.167 57.5696 188.084 55.6269C188.23 55.5275 188.344 55.4424 188.422 55.3785L188.549 55.2862Z" fill="black"/>
<path d="M188.249 55.2838L186.553 59.8364L183.616 68.1536C183.616 68.1536 183.59 68.2387 183.538 68.3902C183.023 70.0039 180.086 79.2155 179.85 80.9003C179.583 82.7506 175.89 92.7525 175.89 92.7525L173.781 110.071C171.891 108.601 174.574 94.4538 174.574 94.4538C174.574 94.4538 177.589 73.4728 178.303 66.4925C179.016 59.5122 182.865 57.4725 182.865 57.4725C184.642 57.3826 186.243 56.5971 187.229 55.9937C187.584 55.7803 187.925 55.5432 188.249 55.2838Z" fill="#4C4C78"/>
<path opacity="0.1" d="M209.524 166.706C209.073 170.077 208.471 179.483 208.471 179.483C206.361 182.651 201.688 180.941 201.688 180.941C201.688 180.941 201.187 179.994 200.433 176.412C199.679 172.829 199.228 160.21 199.228 160.21L197.468 149.61C195.862 145.533 195.51 140.703 195.51 140.703C194.801 138.841 193.097 126.615 193.097 126.615C193.097 126.615 193.806 137.582 193.35 143.37C192.894 149.158 195.658 156.945 195.658 156.945C195.658 156.945 197.218 164.242 196.412 166.507C195.606 168.771 198.423 178.127 198.423 178.127C198.186 180.846 190.187 179.739 190.187 179.739C190.187 179.739 186.423 169.623 185.764 163.535C185.369 159.867 184.722 156.23 183.829 152.65L183.177 144.196L182.019 139.199L180.639 132.609C179.08 127.779 178.605 119.703 178.605 119.703L177.398 111.779C176.609 107.861 177.634 103.261 178.315 100.854C178.61 99.8109 178.846 99.1744 178.846 99.1744C179.538 99.6665 183.503 100.244 185.554 100.712C186.676 100.971 187.83 101.064 188.979 100.987C194.164 100.575 199.293 99.6327 204.287 98.1758C204.624 98.0741 204.804 98.0149 204.804 98.0149L204.91 98.9212L205.161 101.079L205.607 104.91C205.607 104.91 206.963 125.337 206.16 128.099C205.357 130.86 206.713 140.166 206.713 140.166C205.959 142.374 208.319 151.347 208.319 151.347C208.319 151.347 209.978 163.334 209.524 166.706Z" fill="black"/>
<path d="M209.524 166.41C209.073 169.782 208.471 179.187 208.471 179.187C206.361 182.358 201.688 180.645 201.688 180.645C201.688 180.645 201.187 179.698 200.433 176.118C199.679 172.538 199.228 159.915 199.228 159.915L197.468 149.3C195.873 145.223 195.51 140.382 195.51 140.382C194.801 138.519 193.097 126.293 193.097 126.293C193.097 126.293 193.806 137.261 193.35 143.048C192.894 148.836 195.658 156.633 195.658 156.633C195.658 156.633 197.218 163.93 196.412 166.195C195.606 168.459 198.423 177.817 198.423 177.817C198.186 180.534 190.187 179.426 190.187 179.426C190.187 179.426 186.423 169.323 185.764 163.232C185.369 159.564 184.722 155.927 183.829 152.348L183.177 143.895L182.019 138.915L180.639 132.325C179.08 127.493 178.605 119.417 178.605 119.417L177.398 111.493C176.609 107.574 177.634 102.974 178.315 100.568C178.61 99.5269 178.846 98.8904 178.846 98.8904C179.538 99.3826 183.503 99.9576 185.554 100.426C186.676 100.686 187.83 100.779 188.979 100.701C194.164 100.288 199.293 99.3464 204.287 97.8895L204.804 97.731L204.91 98.6349L205.161 100.795L205.607 104.626C205.607 104.626 206.963 125.051 206.16 127.815C205.357 130.579 206.713 139.882 206.713 139.882C205.959 142.088 208.319 151.06 208.319 151.06C208.319 151.06 209.978 163.033 209.524 166.41Z" fill="#474463"/>
<path opacity="0.1" d="M195.505 42.6862C195.508 44.3864 195.065 46.0575 194.22 47.5322C192.708 47.7995 191.099 47.5038 189.967 46.5029C189.192 45.819 188.691 44.8844 188.025 44.0917C187.594 43.6046 187.13 43.1469 186.638 42.7217C186.317 42.401 185.948 42.132 185.544 41.9243C185.341 41.8216 185.118 41.767 184.89 41.7645C184.663 41.762 184.438 41.8118 184.233 41.9101C183.699 42.2082 183.524 42.8731 183.215 43.4031C182.982 43.8582 182.584 44.2063 182.102 44.3756C181.861 44.4528 181.602 44.4505 181.363 44.3692C181.123 44.2878 180.916 44.1317 180.772 43.9237C180.443 43.3582 180.684 42.4756 180.134 42.1301C179.989 42.0583 179.839 41.9967 179.685 41.9456C178.976 41.6238 178.894 40.6702 178.832 39.8893C178.801 39.506 178.719 39.073 178.397 38.8671C178.076 38.6613 177.653 38.7654 177.27 38.7725C177.157 38.777 177.044 38.7682 176.933 38.7465C177.835 36.7095 179.408 35.0447 181.39 34.0309C183.371 33.0171 185.64 32.7157 187.817 33.1772C189.994 33.6387 191.946 34.8352 193.348 36.5662C194.749 38.2972 195.514 40.4578 195.514 42.6862H195.505Z" fill="black"/>
<path d="M176.337 30.0412C175.964 30.3169 175.654 30.6695 175.429 31.0752C175.204 31.481 175.068 31.9304 175.031 32.3932C175.013 32.5479 175.025 32.7045 175.066 32.8546C175.132 33.0139 175.211 33.1674 175.302 33.3137C175.798 34.3004 175.04 35.4693 175.137 36.5695C175.203 37.0893 175.454 37.5676 175.845 37.9157C176.236 38.2638 176.74 38.4581 177.263 38.4625C177.646 38.4625 178.066 38.3489 178.39 38.5571C178.714 38.7654 178.794 39.196 178.825 39.5793C178.886 40.3602 178.964 41.3138 179.675 41.6356C179.829 41.6879 179.979 41.7495 180.124 41.8201C180.677 42.1656 180.436 43.0506 180.765 43.6137C180.909 43.8217 181.116 43.9778 181.355 44.0592C181.595 44.1405 181.854 44.1428 182.095 44.0657C182.575 43.897 182.973 43.5496 183.205 43.0955C183.51 42.5631 183.692 41.9124 184.226 41.6024C184.43 41.5033 184.655 41.4528 184.883 41.4549C185.11 41.4569 185.334 41.5115 185.537 41.6143C185.941 41.8229 186.31 42.0927 186.631 42.4141C187.124 42.8386 187.587 43.2964 188.018 43.7841C188.684 44.5744 189.185 45.509 189.96 46.1929C191.42 47.4777 193.655 47.6126 195.455 46.872C195.715 46.7852 195.95 46.6357 196.138 46.4366C196.302 46.2077 196.409 45.9421 196.447 45.6628C196.63 44.7721 196.683 43.8594 196.603 42.9535C196.54 42.2437 196.395 41.5338 196.445 40.824C196.495 40.0621 196.766 39.3262 196.804 38.5642C196.87 37.2155 196.202 35.9354 195.387 34.8682C194.895 34.2317 194.342 33.6426 193.917 32.9611C193.546 32.3695 193.277 31.7188 192.88 31.1462C191.949 29.8093 190.38 29.0166 188.778 28.7398C187.177 28.463 185.53 28.6333 183.926 28.9007C182.527 29.1373 181.119 29.4733 179.701 29.5561C178.461 29.6437 177.462 29.2249 176.337 30.0412Z" fill="#472727"/>
<path opacity="0.1" d="M188.249 55.2838L186.553 59.8364L183.616 68.1536C183.616 68.1536 183.59 68.2387 183.538 68.3902V68.402L187.233 55.9889C187.587 55.7769 187.927 55.5414 188.249 55.2838Z" fill="black"/>
<path d="M206.588 107.385C206.588 107.385 206.763 112.894 205.282 114.278L201.338 106.831L204.646 105.22L206.588 107.385Z" fill="#FFB9B9"/>
<path opacity="0.1" d="M215.792 109.396C213.983 111.509 206.106 111.888 206.106 111.888L198.309 99.5837C198.309 99.5837 196.464 98.3012 192.998 92.5253C189.532 86.7495 189.646 82.301 189.839 78.9789C190.033 75.6567 192.202 66.1091 192.202 66.1091C192.54 63.9606 197.4 50.4922 197.4 50.4922C197.91 51.5121 198.86 52.3639 199.97 53.0667C202.971 54.9596 207.159 55.7357 207.159 55.7357C213.907 56.7177 212.662 63.698 212.662 63.698C212.662 63.698 212.738 90.8312 212.322 94.0776C211.906 97.324 215.792 109.396 215.792 109.396Z" fill="black"/>
<path d="M206.69 108.44L206.463 110.454L203.725 109.448L201.716 106.403L203.224 105.22L206.69 108.44Z" fill="#CBCDDA"/>
<path opacity="0.1" d="M206.592 100.641L205.161 100.788L191.356 102.17C189.139 102.393 186.901 102.283 184.717 101.843L178.314 100.561C178.61 99.5198 178.846 98.8833 178.846 98.8833C179.538 99.3755 183.503 99.9505 185.553 100.419C186.676 100.679 187.83 100.772 188.979 100.693C194.164 100.281 199.293 99.3393 204.286 97.8824L204.91 98.6278L206.592 100.641Z" fill="black"/>
<g opacity="0.1">
<path opacity="0.1" d="M178.99 98.959C178.945 98.9365 178.9 98.9112 178.858 98.8833C178.858 98.8833 178.858 98.8975 178.844 98.9188L178.99 98.959Z" fill="black"/>
<path opacity="0.1" d="M208.332 151.058C208.332 151.058 205.969 142.085 206.725 139.88C206.725 139.88 205.369 130.581 206.174 127.812C206.98 125.044 205.619 104.624 205.619 104.624L205.173 100.793L204.922 98.6325L204.818 97.7286L204.299 97.8872L203.977 97.9818L204.017 98.332L204.268 100.49L204.714 104.321C204.714 104.321 206.071 124.748 205.27 127.51C204.469 130.271 205.82 139.577 205.82 139.577C205.066 141.785 207.427 150.755 207.427 150.755C207.427 150.755 209.08 162.733 208.634 166.102C208.187 169.472 207.578 178.88 207.578 178.88C206.037 181.196 203.129 180.907 201.671 180.583L201.697 180.64C201.697 180.64 206.371 182.353 208.48 179.183C208.48 179.183 209.083 169.772 209.536 166.405C209.99 163.038 208.332 151.058 208.332 151.058Z" fill="black"/>
<path opacity="0.1" d="M196.426 166.204C197.229 163.94 195.673 156.642 195.673 156.642C195.673 156.642 192.911 148.834 193.362 143.058C193.551 140.647 193.539 137.339 193.459 134.303C192.819 130.387 192.204 126.021 192.204 126.021C192.204 126.021 192.913 136.989 192.459 142.774C192.006 148.559 194.768 156.361 194.768 156.361C194.768 156.361 196.327 163.656 195.521 165.92C194.716 168.185 197.527 177.531 197.527 177.531C197.326 179.708 192.164 179.424 190.116 179.235L190.194 179.443C190.194 179.443 198.182 180.55 198.432 177.834C198.437 177.827 195.623 168.468 196.426 166.204Z" fill="black"/>
</g>
<path d="M216.092 109.396C214.285 111.509 206.406 111.888 206.406 111.888L198.609 99.5837C198.609 99.5837 196.764 98.3012 193.296 92.5253C189.827 86.7495 189.946 82.301 190.137 78.9789C190.328 75.6567 192.5 66.1091 192.5 66.1091C192.837 63.9606 197.697 50.4922 197.697 50.4922C198.205 51.5121 199.155 52.3639 200.268 53.0667C203.268 54.9596 207.457 55.7357 207.457 55.7357C214.202 56.7177 212.957 63.698 212.957 63.698C212.957 63.698 213.033 90.8312 212.617 94.0776C212.201 97.324 216.092 109.396 216.092 109.396Z" fill="#4C4C78"/>
<path opacity="0.1" d="M199.141 57.1697L197.445 57.8014L198.574 58.5941L190.14 78.9718C190.336 75.6591 192.502 66.1021 192.502 66.1021C192.84 63.9535 197.7 50.4852 197.7 50.4852C198.208 51.505 199.158 52.3568 200.27 53.0596L199.141 57.1697Z" fill="black"/>
<path opacity="0.1" d="M201.175 93.4718L209.804 91.2452L210.935 94.7543L202.118 96.9076L201.175 93.4718Z" fill="black"/>
<path opacity="0.1" d="M206.11 58.6036C206.11 58.6036 202.191 62.2972 203.67 70.5292C205.149 78.7612 207.514 87.6983 207.514 87.6983L201.135 105.397C201.135 105.397 205.581 110.04 207.767 110.603L214.134 96.4509C214.134 96.4509 217.111 91.5458 216.319 83.8485C215.528 76.1513 212.664 63.6956 212.664 63.6956C212.664 63.6956 212.667 56.1143 206.11 58.6036Z" fill="black"/>
<path d="M206.411 58.6036C206.411 58.6036 202.489 62.2972 203.963 70.5292C205.437 78.7612 207.805 87.6983 207.805 87.6983L201.426 105.397C201.426 105.397 205.872 110.04 208.058 110.603L214.437 96.4509C214.437 96.4509 217.413 91.5458 216.622 83.8485C215.831 76.1513 212.967 63.6956 212.967 63.6956C212.967 63.6956 212.967 56.1143 206.411 58.6036Z" fill="#4C4C78"/>
<path opacity="0.1" d="M201.638 105.774C201.638 105.774 206.611 112.669 206.236 114.505C205.86 116.341 204.402 115.359 204.402 115.359L202.444 112.669L200.684 107.636C200.684 107.636 200.856 105.464 201.638 105.774Z" fill="black"/>
<path opacity="0.1" d="M201.036 105.774C201.036 105.774 205.997 112.669 205.633 114.505C205.269 116.341 203.8 115.359 203.8 115.359L201.839 112.669L200.081 107.636C200.081 107.636 200.254 105.464 201.036 105.774Z" fill="black"/>
<path d="M201.338 105.774C201.338 105.774 206.3 112.669 205.934 114.505C205.567 116.341 204.1 115.359 204.1 115.359L202.142 112.669L200.384 107.636C200.384 107.636 200.554 105.464 201.338 105.774Z" fill="#474463"/>
</g>
<defs>
<linearGradient id="paint0_linear" x1="181.667" y1="190.651" x2="181.667" y2="27.888" gradientUnits="userSpaceOnUse">
<stop stop-color="#808080" stop-opacity="0.25"/>
<stop offset="0.54" stop-color="#808080" stop-opacity="0.12"/>
<stop offset="1" stop-color="#808080" stop-opacity="0.1"/>
</linearGradient>
<clipPath id="clip0">
<rect width="246.686" height="197" fill="white"/>
</clipPath>
</defs>
</svg>
