<svg width="207" height="185" viewBox="0 0 207 185" fill="none" xmlns="http://www.w3.org/2000/svg">
<g clip-path="url(#clip0)">
<path d="M193.793 36.0364C201.19 46.8197 199.553 60.7886 199.553 60.7886C199.553 60.7886 185.924 57.2744 178.527 46.4912C171.13 35.708 172.767 21.7391 172.767 21.7391C172.767 21.7391 186.396 25.2532 193.793 36.0364Z" fill="#2F2E41"/>
<path d="M188.471 38.0955C189.336 51.1397 199.272 61.1025 199.272 61.1025C199.272 61.1025 207.804 49.9163 206.938 36.8721C206.073 23.8278 196.137 13.8651 196.137 13.8651C196.137 13.8651 187.605 25.0512 188.471 38.0955Z" fill="#009F36"/>
<path d="M103.546 0.271621L203.972 50.7202C204.807 51.1397 205.5 51.796 205.963 52.6069C206.426 53.4179 206.64 54.3474 206.577 55.2791L200.742 141.634C200.716 142.022 200.594 142.396 200.388 142.725C200.182 143.054 199.897 143.327 199.559 143.519C199.222 143.711 198.842 143.817 198.453 143.826C198.065 143.836 197.68 143.749 197.333 143.574L94.6172 91.1964L99.8905 2.37674C99.9153 1.95952 100.043 1.55498 100.263 1.19945C100.483 0.843926 100.788 0.548548 101.151 0.339844C101.513 0.131141 101.922 0.0156484 102.34 0.00374061C102.758 -0.0081672 103.172 0.0838819 103.546 0.271621Z" fill="#D0CDE1"/>
<path d="M104.702 2.03137L202.662 51.2408C203.476 51.6499 204.152 52.2901 204.604 53.0812C205.056 53.8722 205.264 54.7789 205.203 55.6877L199.511 139.922C199.486 140.3 199.367 140.665 199.166 140.986C198.964 141.307 198.686 141.573 198.357 141.76C198.028 141.947 197.657 142.05 197.278 142.06C196.899 142.069 196.524 141.985 196.186 141.814L95.9927 90.7228L101.136 4.08479C101.161 3.67782 101.286 3.28321 101.5 2.93642C101.715 2.58962 102.012 2.3015 102.366 2.09792C102.719 1.89434 103.118 1.78169 103.526 1.77007C103.933 1.75846 104.338 1.84825 104.702 2.03137Z" fill="#3F3D56"/>
<path d="M108.995 8.56751L197.792 53.1744C198.531 53.5453 199.143 54.1256 199.553 54.8426C199.962 55.5597 200.151 56.3816 200.096 57.2054L194.937 133.561C194.913 133.904 194.806 134.235 194.623 134.526C194.441 134.816 194.189 135.058 193.89 135.227C193.592 135.397 193.256 135.491 192.912 135.499C192.569 135.508 192.229 135.431 191.922 135.276L101.1 88.9637L105.763 10.4289C105.785 10.06 105.898 9.70226 106.092 9.38791C106.287 9.07355 106.556 8.81237 106.877 8.62783C107.197 8.4433 107.559 8.34118 107.928 8.33065C108.298 8.32012 108.665 8.40151 108.995 8.56751Z" fill="white"/>
<path d="M17.3698 133.688L117.924 184.287C118.86 184.757 119.893 185.001 120.941 185C121.988 184.999 123.021 184.752 123.955 184.279L198.342 146.549C199.215 145.678 199.093 144.386 198.814 143.416C198.679 142.947 198.494 142.493 198.264 142.062L188.127 136.735L102.9 94.2467L97.8078 91.5458C96.4597 90.8325 94.9586 90.4567 93.4333 90.4505C91.9079 90.4444 90.4038 90.8081 89.0501 91.5105L17.3384 128.73C16.8821 128.966 16.5 129.323 16.2344 129.762C15.9687 130.202 15.8298 130.706 15.8331 131.219C15.8363 131.732 15.9816 132.234 16.2528 132.67C16.524 133.106 16.9106 133.458 17.3698 133.688Z" fill="#D0CDE1"/>
<path opacity="0.1" d="M17.3695 133.688L117.924 184.287C118.86 184.757 119.893 185.001 120.94 185C121.988 184.999 123.02 184.752 123.955 184.279L198.342 146.549C199.214 145.678 199.093 144.386 198.814 143.416L124.649 181.934C123.744 182.404 122.74 182.653 121.72 182.662C120.7 182.671 119.693 182.438 118.78 181.984L15.8687 130.756C15.7719 131.341 15.8655 131.941 16.1356 132.469C16.4058 132.997 16.8383 133.424 17.3695 133.688Z" fill="black"/>
<path opacity="0.1" d="M112.812 148.849L80.2473 132.406C79.5917 132.075 78.866 131.907 78.1315 131.915C77.397 131.924 76.6753 132.109 76.0274 132.454L57.1364 142.538C56.9182 142.655 56.7361 142.829 56.6101 143.042C56.4841 143.255 56.419 143.498 56.422 143.745C56.4249 143.992 56.4957 144.234 56.6267 144.444C56.7577 144.654 56.9438 144.824 57.1648 144.935L90.3677 161.664C90.9191 161.942 91.5304 162.08 92.1477 162.066C92.765 162.052 93.3693 161.886 93.9072 161.583L112.874 150.907C113.058 150.803 113.211 150.65 113.316 150.465C113.42 150.281 113.472 150.071 113.465 149.859C113.459 149.647 113.395 149.441 113.28 149.263C113.165 149.085 113.003 148.942 112.812 148.849Z" fill="black"/>
<path opacity="0.1" d="M189.507 146.099L154.464 164.7C154.061 164.914 153.612 165.028 153.155 165.033C152.699 165.037 152.248 164.932 151.84 164.726L52.8302 114.698C52.5512 114.557 52.317 114.341 52.1538 114.075C51.9906 113.808 51.9049 113.502 51.9063 113.189C51.9076 112.877 51.996 112.571 52.1614 112.306C52.3269 112.041 52.5629 111.827 52.8431 111.689L87.063 94.7657C87.5788 94.5107 88.1468 94.379 88.7222 94.381C89.2977 94.3831 89.8648 94.5188 90.3787 94.7775L189.491 144.674C189.623 144.74 189.733 144.841 189.811 144.966C189.889 145.091 189.931 145.234 189.933 145.382C189.934 145.529 189.896 145.673 189.82 145.8C189.745 145.926 189.637 146.03 189.507 146.099Z" fill="black"/>
<path d="M133.602 53.3339L133.426 53.6851L165.644 69.7805L165.82 69.4294L133.602 53.3339Z" fill="#009F36"/>
<path d="M133.599 58.0543L133.42 58.4035L165.647 74.8745L165.826 74.5252L133.599 58.0543Z" fill="#009F36"/>
<path d="M139.498 67.0723L139.319 67.422L157.783 76.8485L157.962 76.4988L139.498 67.0723Z" fill="#009F36"/>
<path d="M38.6248 86.7265C38.6248 86.7265 30.7683 83.3059 27.0781 86.9192C23.3879 90.5325 36.9582 89.3431 38.6248 86.7265Z" fill="#3F3D56"/>
<path d="M25.0587 70.5043C27.6989 66.0469 32.9223 65.8391 32.9223 65.8391C32.9223 65.8391 38.0123 65.1888 41.2775 71.9775C44.3209 78.3052 48.5212 84.4147 41.9537 85.896L40.7674 82.2068L40.0328 86.1706C39.0977 86.2378 38.1596 86.2539 37.2228 86.2186C30.1895 85.9917 23.4914 86.285 23.7071 83.7633C23.9938 80.411 22.5182 74.7933 25.0587 70.5043Z" fill="#2F2E41"/>
<path d="M21.3642 151.31C21.3642 151.31 24.6973 157.495 26.8399 157.495C28.9826 157.495 28.7445 161.539 28.2684 162.491C27.7922 163.442 26.6019 165.583 28.5065 168.675C29.1717 169.756 29.0527 170.981 28.6162 172.118C27.393 175.305 22.6348 174.339 22.7866 170.93C22.7882 170.892 22.7903 170.854 22.7927 170.816C23.0307 167.01 21.1261 161.063 19.2215 159.636C17.3169 158.209 15.6504 154.403 15.6504 154.403L21.3642 151.31Z" fill="#FFB8B8"/>
<path d="M44.2197 149.883C44.2197 149.883 40.8866 156.068 38.7439 156.068C36.6013 156.068 36.8394 160.112 37.3155 161.063C37.7916 162.015 38.982 164.156 37.0774 167.248C36.4121 168.328 36.5312 169.554 36.9677 170.691C38.1909 173.877 42.9491 172.912 42.7973 169.503C42.7956 169.465 42.7936 169.427 42.7912 169.389C42.5532 165.583 44.4578 159.636 46.3624 158.209C48.267 156.782 49.9335 152.976 49.9335 152.976L44.2197 149.883Z" fill="#FFB8B8"/>
<path d="M41.6009 119.435L43.0293 122.527C43.0293 122.527 63.98 129.426 62.0754 137.513C60.1708 145.601 50.8858 158.209 49.4574 157.733C48.0289 157.257 40.4105 155.83 40.1724 151.786C39.9343 147.742 45.6481 140.606 45.6481 140.606L37.7917 133.47L26.3592 133.232L16.6029 140.606C16.6029 140.606 26.8402 149.645 22.3167 153.213C17.7933 156.782 11.1272 159.16 10.1749 157.733C9.22258 156.306 -1.49083 135.135 0.175701 133.232C1.84223 131.329 18.7456 124.192 18.7456 124.192L23.269 117.77L40.8866 116.818L41.6009 119.435Z" fill="#2F2E41"/>
<path d="M37.3154 80.1848C37.3154 80.1848 36.125 88.0348 38.5058 88.9863C40.8865 89.9378 33.7442 93.9818 33.7442 93.9818H29.697L27.0781 88.5106C27.0781 88.5106 29.4589 84.2288 28.0304 80.1848C26.602 76.1409 37.3154 80.1848 37.3154 80.1848Z" fill="#FFB8B8"/>
<path opacity="0.1" d="M37.3154 80.1848C37.3154 80.1848 36.125 88.0348 38.5058 88.9863C40.8865 89.9378 33.7442 93.9818 33.7442 93.9818H29.697L27.0781 88.5106C27.0781 88.5106 29.4589 84.2288 28.0304 80.1848C26.602 76.1409 37.3154 80.1848 37.3154 80.1848Z" fill="black"/>
<path d="M38.982 86.8454C38.982 86.8454 36.3631 89.6999 35.887 90.1757C35.4108 90.6515 33.2681 93.2681 28.7447 89.4621C24.2213 85.656 23.7451 90.1757 23.7451 90.1757V118.721C23.7451 118.721 27.5543 117.056 30.6493 118.721C33.7443 120.386 40.1723 118.245 40.1723 118.245L41.3627 88.7484L38.982 86.8454Z" fill="#D0CDE1"/>
<path d="M37.2332 86.8454C37.2332 86.8454 39.4581 85.8939 41.3627 86.8454C43.2673 87.7969 49.9334 92.5545 49.4572 94.6954C48.9811 96.8363 42.7911 111.823 47.0765 118.959C51.3618 126.095 52.0761 127.998 52.0761 127.998L41.6007 122.527C41.6007 122.527 33.5062 117.532 34.2204 114.439C34.9346 111.347 37.2332 86.8454 37.2332 86.8454Z" fill="#3F3D56"/>
<path d="M27.7895 86.8454C27.7895 86.8454 22.7927 87.3212 22.5546 87.7969C22.3166 88.2727 15.0553 90.2946 15.5314 92.4355C16.0076 94.5764 22.5546 113.726 19.6977 117.294C16.8408 120.862 12.0793 125.857 13.7458 126.333C15.4124 126.809 18.2693 125.62 21.1262 126.333C23.9831 127.047 30.6492 121.1 29.935 114.677C29.2208 108.254 29.9294 88.5105 27.7895 86.8454Z" fill="#3F3D56"/>
<path d="M39.6961 132.28V134.659C39.6961 134.659 40.8865 140.13 37.0773 139.892C33.2681 139.654 35.6489 133.232 35.6489 133.232L35.8869 131.091L39.6961 132.28Z" fill="#FFB8B8"/>
<path d="M28.9829 132.518C28.9829 132.518 31.6017 137.989 28.9829 138.465C26.3641 138.941 24.4595 135.373 24.4595 134.421C24.4595 133.47 28.9829 132.518 28.9829 132.518Z" fill="#FFB8B8"/>
<path d="M25.5308 77.925C25.7938 77.925 26.007 77.499 26.007 76.9734C26.007 76.4479 25.7938 76.0219 25.5308 76.0219C25.2679 76.0219 25.0547 76.4479 25.0547 76.9734C25.0547 77.499 25.2679 77.925 25.5308 77.925Z" fill="#FFB8B8"/>
<path d="M39.5772 77.925C39.8402 77.925 40.0534 77.499 40.0534 76.9734C40.0534 76.4479 39.8402 76.0219 39.5772 76.0219C39.3143 76.0219 39.1011 76.4479 39.1011 76.9734C39.1011 77.499 39.3143 77.925 39.5772 77.925Z" fill="#FFB8B8"/>
<path d="M21.3643 89.9378C21.3643 89.9378 15.4124 89.9378 15.6505 92.3166C15.8886 94.6954 23.7451 135.61 23.7451 135.61C23.7451 135.61 27.0781 132.518 29.935 133.232L21.3643 89.9378Z" fill="#3F3D56"/>
<path d="M44.4576 90.6515C44.4576 90.6515 50.4095 91.8409 50.4095 95.409C50.4095 98.9772 41.8388 133.232 40.6484 133.232C39.458 133.232 34.9346 132.518 34.9346 131.329C34.9346 130.139 44.4576 90.6515 44.4576 90.6515Z" fill="#3F3D56"/>
<path opacity="0.2" d="M43.1482 97.6689L37.7915 118.6C37.7915 118.6 40.2913 100.286 43.1482 97.6689Z" fill="black"/>
<path opacity="0.2" d="M22.3125 94.7277L27.7301 122.094C27.7301 122.094 25.9986 96.3063 22.3125 94.7277Z" fill="black"/>
<path d="M32.5541 83.9909C36.3672 83.9909 39.4583 80.9023 39.4583 77.0924C39.4583 73.2825 36.3672 70.1939 32.5541 70.1939C28.741 70.1939 25.6499 73.2825 25.6499 77.0924C25.6499 80.9023 28.741 83.9909 32.5541 83.9909Z" fill="#FFB8B8"/>
<path d="M26.2263 70.0745L31.3869 67.3737L38.5133 68.4785L39.9877 74.9852L36.3175 74.8444L35.2921 72.4538V74.8048L33.5985 74.7398L32.6155 70.9338L32.0012 74.9852L25.9805 74.8627L26.2263 70.0745Z" fill="#2F2E41"/>
<path d="M103.611 30.025L100.765 36.7876L124.785 49.3852L132.877 25.7236" fill="#F2F2F2"/>
<path d="M124.231 45.2362L134.842 20.289L110.454 8.29794L100.211 32.6386L124.231 45.2362Z" fill="#009F36"/>
<path d="M109.878 17.8379L109.699 18.1875L128.163 27.614L128.342 27.2644L109.878 17.8379Z" fill="white"/>
<path d="M108.494 21.157L108.315 21.5067L126.779 30.9332L126.957 30.5835L108.494 21.157Z" fill="white"/>
<path d="M113.549 65.9158L115.06 66.6783L117.303 62.2322L115.125 61.1333L114.506 62.3591L115.173 62.6956L113.549 65.9158ZM120.927 67.5101C120.558 67.6106 120.125 67.6156 119.731 67.4169C119.172 67.135 118.923 66.6027 119.208 66.0375C119.48 65.4976 120.019 65.2195 120.68 65.5527C120.991 65.7097 121.324 66.0448 121.427 66.5192L122.212 64.9632C121.981 64.5361 121.524 64.1941 121.162 64.0115C120.032 63.4412 118.336 63.5179 117.522 65.1313C116.804 66.5539 117.362 68.0066 118.811 68.7371C119.344 69.0062 119.789 69.0714 120.142 69.0663L120.927 67.5101ZM121.95 67.0302C121.713 67.5003 122.011 67.9212 122.405 68.1198C122.798 68.3184 123.314 68.3076 123.551 67.8375C123.785 67.3739 123.494 66.9401 123.1 66.7415C122.706 66.5428 122.184 66.5665 121.95 67.0302ZM120.986 68.9419C120.749 69.412 121.046 69.8331 121.44 70.0317C121.834 70.2303 122.349 70.2194 122.586 69.7493C122.82 69.2857 122.529 68.852 122.135 68.6534C121.742 68.4547 121.22 68.4783 120.986 68.9419ZM125.338 66.2849L123.095 70.731L124.874 71.6281L126.466 68.4713L127.482 68.984L125.89 72.1407L127.668 73.0378L129.911 68.5917L125.338 66.2849ZM128.469 73.4414L130.247 74.3385L132.49 69.8924L130.711 68.9953L128.469 73.4414ZM133.779 70.5427L132.911 72.264C132.677 72.7276 132.19 73.6454 131.298 73.251L130.199 75.4295L131.71 76.192L132.159 75.3028L134.471 76.469L134.022 77.3582L135.534 78.1207L136.633 75.9421L136.099 75.6731L137.692 72.5163L133.779 70.5427ZM134.729 72.6394L135.263 72.9085L134.321 74.7759L133.381 74.3018C133.737 74.2267 134.057 73.9733 134.412 73.2682L134.729 72.6394ZM138.67 73.0096L136.427 77.4557L138.206 78.3528L139.798 75.196L140.814 75.7086L139.222 78.8654L141 79.7624L143.243 75.3163L138.67 73.0096ZM141.801 80.1662L143.579 81.0632L144.274 79.6849L144.814 79.9571C146.224 80.6684 147.038 79.9555 147.361 79.3139C147.682 78.6787 147.778 77.6039 146.361 76.8894L144.043 75.7201L141.801 80.1662ZM145.239 77.7731L145.435 77.8724C145.581 77.9461 145.851 78.1061 145.672 78.4617C145.582 78.6395 145.41 78.8075 145.054 78.6282L144.857 78.5289L145.239 77.7731ZM148.712 78.0748L146.469 82.5209L148.069 83.3282L150.391 81.8221L149.314 83.9562L151.004 84.8084L153.247 80.3623L151.646 79.5549L149.283 81.1436L150.401 78.927L148.712 78.0748ZM156.171 85.5741C155.697 85.6297 155.255 85.5582 154.836 85.3468C154.156 85.0039 154.155 84.5171 154.241 84.2343L155.785 85.0128L156.275 84.0411L154.801 83.2978C155.076 82.9584 155.601 82.9443 156.071 83.1814C156.294 83.2935 156.671 83.5715 156.934 84.0624L157.574 82.7921C157.232 82.3328 156.763 81.9686 156.305 81.7379C154.94 81.0491 153.44 81.4796 152.761 82.8261C152.075 84.1853 152.436 85.6977 153.941 86.457C154.386 86.6813 154.939 86.8646 155.521 86.8636L156.171 85.5741ZM155.742 87.1983L157.47 88.0698L158.839 85.8603L158.346 88.5119L159.68 89.1847L161.52 87.2123L160.557 89.6268L162.284 90.4982L163.904 85.7382L161.948 84.7514L159.978 86.9363L160.564 84.053L158.607 83.0662L155.742 87.1983ZM167.103 90.8015C166.734 90.9019 166.301 90.9069 165.907 90.7082C165.348 90.4263 165.099 89.894 165.384 89.3288C165.656 88.7889 166.195 88.5108 166.855 88.844C167.167 89.001 167.5 89.3362 167.603 89.8105L168.388 88.2546C168.157 87.8273 167.7 87.4855 167.338 87.3028C166.207 86.7326 164.512 86.8092 163.698 88.4226C162.98 89.8452 163.538 91.2979 164.986 92.0283C165.52 92.2975 165.965 92.3627 166.318 92.3576L167.103 90.8015ZM167.448 93.1028L169.226 93.9999L170.819 90.8431L171.752 91.3141L172.403 90.0248L168.757 88.1859L168.107 89.4752L169.04 89.9461L167.448 93.1028ZM172.847 90.249L170.605 94.6951L173.234 96.0215C174.467 96.643 175.131 95.9899 175.358 95.539C175.662 94.9356 175.471 94.289 174.947 93.9054L174.953 93.8929C175.376 93.9706 175.943 93.8581 176.196 93.3563C176.369 93.0133 176.633 92.1585 175.356 91.5145L172.847 90.249ZM173.774 92.8355L174.088 92.2131L174.253 92.2965C174.564 92.4534 174.566 92.6538 174.49 92.8063C174.413 92.9587 174.25 93.0758 173.939 92.9189L173.774 92.8355ZM172.922 94.525L173.258 93.8581L173.474 93.967C173.645 94.0535 173.902 94.223 173.752 94.5217C173.595 94.8328 173.303 94.7172 173.138 94.6339L172.922 94.525ZM177.62 98.4006C179.36 99.2785 180.775 98.5421 181.381 97.3418C181.986 96.1413 181.737 94.5658 179.997 93.6879C178.256 92.81 176.841 93.5462 176.236 94.7467C175.63 95.9471 175.879 97.5228 177.62 98.4006ZM178.337 96.978C177.886 96.7505 177.618 96.2246 177.932 95.6022C178.246 94.9797 178.828 94.8831 179.279 95.1106C179.73 95.3381 179.999 95.8639 179.685 96.4864C179.371 97.1088 178.788 97.2055 178.337 96.978ZM186.259 99.6273C186.59 99.6826 187.179 99.6368 187.492 99.0144C187.88 98.2458 187.329 97.4422 186.364 96.9552C185.399 96.4683 184.425 96.503 184.037 97.2716C183.723 97.894 184.036 98.3947 184.277 98.6277L184.271 98.6404C183.899 98.5564 183.133 98.4963 182.735 99.284C182.524 99.7031 182.304 100.708 184.032 101.579C185.759 102.451 186.437 101.677 186.648 101.258C187.045 100.47 186.541 99.8892 186.253 99.64L186.259 99.6273ZM185.483 98.7019C185.273 98.5962 185.207 98.3797 185.307 98.1828C185.451 97.897 185.718 97.9521 185.832 98.0096C185.883 98.0353 186.169 98.2112 186.005 98.5352C185.906 98.732 185.693 98.8077 185.483 98.7019ZM184.563 100.525C184.341 100.413 184.186 100.167 184.334 99.875C184.478 99.5892 184.761 99.5648 184.989 99.6801C185.218 99.7955 185.367 100.038 185.223 100.324C185.075 100.616 184.786 100.637 184.563 100.525ZM111.037 69.2628L112.277 69.888L112.536 69.3745L112.005 69.1066L112.09 68.9369L112.568 69.1781L112.783 68.7531L112.305 68.512L112.38 68.3628L112.911 68.6307L113.17 68.1172L111.931 67.492L111.037 69.2628ZM113.314 70.4111L114.022 70.7684L114.147 70.5204C114.45 70.6761 115.039 70.8657 115.364 70.2231C115.688 69.5806 115.185 69.219 114.88 69.0684L114.978 68.8736L114.27 68.5163L114.172 68.7111C113.869 68.5555 113.28 68.3659 112.955 69.0084C112.631 69.651 113.134 70.0126 113.439 70.1632L113.314 70.4111ZM114.559 69.5285L114.604 69.5515C114.746 69.623 114.775 69.7611 114.708 69.8927C114.642 70.0243 114.514 70.0833 114.372 70.0118L114.327 69.9889L114.559 69.5285ZM113.76 69.703L113.715 69.6801C113.573 69.6086 113.544 69.4705 113.611 69.3389C113.677 69.2073 113.805 69.1483 113.947 69.2198L113.992 69.2427L113.76 69.703ZM115.113 71.3183L116.352 71.9435L116.611 71.43L116.08 71.1621L116.165 70.9925L116.644 71.2336L116.858 70.8087L116.38 70.5675L116.455 70.4183L116.986 70.6862L117.245 70.1728L116.006 69.5476L115.113 71.3183ZM116.618 72.0775L117.326 72.4348L117.665 71.7619L117.698 72.6223L118.512 73.0332L118.362 71.7895L119.388 71.2535L118.611 70.8618L117.898 71.3014L118.219 70.664L117.511 70.3068L116.618 72.0775ZM118.884 73.2207L119.593 73.578L120.227 72.3207L120.599 72.5083L120.858 71.9948L119.406 71.2624L119.147 71.7759L119.518 71.9635L118.884 73.2207ZM121.035 72.0841L120.141 73.8549L120.779 74.1764L121.703 73.5764L121.275 74.4265L121.948 74.7659L122.841 72.9951L122.203 72.6736L121.262 73.3063L121.707 72.4235L121.035 72.0841ZM123.159 73.1559L122.266 74.9266L123.313 75.4548C123.804 75.7024 124.069 75.4424 124.159 75.2627C124.281 75.0225 124.204 74.7648 123.996 74.6121L123.998 74.6071C124.167 74.638 124.392 74.5932 124.493 74.3934C124.562 74.2568 124.667 73.9164 124.159 73.6599L123.159 73.1559ZM123.528 74.186L123.653 73.9381L123.719 73.9713C123.843 74.0338 123.844 74.1136 123.813 74.1743C123.783 74.235 123.718 74.2817 123.594 74.2192L123.528 74.186ZM123.189 74.8588L123.323 74.5932L123.409 74.6366C123.477 74.671 123.58 74.7385 123.52 74.8575C123.457 74.9814 123.341 74.9353 123.275 74.9022L123.189 74.8588ZM124.141 75.8721L124.849 76.2294L125.176 75.5816L125.53 75.7603L125.203 76.408L125.911 76.7653L126.805 74.9946L126.096 74.6373L125.789 75.2468L125.435 75.0682L125.742 74.4586L125.034 74.1014L124.141 75.8721ZM127.123 75.1553L126.23 76.926L126.868 77.2476L127.792 76.6476L127.363 77.4976L128.036 77.837L128.929 76.0663L128.292 75.7448L127.351 76.3775L127.796 75.4947L127.123 75.1553ZM129.248 76.227L128.355 77.9978L128.992 78.3194L129.917 77.7193L129.488 78.5694L130.161 78.9088L131.054 77.1381L130.417 76.8166L129.476 77.4492L129.921 76.5665L129.248 76.227ZM130.219 76.6055C130.32 76.6566 130.683 76.83 130.946 76.4839L130.575 76.2964C130.475 76.462 130.354 76.407 130.326 76.393C130.298 76.3789 130.182 76.314 130.256 76.1356L129.884 75.948C129.762 76.3656 130.118 76.5546 130.219 76.6055ZM131.069 79.3668L131.777 79.7241L132.671 77.9534L131.962 77.5961L131.069 79.3668ZM132.096 79.8849L132.804 80.2422L133.131 79.5944L133.485 79.7731L133.159 80.4208L133.867 80.7781L134.76 79.0073L134.052 78.6501L133.744 79.2596L133.39 79.081L133.698 78.4714L132.989 78.1142L132.096 79.8849ZM135.91 80.9612C135.763 81.0013 135.591 81.0034 135.434 80.9242C135.211 80.8119 135.112 80.5999 135.225 80.3748C135.334 80.1597 135.548 80.049 135.811 80.1817C135.935 80.2443 136.068 80.3777 136.109 80.5667L136.422 79.9468C136.33 79.7768 136.148 79.6406 136.004 79.5679C135.553 79.3408 134.878 79.3713 134.554 80.0138C134.268 80.5804 134.49 81.159 135.067 81.4498C135.28 81.5571 135.457 81.5831 135.597 81.5811L135.91 80.9612ZM136.047 81.8779L136.756 82.2352L137.39 80.9779L137.762 81.1654L138.021 80.652L136.569 79.9196L136.31 80.4331L136.682 80.6206L136.047 81.8779ZM137.305 82.5121L138.013 82.8693L138.29 82.3203L138.505 82.4287C139.066 82.712 139.39 82.428 139.519 82.1725C139.647 81.9195 139.685 81.4915 139.121 81.207L138.198 80.7413L137.305 82.5121ZM138.674 81.5589L138.752 81.5985C138.81 81.6278 138.918 81.6915 138.847 81.8332C138.811 81.9041 138.742 81.9709 138.601 81.8996L138.522 81.86L138.674 81.5589ZM139.898 81.5987L140.005 83.2614L139.518 83.6285L140.262 84.0036L141.916 82.6169L141.183 82.2469L140.707 82.6861L140.73 82.0185L139.898 81.5987ZM141.041 84.3966L141.729 84.7437L142.274 83.8636L142.078 84.9197L142.609 85.1876L143.342 84.4021L142.958 85.3637L143.646 85.7108L144.292 83.815L143.512 83.422L142.728 84.2923L142.961 83.1439L142.182 82.7509L141.041 84.3966ZM143.841 85.809L145.08 86.4342L145.339 85.9207L144.808 85.6528L144.894 85.4831L145.372 85.7244L145.586 85.2994L145.108 85.0582L145.183 84.909L145.715 85.177L145.974 84.6635L144.734 84.0383L143.841 85.809ZM145.346 86.5682L146.054 86.9255L146.381 86.2777L146.735 86.4564L146.409 87.1042L147.117 87.4614L148.01 85.6907L147.302 85.3334L146.994 85.9429L146.64 85.7643L146.948 85.1548L146.239 84.7975L145.346 86.5682ZM147.666 87.7382L148.374 88.0955L149.008 86.8382L149.38 87.0258L149.639 86.5123L148.187 85.78L147.928 86.2934L148.3 86.481L147.666 87.7382ZM150.246 86.8186L150.353 88.4812L149.866 88.8483L150.61 89.2234L152.265 87.8367L151.531 87.4668L151.056 87.9059L151.078 87.2383L150.246 86.8186ZM151.513 89.6789L152.221 90.0361L152.561 89.3633L152.593 90.2238L153.408 90.6346L153.258 89.3909L154.283 88.8549L153.507 88.4633L152.793 88.9028L153.115 88.2654L152.406 87.9082L151.513 89.6789ZM153.55 90.7061L154.258 91.0633L154.535 90.5143L154.75 90.6227C155.311 90.9061 155.635 90.622 155.764 90.3665C155.892 90.1135 155.93 89.6855 155.366 89.401L154.443 88.9353L153.55 90.7061ZM154.919 89.7529L154.997 89.7925C155.055 89.8218 155.163 89.8855 155.091 90.0272C155.056 90.0981 154.987 90.1649 154.845 90.0936L154.767 90.054L154.919 89.7529ZM155.232 91.5545L155.958 91.9207L156.159 91.6983L156.604 91.9228L156.545 92.2168L157.271 92.583L157.534 90.4945L156.755 90.1015L155.232 91.5545ZM156.832 90.9177L156.729 91.4306L156.481 91.3055L156.832 90.9177ZM157.448 92.6723L158.156 93.0295L159.049 91.2588L158.341 90.9015L157.448 92.6723ZM158.474 90.8577C158.638 90.9406 158.759 90.865 158.802 90.779C158.846 90.6928 158.835 90.551 158.67 90.4681C158.506 90.3851 158.385 90.4606 158.342 90.5468C158.299 90.6328 158.31 90.7747 158.474 90.8577ZM159.005 91.1256C159.17 91.2086 159.29 91.1329 159.334 91.0469C159.377 90.9608 159.366 90.819 159.202 90.736C159.037 90.6531 158.917 90.7286 158.873 90.8147C158.83 90.9007 158.841 91.0427 159.005 91.1256ZM158.51 93.2082L159.218 93.5654L159.545 92.9177L159.899 93.0964L159.573 93.7441L160.281 94.1014L161.174 92.3306L160.466 91.9734L160.158 92.5829L159.804 92.4042L160.112 91.7947L159.403 91.4374L158.51 93.2082ZM162.324 94.2845C162.177 94.3246 162.004 94.3266 161.848 94.2475C161.625 94.1352 161.526 93.9232 161.639 93.6981C161.748 93.483 161.962 93.3723 162.225 93.505C162.349 93.5675 162.482 93.701 162.523 93.89L162.836 93.2701C162.744 93.1001 162.562 92.9639 162.418 92.8912C161.967 92.6641 161.292 92.6945 160.968 93.3371C160.682 93.9037 160.904 94.4822 161.481 94.7731C161.693 94.8803 161.871 94.9064 162.011 94.9044L162.324 94.2845ZM162.231 95.0851L163.147 95.5469C163.726 95.8392 163.998 95.5892 164.124 95.3388C164.249 95.0908 164.281 94.7197 163.692 94.4224L163.502 94.3267L163.833 93.6716L163.124 93.3143L162.231 95.0851ZM163.154 95.0172L163.288 94.7517L163.374 94.7951C163.439 94.8282 163.529 94.8893 163.469 95.0083C163.407 95.1322 163.303 95.0925 163.24 95.0606L163.154 95.0172ZM164.073 96.0139L164.781 96.3712L165.12 95.6983L165.153 96.5587L165.967 96.9697L165.817 95.7259L166.843 95.19L166.066 94.7982L165.353 95.2378L165.674 94.6004L164.966 94.2432L164.073 96.0139ZM167.028 97.5713C167.721 97.9208 168.285 97.6276 168.526 97.1495C168.767 96.6715 168.668 96.044 167.975 95.6944C167.282 95.3448 166.718 95.6379 166.477 96.116C166.236 96.5941 166.335 97.2216 167.028 97.5713ZM167.314 97.0048C167.134 96.9142 167.028 96.7047 167.153 96.4568C167.278 96.2088 167.51 96.1704 167.689 96.261C167.869 96.3516 167.976 96.561 167.851 96.809C167.726 97.0569 167.494 97.0954 167.314 97.0048ZM168.32 98.1562L169.028 98.5135L169.662 97.2562L170.193 97.5242L170.452 97.0107L169.213 96.3855L168.32 98.1562ZM170.673 99.4098C171.367 99.7595 171.93 99.4662 172.171 98.9881C172.412 98.51 172.313 97.8826 171.62 97.533C170.927 97.1834 170.363 97.4766 170.122 97.9547C169.881 98.4328 169.98 99.0602 170.673 99.4098ZM170.959 98.8434C170.78 98.7528 170.673 98.5433 170.798 98.2954C170.923 98.0474 171.155 98.009 171.334 98.0996C171.514 98.1902 171.621 98.3996 171.496 98.6475C171.371 98.8955 171.139 98.934 170.959 98.8434ZM172.554 100.292L173.505 100.772C174.08 101.062 174.354 100.813 174.48 100.562C174.604 100.317 174.633 99.9637 174.059 99.674L173.816 99.5515L173.897 99.3921L174.658 99.7762L174.917 99.2627L173.447 98.5214L172.554 100.292ZM173.477 100.224L173.611 99.9587L173.679 99.9932C173.748 100.028 173.85 100.095 173.79 100.214C173.727 100.338 173.611 100.292 173.545 100.259L173.477 100.224ZM174.429 101.238L175.137 101.595L176.03 99.8242L175.322 99.4668L174.429 101.238ZM176.182 100.554C176.317 100.546 176.503 100.573 176.637 100.641C176.806 100.726 176.81 100.807 176.778 100.871C176.724 100.977 176.626 100.946 176.502 100.884L176.241 100.752L176.018 101.195L176.296 101.335C176.455 101.416 176.482 101.483 176.442 101.561C176.387 101.67 176.268 101.655 176.167 101.603C176.033 101.536 175.916 101.366 175.863 101.237L175.403 101.507C175.612 101.835 175.763 101.977 176.082 102.138C176.532 102.365 176.958 102.301 177.12 101.979C177.272 101.678 177.067 101.455 176.991 101.385L176.995 101.377C177.198 101.409 177.41 101.323 177.505 101.133C177.648 100.85 177.476 100.487 176.995 100.244C176.737 100.114 176.458 100.046 176.185 100.045L176.182 100.554ZM177.102 102.586L177.811 102.943L178.137 102.296L178.492 102.474L178.165 103.122L178.873 103.479L179.766 101.709L179.058 101.351L178.751 101.961L178.396 101.782L178.704 101.173L177.996 100.816L177.102 102.586ZM179.192 103.64L180.431 104.265L180.69 103.752L180.159 103.484L180.245 103.314L180.723 103.555L180.937 103.13L180.459 102.889L180.534 102.74L181.066 103.008L181.324 102.495L180.085 101.869L179.192 103.64ZM182.421 104.422C182.274 104.462 182.102 104.464 181.945 104.385C181.722 104.272 181.623 104.06 181.737 103.835C181.845 103.62 182.06 103.51 182.323 103.642C182.447 103.705 182.579 103.838 182.62 104.027L182.933 103.407C182.841 103.237 182.659 103.101 182.515 103.028C182.065 102.801 181.389 102.832 181.065 103.474C180.779 104.041 181.002 104.62 181.578 104.91C181.791 105.018 181.968 105.044 182.109 105.042L182.421 104.422ZM183.062 103.371L183.169 105.034L182.683 105.401L183.426 105.776L185.081 104.389L184.347 104.019L183.872 104.459L183.895 103.791L183.062 103.371Z" fill="#666666"/>
</g>
<defs>
<clipPath id="clip0">
<rect width="207" height="185" fill="white"/>
</clipPath>
</defs>
</svg>
